<?xml version="1.0" encoding="UTF-8" standalone="no"?>
<!DOCTYPE svg PUBLIC "-//W3C//DTD SVG 1.1//EN"
 "http://www.w3.org/Graphics/SVG/1.1/DTD/svg11.dtd">
<!-- Generated by graphviz version 2.26.3 (20100126.1600)
 -->
<!-- Title: src.importData.CheckFile.CheckFile Pages: 1 -->
<svg width="138pt" height="302pt"
 viewBox="0.00 0.00 138.00 302.00" xmlns="http://www.w3.org/2000/svg" xmlns:xlink="http://www.w3.org/1999/xlink">
<g id="graph1" class="graph" transform="scale(1 1) rotate(0) translate(4 298)">
<title>src.importData.CheckFile.CheckFile</title>
<polygon fill="white" stroke="white" points="-4,5 -4,-298 135,-298 135,5 -4,5"/>
<!-- Node1 -->
<g id="node1" class="node"><title>Node1</title>
<polygon fill="#bfbfbf" stroke="black" points="-0.5,-0.5 -0.5,-193.5 130.5,-193.5 130.5,-0.5 -0.5,-0.5"/>
<text text-anchor="start" x="7.5" y="-180.5" font-family="Helvetica,sans-Serif" font-size="10.00">src.importData.CheckFile.</text>
<text text-anchor="middle" x="65" y="-167.5" font-family="Helvetica,sans-Serif" font-size="10.00">CheckFile</text>
<polyline fill="none" stroke="black" points="-0.5,-159.5 130.5,-159.5 "/>
<text text-anchor="start" x="7.5" y="-146.5" font-family="Helvetica,sans-Serif" font-size="10.00">&#45; _pathField</text>
<text text-anchor="start" x="7.5" y="-133.5" font-family="Helvetica,sans-Serif" font-size="10.00">&#45; _fieldList</text>
<polyline fill="none" stroke="black" points="-0.5,-125.5 130.5,-125.5 "/>
<text text-anchor="start" x="7.5" y="-112.5" font-family="Helvetica,sans-Serif" font-size="10.00">+ __init__()</text>
<text text-anchor="start" x="7.5" y="-99.5" font-family="Helvetica,sans-Serif" font-size="10.00">+ pathField()</text>
<text text-anchor="start" x="7.5" y="-86.5" font-family="Helvetica,sans-Serif" font-size="10.00">+ pathField()</text>
<text text-anchor="start" x="7.5" y="-73.5" font-family="Helvetica,sans-Serif" font-size="10.00">+ fieldList()</text>
<text text-anchor="start" x="7.5" y="-60.5" font-family="Helvetica,sans-Serif" font-size="10.00">+ fieldList()</text>
<text text-anchor="start" x="7.5" y="-47.5" font-family="Helvetica,sans-Serif" font-size="10.00">+ __str__()</text>
<text text-anchor="start" x="7.5" y="-34.5" font-family="Helvetica,sans-Serif" font-size="10.00">+ fileExists()</text>
<text text-anchor="start" x="7.5" y="-21.5" font-family="Helvetica,sans-Serif" font-size="10.00">+ isWellBuildCSV()</text>
<text text-anchor="start" x="7.5" y="-8.5" font-family="Helvetica,sans-Serif" font-size="10.00">+ isWellBuildRules()</text>
</g>
<!-- Node2 -->
<g id="node2" class="node"><title>Node2</title>
<polygon fill="white" stroke="#bfbfbf" points="43.5,-230.5 43.5,-293.5 86.5,-293.5 86.5,-230.5 43.5,-230.5"/>
<text text-anchor="middle" x="65" y="-280.5" font-family="Helvetica,sans-Serif" font-size="10.00">object</text>
<polyline fill="none" stroke="#bfbfbf" points="43.5,-272.5 86.5,-272.5 "/>
<text text-anchor="middle" x="65" y="-259.5" font-family="Helvetica,sans-Serif" font-size="10.00"> </text>
<polyline fill="none" stroke="#bfbfbf" points="43.5,-251.5 86.5,-251.5 "/>
<text text-anchor="middle" x="65" y="-238.5" font-family="Helvetica,sans-Serif" font-size="10.00"> </text>
</g>
<!-- Node2&#45;&gt;Node1 -->
<g id="edge2" class="edge"><title>Node2&#45;&gt;Node1</title>
<path fill="none" stroke="midnightblue" d="M65,-220.134C65,-211.862 65,-202.864 65,-193.623"/>
<polygon fill="none" stroke="midnightblue" points="61.5001,-220.186 65,-230.186 68.5001,-220.186 61.5001,-220.186"/>
</g>
</g>
</svg>
