<?xml version="1.0" encoding="UTF-8" standalone="no"?>
<!DOCTYPE svg PUBLIC "-//W3C//DTD SVG 1.1//EN"
 "http://www.w3.org/Graphics/SVG/1.1/DTD/svg11.dtd">
<!-- Generated by graphviz version 2.26.3 (20100126.1600)
 -->
<!-- Title: src.system.Phase.Phase Pages: 1 -->
<svg width="134pt" height="380pt"
 viewBox="0.00 0.00 134.00 380.00" xmlns="http://www.w3.org/2000/svg" xmlns:xlink="http://www.w3.org/1999/xlink">
<g id="graph1" class="graph" transform="scale(1 1) rotate(0) translate(4 376)">
<title>src.system.Phase.Phase</title>
<polygon fill="white" stroke="white" points="-4,5 -4,-376 131,-376 131,5 -4,5"/>
<!-- Node1 -->
<g id="node1" class="node"><title>Node1</title>
<polygon fill="#bfbfbf" stroke="black" points="-0.5,-0.5 -0.5,-271.5 126.5,-271.5 126.5,-0.5 -0.5,-0.5"/>
<text text-anchor="middle" x="63" y="-258.5" font-family="Helvetica,sans-Serif" font-size="10.00">src.system.Phase.Phase</text>
<polyline fill="none" stroke="black" points="-0.5,-250.5 126.5,-250.5 "/>
<text text-anchor="start" x="7.5" y="-237.5" font-family="Helvetica,sans-Serif" font-size="10.00">&#45; _num</text>
<text text-anchor="start" x="7.5" y="-224.5" font-family="Helvetica,sans-Serif" font-size="10.00">&#45; _numSite</text>
<text text-anchor="start" x="7.5" y="-211.5" font-family="Helvetica,sans-Serif" font-size="10.00">&#45; _numWeek</text>
<text text-anchor="start" x="7.5" y="-198.5" font-family="Helvetica,sans-Serif" font-size="10.00">&#45; _numYear</text>
<text text-anchor="start" x="7.5" y="-185.5" font-family="Helvetica,sans-Serif" font-size="10.00">&#45; _nbWorkers</text>
<text text-anchor="start" x="7.5" y="-172.5" font-family="Helvetica,sans-Serif" font-size="10.00">&#45; _needs</text>
<text text-anchor="start" x="7.5" y="-159.5" font-family="Helvetica,sans-Serif" font-size="10.00">&#45; _totalWorkers</text>
<polyline fill="none" stroke="black" points="-0.5,-151.5 126.5,-151.5 "/>
<text text-anchor="start" x="7.5" y="-138.5" font-family="Helvetica,sans-Serif" font-size="10.00">+ __init__()</text>
<text text-anchor="start" x="7.5" y="-125.5" font-family="Helvetica,sans-Serif" font-size="10.00">+ num()</text>
<text text-anchor="start" x="7.5" y="-112.5" font-family="Helvetica,sans-Serif" font-size="10.00">+ num()</text>
<text text-anchor="start" x="7.5" y="-99.5" font-family="Helvetica,sans-Serif" font-size="10.00">+ numSite()</text>
<text text-anchor="start" x="7.5" y="-86.5" font-family="Helvetica,sans-Serif" font-size="10.00">+ numSite()</text>
<text text-anchor="start" x="7.5" y="-73.5" font-family="Helvetica,sans-Serif" font-size="10.00">+ numWeek()</text>
<text text-anchor="start" x="7.5" y="-60.5" font-family="Helvetica,sans-Serif" font-size="10.00">+ numWeek()</text>
<text text-anchor="start" x="7.5" y="-47.5" font-family="Helvetica,sans-Serif" font-size="10.00">+ numYear()</text>
<text text-anchor="start" x="7.5" y="-34.5" font-family="Helvetica,sans-Serif" font-size="10.00">+ numYear()</text>
<text text-anchor="start" x="7.5" y="-21.5" font-family="Helvetica,sans-Serif" font-size="10.00">+ needs()</text>
<text text-anchor="start" x="7.5" y="-8.5" font-family="Helvetica,sans-Serif" font-size="10.00">and 8 more...</text>
</g>
<!-- Node2 -->
<g id="node2" class="node"><title>Node2</title>
<polygon fill="white" stroke="#bfbfbf" points="41.5,-308.5 41.5,-371.5 84.5,-371.5 84.5,-308.5 41.5,-308.5"/>
<text text-anchor="middle" x="63" y="-358.5" font-family="Helvetica,sans-Serif" font-size="10.00">object</text>
<polyline fill="none" stroke="#bfbfbf" points="41.5,-350.5 84.5,-350.5 "/>
<text text-anchor="middle" x="63" y="-337.5" font-family="Helvetica,sans-Serif" font-size="10.00"> </text>
<polyline fill="none" stroke="#bfbfbf" points="41.5,-329.5 84.5,-329.5 "/>
<text text-anchor="middle" x="63" y="-316.5" font-family="Helvetica,sans-Serif" font-size="10.00"> </text>
</g>
<!-- Node2&#45;&gt;Node1 -->
<g id="edge2" class="edge"><title>Node2&#45;&gt;Node1</title>
<path fill="none" stroke="midnightblue" d="M63,-297.988C63,-289.913 63,-281.06 63,-271.787"/>
<polygon fill="none" stroke="midnightblue" points="59.5001,-298.125 63,-308.125 66.5001,-298.125 59.5001,-298.125"/>
</g>
</g>
</svg>
