<?xml version="1.0" encoding="UTF-8" standalone="no"?>
<!DOCTYPE svg PUBLIC "-//W3C//DTD SVG 1.1//EN"
 "http://www.w3.org/Graphics/SVG/1.1/DTD/svg11.dtd">
<!-- Generated by graphviz version 2.34.0 (20130907.0111)
 -->
<!-- Title: src.system.BuildSite.BuildSite.__str__ Pages: 1 -->
<svg width="386pt" height="224pt"
 viewBox="0.00 0.00 386.00 224.00" xmlns="http://www.w3.org/2000/svg" xmlns:xlink="http://www.w3.org/1999/xlink">
<g id="graph0" class="graph" transform="scale(1 1) rotate(0) translate(4 220)">
<title>src.system.BuildSite.BuildSite.__str__</title>
<polygon fill="white" stroke="white" points="-4,4 -4,-220 382,-220 382,4 -4,4"/>
<!-- Node1 -->
<g id="node1" class="node"><title>Node1</title>
<polygon fill="#bfbfbf" stroke="black" points="0,-98 0,-128 132,-128 132,-98 0,-98"/>
<text text-anchor="start" x="8" y="-116" font-family="Helvetica,sans-Serif" font-size="10.00">src.system.BuildSite.Build</text>
<text text-anchor="middle" x="66" y="-105" font-family="Helvetica,sans-Serif" font-size="10.00">Site.__str__</text>
</g>
<!-- Node2 -->
<g id="node2" class="node"><title>Node2</title>
<g id="a_node2"><a xlink:href="classsrc_1_1system_1_1_build_site_1_1_build_site.html#a89f5763416278311a0f904f46b905e77" target="_top" xlink:title="src.system.BuildSite.Build\lSite.nom">
<polygon fill="white" stroke="black" points="207,-186 207,-216 339,-216 339,-186 207,-186"/>
<text text-anchor="start" x="215" y="-204" font-family="Helvetica,sans-Serif" font-size="10.00">src.system.BuildSite.Build</text>
<text text-anchor="middle" x="273" y="-193" font-family="Helvetica,sans-Serif" font-size="10.00">Site.nom</text>
</a>
</g>
</g>
<!-- Node1&#45;&gt;Node2 -->
<g id="edge1" class="edge"><title>Node1&#45;&gt;Node2</title>
<path fill="none" stroke="midnightblue" d="M86.8313,-128.081C106.47,-142.34 137.884,-163.38 168,-176 177.184,-179.849 187.084,-183.182 196.997,-186.047"/>
<polygon fill="midnightblue" stroke="midnightblue" points="196.319,-189.49 206.888,-188.757 198.169,-182.739 196.319,-189.49"/>
</g>
<!-- Node3 -->
<g id="node3" class="node"><title>Node3</title>
<g id="a_node3"><a xlink:href="classsrc_1_1system_1_1_assignment_1_1_assignment.html#adfdcbb9c60c4e1f3516a5f8827883f1c" target="_top" xlink:title="src.system.Assignment.Assignment.dateInit">
<polygon fill="white" stroke="black" points="168.5,-147.5 168.5,-166.5 377.5,-166.5 377.5,-147.5 168.5,-147.5"/>
<text text-anchor="middle" x="273" y="-154.5" font-family="Helvetica,sans-Serif" font-size="10.00">src.system.Assignment.Assignment.dateInit</text>
</a>
</g>
</g>
<!-- Node1&#45;&gt;Node3 -->
<g id="edge2" class="edge"><title>Node1&#45;&gt;Node3</title>
<path fill="none" stroke="midnightblue" d="M128.326,-128.021C141.397,-131.097 155.137,-134.236 168,-137 181.597,-139.922 196.239,-142.863 210.121,-145.557"/>
<polygon fill="midnightblue" stroke="midnightblue" points="209.587,-149.018 220.069,-147.471 210.91,-142.144 209.587,-149.018"/>
</g>
<!-- Node4 -->
<g id="node4" class="node"><title>Node4</title>
<g id="a_node4"><a xlink:href="classsrc_1_1system_1_1_build_site_1_1_build_site.html#aa77b4dd663a797b07234f1fc1907e067" target="_top" xlink:title="src.system.BuildSite.Build\lSite.dateInit">
<polygon fill="white" stroke="black" points="207,-98 207,-128 339,-128 339,-98 207,-98"/>
<text text-anchor="start" x="215" y="-116" font-family="Helvetica,sans-Serif" font-size="10.00">src.system.BuildSite.Build</text>
<text text-anchor="middle" x="273" y="-105" font-family="Helvetica,sans-Serif" font-size="10.00">Site.dateInit</text>
</a>
</g>
</g>
<!-- Node1&#45;&gt;Node4 -->
<g id="edge3" class="edge"><title>Node1&#45;&gt;Node4</title>
<path fill="none" stroke="midnightblue" d="M132.145,-113C152.598,-113 175.35,-113 196.459,-113"/>
<polygon fill="midnightblue" stroke="midnightblue" points="196.673,-116.5 206.673,-113 196.673,-109.5 196.673,-116.5"/>
</g>
<!-- Node5 -->
<g id="node5" class="node"><title>Node5</title>
<g id="a_node5"><a xlink:href="classsrc_1_1system_1_1_build_site_1_1_build_site.html#a69da5354b19faad99f317b91ab6b0a3f" target="_top" xlink:title="src.system.BuildSite.Build\lSite.dateFin">
<polygon fill="white" stroke="black" points="207,-49 207,-79 339,-79 339,-49 207,-49"/>
<text text-anchor="start" x="215" y="-67" font-family="Helvetica,sans-Serif" font-size="10.00">src.system.BuildSite.Build</text>
<text text-anchor="middle" x="273" y="-56" font-family="Helvetica,sans-Serif" font-size="10.00">Site.dateFin</text>
</a>
</g>
</g>
<!-- Node1&#45;&gt;Node5 -->
<g id="edge4" class="edge"><title>Node1&#45;&gt;Node5</title>
<path fill="none" stroke="midnightblue" d="M129.9,-97.9654C151.84,-92.7211 176.641,-86.7931 199.311,-81.3745"/>
<polygon fill="midnightblue" stroke="midnightblue" points="200.307,-84.7351 209.219,-79.0062 198.679,-77.9269 200.307,-84.7351"/>
</g>
<!-- Node6 -->
<g id="node6" class="node"><title>Node6</title>
<g id="a_node6"><a xlink:href="classsrc_1_1system_1_1_build_site_1_1_build_site.html#a58092f754bf3125e99f234aa8f5703f6" target="_top" xlink:title="src.system.BuildSite.Build\lSite.position">
<polygon fill="white" stroke="black" points="207,-0 207,-30 339,-30 339,-0 207,-0"/>
<text text-anchor="start" x="215" y="-18" font-family="Helvetica,sans-Serif" font-size="10.00">src.system.BuildSite.Build</text>
<text text-anchor="middle" x="273" y="-7" font-family="Helvetica,sans-Serif" font-size="10.00">Site.position</text>
</a>
</g>
</g>
<!-- Node1&#45;&gt;Node6 -->
<g id="edge5" class="edge"><title>Node1&#45;&gt;Node6</title>
<path fill="none" stroke="midnightblue" d="M83.5728,-97.8384C102.588,-81.2416 135.368,-55.0004 168,-40 177.111,-35.8117 187.006,-32.278 196.949,-29.3091"/>
<polygon fill="midnightblue" stroke="midnightblue" points="198.196,-32.5945 206.88,-26.5251 196.306,-25.8543 198.196,-32.5945"/>
</g>
</g>
</svg>
