<?xml version="1.0" encoding="UTF-8" standalone="no"?>
<!DOCTYPE svg PUBLIC "-//W3C//DTD SVG 1.1//EN"
 "http://www.w3.org/Graphics/SVG/1.1/DTD/svg11.dtd">
<!-- Generated by graphviz version 2.26.3 (20100126.1600)
 -->
<!-- Title: src.system.System.System Pages: 1 -->
<svg width="152pt" height="380pt"
 viewBox="0.00 0.00 152.00 380.00" xmlns="http://www.w3.org/2000/svg" xmlns:xlink="http://www.w3.org/1999/xlink">
<g id="graph1" class="graph" transform="scale(1 1) rotate(0) translate(4 376)">
<title>src.system.System.System</title>
<polygon fill="white" stroke="white" points="-4,5 -4,-376 149,-376 149,5 -4,5"/>
<!-- Node1 -->
<g id="node1" class="node"><title>Node1</title>
<polygon fill="#bfbfbf" stroke="black" points="-0.5,-0.5 -0.5,-271.5 144.5,-271.5 144.5,-0.5 -0.5,-0.5"/>
<text text-anchor="middle" x="72" y="-258.5" font-family="Helvetica,sans-Serif" font-size="10.00">src.system.System.System</text>
<polyline fill="none" stroke="black" points="-0.5,-250.5 144.5,-250.5 "/>
<text text-anchor="start" x="7.5" y="-237.5" font-family="Helvetica,sans-Serif" font-size="10.00">&#45; _sites</text>
<text text-anchor="start" x="7.5" y="-224.5" font-family="Helvetica,sans-Serif" font-size="10.00">&#45; _workers</text>
<text text-anchor="start" x="7.5" y="-211.5" font-family="Helvetica,sans-Serif" font-size="10.00">&#45; _phases</text>
<text text-anchor="start" x="7.5" y="-198.5" font-family="Helvetica,sans-Serif" font-size="10.00">&#45; _workerSorted</text>
<polyline fill="none" stroke="black" points="-0.5,-190.5 144.5,-190.5 "/>
<text text-anchor="start" x="7.5" y="-177.5" font-family="Helvetica,sans-Serif" font-size="10.00">+ __init__()</text>
<text text-anchor="start" x="7.5" y="-164.5" font-family="Helvetica,sans-Serif" font-size="10.00">+ workers()</text>
<text text-anchor="start" x="7.5" y="-151.5" font-family="Helvetica,sans-Serif" font-size="10.00">+ workers()</text>
<text text-anchor="start" x="7.5" y="-138.5" font-family="Helvetica,sans-Serif" font-size="10.00">+ sites()</text>
<text text-anchor="start" x="7.5" y="-125.5" font-family="Helvetica,sans-Serif" font-size="10.00">+ sites()</text>
<text text-anchor="start" x="7.5" y="-112.5" font-family="Helvetica,sans-Serif" font-size="10.00">+ phases()</text>
<text text-anchor="start" x="7.5" y="-99.5" font-family="Helvetica,sans-Serif" font-size="10.00">+ phases()</text>
<text text-anchor="start" x="7.5" y="-86.5" font-family="Helvetica,sans-Serif" font-size="10.00">+ workerSorted()</text>
<text text-anchor="start" x="7.5" y="-73.5" font-family="Helvetica,sans-Serif" font-size="10.00">+ workerSorted()</text>
<text text-anchor="start" x="7.5" y="-60.5" font-family="Helvetica,sans-Serif" font-size="10.00">+ getWorkerById()</text>
<text text-anchor="start" x="7.5" y="-47.5" font-family="Helvetica,sans-Serif" font-size="10.00">+ getSiteById()</text>
<text text-anchor="start" x="7.5" y="-34.5" font-family="Helvetica,sans-Serif" font-size="10.00">+ getPhasesBySite()</text>
<text text-anchor="start" x="7.5" y="-21.5" font-family="Helvetica,sans-Serif" font-size="10.00">+ getPhaseBySiteAndWeek()</text>
<text text-anchor="start" x="7.5" y="-8.5" font-family="Helvetica,sans-Serif" font-size="10.00">+ allPhasesSorted()</text>
</g>
<!-- Node2 -->
<g id="node2" class="node"><title>Node2</title>
<polygon fill="white" stroke="#bfbfbf" points="50.5,-308.5 50.5,-371.5 93.5,-371.5 93.5,-308.5 50.5,-308.5"/>
<text text-anchor="middle" x="72" y="-358.5" font-family="Helvetica,sans-Serif" font-size="10.00">object</text>
<polyline fill="none" stroke="#bfbfbf" points="50.5,-350.5 93.5,-350.5 "/>
<text text-anchor="middle" x="72" y="-337.5" font-family="Helvetica,sans-Serif" font-size="10.00"> </text>
<polyline fill="none" stroke="#bfbfbf" points="50.5,-329.5 93.5,-329.5 "/>
<text text-anchor="middle" x="72" y="-316.5" font-family="Helvetica,sans-Serif" font-size="10.00"> </text>
</g>
<!-- Node2&#45;&gt;Node1 -->
<g id="edge2" class="edge"><title>Node2&#45;&gt;Node1</title>
<path fill="none" stroke="midnightblue" d="M72,-297.988C72,-289.913 72,-281.06 72,-271.787"/>
<polygon fill="none" stroke="midnightblue" points="68.5001,-298.125 72,-308.125 75.5001,-298.125 68.5001,-298.125"/>
</g>
</g>
</svg>
