<?xml version="1.0" encoding="UTF-8" standalone="no"?>
<!DOCTYPE svg PUBLIC "-//W3C//DTD SVG 1.1//EN"
 "http://www.w3.org/Graphics/SVG/1.1/DTD/svg11.dtd">
<!-- Generated by graphviz version 2.34.0 (20130907.0111)
 -->
<!-- Title: src.interfacebdd.AbstractDAO.AbstractDAO._buildObject Pages: 1 -->
<svg width="370pt" height="185pt"
 viewBox="0.00 0.00 370.00 185.00" xmlns="http://www.w3.org/2000/svg" xmlns:xlink="http://www.w3.org/1999/xlink">
<g id="graph0" class="graph" transform="scale(1 1) rotate(0) translate(4 181)">
<title>src.interfacebdd.AbstractDAO.AbstractDAO._buildObject</title>
<polygon fill="white" stroke="white" points="-4,4 -4,-181 366,-181 366,4 -4,4"/>
<!-- Node1 -->
<g id="node1" class="node"><title>Node1</title>
<polygon fill="#bfbfbf" stroke="black" points="0.5,-73 0.5,-103 155.5,-103 155.5,-73 0.5,-73"/>
<text text-anchor="start" x="8.5" y="-91" font-family="Helvetica,sans-Serif" font-size="10.00">src.interfacebdd.Abstract</text>
<text text-anchor="middle" x="78" y="-80" font-family="Helvetica,sans-Serif" font-size="10.00">DAO.AbstractDAO._buildObject</text>
</g>
<!-- Node2 -->
<g id="node2" class="node"><title>Node2</title>
<g id="a_node2"><a xlink:href="classsrc_1_1interfacebdd_1_1_abstract_d_a_o_1_1_abstract_d_a_o.html#a2707194214f02748f165f6ec7c8c7012" target="_top" xlink:title="src.interfacebdd.Abstract\lDAO.AbstractDAO._createElement">
<polygon fill="white" stroke="black" points="192,-147 192,-177 362,-177 362,-147 192,-147"/>
<text text-anchor="start" x="200" y="-165" font-family="Helvetica,sans-Serif" font-size="10.00">src.interfacebdd.Abstract</text>
<text text-anchor="middle" x="277" y="-154" font-family="Helvetica,sans-Serif" font-size="10.00">DAO.AbstractDAO._createElement</text>
</a>
</g>
</g>
<!-- Node1&#45;&gt;Node2 -->
<g id="edge1" class="edge"><title>Node1&#45;&gt;Node2</title>
<path fill="none" stroke="midnightblue" d="M111.219,-103.199C133.602,-113.453 164.272,-126.903 192,-137 198.436,-139.344 205.206,-141.636 211.993,-143.823"/>
<polygon fill="midnightblue" stroke="midnightblue" points="211.323,-147.281 221.913,-146.945 213.425,-140.604 211.323,-147.281"/>
</g>
<!-- Node3 -->
<g id="node3" class="node"><title>Node3</title>
<g id="a_node3"><a xlink:href="classsrc_1_1interfacebdd_1_1_assignment_d_a_o_1_1_assignment_d_a_o.html#ac03a5a1dfb778d1ddddbb2c0cc725b63" target="_top" xlink:title="src.interfacebdd.Assignment\lDAO.AssignmentDAO.dicoAttr">
<polygon fill="white" stroke="black" points="202,-98 202,-128 352,-128 352,-98 202,-98"/>
<text text-anchor="start" x="210" y="-116" font-family="Helvetica,sans-Serif" font-size="10.00">src.interfacebdd.Assignment</text>
<text text-anchor="middle" x="277" y="-105" font-family="Helvetica,sans-Serif" font-size="10.00">DAO.AssignmentDAO.dicoAttr</text>
</a>
</g>
</g>
<!-- Node1&#45;&gt;Node3 -->
<g id="edge2" class="edge"><title>Node1&#45;&gt;Node3</title>
<path fill="none" stroke="midnightblue" d="M155.729,-97.7372C167.546,-99.2368 179.802,-100.792 191.771,-102.311"/>
<polygon fill="midnightblue" stroke="midnightblue" points="191.381,-105.79 201.742,-103.576 192.262,-98.8452 191.381,-105.79"/>
</g>
<!-- Node4 -->
<g id="node4" class="node"><title>Node4</title>
<g id="a_node4"><a xlink:href="classsrc_1_1interfacebdd_1_1_site_d_a_o_1_1_site_d_a_o.html#a09dae1f2433aa953659fb1edc92918e9" target="_top" xlink:title="src.interfacebdd.SiteDAO.\lSiteDAO.dicoAttr">
<polygon fill="white" stroke="black" points="212,-49 212,-79 342,-79 342,-49 212,-49"/>
<text text-anchor="start" x="220" y="-67" font-family="Helvetica,sans-Serif" font-size="10.00">src.interfacebdd.SiteDAO.</text>
<text text-anchor="middle" x="277" y="-56" font-family="Helvetica,sans-Serif" font-size="10.00">SiteDAO.dicoAttr</text>
</a>
</g>
</g>
<!-- Node1&#45;&gt;Node4 -->
<g id="edge3" class="edge"><title>Node1&#45;&gt;Node4</title>
<path fill="none" stroke="midnightblue" d="M155.729,-78.6523C170.827,-76.8129 186.644,-74.886 201.661,-73.0565"/>
<polygon fill="midnightblue" stroke="midnightblue" points="202.409,-76.4914 211.912,-71.8077 201.562,-69.5428 202.409,-76.4914"/>
</g>
<!-- Node5 -->
<g id="node5" class="node"><title>Node5</title>
<g id="a_node5"><a xlink:href="classsrc_1_1interfacebdd_1_1_worker_d_a_o_1_1_worker_d_a_o.html#ab22556b8a48d47c9de437f6f584e1e76" target="_top" xlink:title="src.interfacebdd.WorkerDAO.\lWorkerDAO.dicoAttr">
<polygon fill="white" stroke="black" points="205,-0 205,-30 349,-30 349,-0 205,-0"/>
<text text-anchor="start" x="213" y="-18" font-family="Helvetica,sans-Serif" font-size="10.00">src.interfacebdd.WorkerDAO.</text>
<text text-anchor="middle" x="277" y="-7" font-family="Helvetica,sans-Serif" font-size="10.00">WorkerDAO.dicoAttr</text>
</a>
</g>
</g>
<!-- Node1&#45;&gt;Node5 -->
<g id="edge4" class="edge"><title>Node1&#45;&gt;Node5</title>
<path fill="none" stroke="midnightblue" d="M111.74,-72.9374C134.094,-62.9403 164.524,-49.8888 192,-40 198.445,-37.6805 205.22,-35.4037 212.011,-33.2263"/>
<polygon fill="midnightblue" stroke="midnightblue" points="213.44,-36.4463 221.934,-30.114 211.345,-29.7671 213.44,-36.4463"/>
</g>
</g>
</svg>
