<?xml version="1.0" encoding="UTF-8" standalone="no"?>
<!DOCTYPE svg PUBLIC "-//W3C//DTD SVG 1.1//EN"
 "http://www.w3.org/Graphics/SVG/1.1/DTD/svg11.dtd">
<!-- Generated by graphviz version 2.34.0 (20130907.0111)
 -->
<!-- Title: src.system.BuildSite.BuildSite.nom Pages: 1 -->
<svg width="308pt" height="87pt"
 viewBox="0.00 0.00 308.00 87.00" xmlns="http://www.w3.org/2000/svg" xmlns:xlink="http://www.w3.org/1999/xlink">
<g id="graph0" class="graph" transform="scale(1 1) rotate(0) translate(4 83)">
<title>src.system.BuildSite.BuildSite.nom</title>
<polygon fill="white" stroke="white" points="-4,4 -4,-83 304,-83 304,4 -4,4"/>
<!-- Node1 -->
<g id="node1" class="node"><title>Node1</title>
<polygon fill="#bfbfbf" stroke="black" points="0,-24 0,-54 132,-54 132,-24 0,-24"/>
<text text-anchor="start" x="8" y="-42" font-family="Helvetica,sans-Serif" font-size="10.00">src.system.BuildSite.Build</text>
<text text-anchor="middle" x="66" y="-31" font-family="Helvetica,sans-Serif" font-size="10.00">Site.nom</text>
</g>
<!-- Node1&#45;&gt;Node1 -->
<g id="edge1" class="edge"><title>Node1&#45;&gt;Node1</title>
<path fill="none" stroke="midnightblue" d="M36.5937,-64.5975C40.612,-68.9704 50.4141,-72 66,-72 92.25,-72 102.094,-63.4063 95.5313,-54.2754"/>
<polygon fill="midnightblue" stroke="midnightblue" points="40.0896,-64.2323 36.4688,-54.2754 33.0902,-64.3171 40.0896,-64.2323"/>
</g>
<!-- Node2 -->
<g id="node2" class="node"><title>Node2</title>
<g id="a_node2"><a xlink:href="classsrc_1_1system_1_1_build_site_1_1_build_site.html#a71da788ea8cf77fb9f1d866520777d44" target="_top" xlink:title="src.system.BuildSite.Build\lSite.__str__">
<polygon fill="white" stroke="black" points="168,-49 168,-79 300,-79 300,-49 168,-49"/>
<text text-anchor="start" x="176" y="-67" font-family="Helvetica,sans-Serif" font-size="10.00">src.system.BuildSite.Build</text>
<text text-anchor="middle" x="234" y="-56" font-family="Helvetica,sans-Serif" font-size="10.00">Site.__str__</text>
</a>
</g>
</g>
<!-- Node1&#45;&gt;Node2 -->
<g id="edge2" class="edge"><title>Node1&#45;&gt;Node2</title>
<path fill="none" stroke="midnightblue" d="M142.114,-50.3123C150.681,-51.6025 159.361,-52.9097 167.784,-54.1783"/>
<polygon fill="midnightblue" stroke="midnightblue" points="142.541,-46.8373 132.131,-48.8089 141.498,-53.7592 142.541,-46.8373"/>
</g>
<!-- Node3 -->
<g id="node3" class="node"><title>Node3</title>
<g id="a_node3"><a xlink:href="classsrc_1_1system_1_1_build_site_1_1_build_site.html#a43e3713197f2a589f4674d19b8df67c0" target="_top" xlink:title="serialise un chantier pour pouvoir le transmettre facilement ">
<polygon fill="white" stroke="black" points="168,-0 168,-30 300,-30 300,-0 168,-0"/>
<text text-anchor="start" x="176" y="-18" font-family="Helvetica,sans-Serif" font-size="10.00">src.system.BuildSite.Build</text>
<text text-anchor="middle" x="234" y="-7" font-family="Helvetica,sans-Serif" font-size="10.00">Site.serial</text>
</a>
</g>
</g>
<!-- Node1&#45;&gt;Node3 -->
<g id="edge3" class="edge"><title>Node1&#45;&gt;Node3</title>
<path fill="none" stroke="midnightblue" d="M142.114,-28.1402C150.681,-26.9016 159.361,-25.6466 167.784,-24.4288"/>
<polygon fill="midnightblue" stroke="midnightblue" points="141.527,-24.6885 132.131,-29.5834 142.529,-31.6164 141.527,-24.6885"/>
</g>
</g>
</svg>
