<?xml version="1.0" encoding="UTF-8" standalone="no"?>
<!DOCTYPE svg PUBLIC "-//W3C//DTD SVG 1.1//EN"
 "http://www.w3.org/Graphics/SVG/1.1/DTD/svg11.dtd">
<!-- Generated by graphviz version 2.34.0 (20130907.0111)
 -->
<!-- Title: src.system.Site.Site.dateInit Pages: 1 -->
<svg width="294pt" height="51pt"
 viewBox="0.00 0.00 294.00 51.00" xmlns="http://www.w3.org/2000/svg" xmlns:xlink="http://www.w3.org/1999/xlink">
<g id="graph0" class="graph" transform="scale(1 1) rotate(0) translate(4 47)">
<title>src.system.Site.Site.dateInit</title>
<polygon fill="white" stroke="white" points="-4,4 -4,-47 290,-47 290,4 -4,4"/>
<!-- Node1 -->
<g id="node1" class="node"><title>Node1</title>
<polygon fill="#bfbfbf" stroke="black" points="0,-5.5 0,-24.5 140,-24.5 140,-5.5 0,-5.5"/>
<text text-anchor="middle" x="70" y="-12.5" font-family="Helvetica,sans-Serif" font-size="10.00">src.system.Site.Site.dateInit</text>
</g>
<!-- Node1&#45;&gt;Node1 -->
<g id="edge1" class="edge"><title>Node1&#45;&gt;Node1</title>
<path fill="none" stroke="midnightblue" d="M40.0599,-33.2746C40.9135,-38.741 50.8936,-43 70,-43 98.4375,-43 106.658,-33.5653 94.6606,-24.7571"/>
<polygon fill="midnightblue" stroke="midnightblue" points="43.0458,-35.1007 45.3394,-24.7571 37.096,-31.4128 43.0458,-35.1007"/>
</g>
<!-- Node2 -->
<g id="node2" class="node"><title>Node2</title>
<g id="a_node2"><a xlink:href="classsrc_1_1system_1_1_site_1_1_site.html#a0128613c7f484d73fca2df00365427be" target="_top" xlink:title="src.system.Site.Site.\l__str__">
<polygon fill="white" stroke="black" points="176.5,-0 176.5,-30 285.5,-30 285.5,-0 176.5,-0"/>
<text text-anchor="start" x="184.5" y="-18" font-family="Helvetica,sans-Serif" font-size="10.00">src.system.Site.Site.</text>
<text text-anchor="middle" x="231" y="-7" font-family="Helvetica,sans-Serif" font-size="10.00">__str__</text>
</a>
</g>
</g>
<!-- Node1&#45;&gt;Node2 -->
<g id="edge2" class="edge"><title>Node1&#45;&gt;Node2</title>
<path fill="none" stroke="midnightblue" d="M150.495,-15C159.221,-15 167.947,-15 176.253,-15"/>
<polygon fill="midnightblue" stroke="midnightblue" points="150.277,-11.5001 140.277,-15 150.277,-18.5001 150.277,-11.5001"/>
</g>
</g>
</svg>
