<?xml version="1.0" encoding="UTF-8" standalone="no"?>
<!DOCTYPE svg PUBLIC "-//W3C//DTD SVG 1.1//EN"
 "http://www.w3.org/Graphics/SVG/1.1/DTD/svg11.dtd">
<!-- Generated by graphviz version 2.26.3 (20100126.1600)
 -->
<!-- Title: src.optimisation.pythondeap.algo Pages: 1 -->
<svg width="198pt" height="458pt"
 viewBox="0.00 0.00 198.00 458.00" xmlns="http://www.w3.org/2000/svg" xmlns:xlink="http://www.w3.org/1999/xlink">
<g id="graph1" class="graph" transform="scale(1 1) rotate(0) translate(4 454)">
<title>src.optimisation.pythondeap.algo</title>
<polygon fill="white" stroke="white" points="-4,5 -4,-454 195,-454 195,5 -4,5"/>
<!-- Node1 -->
<g id="node1" class="node"><title>Node1</title>
<polygon fill="#bfbfbf" stroke="black" points="-0.5,-0.5 -0.5,-349.5 190.5,-349.5 190.5,-0.5 -0.5,-0.5"/>
<text text-anchor="middle" x="95" y="-336.5" font-family="Helvetica,sans-Serif" font-size="10.00">src.optimisation.pythondeap.algo</text>
<polyline fill="none" stroke="black" points="-0.5,-328.5 190.5,-328.5 "/>
<text text-anchor="start" x="7.5" y="-315.5" font-family="Helvetica,sans-Serif" font-size="10.00">+ system</text>
<text text-anchor="start" x="7.5" y="-302.5" font-family="Helvetica,sans-Serif" font-size="10.00">+ weights</text>
<text text-anchor="start" x="7.5" y="-289.5" font-family="Helvetica,sans-Serif" font-size="10.00">+ cxpb</text>
<text text-anchor="start" x="7.5" y="-276.5" font-family="Helvetica,sans-Serif" font-size="10.00">+ mutpb</text>
<text text-anchor="start" x="7.5" y="-263.5" font-family="Helvetica,sans-Serif" font-size="10.00">+ mu</text>
<text text-anchor="start" x="7.5" y="-250.5" font-family="Helvetica,sans-Serif" font-size="10.00">+ lambda_</text>
<text text-anchor="start" x="7.5" y="-237.5" font-family="Helvetica,sans-Serif" font-size="10.00">+ ngen</text>
<text text-anchor="start" x="7.5" y="-224.5" font-family="Helvetica,sans-Serif" font-size="10.00">+ randpb</text>
<text text-anchor="start" x="7.5" y="-211.5" font-family="Helvetica,sans-Serif" font-size="10.00">+ distanceMax</text>
<text text-anchor="start" x="7.5" y="-198.5" font-family="Helvetica,sans-Serif" font-size="10.00">+ distanceMaxPassenger</text>
<text text-anchor="start" x="7.5" y="-185.5" font-family="Helvetica,sans-Serif" font-size="10.00">+ must</text>
<text text-anchor="start" x="7.5" y="-172.5" font-family="Helvetica,sans-Serif" font-size="10.00">+ issue</text>
<text text-anchor="start" x="7.5" y="-159.5" font-family="Helvetica,sans-Serif" font-size="10.00">+ nbCurrentGen</text>
<polyline fill="none" stroke="black" points="-0.5,-151.5 190.5,-151.5 "/>
<text text-anchor="start" x="7.5" y="-138.5" font-family="Helvetica,sans-Serif" font-size="10.00">+ __init__()</text>
<text text-anchor="start" x="7.5" y="-125.5" font-family="Helvetica,sans-Serif" font-size="10.00">+ createInd()</text>
<text text-anchor="start" x="7.5" y="-112.5" font-family="Helvetica,sans-Serif" font-size="10.00">+ setWorkerInMust()</text>
<text text-anchor="start" x="7.5" y="-99.5" font-family="Helvetica,sans-Serif" font-size="10.00">+ setWorkerInMustCraftQualif()</text>
<text text-anchor="start" x="7.5" y="-86.5" font-family="Helvetica,sans-Serif" font-size="10.00">+ TransformIndividualIntoAssignments()</text>
<text text-anchor="start" x="7.5" y="-73.5" font-family="Helvetica,sans-Serif" font-size="10.00">+ lookingForWorkers()</text>
<text text-anchor="start" x="7.5" y="-60.5" font-family="Helvetica,sans-Serif" font-size="10.00">+ constructList()</text>
<text text-anchor="start" x="7.5" y="-47.5" font-family="Helvetica,sans-Serif" font-size="10.00">+ evaluate()</text>
<text text-anchor="start" x="7.5" y="-34.5" font-family="Helvetica,sans-Serif" font-size="10.00">+ mutate()</text>
<text text-anchor="start" x="7.5" y="-21.5" font-family="Helvetica,sans-Serif" font-size="10.00">+ mate()</text>
<text text-anchor="start" x="7.5" y="-8.5" font-family="Helvetica,sans-Serif" font-size="10.00">and 8 more...</text>
</g>
<!-- Node2 -->
<g id="node2" class="node"><title>Node2</title>
<polygon fill="white" stroke="#bfbfbf" points="73.5,-386.5 73.5,-449.5 116.5,-449.5 116.5,-386.5 73.5,-386.5"/>
<text text-anchor="middle" x="95" y="-436.5" font-family="Helvetica,sans-Serif" font-size="10.00">object</text>
<polyline fill="none" stroke="#bfbfbf" points="73.5,-428.5 116.5,-428.5 "/>
<text text-anchor="middle" x="95" y="-415.5" font-family="Helvetica,sans-Serif" font-size="10.00"> </text>
<polyline fill="none" stroke="#bfbfbf" points="73.5,-407.5 116.5,-407.5 "/>
<text text-anchor="middle" x="95" y="-394.5" font-family="Helvetica,sans-Serif" font-size="10.00"> </text>
</g>
<!-- Node2&#45;&gt;Node1 -->
<g id="edge2" class="edge"><title>Node2&#45;&gt;Node1</title>
<path fill="none" stroke="midnightblue" d="M95,-376.113C95,-368.028 95,-359.102 95,-349.642"/>
<polygon fill="none" stroke="midnightblue" points="91.5001,-376.232 95,-386.232 98.5001,-376.232 91.5001,-376.232"/>
</g>
</g>
</svg>
