<?xml version="1.0" encoding="UTF-8" standalone="no"?>
<!DOCTYPE svg PUBLIC "-//W3C//DTD SVG 1.1//EN"
 "http://www.w3.org/Graphics/SVG/1.1/DTD/svg11.dtd">
<!-- Generated by graphviz version 2.34.0 (20130907.0111)
 -->
<!-- Title: src.system.Site.Site.num Pages: 1 -->
<svg width="334pt" height="77pt"
 viewBox="0.00 0.00 334.00 77.00" xmlns="http://www.w3.org/2000/svg" xmlns:xlink="http://www.w3.org/1999/xlink">
<g id="graph0" class="graph" transform="scale(1 1) rotate(0) translate(4 73)">
<title>src.system.Site.Site.num</title>
<polygon fill="white" stroke="white" points="-4,4 -4,-73 330,-73 330,4 -4,4"/>
<!-- Node1 -->
<g id="node1" class="node"><title>Node1</title>
<polygon fill="#bfbfbf" stroke="black" points="0,-22.5 0,-41.5 128,-41.5 128,-22.5 0,-22.5"/>
<text text-anchor="middle" x="64" y="-29.5" font-family="Helvetica,sans-Serif" font-size="10.00">src.system.Site.Site.num</text>
</g>
<!-- Node2 -->
<g id="node2" class="node"><title>Node2</title>
<g id="a_node2"><a xlink:href="classsrc_1_1system_1_1_worker_1_1_worker.html#a771360c3aaa0dd2be470ad6c885beb37" target="_top" xlink:title="Renvois un worker sous une forme lisible pour l&#39;humain. ">
<polygon fill="white" stroke="black" points="176.5,-39 176.5,-69 313.5,-69 313.5,-39 176.5,-39"/>
<text text-anchor="start" x="184.5" y="-57" font-family="Helvetica,sans-Serif" font-size="10.00">src.system.Worker.Worker.</text>
<text text-anchor="middle" x="245" y="-46" font-family="Helvetica,sans-Serif" font-size="10.00">__str__</text>
</a>
</g>
</g>
<!-- Node1&#45;&gt;Node2 -->
<g id="edge1" class="edge"><title>Node1&#45;&gt;Node2</title>
<path fill="none" stroke="midnightblue" d="M138.118,-40.9866C150.745,-42.5385 163.822,-44.1457 176.297,-45.6789"/>
<polygon fill="midnightblue" stroke="midnightblue" points="138.461,-37.5025 128.109,-39.7564 137.607,-44.4502 138.461,-37.5025"/>
</g>
<!-- Node3 -->
<g id="node3" class="node"><title>Node3</title>
<g id="a_node3"><a xlink:href="classsrc_1_1system_1_1_worker_1_1_worker.html#a346ba2efb749b79fff836f4696256a11" target="_top" xlink:title="serialise une affectation pour pouvoir la transmettre facilement ">
<polygon fill="white" stroke="black" points="164.5,-0.5 164.5,-19.5 325.5,-19.5 325.5,-0.5 164.5,-0.5"/>
<text text-anchor="middle" x="245" y="-7.5" font-family="Helvetica,sans-Serif" font-size="10.00">src.system.Worker.Worker.serial</text>
</a>
</g>
</g>
<!-- Node1&#45;&gt;Node3 -->
<g id="edge2" class="edge"><title>Node1&#45;&gt;Node3</title>
<path fill="none" stroke="midnightblue" d="M138.111,-23.0143C147.436,-21.8682 157.007,-20.6919 166.4,-19.5374"/>
<polygon fill="midnightblue" stroke="midnightblue" points="137.607,-19.5498 128.109,-24.2436 138.461,-26.4975 137.607,-19.5498"/>
</g>
</g>
</svg>
