<?xml version="1.0" encoding="UTF-8" standalone="no"?>
<!DOCTYPE svg PUBLIC "-//W3C//DTD SVG 1.1//EN"
 "http://www.w3.org/Graphics/SVG/1.1/DTD/svg11.dtd">
<!-- Generated by graphviz version 2.34.0 (20130907.0111)
 -->
<!-- Title: src.system.Worker.Worker.firstName Pages: 1 -->
<svg width="386pt" height="77pt"
 viewBox="0.00 0.00 386.00 77.00" xmlns="http://www.w3.org/2000/svg" xmlns:xlink="http://www.w3.org/1999/xlink">
<g id="graph0" class="graph" transform="scale(1 1) rotate(0) translate(4 73)">
<title>src.system.Worker.Worker.firstName</title>
<polygon fill="white" stroke="white" points="-4,4 -4,-73 382,-73 382,4 -4,4"/>
<!-- Node1 -->
<g id="node1" class="node"><title>Node1</title>
<polygon fill="#bfbfbf" stroke="black" points="0.5,-22.5 0.5,-41.5 179.5,-41.5 179.5,-22.5 0.5,-22.5"/>
<text text-anchor="middle" x="90" y="-29.5" font-family="Helvetica,sans-Serif" font-size="10.00">src.system.Worker.Worker.firstName</text>
</g>
<!-- Node1&#45;&gt;Node1 -->
<g id="edge1" class="edge"><title>Node1&#45;&gt;Node1</title>
<path fill="none" stroke="midnightblue" d="M51.3936,-49.1138C50.8154,-55.126 63.6842,-60 90,-60 126.613,-60 137.197,-50.5653 121.751,-41.7571"/>
<polygon fill="midnightblue" stroke="midnightblue" points="53.9923,-51.459 58.2494,-41.7571 48.8713,-46.6867 53.9923,-51.459"/>
</g>
<!-- Node2 -->
<g id="node2" class="node"><title>Node2</title>
<g id="a_node2"><a xlink:href="classsrc_1_1system_1_1_worker_1_1_worker.html#a771360c3aaa0dd2be470ad6c885beb37" target="_top" xlink:title="Renvois un worker sous une forme lisible pour l&#39;humain. ">
<polygon fill="white" stroke="black" points="228.5,-39 228.5,-69 365.5,-69 365.5,-39 228.5,-39"/>
<text text-anchor="start" x="236.5" y="-57" font-family="Helvetica,sans-Serif" font-size="10.00">src.system.Worker.Worker.</text>
<text text-anchor="middle" x="297" y="-46" font-family="Helvetica,sans-Serif" font-size="10.00">__str__</text>
</a>
</g>
</g>
<!-- Node1&#45;&gt;Node2 -->
<g id="edge2" class="edge"><title>Node1&#45;&gt;Node2</title>
<path fill="none" stroke="midnightblue" d="M189.725,-42.5949C202.844,-44.0028 216.045,-45.4195 228.468,-46.7527"/>
<polygon fill="midnightblue" stroke="midnightblue" points="190.04,-39.1087 179.724,-41.5216 189.293,-46.0687 190.04,-39.1087"/>
</g>
<!-- Node3 -->
<g id="node3" class="node"><title>Node3</title>
<g id="a_node3"><a xlink:href="classsrc_1_1system_1_1_worker_1_1_worker.html#a346ba2efb749b79fff836f4696256a11" target="_top" xlink:title="serialise une affectation pour pouvoir la transmettre facilement ">
<polygon fill="white" stroke="black" points="216.5,-0.5 216.5,-19.5 377.5,-19.5 377.5,-0.5 216.5,-0.5"/>
<text text-anchor="middle" x="297" y="-7.5" font-family="Helvetica,sans-Serif" font-size="10.00">src.system.Worker.Worker.serial</text>
</a>
</g>
</g>
<!-- Node1&#45;&gt;Node3 -->
<g id="edge3" class="edge"><title>Node1&#45;&gt;Node3</title>
<path fill="none" stroke="midnightblue" d="M189.799,-21.3971C198.751,-20.4365 207.74,-19.4718 216.493,-18.5325"/>
<polygon fill="midnightblue" stroke="midnightblue" points="189.293,-17.9313 179.724,-22.4784 190.04,-24.8913 189.293,-17.9313"/>
</g>
</g>
</svg>
