<?xml version="1.0" encoding="UTF-8" standalone="no"?>
<!DOCTYPE svg PUBLIC "-//W3C//DTD SVG 1.1//EN"
 "http://www.w3.org/Graphics/SVG/1.1/DTD/svg11.dtd">
<!-- Generated by graphviz version 2.34.0 (20130907.0111)
 -->
<!-- Title: src.system.Worker.Worker.position Pages: 1 -->
<svg width="354pt" height="51pt"
 viewBox="0.00 0.00 354.00 51.00" xmlns="http://www.w3.org/2000/svg" xmlns:xlink="http://www.w3.org/1999/xlink">
<g id="graph0" class="graph" transform="scale(1 1) rotate(0) translate(4 47)">
<title>src.system.Worker.Worker.position</title>
<polygon fill="white" stroke="white" points="-4,4 -4,-47 350,-47 350,4 -4,4"/>
<!-- Node1 -->
<g id="node1" class="node"><title>Node1</title>
<polygon fill="#bfbfbf" stroke="black" points="0.5,-5.5 0.5,-24.5 171.5,-24.5 171.5,-5.5 0.5,-5.5"/>
<text text-anchor="middle" x="86" y="-12.5" font-family="Helvetica,sans-Serif" font-size="10.00">src.system.Worker.Worker.position</text>
</g>
<!-- Node1&#45;&gt;Node1 -->
<g id="edge1" class="edge"><title>Node1&#45;&gt;Node1</title>
<path fill="none" stroke="midnightblue" d="M50.375,-32.5043C50.3808,-38.3356 62.2558,-43 86,-43 119.77,-43 129.531,-33.5653 115.285,-24.7571"/>
<polygon fill="midnightblue" stroke="midnightblue" points="53.0905,-34.7125 56.7155,-24.7571 47.6734,-30.279 53.0905,-34.7125"/>
</g>
<!-- Node2 -->
<g id="node2" class="node"><title>Node2</title>
<g id="a_node2"><a xlink:href="classsrc_1_1system_1_1_worker_1_1_worker.html#a771360c3aaa0dd2be470ad6c885beb37" target="_top" xlink:title="Renvois un worker sous une forme lisible pour l&#39;humain. ">
<polygon fill="white" stroke="black" points="208.5,-0 208.5,-30 345.5,-30 345.5,-0 208.5,-0"/>
<text text-anchor="start" x="216.5" y="-18" font-family="Helvetica,sans-Serif" font-size="10.00">src.system.Worker.Worker.</text>
<text text-anchor="middle" x="277" y="-7" font-family="Helvetica,sans-Serif" font-size="10.00">__str__</text>
</a>
</g>
</g>
<!-- Node1&#45;&gt;Node2 -->
<g id="edge2" class="edge"><title>Node1&#45;&gt;Node2</title>
<path fill="none" stroke="midnightblue" d="M181.661,-15C190.632,-15 199.601,-15 208.244,-15"/>
<polygon fill="midnightblue" stroke="midnightblue" points="181.55,-11.5001 171.55,-15 181.55,-18.5001 181.55,-11.5001"/>
</g>
</g>
</svg>
