<?xml version="1.0" encoding="UTF-8" standalone="no"?>
<!DOCTYPE svg PUBLIC "-//W3C//DTD SVG 1.1//EN"
 "http://www.w3.org/Graphics/SVG/1.1/DTD/svg11.dtd">
<!-- Generated by graphviz version 2.26.3 (20100126.1600)
 -->
<!-- Title: src.importData.GenerateWorkers.GenerateWorkers Pages: 1 -->
<svg width="172pt" height="290pt"
 viewBox="0.00 0.00 172.00 290.00" xmlns="http://www.w3.org/2000/svg" xmlns:xlink="http://www.w3.org/1999/xlink">
<g id="graph1" class="graph" transform="scale(1 1) rotate(0) translate(4 286)">
<title>src.importData.GenerateWorkers.GenerateWorkers</title>
<polygon fill="white" stroke="white" points="-4,5 -4,-286 169,-286 169,5 -4,5"/>
<!-- Node1 -->
<g id="node1" class="node"><title>Node1</title>
<polygon fill="#bfbfbf" stroke="black" points="0,-1 0,-181 164,-181 164,-1 0,-1"/>
<text text-anchor="start" x="8" y="-168" font-family="Helvetica,sans-Serif" font-size="10.00">src.importData.GenerateWorkers.</text>
<text text-anchor="middle" x="82" y="-155" font-family="Helvetica,sans-Serif" font-size="10.00">GenerateWorkers</text>
<polyline fill="none" stroke="black" points="0,-147 164,-147 "/>
<text text-anchor="middle" x="82" y="-134" font-family="Helvetica,sans-Serif" font-size="10.00"> </text>
<polyline fill="none" stroke="black" points="0,-126 164,-126 "/>
<text text-anchor="start" x="8" y="-113" font-family="Helvetica,sans-Serif" font-size="10.00">+ __init__()</text>
<text text-anchor="start" x="8" y="-100" font-family="Helvetica,sans-Serif" font-size="10.00">+ existsInBDD()</text>
<text text-anchor="start" x="8" y="-87" font-family="Helvetica,sans-Serif" font-size="10.00">+ createInBDD()</text>
<text text-anchor="start" x="8" y="-74" font-family="Helvetica,sans-Serif" font-size="10.00">+ updateInBDD()</text>
<text text-anchor="start" x="8" y="-61" font-family="Helvetica,sans-Serif" font-size="10.00">+ searchAndReturnPosition()</text>
<text text-anchor="start" x="8" y="-48" font-family="Helvetica,sans-Serif" font-size="10.00">+ strToNumQualification()</text>
<text text-anchor="start" x="8" y="-35" font-family="Helvetica,sans-Serif" font-size="10.00">+ manageCraft()</text>
<text text-anchor="start" x="8" y="-22" font-family="Helvetica,sans-Serif" font-size="10.00">+ supprime_accent()</text>
<text text-anchor="start" x="8" y="-9" font-family="Helvetica,sans-Serif" font-size="10.00">+ manageWorker()</text>
</g>
<!-- Node2 -->
<g id="node2" class="node"><title>Node2</title>
<polygon fill="white" stroke="#bfbfbf" points="60.5,-218.5 60.5,-281.5 103.5,-281.5 103.5,-218.5 60.5,-218.5"/>
<text text-anchor="middle" x="82" y="-268.5" font-family="Helvetica,sans-Serif" font-size="10.00">object</text>
<polyline fill="none" stroke="#bfbfbf" points="60.5,-260.5 103.5,-260.5 "/>
<text text-anchor="middle" x="82" y="-247.5" font-family="Helvetica,sans-Serif" font-size="10.00"> </text>
<polyline fill="none" stroke="#bfbfbf" points="60.5,-239.5 103.5,-239.5 "/>
<text text-anchor="middle" x="82" y="-226.5" font-family="Helvetica,sans-Serif" font-size="10.00"> </text>
</g>
<!-- Node2&#45;&gt;Node1 -->
<g id="edge2" class="edge"><title>Node2&#45;&gt;Node1</title>
<path fill="none" stroke="midnightblue" d="M82,-207.972C82,-199.553 82,-190.408 82,-181.065"/>
<polygon fill="none" stroke="midnightblue" points="78.5001,-208.206 82,-218.206 85.5001,-208.206 78.5001,-208.206"/>
</g>
</g>
</svg>
