<?xml version="1.0" encoding="UTF-8" standalone="no"?>
<!DOCTYPE svg PUBLIC "-//W3C//DTD SVG 1.1//EN"
 "http://www.w3.org/Graphics/SVG/1.1/DTD/svg11.dtd">
<!-- Generated by graphviz version 2.34.0 (20130907.0111)
 -->
<!-- Title: src.system.Site.Site.dateEnd Pages: 1 -->
<svg width="300pt" height="51pt"
 viewBox="0.00 0.00 300.00 51.00" xmlns="http://www.w3.org/2000/svg" xmlns:xlink="http://www.w3.org/1999/xlink">
<g id="graph0" class="graph" transform="scale(1 1) rotate(0) translate(4 47)">
<title>src.system.Site.Site.dateEnd</title>
<polygon fill="white" stroke="white" points="-4,4 -4,-47 296,-47 296,4 -4,4"/>
<!-- Node1 -->
<g id="node1" class="node"><title>Node1</title>
<polygon fill="#bfbfbf" stroke="black" points="0.5,-5.5 0.5,-24.5 145.5,-24.5 145.5,-5.5 0.5,-5.5"/>
<text text-anchor="middle" x="73" y="-12.5" font-family="Helvetica,sans-Serif" font-size="10.00">src.system.Site.Site.dateEnd</text>
</g>
<!-- Node1&#45;&gt;Node1 -->
<g id="edge1" class="edge"><title>Node1&#45;&gt;Node1</title>
<path fill="none" stroke="midnightblue" d="M42.3114,-33.2746C43.1864,-38.741 53.4159,-43 73,-43 102.148,-43 110.574,-33.5653 98.2772,-24.7571"/>
<polygon fill="midnightblue" stroke="midnightblue" points="45.3144,-35.0745 47.7228,-24.7571 39.406,-31.3207 45.3144,-35.0745"/>
</g>
<!-- Node2 -->
<g id="node2" class="node"><title>Node2</title>
<g id="a_node2"><a xlink:href="classsrc_1_1system_1_1_site_1_1_site.html#a0128613c7f484d73fca2df00365427be" target="_top" xlink:title="src.system.Site.Site.\l__str__">
<polygon fill="white" stroke="black" points="182.5,-0 182.5,-30 291.5,-30 291.5,-0 182.5,-0"/>
<text text-anchor="start" x="190.5" y="-18" font-family="Helvetica,sans-Serif" font-size="10.00">src.system.Site.Site.</text>
<text text-anchor="middle" x="237" y="-7" font-family="Helvetica,sans-Serif" font-size="10.00">__str__</text>
</a>
</g>
</g>
<!-- Node1&#45;&gt;Node2 -->
<g id="edge2" class="edge"><title>Node1&#45;&gt;Node2</title>
<path fill="none" stroke="midnightblue" d="M155.722,-15C164.768,-15 173.802,-15 182.373,-15"/>
<polygon fill="midnightblue" stroke="midnightblue" points="155.527,-11.5001 145.527,-15 155.527,-18.5001 155.527,-11.5001"/>
</g>
</g>
</svg>
