<?xml version="1.0" encoding="UTF-8" standalone="no"?>
<!DOCTYPE svg PUBLIC "-//W3C//DTD SVG 1.1//EN"
 "http://www.w3.org/Graphics/SVG/1.1/DTD/svg11.dtd">
<!-- Generated by graphviz version 2.34.0 (20130907.0111)
 -->
<!-- Title: src.system.Worker.Worker.name Pages: 1 -->
<svg width="368pt" height="77pt"
 viewBox="0.00 0.00 368.00 77.00" xmlns="http://www.w3.org/2000/svg" xmlns:xlink="http://www.w3.org/1999/xlink">
<g id="graph0" class="graph" transform="scale(1 1) rotate(0) translate(4 73)">
<title>src.system.Worker.Worker.name</title>
<polygon fill="white" stroke="white" points="-4,4 -4,-73 364,-73 364,4 -4,4"/>
<!-- Node1 -->
<g id="node1" class="node"><title>Node1</title>
<polygon fill="#bfbfbf" stroke="black" points="0.5,-22.5 0.5,-41.5 161.5,-41.5 161.5,-22.5 0.5,-22.5"/>
<text text-anchor="middle" x="81" y="-29.5" font-family="Helvetica,sans-Serif" font-size="10.00">src.system.Worker.Worker.name</text>
</g>
<!-- Node1&#45;&gt;Node1 -->
<g id="edge1" class="edge"><title>Node1&#45;&gt;Node1</title>
<path fill="none" stroke="midnightblue" d="M43.875,-49.5043C43.881,-55.3356 56.256,-60 81,-60 116.191,-60 126.364,-50.5653 111.518,-41.7571"/>
<polygon fill="midnightblue" stroke="midnightblue" points="46.6562,-51.6369 50.4825,-41.7571 41.3302,-47.0944 46.6562,-51.6369"/>
</g>
<!-- Node2 -->
<g id="node2" class="node"><title>Node2</title>
<g id="a_node2"><a xlink:href="classsrc_1_1system_1_1_worker_1_1_worker.html#a771360c3aaa0dd2be470ad6c885beb37" target="_top" xlink:title="Renvois un worker sous une forme lisible pour l&#39;humain. ">
<polygon fill="white" stroke="black" points="210.5,-39 210.5,-69 347.5,-69 347.5,-39 210.5,-39"/>
<text text-anchor="start" x="218.5" y="-57" font-family="Helvetica,sans-Serif" font-size="10.00">src.system.Worker.Worker.</text>
<text text-anchor="middle" x="279" y="-46" font-family="Helvetica,sans-Serif" font-size="10.00">__str__</text>
</a>
</g>
</g>
<!-- Node1&#45;&gt;Node2 -->
<g id="edge2" class="edge"><title>Node1&#45;&gt;Node2</title>
<path fill="none" stroke="midnightblue" d="M171.989,-42.1008C184.864,-43.5459 197.924,-45.0119 210.273,-46.398"/>
<polygon fill="midnightblue" stroke="midnightblue" points="172.049,-38.5856 161.721,-40.9482 171.268,-45.5419 172.049,-38.5856"/>
</g>
<!-- Node3 -->
<g id="node3" class="node"><title>Node3</title>
<g id="a_node3"><a xlink:href="classsrc_1_1system_1_1_worker_1_1_worker.html#a346ba2efb749b79fff836f4696256a11" target="_top" xlink:title="serialise une affectation pour pouvoir la transmettre facilement ">
<polygon fill="white" stroke="black" points="198.5,-0.5 198.5,-19.5 359.5,-19.5 359.5,-0.5 198.5,-0.5"/>
<text text-anchor="middle" x="279" y="-7.5" font-family="Helvetica,sans-Serif" font-size="10.00">src.system.Worker.Worker.serial</text>
</a>
</g>
</g>
<!-- Node1&#45;&gt;Node3 -->
<g id="edge3" class="edge"><title>Node1&#45;&gt;Node3</title>
<path fill="none" stroke="midnightblue" d="M171.702,-21.9314C180.592,-20.9336 189.573,-19.9255 198.35,-18.9403"/>
<polygon fill="midnightblue" stroke="midnightblue" points="171.268,-18.4581 161.721,-23.0518 172.049,-25.4144 171.268,-18.4581"/>
</g>
</g>
</svg>
