<?xml version="1.0" encoding="UTF-8" standalone="no"?>
<!DOCTYPE svg PUBLIC "-//W3C//DTD SVG 1.1//EN"
 "http://www.w3.org/Graphics/SVG/1.1/DTD/svg11.dtd">
<!-- Generated by graphviz version 2.34.0 (20130907.0111)
 -->
<!-- Title: src.system.BuildSite.BuildSite.dateFin Pages: 1 -->
<svg width="308pt" height="56pt"
 viewBox="0.00 0.00 308.00 56.00" xmlns="http://www.w3.org/2000/svg" xmlns:xlink="http://www.w3.org/1999/xlink">
<g id="graph0" class="graph" transform="scale(1 1) rotate(0) translate(4 52)">
<title>src.system.BuildSite.BuildSite.dateFin</title>
<polygon fill="white" stroke="white" points="-4,4 -4,-52 304,-52 304,4 -4,4"/>
<!-- Node1 -->
<g id="node1" class="node"><title>Node1</title>
<polygon fill="#bfbfbf" stroke="black" points="0,-0 0,-30 132,-30 132,-0 0,-0"/>
<text text-anchor="start" x="8" y="-18" font-family="Helvetica,sans-Serif" font-size="10.00">src.system.BuildSite.Build</text>
<text text-anchor="middle" x="66" y="-7" font-family="Helvetica,sans-Serif" font-size="10.00">Site.dateFin</text>
</g>
<!-- Node1&#45;&gt;Node1 -->
<g id="edge1" class="edge"><title>Node1&#45;&gt;Node1</title>
<path fill="none" stroke="midnightblue" d="M36.5937,-40.5975C40.612,-44.9704 50.4141,-48 66,-48 92.25,-48 102.094,-39.4063 95.5313,-30.2754"/>
<polygon fill="midnightblue" stroke="midnightblue" points="40.0896,-40.2323 36.4688,-30.2754 33.0902,-40.3171 40.0896,-40.2323"/>
</g>
<!-- Node2 -->
<g id="node2" class="node"><title>Node2</title>
<g id="a_node2"><a xlink:href="classsrc_1_1system_1_1_build_site_1_1_build_site.html#a71da788ea8cf77fb9f1d866520777d44" target="_top" xlink:title="src.system.BuildSite.Build\lSite.__str__">
<polygon fill="white" stroke="black" points="168,-0 168,-30 300,-30 300,-0 168,-0"/>
<text text-anchor="start" x="176" y="-18" font-family="Helvetica,sans-Serif" font-size="10.00">src.system.BuildSite.Build</text>
<text text-anchor="middle" x="234" y="-7" font-family="Helvetica,sans-Serif" font-size="10.00">Site.__str__</text>
</a>
</g>
</g>
<!-- Node1&#45;&gt;Node2 -->
<g id="edge2" class="edge"><title>Node1&#45;&gt;Node2</title>
<path fill="none" stroke="midnightblue" d="M142.393,-15C150.869,-15 159.452,-15 167.784,-15"/>
<polygon fill="midnightblue" stroke="midnightblue" points="142.131,-11.5001 132.131,-15 142.131,-18.5001 142.131,-11.5001"/>
</g>
</g>
</svg>
