<?xml version="1.0" encoding="UTF-8" standalone="no"?>
<!DOCTYPE svg PUBLIC "-//W3C//DTD SVG 1.1//EN"
 "http://www.w3.org/Graphics/SVG/1.1/DTD/svg11.dtd">
<!-- Generated by graphviz version 2.34.0 (20130907.0111)
 -->
<!-- Title: src.optimisation.SolTemp.SolTemp Pages: 1 -->
<svg width="156pt" height="304pt"
 viewBox="0.00 0.00 156.00 304.00" xmlns="http://www.w3.org/2000/svg" xmlns:xlink="http://www.w3.org/1999/xlink">
<g id="graph0" class="graph" transform="scale(1 1) rotate(0) translate(4 300)">
<title>src.optimisation.SolTemp.SolTemp</title>
<polygon fill="white" stroke="white" points="-4,4 -4,-300 152,-300 152,4 -4,4"/>
<!-- Node1 -->
<g id="node1" class="node"><title>Node1</title>
<polygon fill="#bfbfbf" stroke="black" points="-0.5,-1 -0.5,-201 148.5,-201 148.5,-1 -0.5,-1"/>
<text text-anchor="start" x="7.5" y="-189" font-family="Helvetica,sans-Serif" font-size="10.00">src.optimisation.SolTemp.</text>
<text text-anchor="middle" x="74" y="-178" font-family="Helvetica,sans-Serif" font-size="10.00">SolTemp</text>
<polyline fill="none" stroke="black" points="-0.5,-171 148.5,-171 "/>
<text text-anchor="start" x="7.5" y="-159" font-family="Helvetica,sans-Serif" font-size="10.00">&#45; _affects</text>
<text text-anchor="start" x="7.5" y="-148" font-family="Helvetica,sans-Serif" font-size="10.00">&#45; _tryNumber</text>
<text text-anchor="start" x="7.5" y="-137" font-family="Helvetica,sans-Serif" font-size="10.00">&#45; _distance</text>
<text text-anchor="start" x="7.5" y="-126" font-family="Helvetica,sans-Serif" font-size="10.00">&#45; _system</text>
<text text-anchor="start" x="7.5" y="-115" font-family="Helvetica,sans-Serif" font-size="10.00">&#45; _maxTry</text>
<polyline fill="none" stroke="black" points="-0.5,-108 148.5,-108 "/>
<text text-anchor="start" x="7.5" y="-96" font-family="Helvetica,sans-Serif" font-size="10.00">+ __init__()</text>
<text text-anchor="start" x="7.5" y="-85" font-family="Helvetica,sans-Serif" font-size="10.00">+ affects()</text>
<text text-anchor="start" x="7.5" y="-74" font-family="Helvetica,sans-Serif" font-size="10.00">+ affects()</text>
<text text-anchor="start" x="7.5" y="-63" font-family="Helvetica,sans-Serif" font-size="10.00">+ system()</text>
<text text-anchor="start" x="7.5" y="-52" font-family="Helvetica,sans-Serif" font-size="10.00">+ distance()</text>
<text text-anchor="start" x="7.5" y="-41" font-family="Helvetica,sans-Serif" font-size="10.00">+ extractAssignments()</text>
<text text-anchor="start" x="7.5" y="-30" font-family="Helvetica,sans-Serif" font-size="10.00">+ __str__()</text>
<text text-anchor="start" x="7.5" y="-19" font-family="Helvetica,sans-Serif" font-size="10.00">+ genRandomSolTemp()</text>
<text text-anchor="start" x="7.5" y="-8" font-family="Helvetica,sans-Serif" font-size="10.00">+ genSolTempFromStatTable()</text>
</g>
<!-- Node2 -->
<g id="node2" class="node"><title>Node2</title>
<polygon fill="white" stroke="#bfbfbf" points="52.5,-238.5 52.5,-295.5 95.5,-295.5 95.5,-238.5 52.5,-238.5"/>
<text text-anchor="middle" x="74" y="-283.5" font-family="Helvetica,sans-Serif" font-size="10.00">object</text>
<polyline fill="none" stroke="#bfbfbf" points="52.5,-276.5 95.5,-276.5 "/>
<text text-anchor="middle" x="74" y="-264.5" font-family="Helvetica,sans-Serif" font-size="10.00"> </text>
<polyline fill="none" stroke="#bfbfbf" points="52.5,-257.5 95.5,-257.5 "/>
<text text-anchor="middle" x="74" y="-245.5" font-family="Helvetica,sans-Serif" font-size="10.00"> </text>
</g>
<!-- Node2&#45;&gt;Node1 -->
<g id="edge1" class="edge"><title>Node2&#45;&gt;Node1</title>
<path fill="none" stroke="midnightblue" d="M74,-228.11C74,-219.761 74,-210.543 74,-201.004"/>
<polygon fill="none" stroke="midnightblue" points="70.5001,-228.18 74,-238.18 77.5001,-228.18 70.5001,-228.18"/>
</g>
</g>
</svg>
