<?xml version="1.0" encoding="UTF-8" standalone="no"?>
<!DOCTYPE svg PUBLIC "-//W3C//DTD SVG 1.1//EN"
 "http://www.w3.org/Graphics/SVG/1.1/DTD/svg11.dtd">
<!-- Generated by graphviz version 2.34.0 (20130907.0111)
 -->
<!-- Title: src.interfacebdd.AbstractDAO.AbstractDAO._createElement Pages: 1 -->
<svg width="566pt" height="246pt"
 viewBox="0.00 0.00 566.00 246.00" xmlns="http://www.w3.org/2000/svg" xmlns:xlink="http://www.w3.org/1999/xlink">
<g id="graph0" class="graph" transform="scale(1 1) rotate(0) translate(4 242)">
<title>src.interfacebdd.AbstractDAO.AbstractDAO._createElement</title>
<polygon fill="white" stroke="white" points="-4,4 -4,-242 562,-242 562,4 -4,4"/>
<!-- Node1 -->
<g id="node1" class="node"><title>Node1</title>
<polygon fill="#bfbfbf" stroke="black" points="0,-110 0,-140 170,-140 170,-110 0,-110"/>
<text text-anchor="start" x="8" y="-128" font-family="Helvetica,sans-Serif" font-size="10.00">src.interfacebdd.Abstract</text>
<text text-anchor="middle" x="85" y="-117" font-family="Helvetica,sans-Serif" font-size="10.00">DAO.AbstractDAO._createElement</text>
</g>
<!-- Node2 -->
<g id="node2" class="node"><title>Node2</title>
<g id="a_node2"><a xlink:href="classsrc_1_1interfacebdd_1_1_abstract_d_a_o_1_1_abstract_d_a_o.html#a5c55fd18712ca4c0c172683fa4bb60dc" target="_top" xlink:title="Construit un Objet du Systeme à partir d&#39;un dico(attribut, valeur) passé en paramètre. ">
<polygon fill="white" stroke="black" points="206.5,-110 206.5,-140 361.5,-140 361.5,-110 206.5,-110"/>
<text text-anchor="start" x="214.5" y="-128" font-family="Helvetica,sans-Serif" font-size="10.00">src.interfacebdd.Abstract</text>
<text text-anchor="middle" x="284" y="-117" font-family="Helvetica,sans-Serif" font-size="10.00">DAO.AbstractDAO._buildObject</text>
</a>
</g>
</g>
<!-- Node1&#45;&gt;Node2 -->
<g id="edge1" class="edge"><title>Node1&#45;&gt;Node2</title>
<path fill="none" stroke="midnightblue" d="M180.317,-125C189.038,-125 197.802,-125 206.336,-125"/>
<polygon fill="midnightblue" stroke="midnightblue" points="180.117,-121.5 170.117,-125 180.117,-128.5 180.117,-121.5"/>
</g>
<!-- Node3 -->
<g id="node3" class="node"><title>Node3</title>
<g id="a_node3"><a xlink:href="classsrc_1_1interfacebdd_1_1_abstract_d_a_o_1_1_abstract_d_a_o.html#a6b1483380fbd5c4a61f89e890f4fbe2b" target="_top" xlink:title="src.interfacebdd.Abstract\lDAO.AbstractDAO.getById">
<polygon fill="white" stroke="black" points="411,-208 411,-238 545,-238 545,-208 411,-208"/>
<text text-anchor="start" x="419" y="-226" font-family="Helvetica,sans-Serif" font-size="10.00">src.interfacebdd.Abstract</text>
<text text-anchor="middle" x="478" y="-215" font-family="Helvetica,sans-Serif" font-size="10.00">DAO.AbstractDAO.getById</text>
</a>
</g>
</g>
<!-- Node2&#45;&gt;Node3 -->
<g id="edge2" class="edge"><title>Node2&#45;&gt;Node3</title>
<path fill="none" stroke="midnightblue" d="M313.13,-146.207C335.275,-162.136 367.407,-183.596 398,-198 405.809,-201.677 414.297,-205.003 422.717,-207.942"/>
<polygon fill="midnightblue" stroke="midnightblue" points="315.009,-143.246 304.866,-140.186 310.887,-148.904 315.009,-143.246"/>
</g>
<!-- Node4 -->
<g id="node4" class="node"><title>Node4</title>
<g id="a_node4"><a xlink:href="classsrc_1_1interfacebdd_1_1_abstract_d_a_o_1_1_abstract_d_a_o.html#a20ec3bc6a325d24f8e11d5ad10a7b78b" target="_top" xlink:title="src.interfacebdd.Abstract\lDAO.AbstractDAO.getByFilter">
<polygon fill="white" stroke="black" points="403.5,-159 403.5,-189 552.5,-189 552.5,-159 403.5,-159"/>
<text text-anchor="start" x="411.5" y="-177" font-family="Helvetica,sans-Serif" font-size="10.00">src.interfacebdd.Abstract</text>
<text text-anchor="middle" x="478" y="-166" font-family="Helvetica,sans-Serif" font-size="10.00">DAO.AbstractDAO.getByFilter</text>
</a>
</g>
</g>
<!-- Node2&#45;&gt;Node4 -->
<g id="edge3" class="edge"><title>Node2&#45;&gt;Node4</title>
<path fill="none" stroke="midnightblue" d="M353.767,-142.55C374.851,-147.931 397.845,-153.799 418.2,-158.994"/>
<polygon fill="midnightblue" stroke="midnightblue" points="354.466,-139.116 343.911,-140.035 352.735,-145.899 354.466,-139.116"/>
</g>
<!-- Node5 -->
<g id="node5" class="node"><title>Node5</title>
<g id="a_node5"><a xlink:href="classsrc_1_1interfacebdd_1_1_abstract_d_a_o_1_1_abstract_d_a_o.html#a32ceaeade6f552cd5ab17123fda60c46" target="_top" xlink:title="src.interfacebdd.Abstract\lDAO.AbstractDAO.getAll">
<polygon fill="white" stroke="black" points="415,-110 415,-140 541,-140 541,-110 415,-110"/>
<text text-anchor="start" x="423" y="-128" font-family="Helvetica,sans-Serif" font-size="10.00">src.interfacebdd.Abstract</text>
<text text-anchor="middle" x="478" y="-117" font-family="Helvetica,sans-Serif" font-size="10.00">DAO.AbstractDAO.getAll</text>
</a>
</g>
</g>
<!-- Node2&#45;&gt;Node5 -->
<g id="edge4" class="edge"><title>Node2&#45;&gt;Node5</title>
<path fill="none" stroke="midnightblue" d="M371.72,-125C386.267,-125 401.101,-125 414.869,-125"/>
<polygon fill="midnightblue" stroke="midnightblue" points="371.711,-121.5 361.711,-125 371.711,-128.5 371.711,-121.5"/>
</g>
<!-- Node6 -->
<g id="node6" class="node"><title>Node6</title>
<g id="a_node6"><a xlink:href="classsrc_1_1interfacebdd_1_1_abstract_d_a_o_1_1_abstract_d_a_o.html#a2b67ab104d5359bbc4c16bcc18916a76" target="_top" xlink:title="src.interfacebdd.Abstract\lDAO.AbstractDAO.getAllByFilter">
<polygon fill="white" stroke="black" points="398,-61 398,-91 558,-91 558,-61 398,-61"/>
<text text-anchor="start" x="406" y="-79" font-family="Helvetica,sans-Serif" font-size="10.00">src.interfacebdd.Abstract</text>
<text text-anchor="middle" x="478" y="-68" font-family="Helvetica,sans-Serif" font-size="10.00">DAO.AbstractDAO.getAllByFilter</text>
</a>
</g>
</g>
<!-- Node2&#45;&gt;Node6 -->
<g id="edge5" class="edge"><title>Node2&#45;&gt;Node6</title>
<path fill="none" stroke="midnightblue" d="M353.767,-107.45C374.851,-102.069 397.845,-96.201 418.2,-91.0062"/>
<polygon fill="midnightblue" stroke="midnightblue" points="352.735,-104.101 343.911,-109.965 354.466,-110.884 352.735,-104.101"/>
</g>
<!-- Node7 -->
<g id="node7" class="node"><title>Node7</title>
<g id="a_node7"><a xlink:href="classsrc_1_1interfacebdd_1_1_abstract_d_a_o_1_1_abstract_d_a_o.html#a43dda59bb16694f032b1c201c8291720" target="_top" xlink:title="src.interfacebdd.Abstract\lDAO.AbstractDAO.getAllByFilter\lExtended">
<polygon fill="white" stroke="black" points="398,-0.5 398,-41.5 558,-41.5 558,-0.5 398,-0.5"/>
<text text-anchor="start" x="406" y="-29.5" font-family="Helvetica,sans-Serif" font-size="10.00">src.interfacebdd.Abstract</text>
<text text-anchor="start" x="406" y="-18.5" font-family="Helvetica,sans-Serif" font-size="10.00">DAO.AbstractDAO.getAllByFilter</text>
<text text-anchor="middle" x="478" y="-7.5" font-family="Helvetica,sans-Serif" font-size="10.00">Extended</text>
</a>
</g>
</g>
<!-- Node2&#45;&gt;Node7 -->
<g id="edge6" class="edge"><title>Node2&#45;&gt;Node7</title>
<path fill="none" stroke="midnightblue" d="M313.823,-104.086C336.104,-88.4939 368.093,-67.3333 398,-52 405.08,-48.3702 412.688,-44.8924 420.286,-41.6639"/>
<polygon fill="midnightblue" stroke="midnightblue" points="311.638,-101.345 305.491,-109.974 315.678,-107.061 311.638,-101.345"/>
</g>
</g>
</svg>
