<?xml version="1.0" encoding="UTF-8" standalone="no"?>
<!DOCTYPE svg PUBLIC "-//W3C//DTD SVG 1.1//EN"
 "http://www.w3.org/Graphics/SVG/1.1/DTD/svg11.dtd">
<!-- Generated by graphviz version 2.34.0 (20130907.0111)
 -->
<!-- Title: src.system.Assignment.Assignment.dateInit Pages: 1 -->
<svg width="386pt" height="87pt"
 viewBox="0.00 0.00 386.00 87.00" xmlns="http://www.w3.org/2000/svg" xmlns:xlink="http://www.w3.org/1999/xlink">
<g id="graph0" class="graph" transform="scale(1 1) rotate(0) translate(4 83)">
<title>src.system.Assignment.Assignment.dateInit</title>
<polygon fill="white" stroke="white" points="-4,4 -4,-83 382,-83 382,4 -4,4"/>
<!-- Node1 -->
<g id="node1" class="node"><title>Node1</title>
<polygon fill="#bfbfbf" stroke="black" points="0.5,-29.5 0.5,-48.5 209.5,-48.5 209.5,-29.5 0.5,-29.5"/>
<text text-anchor="middle" x="105" y="-36.5" font-family="Helvetica,sans-Serif" font-size="10.00">src.system.Assignment.Assignment.dateInit</text>
</g>
<!-- Node2 -->
<g id="node2" class="node"><title>Node2</title>
<g id="a_node2"><a xlink:href="classsrc_1_1system_1_1_build_site_1_1_build_site.html#a71da788ea8cf77fb9f1d866520777d44" target="_top" xlink:title="src.system.BuildSite.Build\lSite.__str__">
<polygon fill="white" stroke="black" points="246,-49 246,-79 378,-79 378,-49 246,-49"/>
<text text-anchor="start" x="254" y="-67" font-family="Helvetica,sans-Serif" font-size="10.00">src.system.BuildSite.Build</text>
<text text-anchor="middle" x="312" y="-56" font-family="Helvetica,sans-Serif" font-size="10.00">Site.__str__</text>
</a>
</g>
</g>
<!-- Node1&#45;&gt;Node2 -->
<g id="edge1" class="edge"><title>Node1&#45;&gt;Node2</title>
<path fill="none" stroke="midnightblue" d="M194.206,-49.7568C211.528,-51.8692 229.405,-54.0494 245.807,-56.0496"/>
<polygon fill="midnightblue" stroke="midnightblue" points="194.437,-46.2591 184.087,-48.5227 193.589,-53.2076 194.437,-46.2591"/>
</g>
<!-- Node3 -->
<g id="node3" class="node"><title>Node3</title>
<g id="a_node3"><a xlink:href="classsrc_1_1system_1_1_site_1_1_site.html#a0128613c7f484d73fca2df00365427be" target="_top" xlink:title="src.system.Site.Site.\l__str__">
<polygon fill="white" stroke="black" points="257.5,-0 257.5,-30 366.5,-30 366.5,-0 257.5,-0"/>
<text text-anchor="start" x="265.5" y="-18" font-family="Helvetica,sans-Serif" font-size="10.00">src.system.Site.Site.</text>
<text text-anchor="middle" x="312" y="-7" font-family="Helvetica,sans-Serif" font-size="10.00">__str__</text>
</a>
</g>
</g>
<!-- Node1&#45;&gt;Node3 -->
<g id="edge2" class="edge"><title>Node1&#45;&gt;Node3</title>
<path fill="none" stroke="midnightblue" d="M197.345,-28.306C217.903,-25.8992 239.067,-23.4214 257.476,-21.2662"/>
<polygon fill="midnightblue" stroke="midnightblue" points="196.841,-24.841 187.316,-29.4801 197.655,-31.7935 196.841,-24.841"/>
</g>
</g>
</svg>
