<?xml version="1.0" encoding="UTF-8" standalone="no"?>
<!DOCTYPE svg PUBLIC "-//W3C//DTD SVG 1.1//EN"
 "http://www.w3.org/Graphics/SVG/1.1/DTD/svg11.dtd">
<!-- Generated by graphviz version 2.34.0 (20130907.0111)
 -->
<!-- Title: src.system.Worker.Worker.serial Pages: 1 -->
<svg width="404pt" height="306pt"
 viewBox="0.00 0.00 404.00 306.00" xmlns="http://www.w3.org/2000/svg" xmlns:xlink="http://www.w3.org/1999/xlink">
<g id="graph0" class="graph" transform="scale(1 1) rotate(0) translate(4 302)">
<title>src.system.Worker.Worker.serial</title>
<polygon fill="white" stroke="white" points="-4,4 -4,-302 400,-302 400,4 -4,4"/>
<!-- Node1 -->
<g id="node1" class="node"><title>Node1</title>
<polygon fill="#bfbfbf" stroke="black" points="0.5,-133.5 0.5,-152.5 161.5,-152.5 161.5,-133.5 0.5,-133.5"/>
<text text-anchor="middle" x="81" y="-140.5" font-family="Helvetica,sans-Serif" font-size="10.00">src.system.Worker.Worker.serial</text>
</g>
<!-- Node2 -->
<g id="node2" class="node"><title>Node2</title>
<g id="a_node2"><a xlink:href="classsrc_1_1system_1_1_assignment_1_1_assignment.html#a5cfab01fe73bd4717e870a653c79ade7" target="_top" xlink:title="src.system.Assignment.Assignment.num">
<polygon fill="white" stroke="black" points="198.5,-278.5 198.5,-297.5 395.5,-297.5 395.5,-278.5 198.5,-278.5"/>
<text text-anchor="middle" x="297" y="-285.5" font-family="Helvetica,sans-Serif" font-size="10.00">src.system.Assignment.Assignment.num</text>
</a>
</g>
</g>
<!-- Node1&#45;&gt;Node2 -->
<g id="edge1" class="edge"><title>Node1&#45;&gt;Node2</title>
<path fill="none" stroke="midnightblue" d="M87.8969,-152.714C102.949,-176.603 145.349,-238.409 198,-268 202.872,-270.738 208.069,-273.104 213.431,-275.148"/>
<polygon fill="midnightblue" stroke="midnightblue" points="212.632,-278.574 223.227,-278.49 214.893,-271.949 212.632,-278.574"/>
</g>
<!-- Node3 -->
<g id="node3" class="node"><title>Node3</title>
<g id="a_node3"><a xlink:href="classsrc_1_1system_1_1_build_site_1_1_build_site.html#af8c3a37156cc485fa4feb6b3d7dec0a5" target="_top" xlink:title="src.system.BuildSite.Build\lSite.num">
<polygon fill="white" stroke="black" points="231,-229 231,-259 363,-259 363,-229 231,-229"/>
<text text-anchor="start" x="239" y="-247" font-family="Helvetica,sans-Serif" font-size="10.00">src.system.BuildSite.Build</text>
<text text-anchor="middle" x="297" y="-236" font-family="Helvetica,sans-Serif" font-size="10.00">Site.num</text>
</a>
</g>
</g>
<!-- Node1&#45;&gt;Node3 -->
<g id="edge2" class="edge"><title>Node1&#45;&gt;Node3</title>
<path fill="none" stroke="midnightblue" d="M93.7586,-152.632C113.893,-168.665 156.797,-200.852 198,-219 205.369,-222.246 213.242,-225.13 221.202,-227.68"/>
<polygon fill="midnightblue" stroke="midnightblue" points="220.342,-231.076 230.928,-230.625 222.371,-224.377 220.342,-231.076"/>
</g>
<!-- Node4 -->
<g id="node4" class="node"><title>Node4</title>
<g id="a_node4"><a xlink:href="classsrc_1_1system_1_1_position_1_1_position.html#a64cc721238bf0d5eff6b236ee6b78dc8" target="_top" xlink:title="src.system.Position.Position.num">
<polygon fill="white" stroke="black" points="215,-190.5 215,-209.5 379,-209.5 379,-190.5 215,-190.5"/>
<text text-anchor="middle" x="297" y="-197.5" font-family="Helvetica,sans-Serif" font-size="10.00">src.system.Position.Position.num</text>
</a>
</g>
</g>
<!-- Node1&#45;&gt;Node4 -->
<g id="edge3" class="edge"><title>Node1&#45;&gt;Node4</title>
<path fill="none" stroke="midnightblue" d="M107.983,-152.547C131.312,-160.87 166.617,-172.852 198,-181 208.467,-183.718 219.654,-186.239 230.588,-188.499"/>
<polygon fill="midnightblue" stroke="midnightblue" points="230.036,-191.958 240.53,-190.499 231.416,-185.096 230.036,-191.958"/>
</g>
<!-- Node5 -->
<g id="node5" class="node"><title>Node5</title>
<g id="a_node5"><a xlink:href="classsrc_1_1system_1_1_site_1_1_site.html#a61fe5e08b46533b09f9cda9790c13b8e" target="_top" xlink:title="src.system.Site.Site.num">
<polygon fill="white" stroke="black" points="233,-152.5 233,-171.5 361,-171.5 361,-152.5 233,-152.5"/>
<text text-anchor="middle" x="297" y="-159.5" font-family="Helvetica,sans-Serif" font-size="10.00">src.system.Site.Site.num</text>
</a>
</g>
</g>
<!-- Node1&#45;&gt;Node5 -->
<g id="edge4" class="edge"><title>Node1&#45;&gt;Node5</title>
<path fill="none" stroke="midnightblue" d="M161.686,-150.075C181.722,-151.854 203.128,-153.754 222.829,-155.504"/>
<polygon fill="midnightblue" stroke="midnightblue" points="222.689,-159.005 232.959,-156.403 223.308,-152.032 222.689,-159.005"/>
</g>
<!-- Node6 -->
<g id="node6" class="node"><title>Node6</title>
<g id="a_node6"><a xlink:href="classsrc_1_1system_1_1_worker_1_1_worker.html#ae95eab467e2f0eda285f7a4d81be9d9a" target="_top" xlink:title="src.system.Worker.Worker.num">
<polygon fill="white" stroke="black" points="219,-114.5 219,-133.5 375,-133.5 375,-114.5 219,-114.5"/>
<text text-anchor="middle" x="297" y="-121.5" font-family="Helvetica,sans-Serif" font-size="10.00">src.system.Worker.Worker.num</text>
</a>
</g>
</g>
<!-- Node1&#45;&gt;Node6 -->
<g id="edge5" class="edge"><title>Node1&#45;&gt;Node6</title>
<path fill="none" stroke="midnightblue" d="M161.686,-135.925C176.99,-134.566 193.094,-133.137 208.626,-131.757"/>
<polygon fill="midnightblue" stroke="midnightblue" points="209.085,-135.231 218.736,-130.86 208.466,-128.258 209.085,-135.231"/>
</g>
<!-- Node7 -->
<g id="node7" class="node"><title>Node7</title>
<g id="a_node7"><a xlink:href="classsrc_1_1system_1_1_site_1_1_site.html#a913cf77ecc395b4753eef6687514e54c" target="_top" xlink:title="src.system.Site.Site.name">
<polygon fill="white" stroke="black" points="230.5,-76.5 230.5,-95.5 363.5,-95.5 363.5,-76.5 230.5,-76.5"/>
<text text-anchor="middle" x="297" y="-83.5" font-family="Helvetica,sans-Serif" font-size="10.00">src.system.Site.Site.name</text>
</a>
</g>
</g>
<!-- Node1&#45;&gt;Node7 -->
<g id="edge6" class="edge"><title>Node1&#45;&gt;Node7</title>
<path fill="none" stroke="midnightblue" d="M107.983,-133.453C131.312,-125.13 166.617,-113.148 198,-105 208.467,-102.282 219.654,-99.7606 230.588,-97.5009"/>
<polygon fill="midnightblue" stroke="midnightblue" points="231.416,-100.904 240.53,-95.5011 230.036,-94.0418 231.416,-100.904"/>
</g>
<!-- Node8 -->
<g id="node8" class="node"><title>Node8</title>
<g id="a_node8"><a xlink:href="classsrc_1_1system_1_1_worker_1_1_worker.html#ada1f5fdee282453ce25f760934a627a5" target="_top" xlink:title="src.system.Worker.Worker.name">
<polygon fill="white" stroke="black" points="216.5,-38.5 216.5,-57.5 377.5,-57.5 377.5,-38.5 216.5,-38.5"/>
<text text-anchor="middle" x="297" y="-45.5" font-family="Helvetica,sans-Serif" font-size="10.00">src.system.Worker.Worker.name</text>
</a>
</g>
</g>
<!-- Node1&#45;&gt;Node8 -->
<g id="edge7" class="edge"><title>Node1&#45;&gt;Node8</title>
<path fill="none" stroke="midnightblue" d="M93.3288,-133.367C113.161,-117.035 156.063,-84.0307 198,-67 204.568,-64.3326 211.54,-62.0325 218.618,-60.0505"/>
<polygon fill="midnightblue" stroke="midnightblue" points="219.505,-63.4362 228.308,-57.5402 217.75,-56.6599 219.505,-63.4362"/>
</g>
<!-- Node9 -->
<g id="node9" class="node"><title>Node9</title>
<g id="a_node9"><a xlink:href="classsrc_1_1system_1_1_worker_1_1_worker.html#a1487a38521d970c03cdfee9d825a55c4" target="_top" xlink:title="src.system.Worker.Worker.firstName">
<polygon fill="white" stroke="black" points="207.5,-0.5 207.5,-19.5 386.5,-19.5 386.5,-0.5 207.5,-0.5"/>
<text text-anchor="middle" x="297" y="-7.5" font-family="Helvetica,sans-Serif" font-size="10.00">src.system.Worker.Worker.firstName</text>
</a>
</g>
</g>
<!-- Node1&#45;&gt;Node9 -->
<g id="edge8" class="edge"><title>Node1&#45;&gt;Node9</title>
<path fill="none" stroke="midnightblue" d="M88.568,-133.466C104.479,-111.178 147.517,-55.5459 198,-29 202.533,-26.6161 207.326,-24.5295 212.258,-22.7031"/>
<polygon fill="midnightblue" stroke="midnightblue" points="213.498,-25.9793 221.883,-19.5022 211.289,-19.337 213.498,-25.9793"/>
</g>
</g>
</svg>
