<?xml version="1.0" encoding="UTF-8" standalone="no"?>
<!DOCTYPE svg PUBLIC "-//W3C//DTD SVG 1.1//EN"
 "http://www.w3.org/Graphics/SVG/1.1/DTD/svg11.dtd">
<!-- Generated by graphviz version 2.26.3 (20100126.1600)
 -->
<!-- Title: src.system.Site.Site Pages: 1 -->
<svg width="114pt" height="420pt"
 viewBox="0.00 0.00 114.00 420.00" xmlns="http://www.w3.org/2000/svg" xmlns:xlink="http://www.w3.org/1999/xlink">
<g id="graph1" class="graph" transform="scale(1 1) rotate(0) translate(4 416)">
<title>src.system.Site.Site</title>
<polygon fill="white" stroke="white" points="-4,5 -4,-416 111,-416 111,5 -4,5"/>
<!-- Node1 -->
<g id="node1" class="node"><title>Node1</title>
<polygon fill="#bfbfbf" stroke="black" points="0,-1 0,-311 106,-311 106,-1 0,-1"/>
<text text-anchor="middle" x="53" y="-298" font-family="Helvetica,sans-Serif" font-size="10.00">src.system.Site.Site</text>
<polyline fill="none" stroke="black" points="0,-290 106,-290 "/>
<text text-anchor="start" x="8" y="-277" font-family="Helvetica,sans-Serif" font-size="10.00">&#45; _num</text>
<text text-anchor="start" x="8" y="-264" font-family="Helvetica,sans-Serif" font-size="10.00">&#45; _numSite</text>
<text text-anchor="start" x="8" y="-251" font-family="Helvetica,sans-Serif" font-size="10.00">&#45; _name</text>
<text text-anchor="start" x="8" y="-238" font-family="Helvetica,sans-Serif" font-size="10.00">&#45; _siteMaster</text>
<text text-anchor="start" x="8" y="-225" font-family="Helvetica,sans-Serif" font-size="10.00">&#45; _siteManager</text>
<text text-anchor="start" x="8" y="-212" font-family="Helvetica,sans-Serif" font-size="10.00">&#45; _position</text>
<text text-anchor="start" x="8" y="-199" font-family="Helvetica,sans-Serif" font-size="10.00">&#45; _dateInit</text>
<text text-anchor="start" x="8" y="-186" font-family="Helvetica,sans-Serif" font-size="10.00">&#45; _dateEnd</text>
<text text-anchor="start" x="8" y="-173" font-family="Helvetica,sans-Serif" font-size="10.00">&#45; _color</text>
<text text-anchor="start" x="8" y="-160" font-family="Helvetica,sans-Serif" font-size="10.00">&#45; _phases</text>
<polyline fill="none" stroke="black" points="0,-152 106,-152 "/>
<text text-anchor="start" x="8" y="-139" font-family="Helvetica,sans-Serif" font-size="10.00">+ __init__()</text>
<text text-anchor="start" x="8" y="-126" font-family="Helvetica,sans-Serif" font-size="10.00">+ num()</text>
<text text-anchor="start" x="8" y="-113" font-family="Helvetica,sans-Serif" font-size="10.00">+ num()</text>
<text text-anchor="start" x="8" y="-100" font-family="Helvetica,sans-Serif" font-size="10.00">+ numSite()</text>
<text text-anchor="start" x="8" y="-87" font-family="Helvetica,sans-Serif" font-size="10.00">+ numSite()</text>
<text text-anchor="start" x="8" y="-74" font-family="Helvetica,sans-Serif" font-size="10.00">+ name()</text>
<text text-anchor="start" x="8" y="-61" font-family="Helvetica,sans-Serif" font-size="10.00">+ name()</text>
<text text-anchor="start" x="8" y="-48" font-family="Helvetica,sans-Serif" font-size="10.00">+ siteMaster()</text>
<text text-anchor="start" x="8" y="-35" font-family="Helvetica,sans-Serif" font-size="10.00">+ siteMaster()</text>
<text text-anchor="start" x="8" y="-22" font-family="Helvetica,sans-Serif" font-size="10.00">+ siteManager()</text>
<text text-anchor="start" x="8" y="-9" font-family="Helvetica,sans-Serif" font-size="10.00">and 13 more...</text>
</g>
<!-- Node2 -->
<g id="node2" class="node"><title>Node2</title>
<polygon fill="white" stroke="#bfbfbf" points="31.5,-348.5 31.5,-411.5 74.5,-411.5 74.5,-348.5 31.5,-348.5"/>
<text text-anchor="middle" x="53" y="-398.5" font-family="Helvetica,sans-Serif" font-size="10.00">object</text>
<polyline fill="none" stroke="#bfbfbf" points="31.5,-390.5 74.5,-390.5 "/>
<text text-anchor="middle" x="53" y="-377.5" font-family="Helvetica,sans-Serif" font-size="10.00"> </text>
<polyline fill="none" stroke="#bfbfbf" points="31.5,-369.5 74.5,-369.5 "/>
<text text-anchor="middle" x="53" y="-356.5" font-family="Helvetica,sans-Serif" font-size="10.00"> </text>
</g>
<!-- Node2&#45;&gt;Node1 -->
<g id="edge2" class="edge"><title>Node2&#45;&gt;Node1</title>
<path fill="none" stroke="midnightblue" d="M53,-338.143C53,-329.967 53,-320.956 53,-311.452"/>
<polygon fill="none" stroke="midnightblue" points="49.5001,-338.381 53,-348.381 56.5001,-338.381 49.5001,-338.381"/>
</g>
</g>
</svg>
