<?xml version="1.0" encoding="UTF-8" standalone="no"?>
<!DOCTYPE svg PUBLIC "-//W3C//DTD SVG 1.1//EN"
 "http://www.w3.org/Graphics/SVG/1.1/DTD/svg11.dtd">
<!-- Generated by graphviz version 2.34.0 (20130907.0111)
 -->
<!-- Title: src.optimisation.SolTemp.SolTemp.__str__ Pages: 1 -->
<svg width="304pt" height="87pt"
 viewBox="0.00 0.00 304.00 87.00" xmlns="http://www.w3.org/2000/svg" xmlns:xlink="http://www.w3.org/1999/xlink">
<g id="graph0" class="graph" transform="scale(1 1) rotate(0) translate(4 83)">
<title>src.optimisation.SolTemp.SolTemp.__str__</title>
<polygon fill="white" stroke="white" points="-4,4 -4,-83 300,-83 300,4 -4,4"/>
<!-- Node1 -->
<g id="node1" class="node"><title>Node1</title>
<polygon fill="#bfbfbf" stroke="black" points="0,-24 0,-54 130,-54 130,-24 0,-24"/>
<text text-anchor="start" x="8" y="-42" font-family="Helvetica,sans-Serif" font-size="10.00">src.optimisation.SolTemp.</text>
<text text-anchor="middle" x="65" y="-31" font-family="Helvetica,sans-Serif" font-size="10.00">SolTemp.__str__</text>
</g>
<!-- Node2 -->
<g id="node2" class="node"><title>Node2</title>
<g id="a_node2"><a xlink:href="classsrc_1_1optimisation_1_1_sol_temp_1_1_sol_temp.html#ae62e2f37f38bb7410dcf0d428f6bd807" target="_top" xlink:title="Getter du dictionnaire des affectations. ">
<polygon fill="white" stroke="black" points="166,-49 166,-79 296,-79 296,-49 166,-49"/>
<text text-anchor="start" x="174" y="-67" font-family="Helvetica,sans-Serif" font-size="10.00">src.optimisation.SolTemp.</text>
<text text-anchor="middle" x="231" y="-56" font-family="Helvetica,sans-Serif" font-size="10.00">SolTemp.affects</text>
</a>
</g>
</g>
<!-- Node1&#45;&gt;Node2 -->
<g id="edge1" class="edge"><title>Node1&#45;&gt;Node2</title>
<path fill="none" stroke="midnightblue" d="M130.346,-48.8089C138.731,-50.0871 147.375,-51.4047 155.903,-52.7047"/>
<polygon fill="midnightblue" stroke="midnightblue" points="155.426,-56.1723 165.839,-54.2194 156.481,-49.2523 155.426,-56.1723"/>
</g>
<!-- Node3 -->
<g id="node3" class="node"><title>Node3</title>
<g id="a_node3"><a xlink:href="classsrc_1_1optimisation_1_1_sol_temp_1_1_sol_temp.html#abbee6f41ca2fc4001c2db28b4b8b027a" target="_top" xlink:title="Getter de la distance cumulée de trajet d&#39;après les affectation de la SolTemp. ">
<polygon fill="white" stroke="black" points="166,-0 166,-30 296,-30 296,-0 166,-0"/>
<text text-anchor="start" x="174" y="-18" font-family="Helvetica,sans-Serif" font-size="10.00">src.optimisation.SolTemp.</text>
<text text-anchor="middle" x="231" y="-7" font-family="Helvetica,sans-Serif" font-size="10.00">SolTemp.distance</text>
</a>
</g>
</g>
<!-- Node1&#45;&gt;Node3 -->
<g id="edge2" class="edge"><title>Node1&#45;&gt;Node3</title>
<path fill="none" stroke="midnightblue" d="M130.346,-29.5834C138.731,-28.3564 147.375,-27.0915 155.903,-25.8435"/>
<polygon fill="midnightblue" stroke="midnightblue" points="156.451,-29.3006 165.839,-24.3894 155.438,-22.3744 156.451,-29.3006"/>
</g>
</g>
</svg>
