<?xml version="1.0" encoding="UTF-8" standalone="no"?>
<!DOCTYPE svg PUBLIC "-//W3C//DTD SVG 1.1//EN"
 "http://www.w3.org/Graphics/SVG/1.1/DTD/svg11.dtd">
<!-- Generated by graphviz version 2.34.0 (20130907.0111)
 -->
<!-- Title: src.interfacebdd.AbstractDAO.AbstractDAO.update Pages: 1 -->
<!--zoomable 136 -->
<svg id="main" version="1.1" xmlns="http://www.w3.org/2000/svg" xmlns:xlink="http://www.w3.org/1999/xlink" xml:space="preserve" onload="init(evt)">
<style type="text/css"><![CDATA[
.edge:hover path { stroke: red; }
.edge:hover polygon { stroke: red; fill: red; }
]]></style>
<script type="text/javascript"><![CDATA[
var edges = document.getElementsByTagName('g');
if (edges && edges.length) {
  for (var i=0;i<edges.length;i++) {
    if (edges[i].id.substr(0,4)=='edge') {
      edges[i].setAttribute('class','edge');
    }
  }
}
]]></script>
        <defs>
                <circle id="rim" cx="0" cy="0" r="7"/>
                <circle id="rim2" cx="0" cy="0" r="3.5"/>
                <g id="zoomPlus">
                        <use xlink:href="#rim" fill="#404040">
                                <set attributeName="fill" to="#808080" begin="zoomplus.mouseover" end="zoomplus.mouseout"/>
                        </use>
                        <path d="M-4,0h8M0,-4v8" fill="none" stroke="white" stroke-width="1.5" pointer-events="none"/>
                </g>
                <g id="zoomMin">
                        <use xlink:href="#rim" fill="#404040">
                                <set attributeName="fill" to="#808080" begin="zoomminus.mouseover" end="zoomminus.mouseout"/>
                        </use>
                        <path d="M-4,0h8" fill="none" stroke="white" stroke-width="1.5" pointer-events="none"/>
                </g>
                <g id="dirArrow">
                        <path fill="none" stroke="white" stroke-width="1.5" d="M0,-3.0v7 M-2.5,-0.5L0,-3.0L2.5,-0.5"/>
                </g>
               <g id="resetDef">
                       <use xlink:href="#rim2" fill="#404040">
                               <set attributeName="fill" to="#808080" begin="reset.mouseover" end="reset.mouseout"/>
                       </use>
               </g>
        </defs>

<script type="text/javascript">
var viewWidth = 502;
var viewHeight = 136;
var sectionId = 'dynsection-23';
</script>
<script xlink:href="svgpan.js"/>
<svg id="graph" class="graph">
<g id="viewport">
<title>src.interfacebdd.AbstractDAO.AbstractDAO.update</title>
<polygon fill="white" stroke="white" points="-4,4 -4,-132 498,-132 498,4 -4,4"/>
<!-- Node1 -->
<g id="node1" class="node"><title>Node1</title>
<polygon fill="#bfbfbf" stroke="black" points="0.5,-49 0.5,-79 131.5,-79 131.5,-49 0.5,-49"/>
<text text-anchor="start" x="8.5" y="-67" font-family="Helvetica,sans-Serif" font-size="10.00">src.interfacebdd.Abstract</text>
<text text-anchor="middle" x="66" y="-56" font-family="Helvetica,sans-Serif" font-size="10.00">DAO.AbstractDAO.update</text>
</g>
<!-- Node2 -->
<g id="node2" class="node"><title>Node2</title>
<g id="a_node2"><a xlink:href="classsrc_1_1interfacebdd_1_1_abstract_d_a_o_1_1_abstract_d_a_o.html#ad78a6997ddf6be035df24ef4a0395736" target="_top" xlink:title="src.interfacebdd.Abstract\lDAO.AbstractDAO.joins">
<polygon fill="white" stroke="black" points="180.5,-98 180.5,-128 305.5,-128 305.5,-98 180.5,-98"/>
<text text-anchor="start" x="188.5" y="-116" font-family="Helvetica,sans-Serif" font-size="10.00">src.interfacebdd.Abstract</text>
<text text-anchor="middle" x="243" y="-105" font-family="Helvetica,sans-Serif" font-size="10.00">DAO.AbstractDAO.joins</text>
</a>
</g>
</g>
<!-- Node1&#45;&gt;Node2 -->
<g id="edge1" class="edge"><title>Node1&#45;&gt;Node2</title>
<path fill="none" stroke="midnightblue" d="M120.934,-79.1014C139.15,-84.2019 159.653,-89.9429 178.537,-95.2305"/>
<polygon fill="midnightblue" stroke="midnightblue" points="177.671,-98.6224 188.244,-97.9484 179.558,-91.8817 177.671,-98.6224"/>
</g>
<!-- Node3 -->
<g id="node3" class="node"><title>Node3</title>
<g id="a_node3"><a xlink:href="classsrc_1_1interfacebdd_1_1_abstract_d_a_o_1_1_abstract_d_a_o.html#a234029a022fd7726dea266ba5dfe5cbd" target="_top" xlink:title="src.interfacebdd.Abstract\lDAO.AbstractDAO.tableName">
<polygon fill="white" stroke="black" points="169,-49 169,-79 317,-79 317,-49 169,-49"/>
<text text-anchor="start" x="177" y="-67" font-family="Helvetica,sans-Serif" font-size="10.00">src.interfacebdd.Abstract</text>
<text text-anchor="middle" x="243" y="-56" font-family="Helvetica,sans-Serif" font-size="10.00">DAO.AbstractDAO.tableName</text>
</a>
</g>
</g>
<!-- Node1&#45;&gt;Node3 -->
<g id="edge2" class="edge"><title>Node1&#45;&gt;Node3</title>
<path fill="none" stroke="midnightblue" d="M131.666,-64C140.438,-64 149.54,-64 158.582,-64"/>
<polygon fill="midnightblue" stroke="midnightblue" points="158.747,-67.5001 168.747,-64 158.747,-60.5001 158.747,-67.5001"/>
</g>
<!-- Node4 -->
<g id="node4" class="node"><title>Node4</title>
<g id="a_node4"><a xlink:href="classsrc_1_1interfacebdd_1_1_abstract_d_a_o_1_1_abstract_d_a_o.html#a52ac76b329acbea36076a7872c0a9af9" target="_top" xlink:title="Construit et initialise un objet pour accéder à la bdd. ">
<polygon fill="white" stroke="black" points="168.5,-0 168.5,-30 317.5,-30 317.5,-0 168.5,-0"/>
<text text-anchor="start" x="176.5" y="-18" font-family="Helvetica,sans-Serif" font-size="10.00">src.interfacebdd.Abstract</text>
<text text-anchor="middle" x="243" y="-7" font-family="Helvetica,sans-Serif" font-size="10.00">DAO.AbstractDAO.connection</text>
</a>
</g>
</g>
<!-- Node1&#45;&gt;Node4 -->
<g id="edge3" class="edge"><title>Node1&#45;&gt;Node4</title>
<path fill="none" stroke="midnightblue" d="M120.934,-48.8986C139.15,-43.7981 159.653,-38.0571 178.537,-32.7695"/>
<polygon fill="midnightblue" stroke="midnightblue" points="179.558,-36.1183 188.244,-30.0516 177.671,-29.3776 179.558,-36.1183"/>
</g>
<!-- Node5 -->
<g id="node5" class="node"><title>Node5</title>
<g id="a_node5"><a xlink:href="classsrc_1_1interfacebdd_1_1_abstract_d_a_o_1_1_abstract_d_a_o.html#ab7baabe45cdca232b62c0ca1d5fd7ba7" target="_top" xlink:title="construit un chemin absolu ">
<polygon fill="white" stroke="black" points="354,-0 354,-30 494,-30 494,-0 354,-0"/>
<text text-anchor="start" x="362" y="-18" font-family="Helvetica,sans-Serif" font-size="10.00">src.interfacebdd.Abstract</text>
<text text-anchor="middle" x="424" y="-7" font-family="Helvetica,sans-Serif" font-size="10.00">DAO.AbstractDAO.buildpath</text>
</a>
</g>
</g>
<!-- Node4&#45;&gt;Node5 -->
<g id="edge4" class="edge"><title>Node4&#45;&gt;Node5</title>
<path fill="none" stroke="midnightblue" d="M317.581,-15C326.175,-15 334.972,-15 343.639,-15"/>
<polygon fill="midnightblue" stroke="midnightblue" points="343.736,-18.5001 353.736,-15 343.736,-11.5001 343.736,-18.5001"/>
</g>
<!-- Node5&#45;&gt;Node5 -->
<g id="edge5" class="edge"><title>Node5&#45;&gt;Node5</title>
<path fill="none" stroke="midnightblue" d="M392.359,-30.2754C385.328,-39.4063 395.875,-48 424,-48 440.699,-48 451.201,-44.9704 455.507,-40.5975"/>
<polygon fill="midnightblue" stroke="midnightblue" points="459.011,-40.32 455.641,-30.2754 452.011,-40.2291 459.011,-40.32"/>
</g>
</g>
</svg>
        <g id="navigator" transform="translate(0 0)" fill="#404254">
                <rect fill="#f2f5e9" fill-opacity="0.5" stroke="#606060" stroke-width=".5" x="0" y="0" width="60" height="60"/>
                <use id="zoomplus" xlink:href="#zoomPlus" x="17" y="9" onmousedown="handleZoom(evt,'in')"/>
                <use id="zoomminus" xlink:href="#zoomMin" x="42" y="9" onmousedown="handleZoom(evt,'out')"/>
                <use id="reset" xlink:href="#resetDef" x="30" y="36" onmousedown="handleReset()"/>
                <g id="arrowUp" xlink:href="#dirArrow" transform="translate(30 24)" onmousedown="handlePan(0,-1)">
                  <use xlink:href="#rim" fill="#404040">
                        <set attributeName="fill" to="#808080" begin="arrowUp.mouseover" end="arrowUp.mouseout"/>
                  </use>
                  <path fill="none" stroke="white" stroke-width="1.5" d="M0,-3.0v7 M-2.5,-0.5L0,-3.0L2.5,-0.5"/>
                </g>
                <g id="arrowRight" xlink:href="#dirArrow" transform="rotate(90) translate(36 -43)" onmousedown="handlePan(1,0)">
                  <use xlink:href="#rim" fill="#404040">
                        <set attributeName="fill" to="#808080" begin="arrowRight.mouseover" end="arrowRight.mouseout"/>
                  </use>
                  <path fill="none" stroke="white" stroke-width="1.5" d="M0,-3.0v7 M-2.5,-0.5L0,-3.0L2.5,-0.5"/>
                </g>
                <g id="arrowDown" xlink:href="#dirArrow" transform="rotate(180) translate(-30 -48)" onmousedown="handlePan(0,1)">
                  <use xlink:href="#rim" fill="#404040">
                        <set attributeName="fill" to="#808080" begin="arrowDown.mouseover" end="arrowDown.mouseout"/>
                  </use>
                  <path fill="none" stroke="white" stroke-width="1.5" d="M0,-3.0v7 M-2.5,-0.5L0,-3.0L2.5,-0.5"/>
                </g>
                <g id="arrowLeft" xlink:href="#dirArrow" transform="rotate(270) translate(-36 17)" onmousedown="handlePan(-1,0)">
                  <use xlink:href="#rim" fill="#404040">
                        <set attributeName="fill" to="#808080" begin="arrowLeft.mouseover" end="arrowLeft.mouseout"/>
                  </use>
                  <path fill="none" stroke="white" stroke-width="1.5" d="M0,-3.0v7 M-2.5,-0.5L0,-3.0L2.5,-0.5"/>
                </g>
        </g>
        <svg viewBox="0 0 15 15" width="100%" height="30px" preserveAspectRatio="xMaxYMin meet">
         <g id="arrow_out" transform="scale(0.3 0.3)">
          <a xlink:href="classsrc_1_1interfacebdd_1_1_abstract_d_a_o_1_1_abstract_d_a_o_ae15dbd8c7c4a14187194f9374ca043c9_cgraph_org.svg" target="_base">
           <rect id="button" ry="5" rx="5" y="6" x="6" height="38" width="38"
                fill="#f2f5e9" fill-opacity="0.5" stroke="#606060" stroke-width="1.0"/>
           <path id="arrow"
             d="M 11.500037,31.436501 C 11.940474,20.09759 22.043105,11.32322 32.158766,21.979434 L 37.068811,17.246167 C 37.068811,17.246167 37.088388,32 37.088388,32 L 22.160133,31.978069 C 22.160133,31.978069 26.997745,27.140456 26.997745,27.140456 C 18.528582,18.264221 13.291696,25.230495 11.500037,31.436501 z"
             style="fill:#404040;"/>
          </a>
         </g>
        </svg>
</svg>
