<?xml version="1.0" encoding="UTF-8" standalone="no"?>
<!DOCTYPE svg PUBLIC "-//W3C//DTD SVG 1.1//EN"
 "http://www.w3.org/Graphics/SVG/1.1/DTD/svg11.dtd">
<!-- Generated by graphviz version 2.34.0 (20130907.0111)
 -->
<!-- Title: src.optimisation.SolTemp.SolTemps._genInitialWave Pages: 1 -->
<svg width="306pt" height="87pt"
 viewBox="0.00 0.00 306.00 87.00" xmlns="http://www.w3.org/2000/svg" xmlns:xlink="http://www.w3.org/1999/xlink">
<g id="graph0" class="graph" transform="scale(1 1) rotate(0) translate(4 83)">
<title>src.optimisation.SolTemp.SolTemps._genInitialWave</title>
<polygon fill="white" stroke="white" points="-4,4 -4,-83 302,-83 302,4 -4,4"/>
<!-- Node1 -->
<g id="node1" class="node"><title>Node1</title>
<polygon fill="#bfbfbf" stroke="black" points="0.5,-24 0.5,-54 131.5,-54 131.5,-24 0.5,-24"/>
<text text-anchor="start" x="8.5" y="-42" font-family="Helvetica,sans-Serif" font-size="10.00">src.optimisation.SolTemp.</text>
<text text-anchor="middle" x="66" y="-31" font-family="Helvetica,sans-Serif" font-size="10.00">SolTemps._genInitialWave</text>
</g>
<!-- Node2 -->
<g id="node2" class="node"><title>Node2</title>
<g id="a_node2"><a xlink:href="classsrc_1_1optimisation_1_1_sol_temp_1_1_sol_temps.html#affc78e7ce371db9904dfbcc1b767f48b" target="_top" xlink:title="Insère un nouvel élément dans la liste des SolTemp déjà stockées. ">
<polygon fill="white" stroke="black" points="168,-49 168,-79 298,-79 298,-49 168,-49"/>
<text text-anchor="start" x="176" y="-67" font-family="Helvetica,sans-Serif" font-size="10.00">src.optimisation.SolTemp.</text>
<text text-anchor="middle" x="233" y="-56" font-family="Helvetica,sans-Serif" font-size="10.00">SolTemps._insertSol</text>
</a>
</g>
</g>
<!-- Node1&#45;&gt;Node2 -->
<g id="edge1" class="edge"><title>Node1&#45;&gt;Node2</title>
<path fill="none" stroke="midnightblue" d="M131.739,-48.8089C140.305,-50.1067 149.138,-51.4452 157.847,-52.7647"/>
<polygon fill="midnightblue" stroke="midnightblue" points="157.577,-56.2637 167.989,-54.3014 158.626,-49.3427 157.577,-56.2637"/>
</g>
<!-- Node3 -->
<g id="node3" class="node"><title>Node3</title>
<g id="a_node3"><a xlink:href="classsrc_1_1optimisation_1_1_sol_temp_1_1_sol_temps.html#ab2b1033799e18c04d805dba02a133eeb" target="_top" xlink:title="Génère la StatTable correspondante à l&#39;état actuel de la SolTemps. ">
<polygon fill="white" stroke="black" points="168,-0 168,-30 298,-30 298,-0 168,-0"/>
<text text-anchor="start" x="176" y="-18" font-family="Helvetica,sans-Serif" font-size="10.00">src.optimisation.SolTemp.</text>
<text text-anchor="middle" x="233" y="-7" font-family="Helvetica,sans-Serif" font-size="10.00">SolTemps._genStatTable</text>
</a>
</g>
</g>
<!-- Node1&#45;&gt;Node3 -->
<g id="edge2" class="edge"><title>Node1&#45;&gt;Node3</title>
<path fill="none" stroke="midnightblue" d="M131.739,-29.5834C140.305,-28.3375 149.138,-27.0526 157.847,-25.7859"/>
<polygon fill="midnightblue" stroke="midnightblue" points="158.597,-29.2137 167.989,-24.3107 157.589,-22.2866 158.597,-29.2137"/>
</g>
</g>
</svg>
