<?xml version="1.0" encoding="UTF-8" standalone="no"?>
<!DOCTYPE svg PUBLIC "-//W3C//DTD SVG 1.1//EN"
 "http://www.w3.org/Graphics/SVG/1.1/DTD/svg11.dtd">
<!-- Generated by graphviz version 2.34.0 (20130907.0111)
 -->
<!-- Title: src.system.Worker.Worker.__str__ Pages: 1 -->
<svg width="380pt" height="432pt"
 viewBox="0.00 0.00 380.00 432.00" xmlns="http://www.w3.org/2000/svg" xmlns:xlink="http://www.w3.org/1999/xlink">
<g id="graph0" class="graph" transform="scale(1 1) rotate(0) translate(4 428)">
<title>src.system.Worker.Worker.__str__</title>
<polygon fill="white" stroke="white" points="-4,4 -4,-428 376,-428 376,4 -4,4"/>
<!-- Node1 -->
<g id="node1" class="node"><title>Node1</title>
<polygon fill="#bfbfbf" stroke="black" points="0.5,-197 0.5,-227 137.5,-227 137.5,-197 0.5,-197"/>
<text text-anchor="start" x="8.5" y="-215" font-family="Helvetica,sans-Serif" font-size="10.00">src.system.Worker.Worker.</text>
<text text-anchor="middle" x="69" y="-204" font-family="Helvetica,sans-Serif" font-size="10.00">__str__</text>
</g>
<!-- Node2 -->
<g id="node2" class="node"><title>Node2</title>
<g id="a_node2"><a xlink:href="classsrc_1_1system_1_1_worker_1_1_worker.html#a1487a38521d970c03cdfee9d825a55c4" target="_top" xlink:title="src.system.Worker.Worker.firstName">
<polygon fill="white" stroke="black" points="183.5,-404.5 183.5,-423.5 362.5,-423.5 362.5,-404.5 183.5,-404.5"/>
<text text-anchor="middle" x="273" y="-411.5" font-family="Helvetica,sans-Serif" font-size="10.00">src.system.Worker.Worker.firstName</text>
</a>
</g>
</g>
<!-- Node1&#45;&gt;Node2 -->
<g id="edge1" class="edge"><title>Node1&#45;&gt;Node2</title>
<path fill="none" stroke="midnightblue" d="M73.9265,-227.245C83.9521,-262.897 114.04,-351.945 174,-395 176.675,-396.921 179.492,-398.661 182.417,-400.237"/>
<polygon fill="midnightblue" stroke="midnightblue" points="180.935,-403.408 191.474,-404.488 183.909,-397.071 180.935,-403.408"/>
</g>
<!-- Node3 -->
<g id="node3" class="node"><title>Node3</title>
<g id="a_node3"><a xlink:href="classsrc_1_1system_1_1_site_1_1_site.html#a913cf77ecc395b4753eef6687514e54c" target="_top" xlink:title="src.system.Site.Site.name">
<polygon fill="white" stroke="black" points="206.5,-366.5 206.5,-385.5 339.5,-385.5 339.5,-366.5 206.5,-366.5"/>
<text text-anchor="middle" x="273" y="-373.5" font-family="Helvetica,sans-Serif" font-size="10.00">src.system.Site.Site.name</text>
</a>
</g>
</g>
<!-- Node1&#45;&gt;Node3 -->
<g id="edge2" class="edge"><title>Node1&#45;&gt;Node3</title>
<path fill="none" stroke="midnightblue" d="M76.2379,-227.222C89.4209,-257.332 123.143,-324.399 174,-357 180.898,-361.422 188.59,-364.858 196.549,-367.523"/>
<polygon fill="midnightblue" stroke="midnightblue" points="195.771,-370.942 206.352,-370.404 197.745,-364.226 195.771,-370.942"/>
</g>
<!-- Node4 -->
<g id="node4" class="node"><title>Node4</title>
<g id="a_node4"><a xlink:href="classsrc_1_1system_1_1_worker_1_1_worker.html#ada1f5fdee282453ce25f760934a627a5" target="_top" xlink:title="src.system.Worker.Worker.name">
<polygon fill="white" stroke="black" points="192.5,-328.5 192.5,-347.5 353.5,-347.5 353.5,-328.5 192.5,-328.5"/>
<text text-anchor="middle" x="273" y="-335.5" font-family="Helvetica,sans-Serif" font-size="10.00">src.system.Worker.Worker.name</text>
</a>
</g>
</g>
<!-- Node1&#45;&gt;Node4 -->
<g id="edge3" class="edge"><title>Node1&#45;&gt;Node4</title>
<path fill="none" stroke="midnightblue" d="M80.1631,-227.06C96.8325,-250.492 132.327,-295.336 174,-318 179.131,-320.79 184.604,-323.193 190.243,-325.261"/>
<polygon fill="midnightblue" stroke="midnightblue" points="189.263,-328.623 199.856,-328.435 191.458,-321.976 189.263,-328.623"/>
</g>
<!-- Node5 -->
<g id="node5" class="node"><title>Node5</title>
<g id="a_node5"><a xlink:href="classsrc_1_1system_1_1_build_site_1_1_build_site.html#a58092f754bf3125e99f234aa8f5703f6" target="_top" xlink:title="src.system.BuildSite.Build\lSite.position">
<polygon fill="white" stroke="black" points="207,-279 207,-309 339,-309 339,-279 207,-279"/>
<text text-anchor="start" x="215" y="-297" font-family="Helvetica,sans-Serif" font-size="10.00">src.system.BuildSite.Build</text>
<text text-anchor="middle" x="273" y="-286" font-family="Helvetica,sans-Serif" font-size="10.00">Site.position</text>
</a>
</g>
</g>
<!-- Node1&#45;&gt;Node5 -->
<g id="edge4" class="edge"><title>Node1&#45;&gt;Node5</title>
<path fill="none" stroke="midnightblue" d="M93.5381,-227.146C114.091,-239.814 145.077,-257.596 174,-269 181.432,-271.93 189.319,-274.609 197.262,-277.033"/>
<polygon fill="midnightblue" stroke="midnightblue" points="196.374,-280.419 206.954,-279.862 198.336,-273.7 196.374,-280.419"/>
</g>
<!-- Node6 -->
<g id="node6" class="node"><title>Node6</title>
<g id="a_node6"><a xlink:href="classsrc_1_1system_1_1_site_1_1_site.html#aa1786bfbdc640613a9d3e9272ceab147" target="_top" xlink:title="src.system.Site.Site.position">
<polygon fill="white" stroke="black" points="201.5,-240.5 201.5,-259.5 344.5,-259.5 344.5,-240.5 201.5,-240.5"/>
<text text-anchor="middle" x="273" y="-247.5" font-family="Helvetica,sans-Serif" font-size="10.00">src.system.Site.Site.position</text>
</a>
</g>
</g>
<!-- Node1&#45;&gt;Node6 -->
<g id="edge5" class="edge"><title>Node1&#45;&gt;Node6</title>
<path fill="none" stroke="midnightblue" d="M137.544,-224.706C161.422,-229.198 188.113,-234.219 211.381,-238.596"/>
<polygon fill="midnightblue" stroke="midnightblue" points="210.99,-242.084 221.465,-240.493 212.285,-235.205 210.99,-242.084"/>
</g>
<!-- Node7 -->
<g id="node7" class="node"><title>Node7</title>
<g id="a_node7"><a xlink:href="classsrc_1_1system_1_1_worker_1_1_worker.html#ab2f260d1197b058d4258b358f3b503f2" target="_top" xlink:title="src.system.Worker.Worker.position">
<polygon fill="white" stroke="black" points="187.5,-202.5 187.5,-221.5 358.5,-221.5 358.5,-202.5 187.5,-202.5"/>
<text text-anchor="middle" x="273" y="-209.5" font-family="Helvetica,sans-Serif" font-size="10.00">src.system.Worker.Worker.position</text>
</a>
</g>
</g>
<!-- Node1&#45;&gt;Node7 -->
<g id="edge6" class="edge"><title>Node1&#45;&gt;Node7</title>
<path fill="none" stroke="midnightblue" d="M137.544,-212C150.248,-212 163.748,-212 177.105,-212"/>
<polygon fill="midnightblue" stroke="midnightblue" points="177.276,-215.5 187.276,-212 177.276,-208.5 177.276,-215.5"/>
</g>
<!-- Node8 -->
<g id="node8" class="node"><title>Node8</title>
<g id="a_node8"><a xlink:href="classsrc_1_1system_1_1_assignment_1_1_assignment.html#a5cfab01fe73bd4717e870a653c79ade7" target="_top" xlink:title="src.system.Assignment.Assignment.num">
<polygon fill="white" stroke="black" points="174.5,-164.5 174.5,-183.5 371.5,-183.5 371.5,-164.5 174.5,-164.5"/>
<text text-anchor="middle" x="273" y="-171.5" font-family="Helvetica,sans-Serif" font-size="10.00">src.system.Assignment.Assignment.num</text>
</a>
</g>
</g>
<!-- Node1&#45;&gt;Node8 -->
<g id="edge7" class="edge"><title>Node1&#45;&gt;Node8</title>
<path fill="none" stroke="midnightblue" d="M137.544,-199.294C161.422,-194.802 188.113,-189.781 211.381,-185.404"/>
<polygon fill="midnightblue" stroke="midnightblue" points="212.285,-188.795 221.465,-183.507 210.99,-181.916 212.285,-188.795"/>
</g>
<!-- Node9 -->
<g id="node9" class="node"><title>Node9</title>
<g id="a_node9"><a xlink:href="classsrc_1_1system_1_1_build_site_1_1_build_site.html#af8c3a37156cc485fa4feb6b3d7dec0a5" target="_top" xlink:title="src.system.BuildSite.Build\lSite.num">
<polygon fill="white" stroke="black" points="207,-115 207,-145 339,-145 339,-115 207,-115"/>
<text text-anchor="start" x="215" y="-133" font-family="Helvetica,sans-Serif" font-size="10.00">src.system.BuildSite.Build</text>
<text text-anchor="middle" x="273" y="-122" font-family="Helvetica,sans-Serif" font-size="10.00">Site.num</text>
</a>
</g>
</g>
<!-- Node1&#45;&gt;Node9 -->
<g id="edge8" class="edge"><title>Node1&#45;&gt;Node9</title>
<path fill="none" stroke="midnightblue" d="M93.5381,-196.854C114.091,-184.186 145.077,-166.404 174,-155 181.432,-152.07 189.319,-149.391 197.262,-146.967"/>
<polygon fill="midnightblue" stroke="midnightblue" points="198.336,-150.3 206.954,-144.138 196.374,-143.581 198.336,-150.3"/>
</g>
<!-- Node10 -->
<g id="node10" class="node"><title>Node10</title>
<g id="a_node10"><a xlink:href="classsrc_1_1system_1_1_position_1_1_position.html#a64cc721238bf0d5eff6b236ee6b78dc8" target="_top" xlink:title="src.system.Position.Position.num">
<polygon fill="white" stroke="black" points="191,-76.5 191,-95.5 355,-95.5 355,-76.5 191,-76.5"/>
<text text-anchor="middle" x="273" y="-83.5" font-family="Helvetica,sans-Serif" font-size="10.00">src.system.Position.Position.num</text>
</a>
</g>
</g>
<!-- Node1&#45;&gt;Node10 -->
<g id="edge9" class="edge"><title>Node1&#45;&gt;Node10</title>
<path fill="none" stroke="midnightblue" d="M80.1631,-196.94C96.8325,-173.508 132.327,-128.664 174,-106 179.131,-103.21 184.604,-100.807 190.243,-98.7392"/>
<polygon fill="midnightblue" stroke="midnightblue" points="191.458,-102.024 199.856,-95.5647 189.263,-95.377 191.458,-102.024"/>
</g>
<!-- Node11 -->
<g id="node11" class="node"><title>Node11</title>
<g id="a_node11"><a xlink:href="classsrc_1_1system_1_1_site_1_1_site.html#a61fe5e08b46533b09f9cda9790c13b8e" target="_top" xlink:title="src.system.Site.Site.num">
<polygon fill="white" stroke="black" points="209,-38.5 209,-57.5 337,-57.5 337,-38.5 209,-38.5"/>
<text text-anchor="middle" x="273" y="-45.5" font-family="Helvetica,sans-Serif" font-size="10.00">src.system.Site.Site.num</text>
</a>
</g>
</g>
<!-- Node1&#45;&gt;Node11 -->
<g id="edge10" class="edge"><title>Node1&#45;&gt;Node11</title>
<path fill="none" stroke="midnightblue" d="M76.2379,-196.778C89.4209,-166.668 123.143,-99.6013 174,-67 181.661,-62.089 190.302,-58.3933 199.199,-55.6209"/>
<polygon fill="midnightblue" stroke="midnightblue" points="200.198,-58.9764 208.919,-52.9611 198.35,-52.2246 200.198,-58.9764"/>
</g>
<!-- Node12 -->
<g id="node12" class="node"><title>Node12</title>
<g id="a_node12"><a xlink:href="classsrc_1_1system_1_1_worker_1_1_worker.html#ae95eab467e2f0eda285f7a4d81be9d9a" target="_top" xlink:title="src.system.Worker.Worker.num">
<polygon fill="white" stroke="black" points="195,-0.5 195,-19.5 351,-19.5 351,-0.5 195,-0.5"/>
<text text-anchor="middle" x="273" y="-7.5" font-family="Helvetica,sans-Serif" font-size="10.00">src.system.Worker.Worker.num</text>
</a>
</g>
</g>
<!-- Node1&#45;&gt;Node12 -->
<g id="edge11" class="edge"><title>Node1&#45;&gt;Node12</title>
<path fill="none" stroke="midnightblue" d="M73.9265,-196.755C83.9521,-161.103 114.04,-72.0555 174,-29 177.662,-26.3702 181.592,-24.0787 185.698,-22.0838"/>
<polygon fill="midnightblue" stroke="midnightblue" points="187.086,-25.2968 194.93,-18.1745 184.357,-18.8508 187.086,-25.2968"/>
</g>
</g>
</svg>
