<?xml version="1.0" encoding="UTF-8" standalone="no"?>
<!DOCTYPE svg PUBLIC "-//W3C//DTD SVG 1.1//EN"
 "http://www.w3.org/Graphics/SVG/1.1/DTD/svg11.dtd">
<!-- Generated by graphviz version 2.34.0 (20130907.0111)
 -->
<!-- Title: src.interfacebdd.AbstractDAO.AbstractDAO.connection Pages: 1 -->
<svg width="354pt" height="393pt"
 viewBox="0.00 0.00 354.00 393.00" xmlns="http://www.w3.org/2000/svg" xmlns:xlink="http://www.w3.org/1999/xlink">
<g id="graph0" class="graph" transform="scale(1 1) rotate(0) translate(4 389)">
<title>src.interfacebdd.AbstractDAO.AbstractDAO.connection</title>
<polygon fill="white" stroke="white" points="-4,4 -4,-389 350,-389 350,4 -4,4"/>
<!-- Node1 -->
<g id="node1" class="node"><title>Node1</title>
<polygon fill="#bfbfbf" stroke="black" points="0.5,-180 0.5,-210 149.5,-210 149.5,-180 0.5,-180"/>
<text text-anchor="start" x="8.5" y="-198" font-family="Helvetica,sans-Serif" font-size="10.00">src.interfacebdd.Abstract</text>
<text text-anchor="middle" x="75" y="-187" font-family="Helvetica,sans-Serif" font-size="10.00">DAO.AbstractDAO.connection</text>
</g>
<!-- Node2 -->
<g id="node2" class="node"><title>Node2</title>
<g id="a_node2"><a xlink:href="classsrc_1_1interfacebdd_1_1_abstract_d_a_o_1_1_abstract_d_a_o.html#a6b1483380fbd5c4a61f89e890f4fbe2b" target="_top" xlink:title="src.interfacebdd.Abstract\lDAO.AbstractDAO.getById">
<polygon fill="white" stroke="black" points="199,-355 199,-385 333,-385 333,-355 199,-355"/>
<text text-anchor="start" x="207" y="-373" font-family="Helvetica,sans-Serif" font-size="10.00">src.interfacebdd.Abstract</text>
<text text-anchor="middle" x="266" y="-362" font-family="Helvetica,sans-Serif" font-size="10.00">DAO.AbstractDAO.getById</text>
</a>
</g>
</g>
<!-- Node1&#45;&gt;Node2 -->
<g id="edge1" class="edge"><title>Node1&#45;&gt;Node2</title>
<path fill="none" stroke="midnightblue" d="M87.5531,-219.249C104.561,-252.411 139.428,-311.593 186,-345 191.377,-348.857 197.372,-352.135 203.59,-354.918"/>
<polygon fill="midnightblue" stroke="midnightblue" points="90.6496,-217.616 83.0445,-210.239 84.3896,-220.748 90.6496,-217.616"/>
</g>
<!-- Node3 -->
<g id="node3" class="node"><title>Node3</title>
<g id="a_node3"><a xlink:href="classsrc_1_1interfacebdd_1_1_abstract_d_a_o_1_1_abstract_d_a_o.html#a20ec3bc6a325d24f8e11d5ad10a7b78b" target="_top" xlink:title="src.interfacebdd.Abstract\lDAO.AbstractDAO.getByFilter">
<polygon fill="white" stroke="black" points="191.5,-306 191.5,-336 340.5,-336 340.5,-306 191.5,-306"/>
<text text-anchor="start" x="199.5" y="-324" font-family="Helvetica,sans-Serif" font-size="10.00">src.interfacebdd.Abstract</text>
<text text-anchor="middle" x="266" y="-313" font-family="Helvetica,sans-Serif" font-size="10.00">DAO.AbstractDAO.getByFilter</text>
</a>
</g>
</g>
<!-- Node1&#45;&gt;Node3 -->
<g id="edge2" class="edge"><title>Node1&#45;&gt;Node3</title>
<path fill="none" stroke="midnightblue" d="M95.2704,-217.759C115.672,-240.528 149.869,-275.09 186,-296 192.599,-299.819 199.852,-303.128 207.205,-305.975"/>
<polygon fill="midnightblue" stroke="midnightblue" points="97.884,-215.431 88.6486,-210.239 92.6304,-220.057 97.884,-215.431"/>
</g>
<!-- Node4 -->
<g id="node4" class="node"><title>Node4</title>
<g id="a_node4"><a xlink:href="classsrc_1_1interfacebdd_1_1_abstract_d_a_o_1_1_abstract_d_a_o.html#a32ceaeade6f552cd5ab17123fda60c46" target="_top" xlink:title="src.interfacebdd.Abstract\lDAO.AbstractDAO.getAll">
<polygon fill="white" stroke="black" points="203,-257 203,-287 329,-287 329,-257 203,-257"/>
<text text-anchor="start" x="211" y="-275" font-family="Helvetica,sans-Serif" font-size="10.00">src.interfacebdd.Abstract</text>
<text text-anchor="middle" x="266" y="-264" font-family="Helvetica,sans-Serif" font-size="10.00">DAO.AbstractDAO.getAll</text>
</a>
</g>
</g>
<!-- Node1&#45;&gt;Node4 -->
<g id="edge3" class="edge"><title>Node1&#45;&gt;Node4</title>
<path fill="none" stroke="midnightblue" d="M114.566,-214.8C135.416,-225.103 161.787,-237.496 186,-247 194.972,-250.522 204.659,-253.912 214.072,-256.999"/>
<polygon fill="midnightblue" stroke="midnightblue" points="115.913,-211.561 105.402,-210.231 112.789,-217.826 115.913,-211.561"/>
</g>
<!-- Node5 -->
<g id="node5" class="node"><title>Node5</title>
<g id="a_node5"><a xlink:href="classsrc_1_1interfacebdd_1_1_abstract_d_a_o_1_1_abstract_d_a_o.html#a2b67ab104d5359bbc4c16bcc18916a76" target="_top" xlink:title="src.interfacebdd.Abstract\lDAO.AbstractDAO.getAllByFilter">
<polygon fill="white" stroke="black" points="186,-208 186,-238 346,-238 346,-208 186,-208"/>
<text text-anchor="start" x="194" y="-226" font-family="Helvetica,sans-Serif" font-size="10.00">src.interfacebdd.Abstract</text>
<text text-anchor="middle" x="266" y="-215" font-family="Helvetica,sans-Serif" font-size="10.00">DAO.AbstractDAO.getAllByFilter</text>
</a>
</g>
</g>
<!-- Node1&#45;&gt;Node5 -->
<g id="edge4" class="edge"><title>Node1&#45;&gt;Node5</title>
<path fill="none" stroke="midnightblue" d="M159.763,-207.409C168.473,-208.7 177.306,-210.008 185.961,-211.291"/>
<polygon fill="midnightblue" stroke="midnightblue" points="160.019,-203.909 149.614,-205.906 158.993,-210.833 160.019,-203.909"/>
</g>
<!-- Node6 -->
<g id="node6" class="node"><title>Node6</title>
<g id="a_node6"><a xlink:href="classsrc_1_1interfacebdd_1_1_abstract_d_a_o_1_1_abstract_d_a_o.html#a43dda59bb16694f032b1c201c8291720" target="_top" xlink:title="src.interfacebdd.Abstract\lDAO.AbstractDAO.getAllByFilter\lExtended">
<polygon fill="white" stroke="black" points="186,-147.5 186,-188.5 346,-188.5 346,-147.5 186,-147.5"/>
<text text-anchor="start" x="194" y="-176.5" font-family="Helvetica,sans-Serif" font-size="10.00">src.interfacebdd.Abstract</text>
<text text-anchor="start" x="194" y="-165.5" font-family="Helvetica,sans-Serif" font-size="10.00">DAO.AbstractDAO.getAllByFilter</text>
<text text-anchor="middle" x="266" y="-154.5" font-family="Helvetica,sans-Serif" font-size="10.00">Extended</text>
</a>
</g>
</g>
<!-- Node1&#45;&gt;Node6 -->
<g id="edge5" class="edge"><title>Node1&#45;&gt;Node6</title>
<path fill="none" stroke="midnightblue" d="M159.763,-183.034C168.473,-181.79 177.306,-180.528 185.961,-179.291"/>
<polygon fill="midnightblue" stroke="midnightblue" points="159.018,-179.605 149.614,-184.484 160.008,-186.534 159.018,-179.605"/>
</g>
<!-- Node7 -->
<g id="node7" class="node"><title>Node7</title>
<g id="a_node7"><a xlink:href="classsrc_1_1interfacebdd_1_1_abstract_d_a_o_1_1_abstract_d_a_o.html#a172b8833771887e88fa7b41532520291" target="_top" xlink:title="src.interfacebdd.Abstract\lDAO.AbstractDAO.deleteById">
<polygon fill="white" stroke="black" points="192.5,-98 192.5,-128 339.5,-128 339.5,-98 192.5,-98"/>
<text text-anchor="start" x="200.5" y="-116" font-family="Helvetica,sans-Serif" font-size="10.00">src.interfacebdd.Abstract</text>
<text text-anchor="middle" x="266" y="-105" font-family="Helvetica,sans-Serif" font-size="10.00">DAO.AbstractDAO.deleteById</text>
</a>
</g>
</g>
<!-- Node1&#45;&gt;Node7 -->
<g id="edge6" class="edge"><title>Node1&#45;&gt;Node7</title>
<path fill="none" stroke="midnightblue" d="M111.035,-174.881C132.289,-163.175 160.204,-148.673 186,-138 194.64,-134.425 203.986,-131.054 213.122,-128.014"/>
<polygon fill="midnightblue" stroke="midnightblue" points="109.102,-171.951 102.066,-179.872 112.506,-178.068 109.102,-171.951"/>
</g>
<!-- Node8 -->
<g id="node8" class="node"><title>Node8</title>
<g id="a_node8"><a xlink:href="classsrc_1_1interfacebdd_1_1_abstract_d_a_o_1_1_abstract_d_a_o.html#a26c25d2269205a4024e501d41e3e5779" target="_top" xlink:title="src.interfacebdd.Abstract\lDAO.AbstractDAO.insert">
<polygon fill="white" stroke="black" points="203.5,-49 203.5,-79 328.5,-79 328.5,-49 203.5,-49"/>
<text text-anchor="start" x="211.5" y="-67" font-family="Helvetica,sans-Serif" font-size="10.00">src.interfacebdd.Abstract</text>
<text text-anchor="middle" x="266" y="-56" font-family="Helvetica,sans-Serif" font-size="10.00">DAO.AbstractDAO.insert</text>
</a>
</g>
</g>
<!-- Node1&#45;&gt;Node8 -->
<g id="edge7" class="edge"><title>Node1&#45;&gt;Node8</title>
<path fill="none" stroke="midnightblue" d="M94.3669,-171.861C114.494,-147.944 148.893,-111.076 186,-89 192.429,-85.1753 199.505,-81.8729 206.702,-79.0384"/>
<polygon fill="midnightblue" stroke="midnightblue" points="91.5325,-169.797 87.8617,-179.736 96.9291,-174.255 91.5325,-169.797"/>
</g>
<!-- Node9 -->
<g id="node9" class="node"><title>Node9</title>
<g id="a_node9"><a xlink:href="classsrc_1_1interfacebdd_1_1_abstract_d_a_o_1_1_abstract_d_a_o.html#ae15dbd8c7c4a14187194f9374ca043c9" target="_top" xlink:title="src.interfacebdd.Abstract\lDAO.AbstractDAO.update">
<polygon fill="white" stroke="black" points="200.5,-0 200.5,-30 331.5,-30 331.5,-0 200.5,-0"/>
<text text-anchor="start" x="208.5" y="-18" font-family="Helvetica,sans-Serif" font-size="10.00">src.interfacebdd.Abstract</text>
<text text-anchor="middle" x="266" y="-7" font-family="Helvetica,sans-Serif" font-size="10.00">DAO.AbstractDAO.update</text>
</a>
</g>
</g>
<!-- Node1&#45;&gt;Node9 -->
<g id="edge8" class="edge"><title>Node1&#45;&gt;Node9</title>
<path fill="none" stroke="midnightblue" d="M87.0855,-170.463C103.747,-136.294 138.437,-74.6818 186,-40 191.231,-36.1859 197.063,-32.9402 203.125,-30.181"/>
<polygon fill="midnightblue" stroke="midnightblue" points="83.814,-169.193 82.6832,-179.727 90.1365,-172.198 83.814,-169.193"/>
</g>
</g>
</svg>
