<?xml version="1.0" encoding="UTF-8" standalone="no"?>
<!DOCTYPE svg PUBLIC "-//W3C//DTD SVG 1.1//EN"
 "http://www.w3.org/Graphics/SVG/1.1/DTD/svg11.dtd">
<!-- Generated by graphviz version 2.34.0 (20130907.0111)
 -->
<!-- Title: src.system.Position.Position.num Pages: 1 -->
<svg width="370pt" height="116pt"
 viewBox="0.00 0.00 370.00 116.00" xmlns="http://www.w3.org/2000/svg" xmlns:xlink="http://www.w3.org/1999/xlink">
<g id="graph0" class="graph" transform="scale(1 1) rotate(0) translate(4 112)">
<title>src.system.Position.Position.num</title>
<polygon fill="white" stroke="white" points="-4,4 -4,-112 366,-112 366,4 -4,4"/>
<!-- Node1 -->
<g id="node1" class="node"><title>Node1</title>
<polygon fill="#bfbfbf" stroke="black" points="0,-44.5 0,-63.5 164,-63.5 164,-44.5 0,-44.5"/>
<text text-anchor="middle" x="82" y="-51.5" font-family="Helvetica,sans-Serif" font-size="10.00">src.system.Position.Position.num</text>
</g>
<!-- Node2 -->
<g id="node2" class="node"><title>Node2</title>
<g id="a_node2"><a xlink:href="classsrc_1_1system_1_1_site_1_1_site.html#a57bc8ec56d0adc43b55064e1989a1502" target="_top" xlink:title="serialise un chantier pour pouvoir le transmettre facilement ">
<polygon fill="white" stroke="black" points="215,-88.5 215,-107.5 347,-107.5 347,-88.5 215,-88.5"/>
<text text-anchor="middle" x="281" y="-95.5" font-family="Helvetica,sans-Serif" font-size="10.00">src.system.Site.Site.serial</text>
</a>
</g>
</g>
<!-- Node1&#45;&gt;Node2 -->
<g id="edge1" class="edge"><title>Node1&#45;&gt;Node2</title>
<path fill="none" stroke="midnightblue" d="M135.761,-65.7841C167.562,-72.8869 207.54,-81.816 237.337,-88.4713"/>
<polygon fill="midnightblue" stroke="midnightblue" points="136.269,-62.3114 125.746,-63.5473 134.743,-69.1431 136.269,-62.3114"/>
</g>
<!-- Node3 -->
<g id="node3" class="node"><title>Node3</title>
<g id="a_node3"><a xlink:href="classsrc_1_1system_1_1_worker_1_1_worker.html#a771360c3aaa0dd2be470ad6c885beb37" target="_top" xlink:title="Renvois un worker sous une forme lisible pour l&#39;humain. ">
<polygon fill="white" stroke="black" points="212.5,-39 212.5,-69 349.5,-69 349.5,-39 212.5,-39"/>
<text text-anchor="start" x="220.5" y="-57" font-family="Helvetica,sans-Serif" font-size="10.00">src.system.Worker.Worker.</text>
<text text-anchor="middle" x="281" y="-46" font-family="Helvetica,sans-Serif" font-size="10.00">__str__</text>
</a>
</g>
</g>
<!-- Node1&#45;&gt;Node3 -->
<g id="edge2" class="edge"><title>Node1&#45;&gt;Node3</title>
<path fill="none" stroke="midnightblue" d="M174.46,-54C187.235,-54 200.168,-54 212.395,-54"/>
<polygon fill="midnightblue" stroke="midnightblue" points="174.265,-50.5001 164.265,-54 174.265,-57.5001 174.265,-50.5001"/>
</g>
<!-- Node4 -->
<g id="node4" class="node"><title>Node4</title>
<g id="a_node4"><a xlink:href="classsrc_1_1system_1_1_worker_1_1_worker.html#a346ba2efb749b79fff836f4696256a11" target="_top" xlink:title="serialise une affectation pour pouvoir la transmettre facilement ">
<polygon fill="white" stroke="black" points="200.5,-0.5 200.5,-19.5 361.5,-19.5 361.5,-0.5 200.5,-0.5"/>
<text text-anchor="middle" x="281" y="-7.5" font-family="Helvetica,sans-Serif" font-size="10.00">src.system.Worker.Worker.serial</text>
</a>
</g>
</g>
<!-- Node1&#45;&gt;Node4 -->
<g id="edge3" class="edge"><title>Node1&#45;&gt;Node4</title>
<path fill="none" stroke="midnightblue" d="M135.761,-42.2159C167.562,-35.1131 207.54,-26.184 237.337,-19.5287"/>
<polygon fill="midnightblue" stroke="midnightblue" points="134.743,-38.8569 125.746,-44.4527 136.269,-45.6886 134.743,-38.8569"/>
</g>
</g>
</svg>
