<?xml version="1.0" encoding="UTF-8" standalone="no"?>
<!DOCTYPE svg PUBLIC "-//W3C//DTD SVG 1.1//EN"
 "http://www.w3.org/Graphics/SVG/1.1/DTD/svg11.dtd">
<!-- Generated by graphviz version 2.34.0 (20130907.0111)
 -->
<!-- Title: src.system.System.System.sites Pages: 1 -->
<svg width="364pt" height="51pt"
 viewBox="0.00 0.00 364.00 51.00" xmlns="http://www.w3.org/2000/svg" xmlns:xlink="http://www.w3.org/1999/xlink">
<g id="graph0" class="graph" transform="scale(1 1) rotate(0) translate(4 47)">
<title>src.system.System.System.sites</title>
<polygon fill="white" stroke="white" points="-4,4 -4,-47 360,-47 360,4 -4,4"/>
<!-- Node1 -->
<g id="node1" class="node"><title>Node1</title>
<polygon fill="#bfbfbf" stroke="black" points="0.5,-5.5 0.5,-24.5 163.5,-24.5 163.5,-5.5 0.5,-5.5"/>
<text text-anchor="middle" x="82" y="-12.5" font-family="Helvetica,sans-Serif" font-size="10.00">src.system.System.System.sites</text>
</g>
<!-- Node1&#45;&gt;Node1 -->
<g id="edge1" class="edge"><title>Node1&#45;&gt;Node1</title>
<path fill="none" stroke="midnightblue" d="M45.25,-32.5043C45.256,-38.3356 57.506,-43 82,-43 116.836,-43 126.906,-33.5653 112.209,-24.7571"/>
<polygon fill="midnightblue" stroke="midnightblue" points="48.014,-34.6559 51.7907,-24.7571 42.6653,-30.1402 48.014,-34.6559"/>
</g>
<!-- Node2 -->
<g id="node2" class="node"><title>Node2</title>
<g id="a_node2"><a xlink:href="classsrc_1_1system_1_1_system_1_1_system.html#a9d57bbe09e87e748e964ba0ee90a62fa" target="_top" xlink:title="retourne le chantier du systeme avec le numéros numSite si il existe, None sinon ">
<polygon fill="white" stroke="black" points="200.5,-0 200.5,-30 355.5,-30 355.5,-0 200.5,-0"/>
<text text-anchor="start" x="208.5" y="-18" font-family="Helvetica,sans-Serif" font-size="10.00">src.system.System.System.get</text>
<text text-anchor="middle" x="278" y="-7" font-family="Helvetica,sans-Serif" font-size="10.00">SiteById</text>
</a>
</g>
</g>
<!-- Node1&#45;&gt;Node2 -->
<g id="edge2" class="edge"><title>Node1&#45;&gt;Node2</title>
<path fill="none" stroke="midnightblue" d="M173.643,-15C182.591,-15 191.611,-15 200.397,-15"/>
<polygon fill="midnightblue" stroke="midnightblue" points="173.588,-11.5001 163.588,-15 173.588,-18.5001 173.588,-11.5001"/>
</g>
</g>
</svg>
