<?xml version="1.0" encoding="UTF-8" standalone="no"?>
<!DOCTYPE svg PUBLIC "-//W3C//DTD SVG 1.1//EN"
 "http://www.w3.org/Graphics/SVG/1.1/DTD/svg11.dtd">
<!-- Generated by graphviz version 2.26.3 (20100126.1600)
 -->
<!-- Title: src.system.Car.Car Pages: 1 -->
<svg width="110pt" height="342pt"
 viewBox="0.00 0.00 110.00 342.00" xmlns="http://www.w3.org/2000/svg" xmlns:xlink="http://www.w3.org/1999/xlink">
<g id="graph1" class="graph" transform="scale(1 1) rotate(0) translate(4 338)">
<title>src.system.Car.Car</title>
<polygon fill="white" stroke="white" points="-4,5 -4,-338 107,-338 107,5 -4,5"/>
<!-- Node1 -->
<g id="node1" class="node"><title>Node1</title>
<polygon fill="#bfbfbf" stroke="black" points="-0.5,-1 -0.5,-233 102.5,-233 102.5,-1 -0.5,-1"/>
<text text-anchor="middle" x="51" y="-220" font-family="Helvetica,sans-Serif" font-size="10.00">src.system.Car.Car</text>
<polyline fill="none" stroke="black" points="-0.5,-212 102.5,-212 "/>
<text text-anchor="start" x="7.5" y="-199" font-family="Helvetica,sans-Serif" font-size="10.00">&#45; _num</text>
<text text-anchor="start" x="7.5" y="-186" font-family="Helvetica,sans-Serif" font-size="10.00">&#45; _plate</text>
<text text-anchor="start" x="7.5" y="-173" font-family="Helvetica,sans-Serif" font-size="10.00">&#45; _model</text>
<text text-anchor="start" x="7.5" y="-160" font-family="Helvetica,sans-Serif" font-size="10.00">&#45; _nbPlace</text>
<polyline fill="none" stroke="black" points="-0.5,-152 102.5,-152 "/>
<text text-anchor="start" x="7.5" y="-139" font-family="Helvetica,sans-Serif" font-size="10.00">+ __init__()</text>
<text text-anchor="start" x="7.5" y="-126" font-family="Helvetica,sans-Serif" font-size="10.00">+ num()</text>
<text text-anchor="start" x="7.5" y="-113" font-family="Helvetica,sans-Serif" font-size="10.00">+ num()</text>
<text text-anchor="start" x="7.5" y="-100" font-family="Helvetica,sans-Serif" font-size="10.00">+ plate()</text>
<text text-anchor="start" x="7.5" y="-87" font-family="Helvetica,sans-Serif" font-size="10.00">+ plate()</text>
<text text-anchor="start" x="7.5" y="-74" font-family="Helvetica,sans-Serif" font-size="10.00">+ model()</text>
<text text-anchor="start" x="7.5" y="-61" font-family="Helvetica,sans-Serif" font-size="10.00">+ model()</text>
<text text-anchor="start" x="7.5" y="-48" font-family="Helvetica,sans-Serif" font-size="10.00">+ nbPlace()</text>
<text text-anchor="start" x="7.5" y="-35" font-family="Helvetica,sans-Serif" font-size="10.00">+ nbPlace()</text>
<text text-anchor="start" x="7.5" y="-22" font-family="Helvetica,sans-Serif" font-size="10.00">+ __str__()</text>
<text text-anchor="start" x="7.5" y="-9" font-family="Helvetica,sans-Serif" font-size="10.00">+ serial()</text>
</g>
<!-- Node2 -->
<g id="node2" class="node"><title>Node2</title>
<polygon fill="white" stroke="#bfbfbf" points="29.5,-270.5 29.5,-333.5 72.5,-333.5 72.5,-270.5 29.5,-270.5"/>
<text text-anchor="middle" x="51" y="-320.5" font-family="Helvetica,sans-Serif" font-size="10.00">object</text>
<polyline fill="none" stroke="#bfbfbf" points="29.5,-312.5 72.5,-312.5 "/>
<text text-anchor="middle" x="51" y="-299.5" font-family="Helvetica,sans-Serif" font-size="10.00"> </text>
<polyline fill="none" stroke="#bfbfbf" points="29.5,-291.5 72.5,-291.5 "/>
<text text-anchor="middle" x="51" y="-278.5" font-family="Helvetica,sans-Serif" font-size="10.00"> </text>
</g>
<!-- Node2&#45;&gt;Node1 -->
<g id="edge2" class="edge"><title>Node2&#45;&gt;Node1</title>
<path fill="none" stroke="midnightblue" d="M51,-260.144C51,-251.849 51,-242.769 51,-233.335"/>
<polygon fill="none" stroke="midnightblue" points="47.5001,-260.197 51,-270.197 54.5001,-260.197 47.5001,-260.197"/>
</g>
</g>
</svg>
