<?xml version="1.0" encoding="UTF-8" standalone="no"?>
<!DOCTYPE svg PUBLIC "-//W3C//DTD SVG 1.1//EN"
 "http://www.w3.org/Graphics/SVG/1.1/DTD/svg11.dtd">
<!-- Generated by graphviz version 2.34.0 (20130907.0111)
 -->
<!-- Title: src.system.Position.Position.__str__ Pages: 1 -->
<svg width="374pt" height="66pt"
 viewBox="0.00 0.00 374.00 66.00" xmlns="http://www.w3.org/2000/svg" xmlns:xlink="http://www.w3.org/1999/xlink">
<g id="graph0" class="graph" transform="scale(1 1) rotate(0) translate(4 62)">
<title>src.system.Position.Position.__str__</title>
<polygon fill="white" stroke="white" points="-4,4 -4,-62 370,-62 370,4 -4,4"/>
<!-- Node1 -->
<g id="node1" class="node"><title>Node1</title>
<polygon fill="#bfbfbf" stroke="black" points="0.5,-14 0.5,-44 145.5,-44 145.5,-14 0.5,-14"/>
<text text-anchor="start" x="8.5" y="-32" font-family="Helvetica,sans-Serif" font-size="10.00">src.system.Position.Position.</text>
<text text-anchor="middle" x="73" y="-21" font-family="Helvetica,sans-Serif" font-size="10.00">__str__</text>
</g>
<!-- Node2 -->
<g id="node2" class="node"><title>Node2</title>
<g id="a_node2"><a xlink:href="classsrc_1_1system_1_1_position_1_1_position.html#ae4ac6ef41f56bf55952eb5648a874745" target="_top" xlink:title="src.system.Position.Position.longitude">
<polygon fill="white" stroke="black" points="182,-38.5 182,-57.5 366,-57.5 366,-38.5 182,-38.5"/>
<text text-anchor="middle" x="274" y="-45.5" font-family="Helvetica,sans-Serif" font-size="10.00">src.system.Position.Position.longitude</text>
</a>
</g>
</g>
<!-- Node1&#45;&gt;Node2 -->
<g id="edge1" class="edge"><title>Node1&#45;&gt;Node2</title>
<path fill="none" stroke="midnightblue" d="M145.562,-35.8326C154.144,-36.652 163.028,-37.5001 171.928,-38.3499"/>
<polygon fill="midnightblue" stroke="midnightblue" points="171.681,-41.8422 181.968,-39.3085 172.346,-34.8738 171.681,-41.8422"/>
</g>
<!-- Node3 -->
<g id="node3" class="node"><title>Node3</title>
<g id="a_node3"><a xlink:href="classsrc_1_1system_1_1_position_1_1_position.html#a458bcb8338c7d7b157491ea9506fb8ef" target="_top" xlink:title="src.system.Position.Position.latitude">
<polygon fill="white" stroke="black" points="186,-0.5 186,-19.5 362,-19.5 362,-0.5 186,-0.5"/>
<text text-anchor="middle" x="274" y="-7.5" font-family="Helvetica,sans-Serif" font-size="10.00">src.system.Position.Position.latitude</text>
</a>
</g>
</g>
<!-- Node1&#45;&gt;Node3 -->
<g id="edge2" class="edge"><title>Node1&#45;&gt;Node3</title>
<path fill="none" stroke="midnightblue" d="M145.562,-22.1674C155.34,-21.2338 165.51,-20.2629 175.65,-19.2948"/>
<polygon fill="midnightblue" stroke="midnightblue" points="176.142,-22.7638 185.764,-18.3291 175.476,-15.7955 176.142,-22.7638"/>
</g>
</g>
</svg>
