<?xml version="1.0" encoding="UTF-8" standalone="no"?>
<!DOCTYPE svg PUBLIC "-//W3C//DTD SVG 1.1//EN"
 "http://www.w3.org/Graphics/SVG/1.1/DTD/svg11.dtd">
<!-- Generated by graphviz version 2.26.3 (20100126.1600)
 -->
<!-- Title: src.system.Consumer.Consumer Pages: 1 -->
<svg width="168pt" height="420pt"
 viewBox="0.00 0.00 168.00 420.00" xmlns="http://www.w3.org/2000/svg" xmlns:xlink="http://www.w3.org/1999/xlink">
<g id="graph1" class="graph" transform="scale(1 1) rotate(0) translate(4 416)">
<title>src.system.Consumer.Consumer</title>
<polygon fill="white" stroke="white" points="-4,5 -4,-416 165,-416 165,5 -4,5"/>
<!-- Node1 -->
<g id="node1" class="node"><title>Node1</title>
<polygon fill="#bfbfbf" stroke="black" points="-0.5,-1 -0.5,-311 160.5,-311 160.5,-1 -0.5,-1"/>
<text text-anchor="middle" x="80" y="-298" font-family="Helvetica,sans-Serif" font-size="10.00">src.system.Consumer.Consumer</text>
<polyline fill="none" stroke="black" points="-0.5,-290 160.5,-290 "/>
<text text-anchor="start" x="7.5" y="-277" font-family="Helvetica,sans-Serif" font-size="10.00">&#45; _num</text>
<text text-anchor="start" x="7.5" y="-264" font-family="Helvetica,sans-Serif" font-size="10.00">&#45; _login</text>
<text text-anchor="start" x="7.5" y="-251" font-family="Helvetica,sans-Serif" font-size="10.00">&#45; _pwd</text>
<text text-anchor="start" x="7.5" y="-238" font-family="Helvetica,sans-Serif" font-size="10.00">&#45; _lvl</text>
<text text-anchor="start" x="7.5" y="-225" font-family="Helvetica,sans-Serif" font-size="10.00">&#45; _firstname</text>
<text text-anchor="start" x="7.5" y="-212" font-family="Helvetica,sans-Serif" font-size="10.00">&#45; _name</text>
<polyline fill="none" stroke="black" points="-0.5,-204 160.5,-204 "/>
<text text-anchor="start" x="7.5" y="-191" font-family="Helvetica,sans-Serif" font-size="10.00">+ __init__()</text>
<text text-anchor="start" x="7.5" y="-178" font-family="Helvetica,sans-Serif" font-size="10.00">+ num()</text>
<text text-anchor="start" x="7.5" y="-165" font-family="Helvetica,sans-Serif" font-size="10.00">+ num()</text>
<text text-anchor="start" x="7.5" y="-152" font-family="Helvetica,sans-Serif" font-size="10.00">+ login()</text>
<text text-anchor="start" x="7.5" y="-139" font-family="Helvetica,sans-Serif" font-size="10.00">+ login()</text>
<text text-anchor="start" x="7.5" y="-126" font-family="Helvetica,sans-Serif" font-size="10.00">+ pwd()</text>
<text text-anchor="start" x="7.5" y="-113" font-family="Helvetica,sans-Serif" font-size="10.00">+ pwd()</text>
<text text-anchor="start" x="7.5" y="-100" font-family="Helvetica,sans-Serif" font-size="10.00">+ lvl()</text>
<text text-anchor="start" x="7.5" y="-87" font-family="Helvetica,sans-Serif" font-size="10.00">+ lvl()</text>
<text text-anchor="start" x="7.5" y="-74" font-family="Helvetica,sans-Serif" font-size="10.00">+ firstname()</text>
<text text-anchor="start" x="7.5" y="-61" font-family="Helvetica,sans-Serif" font-size="10.00">+ firstname()</text>
<text text-anchor="start" x="7.5" y="-48" font-family="Helvetica,sans-Serif" font-size="10.00">+ name()</text>
<text text-anchor="start" x="7.5" y="-35" font-family="Helvetica,sans-Serif" font-size="10.00">+ name()</text>
<text text-anchor="start" x="7.5" y="-22" font-family="Helvetica,sans-Serif" font-size="10.00">+ __str__()</text>
<text text-anchor="start" x="7.5" y="-9" font-family="Helvetica,sans-Serif" font-size="10.00">+ serial()</text>
</g>
<!-- Node2 -->
<g id="node2" class="node"><title>Node2</title>
<polygon fill="white" stroke="#bfbfbf" points="58.5,-348.5 58.5,-411.5 101.5,-411.5 101.5,-348.5 58.5,-348.5"/>
<text text-anchor="middle" x="80" y="-398.5" font-family="Helvetica,sans-Serif" font-size="10.00">object</text>
<polyline fill="none" stroke="#bfbfbf" points="58.5,-390.5 101.5,-390.5 "/>
<text text-anchor="middle" x="80" y="-377.5" font-family="Helvetica,sans-Serif" font-size="10.00"> </text>
<polyline fill="none" stroke="#bfbfbf" points="58.5,-369.5 101.5,-369.5 "/>
<text text-anchor="middle" x="80" y="-356.5" font-family="Helvetica,sans-Serif" font-size="10.00"> </text>
</g>
<!-- Node2&#45;&gt;Node1 -->
<g id="edge2" class="edge"><title>Node2&#45;&gt;Node1</title>
<path fill="none" stroke="midnightblue" d="M80,-338.143C80,-329.967 80,-320.956 80,-311.452"/>
<polygon fill="none" stroke="midnightblue" points="76.5001,-338.381 80,-348.381 83.5001,-338.381 76.5001,-338.381"/>
</g>
</g>
</svg>
