<?xml version="1.0" encoding="UTF-8" standalone="no"?>
<!DOCTYPE svg PUBLIC "-//W3C//DTD SVG 1.1//EN"
 "http://www.w3.org/Graphics/SVG/1.1/DTD/svg11.dtd">
<!-- Generated by graphviz version 2.34.0 (20130907.0111)
 -->
<!-- Title: src.interfacebdd.AbstractDAO.AbstractDAO.buildpath Pages: 1 -->
<svg width="530pt" height="393pt"
 viewBox="0.00 0.00 530.00 393.00" xmlns="http://www.w3.org/2000/svg" xmlns:xlink="http://www.w3.org/1999/xlink">
<g id="graph0" class="graph" transform="scale(1 1) rotate(0) translate(4 389)">
<title>src.interfacebdd.AbstractDAO.AbstractDAO.buildpath</title>
<polygon fill="white" stroke="white" points="-4,4 -4,-389 526,-389 526,4 -4,4"/>
<!-- Node1 -->
<g id="node1" class="node"><title>Node1</title>
<polygon fill="#bfbfbf" stroke="black" points="0,-180 0,-210 140,-210 140,-180 0,-180"/>
<text text-anchor="start" x="8" y="-198" font-family="Helvetica,sans-Serif" font-size="10.00">src.interfacebdd.Abstract</text>
<text text-anchor="middle" x="70" y="-187" font-family="Helvetica,sans-Serif" font-size="10.00">DAO.AbstractDAO.buildpath</text>
</g>
<!-- Node1&#45;&gt;Node1 -->
<g id="edge1" class="edge"><title>Node1&#45;&gt;Node1</title>
<path fill="none" stroke="midnightblue" d="M38.4933,-220.598C42.7985,-224.97 53.3008,-228 70,-228 98.125,-228 108.672,-219.406 101.641,-210.275"/>
<polygon fill="midnightblue" stroke="midnightblue" points="41.9889,-220.229 38.3594,-210.275 34.9895,-220.32 41.9889,-220.229"/>
</g>
<!-- Node2 -->
<g id="node2" class="node"><title>Node2</title>
<g id="a_node2"><a xlink:href="classsrc_1_1interfacebdd_1_1_abstract_d_a_o_1_1_abstract_d_a_o.html#a52ac76b329acbea36076a7872c0a9af9" target="_top" xlink:title="Construit et initialise un objet pour accéder à la bdd. ">
<polygon fill="white" stroke="black" points="176.5,-180 176.5,-210 325.5,-210 325.5,-180 176.5,-180"/>
<text text-anchor="start" x="184.5" y="-198" font-family="Helvetica,sans-Serif" font-size="10.00">src.interfacebdd.Abstract</text>
<text text-anchor="middle" x="251" y="-187" font-family="Helvetica,sans-Serif" font-size="10.00">DAO.AbstractDAO.connection</text>
</a>
</g>
</g>
<!-- Node1&#45;&gt;Node2 -->
<g id="edge2" class="edge"><title>Node1&#45;&gt;Node2</title>
<path fill="none" stroke="midnightblue" d="M150.265,-195C158.902,-195 167.667,-195 176.233,-195"/>
<polygon fill="midnightblue" stroke="midnightblue" points="150.206,-191.5 140.206,-195 150.206,-198.5 150.206,-191.5"/>
</g>
<!-- Node3 -->
<g id="node3" class="node"><title>Node3</title>
<g id="a_node3"><a xlink:href="classsrc_1_1interfacebdd_1_1_abstract_d_a_o_1_1_abstract_d_a_o.html#a6b1483380fbd5c4a61f89e890f4fbe2b" target="_top" xlink:title="src.interfacebdd.Abstract\lDAO.AbstractDAO.getById">
<polygon fill="white" stroke="black" points="375,-355 375,-385 509,-385 509,-355 375,-355"/>
<text text-anchor="start" x="383" y="-373" font-family="Helvetica,sans-Serif" font-size="10.00">src.interfacebdd.Abstract</text>
<text text-anchor="middle" x="442" y="-362" font-family="Helvetica,sans-Serif" font-size="10.00">DAO.AbstractDAO.getById</text>
</a>
</g>
</g>
<!-- Node2&#45;&gt;Node3 -->
<g id="edge3" class="edge"><title>Node2&#45;&gt;Node3</title>
<path fill="none" stroke="midnightblue" d="M263.553,-219.249C280.561,-252.411 315.428,-311.593 362,-345 367.377,-348.857 373.372,-352.135 379.59,-354.918"/>
<polygon fill="midnightblue" stroke="midnightblue" points="266.65,-217.616 259.045,-210.239 260.39,-220.748 266.65,-217.616"/>
</g>
<!-- Node4 -->
<g id="node4" class="node"><title>Node4</title>
<g id="a_node4"><a xlink:href="classsrc_1_1interfacebdd_1_1_abstract_d_a_o_1_1_abstract_d_a_o.html#a20ec3bc6a325d24f8e11d5ad10a7b78b" target="_top" xlink:title="src.interfacebdd.Abstract\lDAO.AbstractDAO.getByFilter">
<polygon fill="white" stroke="black" points="367.5,-306 367.5,-336 516.5,-336 516.5,-306 367.5,-306"/>
<text text-anchor="start" x="375.5" y="-324" font-family="Helvetica,sans-Serif" font-size="10.00">src.interfacebdd.Abstract</text>
<text text-anchor="middle" x="442" y="-313" font-family="Helvetica,sans-Serif" font-size="10.00">DAO.AbstractDAO.getByFilter</text>
</a>
</g>
</g>
<!-- Node2&#45;&gt;Node4 -->
<g id="edge4" class="edge"><title>Node2&#45;&gt;Node4</title>
<path fill="none" stroke="midnightblue" d="M271.27,-217.759C291.672,-240.528 325.869,-275.09 362,-296 368.599,-299.819 375.852,-303.128 383.205,-305.975"/>
<polygon fill="midnightblue" stroke="midnightblue" points="273.884,-215.431 264.649,-210.239 268.63,-220.057 273.884,-215.431"/>
</g>
<!-- Node5 -->
<g id="node5" class="node"><title>Node5</title>
<g id="a_node5"><a xlink:href="classsrc_1_1interfacebdd_1_1_abstract_d_a_o_1_1_abstract_d_a_o.html#a32ceaeade6f552cd5ab17123fda60c46" target="_top" xlink:title="src.interfacebdd.Abstract\lDAO.AbstractDAO.getAll">
<polygon fill="white" stroke="black" points="379,-257 379,-287 505,-287 505,-257 379,-257"/>
<text text-anchor="start" x="387" y="-275" font-family="Helvetica,sans-Serif" font-size="10.00">src.interfacebdd.Abstract</text>
<text text-anchor="middle" x="442" y="-264" font-family="Helvetica,sans-Serif" font-size="10.00">DAO.AbstractDAO.getAll</text>
</a>
</g>
</g>
<!-- Node2&#45;&gt;Node5 -->
<g id="edge5" class="edge"><title>Node2&#45;&gt;Node5</title>
<path fill="none" stroke="midnightblue" d="M290.566,-214.8C311.416,-225.103 337.787,-237.496 362,-247 370.972,-250.522 380.659,-253.912 390.072,-256.999"/>
<polygon fill="midnightblue" stroke="midnightblue" points="291.913,-211.561 281.402,-210.231 288.789,-217.826 291.913,-211.561"/>
</g>
<!-- Node6 -->
<g id="node6" class="node"><title>Node6</title>
<g id="a_node6"><a xlink:href="classsrc_1_1interfacebdd_1_1_abstract_d_a_o_1_1_abstract_d_a_o.html#a2b67ab104d5359bbc4c16bcc18916a76" target="_top" xlink:title="src.interfacebdd.Abstract\lDAO.AbstractDAO.getAllByFilter">
<polygon fill="white" stroke="black" points="362,-208 362,-238 522,-238 522,-208 362,-208"/>
<text text-anchor="start" x="370" y="-226" font-family="Helvetica,sans-Serif" font-size="10.00">src.interfacebdd.Abstract</text>
<text text-anchor="middle" x="442" y="-215" font-family="Helvetica,sans-Serif" font-size="10.00">DAO.AbstractDAO.getAllByFilter</text>
</a>
</g>
</g>
<!-- Node2&#45;&gt;Node6 -->
<g id="edge6" class="edge"><title>Node2&#45;&gt;Node6</title>
<path fill="none" stroke="midnightblue" d="M335.763,-207.409C344.473,-208.7 353.306,-210.008 361.961,-211.291"/>
<polygon fill="midnightblue" stroke="midnightblue" points="336.019,-203.909 325.614,-205.906 334.993,-210.833 336.019,-203.909"/>
</g>
<!-- Node7 -->
<g id="node7" class="node"><title>Node7</title>
<g id="a_node7"><a xlink:href="classsrc_1_1interfacebdd_1_1_abstract_d_a_o_1_1_abstract_d_a_o.html#a43dda59bb16694f032b1c201c8291720" target="_top" xlink:title="src.interfacebdd.Abstract\lDAO.AbstractDAO.getAllByFilter\lExtended">
<polygon fill="white" stroke="black" points="362,-147.5 362,-188.5 522,-188.5 522,-147.5 362,-147.5"/>
<text text-anchor="start" x="370" y="-176.5" font-family="Helvetica,sans-Serif" font-size="10.00">src.interfacebdd.Abstract</text>
<text text-anchor="start" x="370" y="-165.5" font-family="Helvetica,sans-Serif" font-size="10.00">DAO.AbstractDAO.getAllByFilter</text>
<text text-anchor="middle" x="442" y="-154.5" font-family="Helvetica,sans-Serif" font-size="10.00">Extended</text>
</a>
</g>
</g>
<!-- Node2&#45;&gt;Node7 -->
<g id="edge7" class="edge"><title>Node2&#45;&gt;Node7</title>
<path fill="none" stroke="midnightblue" d="M335.763,-183.034C344.473,-181.79 353.306,-180.528 361.961,-179.291"/>
<polygon fill="midnightblue" stroke="midnightblue" points="335.018,-179.605 325.614,-184.484 336.008,-186.534 335.018,-179.605"/>
</g>
<!-- Node8 -->
<g id="node8" class="node"><title>Node8</title>
<g id="a_node8"><a xlink:href="classsrc_1_1interfacebdd_1_1_abstract_d_a_o_1_1_abstract_d_a_o.html#a172b8833771887e88fa7b41532520291" target="_top" xlink:title="src.interfacebdd.Abstract\lDAO.AbstractDAO.deleteById">
<polygon fill="white" stroke="black" points="368.5,-98 368.5,-128 515.5,-128 515.5,-98 368.5,-98"/>
<text text-anchor="start" x="376.5" y="-116" font-family="Helvetica,sans-Serif" font-size="10.00">src.interfacebdd.Abstract</text>
<text text-anchor="middle" x="442" y="-105" font-family="Helvetica,sans-Serif" font-size="10.00">DAO.AbstractDAO.deleteById</text>
</a>
</g>
</g>
<!-- Node2&#45;&gt;Node8 -->
<g id="edge8" class="edge"><title>Node2&#45;&gt;Node8</title>
<path fill="none" stroke="midnightblue" d="M287.035,-174.881C308.289,-163.175 336.204,-148.673 362,-138 370.64,-134.425 379.986,-131.054 389.122,-128.014"/>
<polygon fill="midnightblue" stroke="midnightblue" points="285.102,-171.951 278.066,-179.872 288.506,-178.068 285.102,-171.951"/>
</g>
<!-- Node9 -->
<g id="node9" class="node"><title>Node9</title>
<g id="a_node9"><a xlink:href="classsrc_1_1interfacebdd_1_1_abstract_d_a_o_1_1_abstract_d_a_o.html#a26c25d2269205a4024e501d41e3e5779" target="_top" xlink:title="src.interfacebdd.Abstract\lDAO.AbstractDAO.insert">
<polygon fill="white" stroke="black" points="379.5,-49 379.5,-79 504.5,-79 504.5,-49 379.5,-49"/>
<text text-anchor="start" x="387.5" y="-67" font-family="Helvetica,sans-Serif" font-size="10.00">src.interfacebdd.Abstract</text>
<text text-anchor="middle" x="442" y="-56" font-family="Helvetica,sans-Serif" font-size="10.00">DAO.AbstractDAO.insert</text>
</a>
</g>
</g>
<!-- Node2&#45;&gt;Node9 -->
<g id="edge9" class="edge"><title>Node2&#45;&gt;Node9</title>
<path fill="none" stroke="midnightblue" d="M270.367,-171.861C290.494,-147.944 324.893,-111.076 362,-89 368.429,-85.1753 375.505,-81.8729 382.702,-79.0384"/>
<polygon fill="midnightblue" stroke="midnightblue" points="267.532,-169.797 263.862,-179.736 272.929,-174.255 267.532,-169.797"/>
</g>
<!-- Node10 -->
<g id="node10" class="node"><title>Node10</title>
<g id="a_node10"><a xlink:href="classsrc_1_1interfacebdd_1_1_abstract_d_a_o_1_1_abstract_d_a_o.html#ae15dbd8c7c4a14187194f9374ca043c9" target="_top" xlink:title="src.interfacebdd.Abstract\lDAO.AbstractDAO.update">
<polygon fill="white" stroke="black" points="376.5,-0 376.5,-30 507.5,-30 507.5,-0 376.5,-0"/>
<text text-anchor="start" x="384.5" y="-18" font-family="Helvetica,sans-Serif" font-size="10.00">src.interfacebdd.Abstract</text>
<text text-anchor="middle" x="442" y="-7" font-family="Helvetica,sans-Serif" font-size="10.00">DAO.AbstractDAO.update</text>
</a>
</g>
</g>
<!-- Node2&#45;&gt;Node10 -->
<g id="edge10" class="edge"><title>Node2&#45;&gt;Node10</title>
<path fill="none" stroke="midnightblue" d="M263.086,-170.463C279.747,-136.294 314.437,-74.6818 362,-40 367.231,-36.1859 373.063,-32.9402 379.125,-30.181"/>
<polygon fill="midnightblue" stroke="midnightblue" points="259.814,-169.193 258.683,-179.727 266.136,-172.198 259.814,-169.193"/>
</g>
</g>
</svg>
