<?xml version="1.0" encoding="UTF-8" standalone="no"?>
<!DOCTYPE svg PUBLIC "-//W3C//DTD SVG 1.1//EN"
 "http://www.w3.org/Graphics/SVG/1.1/DTD/svg11.dtd">
<!-- Generated by graphviz version 2.34.0 (20130907.0111)
 -->
<!-- Title: src.optimisation.Stats.StatTable.pickRandomId Pages: 1 -->
<svg width="312pt" height="38pt"
 viewBox="0.00 0.00 312.00 38.00" xmlns="http://www.w3.org/2000/svg" xmlns:xlink="http://www.w3.org/1999/xlink">
<g id="graph0" class="graph" transform="scale(1 1) rotate(0) translate(4 34)">
<title>src.optimisation.Stats.StatTable.pickRandomId</title>
<polygon fill="white" stroke="white" points="-4,4 -4,-34 308,-34 308,4 -4,4"/>
<!-- Node1 -->
<g id="node1" class="node"><title>Node1</title>
<polygon fill="#bfbfbf" stroke="black" points="0.5,-0 0.5,-30 133.5,-30 133.5,-0 0.5,-0"/>
<text text-anchor="start" x="8.5" y="-18" font-family="Helvetica,sans-Serif" font-size="10.00">src.optimisation.Stats.Stat</text>
<text text-anchor="middle" x="67" y="-7" font-family="Helvetica,sans-Serif" font-size="10.00">Table.pickRandomId</text>
</g>
<!-- Node2 -->
<g id="node2" class="node"><title>Node2</title>
<g id="a_node2"><a xlink:href="classsrc_1_1optimisation_1_1_stats_1_1_stat_table.html#a41a4cf444d8aef8193adcd1b72bafa92" target="_top" xlink:title="Renvois aléatoirement l&#39;indice d&#39;un ouvrier disponible pour une ligne donnée. ">
<polygon fill="white" stroke="black" points="170.5,-0 170.5,-30 303.5,-30 303.5,-0 170.5,-0"/>
<text text-anchor="start" x="178.5" y="-18" font-family="Helvetica,sans-Serif" font-size="10.00">src.optimisation.Stats.Stat</text>
<text text-anchor="middle" x="237" y="-7" font-family="Helvetica,sans-Serif" font-size="10.00">Table._getRandomId</text>
</a>
</g>
</g>
<!-- Node1&#45;&gt;Node2 -->
<g id="edge1" class="edge"><title>Node1&#45;&gt;Node2</title>
<path fill="none" stroke="midnightblue" d="M133.916,-15C142.505,-15 151.359,-15 160.096,-15"/>
<polygon fill="midnightblue" stroke="midnightblue" points="160.274,-18.5001 170.274,-15 160.274,-11.5001 160.274,-18.5001"/>
</g>
</g>
</svg>
