<?xml version="1.0" encoding="UTF-8" standalone="no"?>
<!DOCTYPE svg PUBLIC "-//W3C//DTD SVG 1.1//EN"
 "http://www.w3.org/Graphics/SVG/1.1/DTD/svg11.dtd">
<!-- Generated by graphviz version 2.34.0 (20130907.0111)
 -->
<!-- Title: src.interfacebdd.AbstractDAO.AbstractDAO.deleteById Pages: 1 -->
<svg width="518pt" height="87pt"
 viewBox="0.00 0.00 518.00 87.00" xmlns="http://www.w3.org/2000/svg" xmlns:xlink="http://www.w3.org/1999/xlink">
<g id="graph0" class="graph" transform="scale(1 1) rotate(0) translate(4 83)">
<title>src.interfacebdd.AbstractDAO.AbstractDAO.deleteById</title>
<polygon fill="white" stroke="white" points="-4,4 -4,-83 514,-83 514,4 -4,4"/>
<!-- Node1 -->
<g id="node1" class="node"><title>Node1</title>
<polygon fill="#bfbfbf" stroke="black" points="0.5,-24 0.5,-54 147.5,-54 147.5,-24 0.5,-24"/>
<text text-anchor="start" x="8.5" y="-42" font-family="Helvetica,sans-Serif" font-size="10.00">src.interfacebdd.Abstract</text>
<text text-anchor="middle" x="74" y="-31" font-family="Helvetica,sans-Serif" font-size="10.00">DAO.AbstractDAO.deleteById</text>
</g>
<!-- Node2 -->
<g id="node2" class="node"><title>Node2</title>
<g id="a_node2"><a xlink:href="classsrc_1_1interfacebdd_1_1_abstract_d_a_o_1_1_abstract_d_a_o.html#a234029a022fd7726dea266ba5dfe5cbd" target="_top" xlink:title="src.interfacebdd.Abstract\lDAO.AbstractDAO.tableName">
<polygon fill="white" stroke="black" points="185,-49 185,-79 333,-79 333,-49 185,-49"/>
<text text-anchor="start" x="193" y="-67" font-family="Helvetica,sans-Serif" font-size="10.00">src.interfacebdd.Abstract</text>
<text text-anchor="middle" x="259" y="-56" font-family="Helvetica,sans-Serif" font-size="10.00">DAO.AbstractDAO.tableName</text>
</a>
</g>
</g>
<!-- Node1&#45;&gt;Node2 -->
<g id="edge1" class="edge"><title>Node1&#45;&gt;Node2</title>
<path fill="none" stroke="midnightblue" d="M147.589,-48.9166C156.507,-50.1349 165.676,-51.3874 174.736,-52.6251"/>
<polygon fill="midnightblue" stroke="midnightblue" points="174.518,-56.1278 184.9,-54.0136 175.465,-49.1922 174.518,-56.1278"/>
</g>
<!-- Node3 -->
<g id="node3" class="node"><title>Node3</title>
<g id="a_node3"><a xlink:href="classsrc_1_1interfacebdd_1_1_abstract_d_a_o_1_1_abstract_d_a_o.html#a52ac76b329acbea36076a7872c0a9af9" target="_top" xlink:title="Construit et initialise un objet pour accéder à la bdd. ">
<polygon fill="white" stroke="black" points="184.5,-0 184.5,-30 333.5,-30 333.5,-0 184.5,-0"/>
<text text-anchor="start" x="192.5" y="-18" font-family="Helvetica,sans-Serif" font-size="10.00">src.interfacebdd.Abstract</text>
<text text-anchor="middle" x="259" y="-7" font-family="Helvetica,sans-Serif" font-size="10.00">DAO.AbstractDAO.connection</text>
</a>
</g>
</g>
<!-- Node1&#45;&gt;Node3 -->
<g id="edge2" class="edge"><title>Node1&#45;&gt;Node3</title>
<path fill="none" stroke="midnightblue" d="M147.589,-29.4801C156.362,-28.3295 165.378,-27.1472 174.294,-25.9779"/>
<polygon fill="midnightblue" stroke="midnightblue" points="174.84,-29.4363 184.3,-24.6656 173.93,-22.4957 174.84,-29.4363"/>
</g>
<!-- Node4 -->
<g id="node4" class="node"><title>Node4</title>
<g id="a_node4"><a xlink:href="classsrc_1_1interfacebdd_1_1_abstract_d_a_o_1_1_abstract_d_a_o.html#ab7baabe45cdca232b62c0ca1d5fd7ba7" target="_top" xlink:title="construit un chemin absolu ">
<polygon fill="white" stroke="black" points="370,-0 370,-30 510,-30 510,-0 370,-0"/>
<text text-anchor="start" x="378" y="-18" font-family="Helvetica,sans-Serif" font-size="10.00">src.interfacebdd.Abstract</text>
<text text-anchor="middle" x="440" y="-7" font-family="Helvetica,sans-Serif" font-size="10.00">DAO.AbstractDAO.buildpath</text>
</a>
</g>
</g>
<!-- Node3&#45;&gt;Node4 -->
<g id="edge3" class="edge"><title>Node3&#45;&gt;Node4</title>
<path fill="none" stroke="midnightblue" d="M333.581,-15C342.175,-15 350.972,-15 359.639,-15"/>
<polygon fill="midnightblue" stroke="midnightblue" points="359.736,-18.5001 369.736,-15 359.736,-11.5001 359.736,-18.5001"/>
</g>
<!-- Node4&#45;&gt;Node4 -->
<g id="edge4" class="edge"><title>Node4&#45;&gt;Node4</title>
<path fill="none" stroke="midnightblue" d="M408.359,-30.2754C401.328,-39.4063 411.875,-48 440,-48 456.699,-48 467.201,-44.9704 471.507,-40.5975"/>
<polygon fill="midnightblue" stroke="midnightblue" points="475.011,-40.32 471.641,-30.2754 468.011,-40.2291 475.011,-40.32"/>
</g>
</g>
</svg>
