<?xml version="1.0" encoding="UTF-8" standalone="no"?>
<!DOCTYPE svg PUBLIC "-//W3C//DTD SVG 1.1//EN"
 "http://www.w3.org/Graphics/SVG/1.1/DTD/svg11.dtd">
<!-- Generated by graphviz version 2.34.0 (20130907.0111)
 -->
<!-- Title: src.optimisation.SolTemp.SolTemps._genSubsequentWaves Pages: 1 -->
<svg width="340pt" height="87pt"
 viewBox="0.00 0.00 340.00 87.00" xmlns="http://www.w3.org/2000/svg" xmlns:xlink="http://www.w3.org/1999/xlink">
<g id="graph0" class="graph" transform="scale(1 1) rotate(0) translate(4 83)">
<title>src.optimisation.SolTemp.SolTemps._genSubsequentWaves</title>
<polygon fill="white" stroke="white" points="-4,4 -4,-83 336,-83 336,4 -4,4"/>
<!-- Node1 -->
<g id="node1" class="node"><title>Node1</title>
<polygon fill="#bfbfbf" stroke="black" points="0.5,-24 0.5,-54 165.5,-54 165.5,-24 0.5,-24"/>
<text text-anchor="start" x="8.5" y="-42" font-family="Helvetica,sans-Serif" font-size="10.00">src.optimisation.SolTemp.</text>
<text text-anchor="middle" x="83" y="-31" font-family="Helvetica,sans-Serif" font-size="10.00">SolTemps._genSubsequentWaves</text>
</g>
<!-- Node2 -->
<g id="node2" class="node"><title>Node2</title>
<g id="a_node2"><a xlink:href="classsrc_1_1optimisation_1_1_sol_temp_1_1_sol_temps.html#ab2b1033799e18c04d805dba02a133eeb" target="_top" xlink:title="Génère la StatTable correspondante à l&#39;état actuel de la SolTemps. ">
<polygon fill="white" stroke="black" points="202,-49 202,-79 332,-79 332,-49 202,-49"/>
<text text-anchor="start" x="210" y="-67" font-family="Helvetica,sans-Serif" font-size="10.00">src.optimisation.SolTemp.</text>
<text text-anchor="middle" x="267" y="-56" font-family="Helvetica,sans-Serif" font-size="10.00">SolTemps._genStatTable</text>
</a>
</g>
</g>
<!-- Node1&#45;&gt;Node2 -->
<g id="edge1" class="edge"><title>Node1&#45;&gt;Node2</title>
<path fill="none" stroke="midnightblue" d="M165.683,-50.2203C174.377,-51.4145 183.186,-52.6244 191.787,-53.8059"/>
<polygon fill="midnightblue" stroke="midnightblue" points="191.386,-57.2836 201.77,-55.1771 192.339,-50.3488 191.386,-57.2836"/>
</g>
<!-- Node3 -->
<g id="node3" class="node"><title>Node3</title>
<g id="a_node3"><a xlink:href="classsrc_1_1optimisation_1_1_sol_temp_1_1_sol_temps.html#affc78e7ce371db9904dfbcc1b767f48b" target="_top" xlink:title="Insère un nouvel élément dans la liste des SolTemp déjà stockées. ">
<polygon fill="white" stroke="black" points="202,-0 202,-30 332,-30 332,-0 202,-0"/>
<text text-anchor="start" x="210" y="-18" font-family="Helvetica,sans-Serif" font-size="10.00">src.optimisation.SolTemp.</text>
<text text-anchor="middle" x="267" y="-7" font-family="Helvetica,sans-Serif" font-size="10.00">SolTemps._insertSol</text>
</a>
</g>
</g>
<!-- Node1&#45;&gt;Node3 -->
<g id="edge2" class="edge"><title>Node1&#45;&gt;Node3</title>
<path fill="none" stroke="midnightblue" d="M165.683,-28.2286C174.377,-27.0821 183.186,-25.9206 191.787,-24.7863"/>
<polygon fill="midnightblue" stroke="midnightblue" points="192.313,-28.2474 201.77,-23.4699 191.398,-21.3074 192.313,-28.2474"/>
</g>
</g>
</svg>
