<?xml version="1.0" encoding="UTF-8" standalone="no"?>
<!DOCTYPE svg PUBLIC "-//W3C//DTD SVG 1.1//EN"
 "http://www.w3.org/Graphics/SVG/1.1/DTD/svg11.dtd">
<!-- Generated by graphviz version 2.34.0 (20130907.0111)
 -->
<!-- Title: src.system.Site.Site.__str__ Pages: 1 -->
<svg width="368pt" height="356pt"
 viewBox="0.00 0.00 368.00 356.00" xmlns="http://www.w3.org/2000/svg" xmlns:xlink="http://www.w3.org/1999/xlink">
<g id="graph0" class="graph" transform="scale(1 1) rotate(0) translate(4 352)">
<title>src.system.Site.Site.__str__</title>
<polygon fill="white" stroke="white" points="-4,4 -4,-352 364,-352 364,4 -4,4"/>
<!-- Node1 -->
<g id="node1" class="node"><title>Node1</title>
<polygon fill="#bfbfbf" stroke="black" points="0.5,-159 0.5,-189 109.5,-189 109.5,-159 0.5,-159"/>
<text text-anchor="start" x="8.5" y="-177" font-family="Helvetica,sans-Serif" font-size="10.00">src.system.Site.Site.</text>
<text text-anchor="middle" x="55" y="-166" font-family="Helvetica,sans-Serif" font-size="10.00">__str__</text>
</g>
<!-- Node2 -->
<g id="node2" class="node"><title>Node2</title>
<g id="a_node2"><a xlink:href="classsrc_1_1system_1_1_site_1_1_site.html#a913cf77ecc395b4753eef6687514e54c" target="_top" xlink:title="src.system.Site.Site.name">
<polygon fill="white" stroke="black" points="186.5,-328.5 186.5,-347.5 319.5,-347.5 319.5,-328.5 186.5,-328.5"/>
<text text-anchor="middle" x="253" y="-335.5" font-family="Helvetica,sans-Serif" font-size="10.00">src.system.Site.Site.name</text>
</a>
</g>
</g>
<!-- Node1&#45;&gt;Node2 -->
<g id="edge1" class="edge"><title>Node1&#45;&gt;Node2</title>
<path fill="none" stroke="midnightblue" d="M60.7522,-189.248C70.9992,-219.406 98.1963,-286.553 146,-319 155.12,-325.19 165.66,-329.537 176.484,-332.561"/>
<polygon fill="midnightblue" stroke="midnightblue" points="175.928,-336.027 186.471,-334.981 177.577,-329.224 175.928,-336.027"/>
</g>
<!-- Node3 -->
<g id="node3" class="node"><title>Node3</title>
<g id="a_node3"><a xlink:href="classsrc_1_1system_1_1_assignment_1_1_assignment.html#adfdcbb9c60c4e1f3516a5f8827883f1c" target="_top" xlink:title="src.system.Assignment.Assignment.dateInit">
<polygon fill="white" stroke="black" points="148.5,-290.5 148.5,-309.5 357.5,-309.5 357.5,-290.5 148.5,-290.5"/>
<text text-anchor="middle" x="253" y="-297.5" font-family="Helvetica,sans-Serif" font-size="10.00">src.system.Assignment.Assignment.dateInit</text>
</a>
</g>
</g>
<!-- Node1&#45;&gt;Node3 -->
<g id="edge2" class="edge"><title>Node1&#45;&gt;Node3</title>
<path fill="none" stroke="midnightblue" d="M64.2403,-189.139C77.9056,-212.681 107.6,-257.672 146,-280 150.538,-282.639 155.353,-284.939 160.331,-286.944"/>
<polygon fill="midnightblue" stroke="midnightblue" points="159.477,-290.357 170.072,-290.447 161.846,-283.77 159.477,-290.357"/>
</g>
<!-- Node4 -->
<g id="node4" class="node"><title>Node4</title>
<g id="a_node4"><a xlink:href="classsrc_1_1system_1_1_build_site_1_1_build_site.html#aa77b4dd663a797b07234f1fc1907e067" target="_top" xlink:title="src.system.BuildSite.Build\lSite.dateInit">
<polygon fill="white" stroke="black" points="187,-241 187,-271 319,-271 319,-241 187,-241"/>
<text text-anchor="start" x="195" y="-259" font-family="Helvetica,sans-Serif" font-size="10.00">src.system.BuildSite.Build</text>
<text text-anchor="middle" x="253" y="-248" font-family="Helvetica,sans-Serif" font-size="10.00">Site.dateInit</text>
</a>
</g>
</g>
<!-- Node1&#45;&gt;Node4 -->
<g id="edge3" class="edge"><title>Node1&#45;&gt;Node4</title>
<path fill="none" stroke="midnightblue" d="M75.6615,-189.182C93.2162,-202.051 120.086,-220.102 146,-231 155.808,-235.125 166.426,-238.644 177.024,-241.625"/>
<polygon fill="midnightblue" stroke="midnightblue" points="176.163,-245.018 186.727,-244.213 177.967,-238.254 176.163,-245.018"/>
</g>
<!-- Node5 -->
<g id="node5" class="node"><title>Node5</title>
<g id="a_node5"><a xlink:href="classsrc_1_1system_1_1_site_1_1_site.html#afec38e58bd3ce661bca9423bfe13ea22" target="_top" xlink:title="src.system.Site.Site.dateInit">
<polygon fill="white" stroke="black" points="183,-202.5 183,-221.5 323,-221.5 323,-202.5 183,-202.5"/>
<text text-anchor="middle" x="253" y="-209.5" font-family="Helvetica,sans-Serif" font-size="10.00">src.system.Site.Site.dateInit</text>
</a>
</g>
</g>
<!-- Node1&#45;&gt;Node5 -->
<g id="edge4" class="edge"><title>Node1&#45;&gt;Node5</title>
<path fill="none" stroke="midnightblue" d="M109.723,-185.623C121.652,-188.126 134.245,-190.706 146,-193 159.16,-195.568 173.266,-198.188 186.755,-200.63"/>
<polygon fill="midnightblue" stroke="midnightblue" points="186.462,-204.134 196.924,-202.459 187.701,-197.244 186.462,-204.134"/>
</g>
<!-- Node6 -->
<g id="node6" class="node"><title>Node6</title>
<g id="a_node6"><a xlink:href="classsrc_1_1system_1_1_assignment_1_1_assignment.html#a162aa78d883a6229a27a8cf2e1a8b438" target="_top" xlink:title="src.system.Assignment.Assignment.dateEnd">
<polygon fill="white" stroke="black" points="146,-164.5 146,-183.5 360,-183.5 360,-164.5 146,-164.5"/>
<text text-anchor="middle" x="253" y="-171.5" font-family="Helvetica,sans-Serif" font-size="10.00">src.system.Assignment.Assignment.dateEnd</text>
</a>
</g>
</g>
<!-- Node1&#45;&gt;Node6 -->
<g id="edge5" class="edge"><title>Node1&#45;&gt;Node6</title>
<path fill="none" stroke="midnightblue" d="M109.558,-174C117.793,-174 126.559,-174 135.54,-174"/>
<polygon fill="midnightblue" stroke="midnightblue" points="135.754,-177.5 145.754,-174 135.754,-170.5 135.754,-177.5"/>
</g>
<!-- Node7 -->
<g id="node7" class="node"><title>Node7</title>
<g id="a_node7"><a xlink:href="classsrc_1_1system_1_1_site_1_1_site.html#ad490045db27a6e24e9b2dec9c50769db" target="_top" xlink:title="src.system.Site.Site.dateEnd">
<polygon fill="white" stroke="black" points="180.5,-126.5 180.5,-145.5 325.5,-145.5 325.5,-126.5 180.5,-126.5"/>
<text text-anchor="middle" x="253" y="-133.5" font-family="Helvetica,sans-Serif" font-size="10.00">src.system.Site.Site.dateEnd</text>
</a>
</g>
</g>
<!-- Node1&#45;&gt;Node7 -->
<g id="edge6" class="edge"><title>Node1&#45;&gt;Node7</title>
<path fill="none" stroke="midnightblue" d="M109.723,-162.377C121.652,-159.874 134.245,-157.294 146,-155 159.16,-152.432 173.266,-149.812 186.755,-147.37"/>
<polygon fill="midnightblue" stroke="midnightblue" points="187.701,-150.756 196.924,-145.541 186.462,-143.866 187.701,-150.756"/>
</g>
<!-- Node8 -->
<g id="node8" class="node"><title>Node8</title>
<g id="a_node8"><a xlink:href="classsrc_1_1system_1_1_build_site_1_1_build_site.html#a58092f754bf3125e99f234aa8f5703f6" target="_top" xlink:title="src.system.BuildSite.Build\lSite.position">
<polygon fill="white" stroke="black" points="187,-77 187,-107 319,-107 319,-77 187,-77"/>
<text text-anchor="start" x="195" y="-95" font-family="Helvetica,sans-Serif" font-size="10.00">src.system.BuildSite.Build</text>
<text text-anchor="middle" x="253" y="-84" font-family="Helvetica,sans-Serif" font-size="10.00">Site.position</text>
</a>
</g>
</g>
<!-- Node1&#45;&gt;Node8 -->
<g id="edge7" class="edge"><title>Node1&#45;&gt;Node8</title>
<path fill="none" stroke="midnightblue" d="M75.6615,-158.818C93.2162,-145.949 120.086,-127.898 146,-117 155.808,-112.875 166.426,-109.356 177.024,-106.375"/>
<polygon fill="midnightblue" stroke="midnightblue" points="177.967,-109.746 186.727,-103.787 176.163,-102.982 177.967,-109.746"/>
</g>
<!-- Node9 -->
<g id="node9" class="node"><title>Node9</title>
<g id="a_node9"><a xlink:href="classsrc_1_1system_1_1_site_1_1_site.html#aa1786bfbdc640613a9d3e9272ceab147" target="_top" xlink:title="src.system.Site.Site.position">
<polygon fill="white" stroke="black" points="181.5,-38.5 181.5,-57.5 324.5,-57.5 324.5,-38.5 181.5,-38.5"/>
<text text-anchor="middle" x="253" y="-45.5" font-family="Helvetica,sans-Serif" font-size="10.00">src.system.Site.Site.position</text>
</a>
</g>
</g>
<!-- Node1&#45;&gt;Node9 -->
<g id="edge8" class="edge"><title>Node1&#45;&gt;Node9</title>
<path fill="none" stroke="midnightblue" d="M64.2403,-158.861C77.9056,-135.319 107.6,-90.328 146,-68 153.906,-63.4028 162.654,-59.8318 171.633,-57.0627"/>
<polygon fill="midnightblue" stroke="midnightblue" points="172.728,-60.3916 181.44,-54.3621 170.869,-53.6429 172.728,-60.3916"/>
</g>
<!-- Node10 -->
<g id="node10" class="node"><title>Node10</title>
<g id="a_node10"><a xlink:href="classsrc_1_1system_1_1_site_1_1_site.html#ae093f7cdff0c273de9610a8559235e8a" target="_top" xlink:title="src.system.Site.Site.need">
<polygon fill="white" stroke="black" points="188,-0.5 188,-19.5 318,-19.5 318,-0.5 188,-0.5"/>
<text text-anchor="middle" x="253" y="-7.5" font-family="Helvetica,sans-Serif" font-size="10.00">src.system.Site.Site.need</text>
</a>
</g>
</g>
<!-- Node1&#45;&gt;Node10 -->
<g id="edge9" class="edge"><title>Node1&#45;&gt;Node10</title>
<path fill="none" stroke="midnightblue" d="M60.7522,-158.752C70.9992,-128.594 98.1963,-61.4475 146,-29 155.512,-22.5438 166.569,-18.0929 177.882,-15.0564"/>
<polygon fill="midnightblue" stroke="midnightblue" points="178.908,-18.4111 187.856,-12.7373 177.323,-11.593 178.908,-18.4111"/>
</g>
</g>
</svg>
