<?xml version="1.0" encoding="UTF-8" standalone="no"?>
<!DOCTYPE svg PUBLIC "-//W3C//DTD SVG 1.1//EN"
 "http://www.w3.org/Graphics/SVG/1.1/DTD/svg11.dtd">
<!-- Generated by graphviz version 2.26.3 (20100126.1600)
 -->
<!-- Title: src.optimisation.pythondeap.ComputationLauncher Pages: 1 -->
<svg width="150pt" height="264pt"
 viewBox="0.00 0.00 150.00 264.00" xmlns="http://www.w3.org/2000/svg" xmlns:xlink="http://www.w3.org/1999/xlink">
<g id="graph1" class="graph" transform="scale(1 1) rotate(0) translate(4 260)">
<title>src.optimisation.pythondeap.ComputationLauncher</title>
<polygon fill="white" stroke="white" points="-4,5 -4,-260 147,-260 147,5 -4,5"/>
<!-- Node1 -->
<g id="node1" class="node"><title>Node1</title>
<polygon fill="#bfbfbf" stroke="black" points="0,-1 0,-155 142,-155 142,-1 0,-1"/>
<text text-anchor="start" x="8" y="-142" font-family="Helvetica,sans-Serif" font-size="10.00">src.optimisation.pythondeap.</text>
<text text-anchor="middle" x="71" y="-129" font-family="Helvetica,sans-Serif" font-size="10.00">ComputationLauncher</text>
<polyline fill="none" stroke="black" points="0,-121 142,-121 "/>
<text text-anchor="start" x="8" y="-108" font-family="Helvetica,sans-Serif" font-size="10.00">+ assignments</text>
<text text-anchor="start" x="8" y="-95" font-family="Helvetica,sans-Serif" font-size="10.00">+ distance</text>
<text text-anchor="start" x="8" y="-82" font-family="Helvetica,sans-Serif" font-size="10.00">+ issue</text>
<text text-anchor="start" x="8" y="-69" font-family="Helvetica,sans-Serif" font-size="10.00">+ hallOfFame</text>
<text text-anchor="start" x="8" y="-56" font-family="Helvetica,sans-Serif" font-size="10.00">+ algoInst</text>
<polyline fill="none" stroke="black" points="0,-48 142,-48 "/>
<text text-anchor="start" x="8" y="-35" font-family="Helvetica,sans-Serif" font-size="10.00">+ __init__()</text>
<text text-anchor="start" x="8" y="-22" font-family="Helvetica,sans-Serif" font-size="10.00">+ init()</text>
<text text-anchor="start" x="8" y="-9" font-family="Helvetica,sans-Serif" font-size="10.00">+ run()</text>
</g>
<!-- Node2 -->
<g id="node2" class="node"><title>Node2</title>
<polygon fill="white" stroke="#bfbfbf" points="25,-192.5 25,-255.5 117,-255.5 117,-192.5 25,-192.5"/>
<text text-anchor="middle" x="71" y="-242.5" font-family="Helvetica,sans-Serif" font-size="10.00">threading::Thread</text>
<polyline fill="none" stroke="#bfbfbf" points="25,-234.5 117,-234.5 "/>
<text text-anchor="middle" x="71" y="-221.5" font-family="Helvetica,sans-Serif" font-size="10.00"> </text>
<polyline fill="none" stroke="#bfbfbf" points="25,-213.5 117,-213.5 "/>
<text text-anchor="middle" x="71" y="-200.5" font-family="Helvetica,sans-Serif" font-size="10.00"> </text>
</g>
<!-- Node2&#45;&gt;Node1 -->
<g id="edge2" class="edge"><title>Node2&#45;&gt;Node1</title>
<path fill="none" stroke="midnightblue" d="M71,-182.288C71,-173.742 71,-164.491 71,-155.148"/>
<polygon fill="none" stroke="midnightblue" points="67.5001,-182.32 71,-192.32 74.5001,-182.32 67.5001,-182.32"/>
</g>
</g>
</svg>
