<?xml version="1.0" encoding="UTF-8" standalone="no"?>
<!DOCTYPE svg PUBLIC "-//W3C//DTD SVG 1.1//EN"
 "http://www.w3.org/Graphics/SVG/1.1/DTD/svg11.dtd">
<!-- Generated by graphviz version 2.34.0 (20130907.0111)
 -->
<!-- Title: src.interfacebdd.AbstractDAO.AbstractDAO.tableName Pages: 1 -->
<svg width="352pt" height="393pt"
 viewBox="0.00 0.00 352.00 393.00" xmlns="http://www.w3.org/2000/svg" xmlns:xlink="http://www.w3.org/1999/xlink">
<g id="graph0" class="graph" transform="scale(1 1) rotate(0) translate(4 389)">
<title>src.interfacebdd.AbstractDAO.AbstractDAO.tableName</title>
<polygon fill="white" stroke="white" points="-4,4 -4,-389 348,-389 348,4 -4,4"/>
<!-- Node1 -->
<g id="node1" class="node"><title>Node1</title>
<polygon fill="#bfbfbf" stroke="black" points="0,-180 0,-210 148,-210 148,-180 0,-180"/>
<text text-anchor="start" x="8" y="-198" font-family="Helvetica,sans-Serif" font-size="10.00">src.interfacebdd.Abstract</text>
<text text-anchor="middle" x="74" y="-187" font-family="Helvetica,sans-Serif" font-size="10.00">DAO.AbstractDAO.tableName</text>
</g>
<!-- Node1&#45;&gt;Node1 -->
<g id="edge9" class="edge"><title>Node1&#45;&gt;Node1</title>
<path fill="none" stroke="midnightblue" d="M40.7429,-220.598C45.2873,-224.97 56.373,-228 74,-228 103.688,-228 114.82,-219.406 107.398,-210.275"/>
<polygon fill="midnightblue" stroke="midnightblue" points="44.2382,-220.227 40.6016,-210.275 37.2389,-220.322 44.2382,-220.227"/>
</g>
<!-- Node2 -->
<g id="node2" class="node"><title>Node2</title>
<g id="a_node2"><a xlink:href="classsrc_1_1interfacebdd_1_1_abstract_d_a_o_1_1_abstract_d_a_o.html#a6b1483380fbd5c4a61f89e890f4fbe2b" target="_top" xlink:title="src.interfacebdd.Abstract\lDAO.AbstractDAO.getById">
<polygon fill="white" stroke="black" points="197,-355 197,-385 331,-385 331,-355 197,-355"/>
<text text-anchor="start" x="205" y="-373" font-family="Helvetica,sans-Serif" font-size="10.00">src.interfacebdd.Abstract</text>
<text text-anchor="middle" x="264" y="-362" font-family="Helvetica,sans-Serif" font-size="10.00">DAO.AbstractDAO.getById</text>
</a>
</g>
</g>
<!-- Node1&#45;&gt;Node2 -->
<g id="edge1" class="edge"><title>Node1&#45;&gt;Node2</title>
<path fill="none" stroke="midnightblue" d="M86.3908,-219.25C103.177,-252.414 137.649,-311.598 184,-345 189.369,-348.869 195.359,-352.154 201.573,-354.942"/>
<polygon fill="midnightblue" stroke="midnightblue" points="89.5077,-217.658 81.9425,-210.24 83.2309,-220.756 89.5077,-217.658"/>
</g>
<!-- Node3 -->
<g id="node3" class="node"><title>Node3</title>
<g id="a_node3"><a xlink:href="classsrc_1_1interfacebdd_1_1_abstract_d_a_o_1_1_abstract_d_a_o.html#a20ec3bc6a325d24f8e11d5ad10a7b78b" target="_top" xlink:title="src.interfacebdd.Abstract\lDAO.AbstractDAO.getByFilter">
<polygon fill="white" stroke="black" points="189.5,-306 189.5,-336 338.5,-336 338.5,-306 189.5,-306"/>
<text text-anchor="start" x="197.5" y="-324" font-family="Helvetica,sans-Serif" font-size="10.00">src.interfacebdd.Abstract</text>
<text text-anchor="middle" x="264" y="-313" font-family="Helvetica,sans-Serif" font-size="10.00">DAO.AbstractDAO.getByFilter</text>
</a>
</g>
</g>
<!-- Node1&#45;&gt;Node3 -->
<g id="edge2" class="edge"><title>Node1&#45;&gt;Node3</title>
<path fill="none" stroke="midnightblue" d="M94.3177,-218.067C114.531,-240.845 148.251,-275.203 184,-296 190.466,-299.762 197.565,-303.027 204.772,-305.841"/>
<polygon fill="midnightblue" stroke="midnightblue" points="96.7111,-215.486 87.5031,-210.245 91.4333,-220.084 96.7111,-215.486"/>
</g>
<!-- Node4 -->
<g id="node4" class="node"><title>Node4</title>
<g id="a_node4"><a xlink:href="classsrc_1_1interfacebdd_1_1_abstract_d_a_o_1_1_abstract_d_a_o.html#a32ceaeade6f552cd5ab17123fda60c46" target="_top" xlink:title="src.interfacebdd.Abstract\lDAO.AbstractDAO.getAll">
<polygon fill="white" stroke="black" points="201,-257 201,-287 327,-287 327,-257 201,-257"/>
<text text-anchor="start" x="209" y="-275" font-family="Helvetica,sans-Serif" font-size="10.00">src.interfacebdd.Abstract</text>
<text text-anchor="middle" x="264" y="-264" font-family="Helvetica,sans-Serif" font-size="10.00">DAO.AbstractDAO.getAll</text>
</a>
</g>
</g>
<!-- Node1&#45;&gt;Node4 -->
<g id="edge3" class="edge"><title>Node1&#45;&gt;Node4</title>
<path fill="none" stroke="midnightblue" d="M112.76,-214.605C133.483,-224.958 159.814,-237.457 184,-247 192.832,-250.485 202.361,-253.834 211.64,-256.887"/>
<polygon fill="midnightblue" stroke="midnightblue" points="114.167,-211.395 103.662,-210.018 111.015,-217.645 114.167,-211.395"/>
</g>
<!-- Node5 -->
<g id="node5" class="node"><title>Node5</title>
<g id="a_node5"><a xlink:href="classsrc_1_1interfacebdd_1_1_abstract_d_a_o_1_1_abstract_d_a_o.html#a2b67ab104d5359bbc4c16bcc18916a76" target="_top" xlink:title="src.interfacebdd.Abstract\lDAO.AbstractDAO.getAllByFilter">
<polygon fill="white" stroke="black" points="184,-208 184,-238 344,-238 344,-208 184,-208"/>
<text text-anchor="start" x="192" y="-226" font-family="Helvetica,sans-Serif" font-size="10.00">src.interfacebdd.Abstract</text>
<text text-anchor="middle" x="264" y="-215" font-family="Helvetica,sans-Serif" font-size="10.00">DAO.AbstractDAO.getAllByFilter</text>
</a>
</g>
</g>
<!-- Node1&#45;&gt;Node5 -->
<g id="edge4" class="edge"><title>Node1&#45;&gt;Node5</title>
<path fill="none" stroke="midnightblue" d="M158.143,-207.383C166.655,-208.651 175.286,-209.936 183.754,-211.197"/>
<polygon fill="midnightblue" stroke="midnightblue" points="158.631,-203.917 148.224,-205.906 157.599,-210.841 158.631,-203.917"/>
</g>
<!-- Node6 -->
<g id="node6" class="node"><title>Node6</title>
<g id="a_node6"><a xlink:href="classsrc_1_1interfacebdd_1_1_abstract_d_a_o_1_1_abstract_d_a_o.html#a43dda59bb16694f032b1c201c8291720" target="_top" xlink:title="src.interfacebdd.Abstract\lDAO.AbstractDAO.getAllByFilter\lExtended">
<polygon fill="white" stroke="black" points="184,-147.5 184,-188.5 344,-188.5 344,-147.5 184,-147.5"/>
<text text-anchor="start" x="192" y="-176.5" font-family="Helvetica,sans-Serif" font-size="10.00">src.interfacebdd.Abstract</text>
<text text-anchor="start" x="192" y="-165.5" font-family="Helvetica,sans-Serif" font-size="10.00">DAO.AbstractDAO.getAllByFilter</text>
<text text-anchor="middle" x="264" y="-154.5" font-family="Helvetica,sans-Serif" font-size="10.00">Extended</text>
</a>
</g>
</g>
<!-- Node1&#45;&gt;Node6 -->
<g id="edge5" class="edge"><title>Node1&#45;&gt;Node6</title>
<path fill="none" stroke="midnightblue" d="M158.143,-183.059C166.655,-181.837 175.286,-180.597 183.754,-179.381"/>
<polygon fill="midnightblue" stroke="midnightblue" points="157.625,-179.598 148.224,-184.484 158.62,-186.527 157.625,-179.598"/>
</g>
<!-- Node7 -->
<g id="node7" class="node"><title>Node7</title>
<g id="a_node7"><a xlink:href="classsrc_1_1interfacebdd_1_1_abstract_d_a_o_1_1_abstract_d_a_o.html#a172b8833771887e88fa7b41532520291" target="_top" xlink:title="src.interfacebdd.Abstract\lDAO.AbstractDAO.deleteById">
<polygon fill="white" stroke="black" points="190.5,-98 190.5,-128 337.5,-128 337.5,-98 190.5,-98"/>
<text text-anchor="start" x="198.5" y="-116" font-family="Helvetica,sans-Serif" font-size="10.00">src.interfacebdd.Abstract</text>
<text text-anchor="middle" x="264" y="-105" font-family="Helvetica,sans-Serif" font-size="10.00">DAO.AbstractDAO.deleteById</text>
</a>
</g>
</g>
<!-- Node1&#45;&gt;Node7 -->
<g id="edge6" class="edge"><title>Node1&#45;&gt;Node7</title>
<path fill="none" stroke="midnightblue" d="M109.695,-174.86C130.748,-163.147 158.408,-148.644 184,-138 192.501,-134.464 201.689,-131.134 210.689,-128.127"/>
<polygon fill="midnightblue" stroke="midnightblue" points="107.812,-171.903 100.811,-179.855 111.243,-178.005 107.812,-171.903"/>
</g>
<!-- Node8 -->
<g id="node8" class="node"><title>Node8</title>
<g id="a_node8"><a xlink:href="classsrc_1_1interfacebdd_1_1_abstract_d_a_o_1_1_abstract_d_a_o.html#a26c25d2269205a4024e501d41e3e5779" target="_top" xlink:title="src.interfacebdd.Abstract\lDAO.AbstractDAO.insert">
<polygon fill="white" stroke="black" points="201.5,-49 201.5,-79 326.5,-79 326.5,-49 201.5,-49"/>
<text text-anchor="start" x="209.5" y="-67" font-family="Helvetica,sans-Serif" font-size="10.00">src.interfacebdd.Abstract</text>
<text text-anchor="middle" x="264" y="-56" font-family="Helvetica,sans-Serif" font-size="10.00">DAO.AbstractDAO.insert</text>
</a>
</g>
</g>
<!-- Node1&#45;&gt;Node8 -->
<g id="edge7" class="edge"><title>Node1&#45;&gt;Node8</title>
<path fill="none" stroke="midnightblue" d="M93.1552,-171.854C113.062,-147.93 147.118,-111.057 184,-89 190.42,-85.1606 197.492,-81.8495 204.685,-79.0104"/>
<polygon fill="midnightblue" stroke="midnightblue" points="90.3371,-169.771 86.7224,-179.73 95.7587,-174.199 90.3371,-169.771"/>
</g>
<!-- Node9 -->
<g id="node9" class="node"><title>Node9</title>
<g id="a_node9"><a xlink:href="classsrc_1_1interfacebdd_1_1_abstract_d_a_o_1_1_abstract_d_a_o.html#ae15dbd8c7c4a14187194f9374ca043c9" target="_top" xlink:title="src.interfacebdd.Abstract\lDAO.AbstractDAO.update">
<polygon fill="white" stroke="black" points="198.5,-0 198.5,-30 329.5,-30 329.5,-0 198.5,-0"/>
<text text-anchor="start" x="206.5" y="-18" font-family="Helvetica,sans-Serif" font-size="10.00">src.interfacebdd.Abstract</text>
<text text-anchor="middle" x="264" y="-7" font-family="Helvetica,sans-Serif" font-size="10.00">DAO.AbstractDAO.update</text>
</a>
</g>
</g>
<!-- Node1&#45;&gt;Node9 -->
<g id="edge8" class="edge"><title>Node1&#45;&gt;Node9</title>
<path fill="none" stroke="midnightblue" d="M85.9259,-170.462C102.366,-136.292 136.656,-74.6785 184,-40 189.222,-36.1747 195.05,-32.9217 201.108,-30.1581"/>
<polygon fill="midnightblue" stroke="midnightblue" points="82.6584,-169.187 81.5838,-179.727 88.9968,-172.157 82.6584,-169.187"/>
</g>
</g>
</svg>
