<?xml version="1.0" encoding="UTF-8" standalone="no"?>
<!DOCTYPE svg PUBLIC "-//W3C//DTD SVG 1.1//EN"
 "http://www.w3.org/Graphics/SVG/1.1/DTD/svg11.dtd">
<!-- Generated by graphviz version 2.34.0 (20130907.0111)
 -->
<!-- Title: src.optimisation.SolTemp.SolTemps._genStatTable Pages: 1 -->
<svg width="340pt" height="136pt"
 viewBox="0.00 0.00 340.00 136.00" xmlns="http://www.w3.org/2000/svg" xmlns:xlink="http://www.w3.org/1999/xlink">
<g id="graph0" class="graph" transform="scale(1 1) rotate(0) translate(4 132)">
<title>src.optimisation.SolTemp.SolTemps._genStatTable</title>
<polygon fill="white" stroke="white" points="-4,4 -4,-132 336,-132 336,4 -4,4"/>
<!-- Node1 -->
<g id="node1" class="node"><title>Node1</title>
<polygon fill="#bfbfbf" stroke="black" points="0,-49 0,-79 130,-79 130,-49 0,-49"/>
<text text-anchor="start" x="8" y="-67" font-family="Helvetica,sans-Serif" font-size="10.00">src.optimisation.SolTemp.</text>
<text text-anchor="middle" x="65" y="-56" font-family="Helvetica,sans-Serif" font-size="10.00">SolTemps._genStatTable</text>
</g>
<!-- Node2 -->
<g id="node2" class="node"><title>Node2</title>
<g id="a_node2"><a xlink:href="classsrc_1_1optimisation_1_1_sol_temp_1_1_sol_temps.html#ac2eec288bc21d213da80a80816bea287" target="_top" xlink:title="Génère une première vague de SolTemp complètement au hasard. ">
<polygon fill="white" stroke="black" points="183.5,-98 183.5,-128 314.5,-128 314.5,-98 183.5,-98"/>
<text text-anchor="start" x="191.5" y="-116" font-family="Helvetica,sans-Serif" font-size="10.00">src.optimisation.SolTemp.</text>
<text text-anchor="middle" x="249" y="-105" font-family="Helvetica,sans-Serif" font-size="10.00">SolTemps._genInitialWave</text>
</a>
</g>
</g>
<!-- Node1&#45;&gt;Node2 -->
<g id="edge1" class="edge"><title>Node1&#45;&gt;Node2</title>
<path fill="none" stroke="midnightblue" d="M131.923,-81.7485C151.648,-87.0591 173.078,-92.8288 192.094,-97.9484"/>
<polygon fill="midnightblue" stroke="midnightblue" points="132.657,-78.3216 122.091,-79.1014 130.837,-85.0809 132.657,-78.3216"/>
</g>
<!-- Node3 -->
<g id="node3" class="node"><title>Node3</title>
<g id="a_node3"><a xlink:href="classsrc_1_1optimisation_1_1_sol_temp_1_1_sol_temps.html#af154981395e3edf2a1f52aaaa047bda9" target="_top" xlink:title="Effectue plusieurs vagues de dénérations de SolTemp, en se basant sur la StatTable interne...">
<polygon fill="white" stroke="black" points="166.5,-49 166.5,-79 331.5,-79 331.5,-49 166.5,-49"/>
<text text-anchor="start" x="174.5" y="-67" font-family="Helvetica,sans-Serif" font-size="10.00">src.optimisation.SolTemp.</text>
<text text-anchor="middle" x="249" y="-56" font-family="Helvetica,sans-Serif" font-size="10.00">SolTemps._genSubsequentWaves</text>
</a>
</g>
</g>
<!-- Node1&#45;&gt;Node3 -->
<g id="edge2" class="edge"><title>Node1&#45;&gt;Node3</title>
<path fill="none" stroke="midnightblue" d="M140.425,-64C148.934,-64 157.642,-64 166.24,-64"/>
<polygon fill="midnightblue" stroke="midnightblue" points="140.166,-60.5001 130.166,-64 140.166,-67.5001 140.166,-60.5001"/>
</g>
<!-- Node4 -->
<g id="node4" class="node"><title>Node4</title>
<g id="a_node4"><a xlink:href="classsrc_1_1optimisation_1_1_sol_temp_1_1_sol_temps.html#a76aa95706a88aaeef7f3159c1b37cf0d" target="_top" xlink:title="Retourne la SolTemps sous une forme lisible pour l&#39;humain. ">
<polygon fill="white" stroke="black" points="184,-0 184,-30 314,-30 314,-0 184,-0"/>
<text text-anchor="start" x="192" y="-18" font-family="Helvetica,sans-Serif" font-size="10.00">src.optimisation.SolTemp.</text>
<text text-anchor="middle" x="249" y="-7" font-family="Helvetica,sans-Serif" font-size="10.00">SolTemps.__str__</text>
</a>
</g>
</g>
<!-- Node1&#45;&gt;Node4 -->
<g id="edge3" class="edge"><title>Node1&#45;&gt;Node4</title>
<path fill="none" stroke="midnightblue" d="M131.923,-46.2515C151.648,-40.9409 173.078,-35.1712 192.094,-30.0516"/>
<polygon fill="midnightblue" stroke="midnightblue" points="130.837,-42.9191 122.091,-48.8986 132.657,-49.6784 130.837,-42.9191"/>
</g>
</g>
</svg>
