<?xml version="1.0" encoding="UTF-8" standalone="no"?>
<!DOCTYPE svg PUBLIC "-//W3C//DTD SVG 1.1//EN"
 "http://www.w3.org/Graphics/SVG/1.1/DTD/svg11.dtd">
<!-- Generated by graphviz version 2.34.0 (20130907.0111)
 -->
<!-- Title: src.system.System.System.workers Pages: 1 -->
<svg width="376pt" height="51pt"
 viewBox="0.00 0.00 376.00 51.00" xmlns="http://www.w3.org/2000/svg" xmlns:xlink="http://www.w3.org/1999/xlink">
<g id="graph0" class="graph" transform="scale(1 1) rotate(0) translate(4 47)">
<title>src.system.System.System.workers</title>
<polygon fill="white" stroke="white" points="-4,4 -4,-47 372,-47 372,4 -4,4"/>
<!-- Node1 -->
<g id="node1" class="node"><title>Node1</title>
<polygon fill="#bfbfbf" stroke="black" points="0,-5.5 0,-24.5 176,-24.5 176,-5.5 0,-5.5"/>
<text text-anchor="middle" x="88" y="-12.5" font-family="Helvetica,sans-Serif" font-size="10.00">src.system.System.System.workers</text>
</g>
<!-- Node1&#45;&gt;Node1 -->
<g id="edge1" class="edge"><title>Node1&#45;&gt;Node1</title>
<path fill="none" stroke="midnightblue" d="M50.125,-32.5043C50.1312,-38.3356 62.7562,-43 88,-43 123.902,-43 134.28,-33.5653 119.134,-24.7571"/>
<polygon fill="midnightblue" stroke="midnightblue" points="52.9422,-34.5986 56.8659,-24.7571 47.6614,-30.0036 52.9422,-34.5986"/>
</g>
<!-- Node2 -->
<g id="node2" class="node"><title>Node2</title>
<g id="a_node2"><a xlink:href="classsrc_1_1system_1_1_system_1_1_system.html#a24c48cddd96bd9ed13d9b8d8c8660d50" target="_top" xlink:title="retourne l&#39;ouvrier du systeme avec le numéros numWorker si il existe, None sinon ">
<polygon fill="white" stroke="black" points="212.5,-0 212.5,-30 367.5,-30 367.5,-0 212.5,-0"/>
<text text-anchor="start" x="220.5" y="-18" font-family="Helvetica,sans-Serif" font-size="10.00">src.system.System.System.get</text>
<text text-anchor="middle" x="290" y="-7" font-family="Helvetica,sans-Serif" font-size="10.00">WorkerById</text>
</a>
</g>
</g>
<!-- Node1&#45;&gt;Node2 -->
<g id="edge2" class="edge"><title>Node1&#45;&gt;Node2</title>
<path fill="none" stroke="midnightblue" d="M186.4,-15C195.163,-15 203.952,-15 212.499,-15"/>
<polygon fill="midnightblue" stroke="midnightblue" points="186.141,-11.5001 176.141,-15 186.141,-18.5001 186.141,-11.5001"/>
</g>
</g>
</svg>
