<?xml version="1.0" encoding="UTF-8" standalone="no"?>
<!DOCTYPE svg PUBLIC "-//W3C//DTD SVG 1.1//EN"
 "http://www.w3.org/Graphics/SVG/1.1/DTD/svg11.dtd">
<!-- Generated by graphviz version 2.34.0 (20130907.0111)
 -->
<!-- Title: src.optimisation.SolTemp.SolTemp.affects Pages: 1 -->
<svg width="320pt" height="87pt"
 viewBox="0.00 0.00 320.00 87.00" xmlns="http://www.w3.org/2000/svg" xmlns:xlink="http://www.w3.org/1999/xlink">
<g id="graph0" class="graph" transform="scale(1 1) rotate(0) translate(4 83)">
<title>src.optimisation.SolTemp.SolTemp.affects</title>
<polygon fill="white" stroke="white" points="-4,4 -4,-83 316,-83 316,4 -4,4"/>
<!-- Node1 -->
<g id="node1" class="node"><title>Node1</title>
<polygon fill="#bfbfbf" stroke="black" points="0,-24 0,-54 130,-54 130,-24 0,-24"/>
<text text-anchor="start" x="8" y="-42" font-family="Helvetica,sans-Serif" font-size="10.00">src.optimisation.SolTemp.</text>
<text text-anchor="middle" x="65" y="-31" font-family="Helvetica,sans-Serif" font-size="10.00">SolTemp.affects</text>
</g>
<!-- Node1&#45;&gt;Node1 -->
<g id="edge1" class="edge"><title>Node1&#45;&gt;Node1</title>
<path fill="none" stroke="midnightblue" d="M34.5435,-64.5975C38.7053,-68.9704 48.8574,-72 65,-72 92.1875,-72 102.383,-63.4063 95.5859,-54.2754"/>
<polygon fill="midnightblue" stroke="midnightblue" points="38.0393,-64.2307 34.4141,-54.2754 31.0398,-64.3185 38.0393,-64.2307"/>
</g>
<!-- Node2 -->
<g id="node2" class="node"><title>Node2</title>
<g id="a_node2"><a xlink:href="classsrc_1_1optimisation_1_1_sol_temp_1_1_sol_temp.html#a86f95c6eae49ab44163fd89628d3ff76" target="_top" xlink:title="Retourne l&#39;ensemble des affectations correspondantes. ">
<polygon fill="white" stroke="black" points="166.5,-49 166.5,-79 311.5,-79 311.5,-49 166.5,-49"/>
<text text-anchor="start" x="174.5" y="-67" font-family="Helvetica,sans-Serif" font-size="10.00">src.optimisation.SolTemp.</text>
<text text-anchor="middle" x="239" y="-56" font-family="Helvetica,sans-Serif" font-size="10.00">SolTemp.extractAssignments</text>
</a>
</g>
</g>
<!-- Node1&#45;&gt;Node2 -->
<g id="edge2" class="edge"><title>Node1&#45;&gt;Node2</title>
<path fill="none" stroke="midnightblue" d="M140.159,-49.7789C148.856,-51.043 157.718,-52.3311 166.38,-53.5901"/>
<polygon fill="midnightblue" stroke="midnightblue" points="140.446,-46.2839 130.046,-48.3091 139.439,-53.2111 140.446,-46.2839"/>
</g>
<!-- Node3 -->
<g id="node3" class="node"><title>Node3</title>
<g id="a_node3"><a xlink:href="classsrc_1_1optimisation_1_1_sol_temp_1_1_sol_temp.html#ad1d796fd747a7d4132a29037572a67bb" target="_top" xlink:title="rend une SolTemp de manière lisible pour l&#39;humain. ">
<polygon fill="white" stroke="black" points="174,-0 174,-30 304,-30 304,-0 174,-0"/>
<text text-anchor="start" x="182" y="-18" font-family="Helvetica,sans-Serif" font-size="10.00">src.optimisation.SolTemp.</text>
<text text-anchor="middle" x="239" y="-7" font-family="Helvetica,sans-Serif" font-size="10.00">SolTemp.__str__</text>
</a>
</g>
</g>
<!-- Node1&#45;&gt;Node3 -->
<g id="edge3" class="edge"><title>Node1&#45;&gt;Node3</title>
<path fill="none" stroke="midnightblue" d="M140.241,-28.6408C151.45,-27.0768 162.929,-25.475 173.9,-23.9442"/>
<polygon fill="midnightblue" stroke="midnightblue" points="139.467,-25.2148 130.046,-30.0633 140.434,-32.1477 139.467,-25.2148"/>
</g>
</g>
</svg>
