<?xml version="1.0" encoding="UTF-8" standalone="no"?>
<!DOCTYPE svg PUBLIC "-//W3C//DTD SVG 1.1//EN"
 "http://www.w3.org/Graphics/SVG/1.1/DTD/svg11.dtd">
<!-- Generated by graphviz version 2.26.3 (20100126.1600)
 -->
<!-- Title: src.interfacebdd.QualificationDAO.QualificationDAO Pages: 1 -->
<svg width="150pt" height="224pt"
 viewBox="0.00 0.00 150.00 224.00" xmlns="http://www.w3.org/2000/svg" xmlns:xlink="http://www.w3.org/1999/xlink">
<g id="graph1" class="graph" transform="scale(1 1) rotate(0) translate(4 220)">
<title>src.interfacebdd.QualificationDAO.QualificationDAO</title>
<polygon fill="white" stroke="white" points="-4,5 -4,-220 147,-220 147,5 -4,5"/>
<!-- Node1 -->
<g id="node1" class="node"><title>Node1</title>
<polygon fill="#bfbfbf" stroke="black" points="-0.5,-0.5 -0.5,-115.5 142.5,-115.5 142.5,-0.5 -0.5,-0.5"/>
<text text-anchor="start" x="7.5" y="-102.5" font-family="Helvetica,sans-Serif" font-size="10.00">src.interfacebdd.Qualification</text>
<text text-anchor="middle" x="71" y="-89.5" font-family="Helvetica,sans-Serif" font-size="10.00">DAO.QualificationDAO</text>
<polyline fill="none" stroke="black" points="-0.5,-81.5 142.5,-81.5 "/>
<text text-anchor="start" x="7.5" y="-68.5" font-family="Helvetica,sans-Serif" font-size="10.00">+ MAPPING_COLS</text>
<text text-anchor="start" x="7.5" y="-55.5" font-family="Helvetica,sans-Serif" font-size="10.00">+ MAPPING_FIL</text>
<polyline fill="none" stroke="black" points="-0.5,-47.5 142.5,-47.5 "/>
<text text-anchor="start" x="7.5" y="-34.5" font-family="Helvetica,sans-Serif" font-size="10.00">+ __init__()</text>
<text text-anchor="start" x="7.5" y="-21.5" font-family="Helvetica,sans-Serif" font-size="10.00">+ insert()</text>
<text text-anchor="start" x="7.5" y="-8.5" font-family="Helvetica,sans-Serif" font-size="10.00">&#45; _createElement()</text>
</g>
<!-- Node2 -->
<g id="node2" class="node"><title>Node2</title>
<polygon fill="white" stroke="#bfbfbf" points="33.5,-152.5 33.5,-215.5 108.5,-215.5 108.5,-152.5 33.5,-152.5"/>
<text text-anchor="middle" x="71" y="-202.5" font-family="Helvetica,sans-Serif" font-size="10.00">AbstractDAO</text>
<polyline fill="none" stroke="#bfbfbf" points="33.5,-194.5 108.5,-194.5 "/>
<text text-anchor="middle" x="71" y="-181.5" font-family="Helvetica,sans-Serif" font-size="10.00"> </text>
<polyline fill="none" stroke="#bfbfbf" points="33.5,-173.5 108.5,-173.5 "/>
<text text-anchor="middle" x="71" y="-160.5" font-family="Helvetica,sans-Serif" font-size="10.00"> </text>
</g>
<!-- Node2&#45;&gt;Node1 -->
<g id="edge2" class="edge"><title>Node2&#45;&gt;Node1</title>
<path fill="none" stroke="midnightblue" d="M71,-141.932C71,-133.545 71,-124.6 71,-115.791"/>
<polygon fill="none" stroke="midnightblue" points="67.5001,-142.205 71,-152.205 74.5001,-142.205 67.5001,-142.205"/>
</g>
</g>
</svg>
