<?xml version="1.0" encoding="UTF-8" standalone="no"?>
<!DOCTYPE svg PUBLIC "-//W3C//DTD SVG 1.1//EN"
 "http://www.w3.org/Graphics/SVG/1.1/DTD/svg11.dtd">
<!-- Generated by graphviz version 2.34.0 (20130907.0111)
 -->
<!-- Title: src.system.BuildSite.BuildSite.num Pages: 1 -->
<svg width="338pt" height="116pt"
 viewBox="0.00 0.00 338.00 116.00" xmlns="http://www.w3.org/2000/svg" xmlns:xlink="http://www.w3.org/1999/xlink">
<g id="graph0" class="graph" transform="scale(1 1) rotate(0) translate(4 112)">
<title>src.system.BuildSite.BuildSite.num</title>
<polygon fill="white" stroke="white" points="-4,4 -4,-112 334,-112 334,4 -4,4"/>
<!-- Node1 -->
<g id="node1" class="node"><title>Node1</title>
<polygon fill="#bfbfbf" stroke="black" points="0,-39 0,-69 132,-69 132,-39 0,-39"/>
<text text-anchor="start" x="8" y="-57" font-family="Helvetica,sans-Serif" font-size="10.00">src.system.BuildSite.Build</text>
<text text-anchor="middle" x="66" y="-46" font-family="Helvetica,sans-Serif" font-size="10.00">Site.num</text>
</g>
<!-- Node2 -->
<g id="node2" class="node"><title>Node2</title>
<g id="a_node2"><a xlink:href="classsrc_1_1system_1_1_site_1_1_site.html#a57bc8ec56d0adc43b55064e1989a1502" target="_top" xlink:title="serialise un chantier pour pouvoir le transmettre facilement ">
<polygon fill="white" stroke="black" points="183,-88.5 183,-107.5 315,-107.5 315,-88.5 183,-88.5"/>
<text text-anchor="middle" x="249" y="-95.5" font-family="Helvetica,sans-Serif" font-size="10.00">src.system.Site.Site.serial</text>
</a>
</g>
</g>
<!-- Node1&#45;&gt;Node2 -->
<g id="edge1" class="edge"><title>Node1&#45;&gt;Node2</title>
<path fill="none" stroke="midnightblue" d="M138.562,-71.3964C162.521,-77.2206 188.333,-83.4954 208.869,-88.4876"/>
<polygon fill="midnightblue" stroke="midnightblue" points="139.327,-67.9805 128.784,-69.0192 137.674,-74.7824 139.327,-67.9805"/>
</g>
<!-- Node3 -->
<g id="node3" class="node"><title>Node3</title>
<g id="a_node3"><a xlink:href="classsrc_1_1system_1_1_worker_1_1_worker.html#a771360c3aaa0dd2be470ad6c885beb37" target="_top" xlink:title="Renvois un worker sous une forme lisible pour l&#39;humain. ">
<polygon fill="white" stroke="black" points="180.5,-39 180.5,-69 317.5,-69 317.5,-39 180.5,-39"/>
<text text-anchor="start" x="188.5" y="-57" font-family="Helvetica,sans-Serif" font-size="10.00">src.system.Worker.Worker.</text>
<text text-anchor="middle" x="249" y="-46" font-family="Helvetica,sans-Serif" font-size="10.00">__str__</text>
</a>
</g>
</g>
<!-- Node1&#45;&gt;Node3 -->
<g id="edge2" class="edge"><title>Node1&#45;&gt;Node3</title>
<path fill="none" stroke="midnightblue" d="M142.159,-54C154.85,-54 167.956,-54 180.439,-54"/>
<polygon fill="midnightblue" stroke="midnightblue" points="142.089,-50.5001 132.089,-54 142.089,-57.5001 142.089,-50.5001"/>
</g>
<!-- Node4 -->
<g id="node4" class="node"><title>Node4</title>
<g id="a_node4"><a xlink:href="classsrc_1_1system_1_1_worker_1_1_worker.html#a346ba2efb749b79fff836f4696256a11" target="_top" xlink:title="serialise une affectation pour pouvoir la transmettre facilement ">
<polygon fill="white" stroke="black" points="168.5,-0.5 168.5,-19.5 329.5,-19.5 329.5,-0.5 168.5,-0.5"/>
<text text-anchor="middle" x="249" y="-7.5" font-family="Helvetica,sans-Serif" font-size="10.00">src.system.Worker.Worker.serial</text>
</a>
</g>
</g>
<!-- Node1&#45;&gt;Node4 -->
<g id="edge3" class="edge"><title>Node1&#45;&gt;Node4</title>
<path fill="none" stroke="midnightblue" d="M138.562,-36.6036C162.521,-30.7794 188.333,-24.5046 208.869,-19.5124"/>
<polygon fill="midnightblue" stroke="midnightblue" points="137.674,-33.2176 128.784,-38.9808 139.327,-40.0195 137.674,-33.2176"/>
</g>
</g>
</svg>
