<?xml version="1.0" encoding="UTF-8" standalone="no"?>
<!DOCTYPE svg PUBLIC "-//W3C//DTD SVG 1.1//EN"
 "http://www.w3.org/Graphics/SVG/1.1/DTD/svg11.dtd">
<!-- Generated by graphviz version 2.26.3 (20100126.1600)
 -->
<!-- Title: src.interfacebdd.ConsumerDAO.ConsumerDAO Pages: 1 -->
<svg width="142pt" height="212pt"
 viewBox="0.00 0.00 142.00 212.00" xmlns="http://www.w3.org/2000/svg" xmlns:xlink="http://www.w3.org/1999/xlink">
<g id="graph1" class="graph" transform="scale(1 1) rotate(0) translate(4 208)">
<title>src.interfacebdd.ConsumerDAO.ConsumerDAO</title>
<polygon fill="white" stroke="white" points="-4,5 -4,-208 139,-208 139,5 -4,5"/>
<!-- Node1 -->
<g id="node1" class="node"><title>Node1</title>
<polygon fill="#bfbfbf" stroke="black" points="0,-1 0,-103 134,-103 134,-1 0,-1"/>
<text text-anchor="start" x="8" y="-90" font-family="Helvetica,sans-Serif" font-size="10.00">src.interfacebdd.Consumer</text>
<text text-anchor="middle" x="67" y="-77" font-family="Helvetica,sans-Serif" font-size="10.00">DAO.ConsumerDAO</text>
<polyline fill="none" stroke="black" points="0,-69 134,-69 "/>
<text text-anchor="start" x="8" y="-56" font-family="Helvetica,sans-Serif" font-size="10.00">+ MAPPING_COLS</text>
<text text-anchor="start" x="8" y="-43" font-family="Helvetica,sans-Serif" font-size="10.00">+ MAPPING_FIL</text>
<polyline fill="none" stroke="black" points="0,-35 134,-35 "/>
<text text-anchor="start" x="8" y="-22" font-family="Helvetica,sans-Serif" font-size="10.00">+ __init__()</text>
<text text-anchor="start" x="8" y="-9" font-family="Helvetica,sans-Serif" font-size="10.00">&#45; _createElement()</text>
</g>
<!-- Node2 -->
<g id="node2" class="node"><title>Node2</title>
<polygon fill="white" stroke="#bfbfbf" points="29.5,-140.5 29.5,-203.5 104.5,-203.5 104.5,-140.5 29.5,-140.5"/>
<text text-anchor="middle" x="67" y="-190.5" font-family="Helvetica,sans-Serif" font-size="10.00">AbstractDAO</text>
<polyline fill="none" stroke="#bfbfbf" points="29.5,-182.5 104.5,-182.5 "/>
<text text-anchor="middle" x="67" y="-169.5" font-family="Helvetica,sans-Serif" font-size="10.00"> </text>
<polyline fill="none" stroke="#bfbfbf" points="29.5,-161.5 104.5,-161.5 "/>
<text text-anchor="middle" x="67" y="-148.5" font-family="Helvetica,sans-Serif" font-size="10.00"> </text>
</g>
<!-- Node2&#45;&gt;Node1 -->
<g id="edge2" class="edge"><title>Node2&#45;&gt;Node1</title>
<path fill="none" stroke="midnightblue" d="M67,-130.205C67,-121.513 67,-112.259 67,-103.272"/>
<polygon fill="none" stroke="midnightblue" points="63.5001,-130.471 67,-140.471 70.5001,-130.471 63.5001,-130.471"/>
</g>
</g>
</svg>
