<?xml version="1.0" encoding="UTF-8" standalone="no"?>
<!DOCTYPE svg PUBLIC "-//W3C//DTD SVG 1.1//EN"
 "http://www.w3.org/Graphics/SVG/1.1/DTD/svg11.dtd">
<!-- Generated by graphviz version 2.34.0 (20130907.0111)
 -->
<!-- Title: src.system.Position.Position.serial Pages: 1 -->
<svg width="396pt" height="66pt"
 viewBox="0.00 0.00 396.00 66.00" xmlns="http://www.w3.org/2000/svg" xmlns:xlink="http://www.w3.org/1999/xlink">
<g id="graph0" class="graph" transform="scale(1 1) rotate(0) translate(4 62)">
<title>src.system.Position.Position.serial</title>
<polygon fill="white" stroke="white" points="-4,4 -4,-62 392,-62 392,4 -4,4"/>
<!-- Node1 -->
<g id="node1" class="node"><title>Node1</title>
<polygon fill="#bfbfbf" stroke="black" points="0,-19.5 0,-38.5 168,-38.5 168,-19.5 0,-19.5"/>
<text text-anchor="middle" x="84" y="-26.5" font-family="Helvetica,sans-Serif" font-size="10.00">src.system.Position.Position.serial</text>
</g>
<!-- Node2 -->
<g id="node2" class="node"><title>Node2</title>
<g id="a_node2"><a xlink:href="classsrc_1_1system_1_1_position_1_1_position.html#ae4ac6ef41f56bf55952eb5648a874745" target="_top" xlink:title="src.system.Position.Position.longitude">
<polygon fill="white" stroke="black" points="204,-38.5 204,-57.5 388,-57.5 388,-38.5 204,-38.5"/>
<text text-anchor="middle" x="296" y="-45.5" font-family="Helvetica,sans-Serif" font-size="10.00">src.system.Position.Position.longitude</text>
</a>
</g>
</g>
<!-- Node1&#45;&gt;Node2 -->
<g id="edge1" class="edge"><title>Node1&#45;&gt;Node2</title>
<path fill="none" stroke="midnightblue" d="M168.299,-36.5366C176.694,-37.2962 185.283,-38.0732 193.838,-38.8472"/>
<polygon fill="midnightblue" stroke="midnightblue" points="193.577,-42.3378 203.851,-39.7532 194.207,-35.3663 193.577,-42.3378"/>
</g>
<!-- Node3 -->
<g id="node3" class="node"><title>Node3</title>
<g id="a_node3"><a xlink:href="classsrc_1_1system_1_1_position_1_1_position.html#a458bcb8338c7d7b157491ea9506fb8ef" target="_top" xlink:title="src.system.Position.Position.latitude">
<polygon fill="white" stroke="black" points="208,-0.5 208,-19.5 384,-19.5 384,-0.5 208,-0.5"/>
<text text-anchor="middle" x="296" y="-7.5" font-family="Helvetica,sans-Serif" font-size="10.00">src.system.Position.Position.latitude</text>
</a>
</g>
</g>
<!-- Node1&#45;&gt;Node3 -->
<g id="edge2" class="edge"><title>Node1&#45;&gt;Node3</title>
<path fill="none" stroke="midnightblue" d="M168.299,-21.4634C177.903,-20.5945 187.76,-19.7026 197.53,-18.8187"/>
<polygon fill="midnightblue" stroke="midnightblue" points="198.021,-22.2886 207.665,-17.9017 197.391,-15.3171 198.021,-22.2886"/>
</g>
</g>
</svg>
