<?xml version="1.0" encoding="UTF-8" standalone="no"?>
<!DOCTYPE svg PUBLIC "-//W3C//DTD SVG 1.1//EN"
 "http://www.w3.org/Graphics/SVG/1.1/DTD/svg11.dtd">
<!-- Generated by graphviz version 2.26.3 (20100126.1600)
 -->
<!-- Title: src.util.profilehooks.CProfileFuncProfile Pages: 1 -->
<svg width="148pt" height="494pt"
 viewBox="0.00 0.00 148.00 494.00" xmlns="http://www.w3.org/2000/svg" xmlns:xlink="http://www.w3.org/1999/xlink">
<g id="graph1" class="graph" transform="scale(1 1) rotate(0) translate(4 490)">
<title>src.util.profilehooks.CProfileFuncProfile</title>
<polygon fill="white" stroke="white" points="-4,5 -4,-490 145,-490 145,5 -4,5"/>
<!-- Node1 -->
<g id="node1" class="node"><title>Node1</title>
<polygon fill="#bfbfbf" stroke="black" points="0,-1 0,-77 140,-77 140,-1 0,-1"/>
<text text-anchor="start" x="8" y="-64" font-family="Helvetica,sans-Serif" font-size="10.00">src.util.profilehooks.CProfile</text>
<text text-anchor="middle" x="70" y="-51" font-family="Helvetica,sans-Serif" font-size="10.00">FuncProfile</text>
<polyline fill="none" stroke="black" points="0,-43 140,-43 "/>
<text text-anchor="start" x="8" y="-30" font-family="Helvetica,sans-Serif" font-size="10.00">+ Profile</text>
<polyline fill="none" stroke="black" points="0,-22 140,-22 "/>
<text text-anchor="middle" x="70" y="-9" font-family="Helvetica,sans-Serif" font-size="10.00"> </text>
</g>
<!-- Node2 -->
<g id="node2" class="node"><title>Node2</title>
<a xlink:href="classsrc_1_1util_1_1profilehooks_1_1_func_profile.html" target="_top" xlink:title="Profiler for a function (uses profile). ">
<polygon fill="white" stroke="black" points="7,-114.5 7,-385.5 133,-385.5 133,-114.5 7,-114.5"/>
<text text-anchor="start" x="15" y="-372.5" font-family="Helvetica,sans-Serif" font-size="10.00">src.util.profilehooks.Func</text>
<text text-anchor="middle" x="70" y="-359.5" font-family="Helvetica,sans-Serif" font-size="10.00">Profile</text>
<polyline fill="none" stroke="black" points="7,-351.5 133,-351.5 "/>
<text text-anchor="start" x="15" y="-338.5" font-family="Helvetica,sans-Serif" font-size="10.00">+ fn</text>
<text text-anchor="start" x="15" y="-325.5" font-family="Helvetica,sans-Serif" font-size="10.00">+ skip</text>
<text text-anchor="start" x="15" y="-312.5" font-family="Helvetica,sans-Serif" font-size="10.00">+ filename</text>
<text text-anchor="start" x="15" y="-299.5" font-family="Helvetica,sans-Serif" font-size="10.00">+ immediate</text>
<text text-anchor="start" x="15" y="-286.5" font-family="Helvetica,sans-Serif" font-size="10.00">+ dirs</text>
<text text-anchor="start" x="15" y="-273.5" font-family="Helvetica,sans-Serif" font-size="10.00">+ sort</text>
<text text-anchor="start" x="15" y="-260.5" font-family="Helvetica,sans-Serif" font-size="10.00">+ entries</text>
<text text-anchor="start" x="15" y="-247.5" font-family="Helvetica,sans-Serif" font-size="10.00">+ stats</text>
<text text-anchor="start" x="15" y="-234.5" font-family="Helvetica,sans-Serif" font-size="10.00">+ ncalls</text>
<text text-anchor="start" x="15" y="-221.5" font-family="Helvetica,sans-Serif" font-size="10.00">+ skipped</text>
<text text-anchor="start" x="15" y="-208.5" font-family="Helvetica,sans-Serif" font-size="10.00">+ in_profiler</text>
<text text-anchor="start" x="15" y="-195.5" font-family="Helvetica,sans-Serif" font-size="10.00">+ Profile</text>
<polyline fill="none" stroke="black" points="7,-187.5 133,-187.5 "/>
<text text-anchor="start" x="15" y="-174.5" font-family="Helvetica,sans-Serif" font-size="10.00">+ __init__()</text>
<text text-anchor="start" x="15" y="-161.5" font-family="Helvetica,sans-Serif" font-size="10.00">+ __call__()</text>
<text text-anchor="start" x="15" y="-148.5" font-family="Helvetica,sans-Serif" font-size="10.00">+ print_stats()</text>
<text text-anchor="start" x="15" y="-135.5" font-family="Helvetica,sans-Serif" font-size="10.00">+ reset_stats()</text>
<text text-anchor="start" x="15" y="-122.5" font-family="Helvetica,sans-Serif" font-size="10.00">+ atexit()</text>
</a>
</g>
<!-- Node2&#45;&gt;Node1 -->
<g id="edge2" class="edge"><title>Node2&#45;&gt;Node1</title>
<path fill="none" stroke="midnightblue" d="M70,-104.047C70,-94.3934 70,-85.2728 70,-77.0845"/>
<polygon fill="none" stroke="midnightblue" points="66.5001,-104.282 70,-114.282 73.5001,-104.282 66.5001,-104.282"/>
</g>
<!-- Node3 -->
<g id="node4" class="node"><title>Node3</title>
<polygon fill="white" stroke="#bfbfbf" points="48.5,-422.5 48.5,-485.5 91.5,-485.5 91.5,-422.5 48.5,-422.5"/>
<text text-anchor="middle" x="70" y="-472.5" font-family="Helvetica,sans-Serif" font-size="10.00">object</text>
<polyline fill="none" stroke="#bfbfbf" points="48.5,-464.5 91.5,-464.5 "/>
<text text-anchor="middle" x="70" y="-451.5" font-family="Helvetica,sans-Serif" font-size="10.00"> </text>
<polyline fill="none" stroke="#bfbfbf" points="48.5,-443.5 91.5,-443.5 "/>
<text text-anchor="middle" x="70" y="-430.5" font-family="Helvetica,sans-Serif" font-size="10.00"> </text>
</g>
<!-- Node3&#45;&gt;Node2 -->
<g id="edge4" class="edge"><title>Node3&#45;&gt;Node2</title>
<path fill="none" stroke="midnightblue" d="M70,-411.988C70,-403.913 70,-395.06 70,-385.787"/>
<polygon fill="none" stroke="midnightblue" points="66.5001,-412.125 70,-422.125 73.5001,-412.125 66.5001,-412.125"/>
</g>
</g>
</svg>
