<?xml version="1.0" encoding="UTF-8" standalone="no"?>
<!DOCTYPE svg PUBLIC "-//W3C//DTD SVG 1.1//EN"
 "http://www.w3.org/Graphics/SVG/1.1/DTD/svg11.dtd">
<!-- Generated by graphviz version 2.34.0 (20130907.0111)
 -->
<!-- Title: src.interfacebdd.AbstractDAO.AbstractDAO.joins Pages: 1 -->
<svg width="330pt" height="344pt"
 viewBox="0.00 0.00 330.00 344.00" xmlns="http://www.w3.org/2000/svg" xmlns:xlink="http://www.w3.org/1999/xlink">
<g id="graph0" class="graph" transform="scale(1 1) rotate(0) translate(4 340)">
<title>src.interfacebdd.AbstractDAO.AbstractDAO.joins</title>
<polygon fill="white" stroke="white" points="-4,4 -4,-340 326,-340 326,4 -4,4"/>
<!-- Node1 -->
<g id="node1" class="node"><title>Node1</title>
<polygon fill="#bfbfbf" stroke="black" points="0.5,-159 0.5,-189 125.5,-189 125.5,-159 0.5,-159"/>
<text text-anchor="start" x="8.5" y="-177" font-family="Helvetica,sans-Serif" font-size="10.00">src.interfacebdd.Abstract</text>
<text text-anchor="middle" x="63" y="-166" font-family="Helvetica,sans-Serif" font-size="10.00">DAO.AbstractDAO.joins</text>
</g>
<!-- Node1&#45;&gt;Node1 -->
<g id="edge8" class="edge"><title>Node1&#45;&gt;Node1</title>
<path fill="none" stroke="midnightblue" d="M31.8433,-199.598C36.1008,-203.97 46.4863,-207 63,-207 90.8125,-207 101.242,-198.406 94.2891,-189.275"/>
<polygon fill="midnightblue" stroke="midnightblue" points="35.339,-199.23 31.7109,-189.275 28.3396,-199.319 35.339,-199.23"/>
</g>
<!-- Node2 -->
<g id="node2" class="node"><title>Node2</title>
<g id="a_node2"><a xlink:href="classsrc_1_1interfacebdd_1_1_abstract_d_a_o_1_1_abstract_d_a_o.html#a6b1483380fbd5c4a61f89e890f4fbe2b" target="_top" xlink:title="src.interfacebdd.Abstract\lDAO.AbstractDAO.getById">
<polygon fill="white" stroke="black" points="175,-306 175,-336 309,-336 309,-306 175,-306"/>
<text text-anchor="start" x="183" y="-324" font-family="Helvetica,sans-Serif" font-size="10.00">src.interfacebdd.Abstract</text>
<text text-anchor="middle" x="242" y="-313" font-family="Helvetica,sans-Serif" font-size="10.00">DAO.AbstractDAO.getById</text>
</a>
</g>
</g>
<!-- Node1&#45;&gt;Node2 -->
<g id="edge1" class="edge"><title>Node1&#45;&gt;Node2</title>
<path fill="none" stroke="midnightblue" d="M77.3772,-198.113C93.8394,-225.643 124.299,-270.192 162,-296 167.579,-299.819 173.773,-303.079 180.167,-305.855"/>
<polygon fill="midnightblue" stroke="midnightblue" points="80.2088,-196.021 72.1491,-189.144 74.1612,-199.546 80.2088,-196.021"/>
</g>
<!-- Node3 -->
<g id="node3" class="node"><title>Node3</title>
<g id="a_node3"><a xlink:href="classsrc_1_1interfacebdd_1_1_abstract_d_a_o_1_1_abstract_d_a_o.html#a20ec3bc6a325d24f8e11d5ad10a7b78b" target="_top" xlink:title="src.interfacebdd.Abstract\lDAO.AbstractDAO.getByFilter">
<polygon fill="white" stroke="black" points="167.5,-257 167.5,-287 316.5,-287 316.5,-257 167.5,-257"/>
<text text-anchor="start" x="175.5" y="-275" font-family="Helvetica,sans-Serif" font-size="10.00">src.interfacebdd.Abstract</text>
<text text-anchor="middle" x="242" y="-264" font-family="Helvetica,sans-Serif" font-size="10.00">DAO.AbstractDAO.getByFilter</text>
</a>
</g>
</g>
<!-- Node1&#45;&gt;Node3 -->
<g id="edge2" class="edge"><title>Node1&#45;&gt;Node3</title>
<path fill="none" stroke="midnightblue" d="M88.3533,-195.785C107.303,-211.796 134.86,-233.099 162,-247 169.298,-250.738 177.263,-254.051 185.235,-256.943"/>
<polygon fill="midnightblue" stroke="midnightblue" points="90.4003,-192.929 80.5351,-189.065 85.8377,-198.238 90.4003,-192.929"/>
</g>
<!-- Node4 -->
<g id="node4" class="node"><title>Node4</title>
<g id="a_node4"><a xlink:href="classsrc_1_1interfacebdd_1_1_abstract_d_a_o_1_1_abstract_d_a_o.html#a32ceaeade6f552cd5ab17123fda60c46" target="_top" xlink:title="src.interfacebdd.Abstract\lDAO.AbstractDAO.getAll">
<polygon fill="white" stroke="black" points="179,-208 179,-238 305,-238 305,-208 179,-208"/>
<text text-anchor="start" x="187" y="-226" font-family="Helvetica,sans-Serif" font-size="10.00">src.interfacebdd.Abstract</text>
<text text-anchor="middle" x="242" y="-215" font-family="Helvetica,sans-Serif" font-size="10.00">DAO.AbstractDAO.getAll</text>
</a>
</g>
</g>
<!-- Node1&#45;&gt;Node4 -->
<g id="edge3" class="edge"><title>Node1&#45;&gt;Node4</title>
<path fill="none" stroke="midnightblue" d="M128.375,-191.821C147.485,-197.112 168.221,-202.852 186.63,-207.948"/>
<polygon fill="midnightblue" stroke="midnightblue" points="129.121,-188.396 118.55,-189.101 127.254,-195.143 129.121,-188.396"/>
</g>
<!-- Node5 -->
<g id="node5" class="node"><title>Node5</title>
<g id="a_node5"><a xlink:href="classsrc_1_1interfacebdd_1_1_abstract_d_a_o_1_1_abstract_d_a_o.html#a2b67ab104d5359bbc4c16bcc18916a76" target="_top" xlink:title="src.interfacebdd.Abstract\lDAO.AbstractDAO.getAllByFilter">
<polygon fill="white" stroke="black" points="162,-159 162,-189 322,-189 322,-159 162,-159"/>
<text text-anchor="start" x="170" y="-177" font-family="Helvetica,sans-Serif" font-size="10.00">src.interfacebdd.Abstract</text>
<text text-anchor="middle" x="242" y="-166" font-family="Helvetica,sans-Serif" font-size="10.00">DAO.AbstractDAO.getAllByFilter</text>
</a>
</g>
</g>
<!-- Node1&#45;&gt;Node5 -->
<g id="edge4" class="edge"><title>Node1&#45;&gt;Node5</title>
<path fill="none" stroke="midnightblue" d="M136.08,-174C144.523,-174 153.172,-174 161.706,-174"/>
<polygon fill="midnightblue" stroke="midnightblue" points="135.906,-170.5 125.906,-174 135.906,-177.5 135.906,-170.5"/>
</g>
<!-- Node6 -->
<g id="node6" class="node"><title>Node6</title>
<g id="a_node6"><a xlink:href="classsrc_1_1interfacebdd_1_1_abstract_d_a_o_1_1_abstract_d_a_o.html#a43dda59bb16694f032b1c201c8291720" target="_top" xlink:title="src.interfacebdd.Abstract\lDAO.AbstractDAO.getAllByFilter\lExtended">
<polygon fill="white" stroke="black" points="162,-98.5 162,-139.5 322,-139.5 322,-98.5 162,-98.5"/>
<text text-anchor="start" x="170" y="-127.5" font-family="Helvetica,sans-Serif" font-size="10.00">src.interfacebdd.Abstract</text>
<text text-anchor="start" x="170" y="-116.5" font-family="Helvetica,sans-Serif" font-size="10.00">DAO.AbstractDAO.getAllByFilter</text>
<text text-anchor="middle" x="242" y="-105.5" font-family="Helvetica,sans-Serif" font-size="10.00">Extended</text>
</a>
</g>
</g>
<!-- Node1&#45;&gt;Node6 -->
<g id="edge5" class="edge"><title>Node1&#45;&gt;Node6</title>
<path fill="none" stroke="midnightblue" d="M122.075,-155.954C138.93,-150.717 157.462,-144.958 174.777,-139.578"/>
<polygon fill="midnightblue" stroke="midnightblue" points="120.877,-152.661 112.366,-158.971 122.954,-159.346 120.877,-152.661"/>
</g>
<!-- Node7 -->
<g id="node7" class="node"><title>Node7</title>
<g id="a_node7"><a xlink:href="classsrc_1_1interfacebdd_1_1_abstract_d_a_o_1_1_abstract_d_a_o.html#a26c25d2269205a4024e501d41e3e5779" target="_top" xlink:title="src.interfacebdd.Abstract\lDAO.AbstractDAO.insert">
<polygon fill="white" stroke="black" points="179.5,-49 179.5,-79 304.5,-79 304.5,-49 179.5,-49"/>
<text text-anchor="start" x="187.5" y="-67" font-family="Helvetica,sans-Serif" font-size="10.00">src.interfacebdd.Abstract</text>
<text text-anchor="middle" x="242" y="-56" font-family="Helvetica,sans-Serif" font-size="10.00">DAO.AbstractDAO.insert</text>
</a>
</g>
</g>
<!-- Node1&#45;&gt;Node7 -->
<g id="edge6" class="edge"><title>Node1&#45;&gt;Node7</title>
<path fill="none" stroke="midnightblue" d="M84.573,-151.614C103.163,-132.574 132.121,-105.732 162,-89 168.778,-85.2045 176.211,-81.8978 183.722,-79.0426"/>
<polygon fill="midnightblue" stroke="midnightblue" points="81.8947,-149.35 77.5041,-158.992 86.9494,-154.192 81.8947,-149.35"/>
</g>
<!-- Node8 -->
<g id="node8" class="node"><title>Node8</title>
<g id="a_node8"><a xlink:href="classsrc_1_1interfacebdd_1_1_abstract_d_a_o_1_1_abstract_d_a_o.html#ae15dbd8c7c4a14187194f9374ca043c9" target="_top" xlink:title="src.interfacebdd.Abstract\lDAO.AbstractDAO.update">
<polygon fill="white" stroke="black" points="176.5,-0 176.5,-30 307.5,-30 307.5,-0 176.5,-0"/>
<text text-anchor="start" x="184.5" y="-18" font-family="Helvetica,sans-Serif" font-size="10.00">src.interfacebdd.Abstract</text>
<text text-anchor="middle" x="242" y="-7" font-family="Helvetica,sans-Serif" font-size="10.00">DAO.AbstractDAO.update</text>
</a>
</g>
</g>
<!-- Node1&#45;&gt;Node8 -->
<g id="edge7" class="edge"><title>Node1&#45;&gt;Node8</title>
<path fill="none" stroke="midnightblue" d="M75.6304,-149.71C91.2162,-119.674 121.656,-68.9796 162,-40 167.375,-36.1394 173.368,-32.859 179.585,-30.0749"/>
<polygon fill="midnightblue" stroke="midnightblue" points="72.4829,-148.178 71.0983,-158.682 78.7311,-151.334 72.4829,-148.178"/>
</g>
</g>
</svg>
