<?xml version="1.0" encoding="UTF-8" standalone="no"?>
<!DOCTYPE svg PUBLIC "-//W3C//DTD SVG 1.1//EN"
 "http://www.w3.org/Graphics/SVG/1.1/DTD/svg11.dtd">
<!-- Generated by graphviz version 2.34.0 (20130907.0111)
 -->
<!-- Title: src.system.Assignment.Assignment.__str__ Pages: 1 -->
<svg width="436pt" height="104pt"
 viewBox="0.00 0.00 436.00 104.00" xmlns="http://www.w3.org/2000/svg" xmlns:xlink="http://www.w3.org/1999/xlink">
<g id="graph0" class="graph" transform="scale(1 1) rotate(0) translate(4 100)">
<title>src.system.Assignment.Assignment.__str__</title>
<polygon fill="white" stroke="white" points="-4,4 -4,-100 432,-100 432,4 -4,4"/>
<!-- Node1 -->
<g id="node1" class="node"><title>Node1</title>
<polygon fill="#bfbfbf" stroke="black" points="0,-33 0,-63 178,-63 178,-33 0,-33"/>
<text text-anchor="start" x="8" y="-51" font-family="Helvetica,sans-Serif" font-size="10.00">src.system.Assignment.Assignment.</text>
<text text-anchor="middle" x="89" y="-40" font-family="Helvetica,sans-Serif" font-size="10.00">__str__</text>
</g>
<!-- Node2 -->
<g id="node2" class="node"><title>Node2</title>
<g id="a_node2"><a xlink:href="classsrc_1_1system_1_1_assignment_1_1_assignment.html#adfdcbb9c60c4e1f3516a5f8827883f1c" target="_top" xlink:title="src.system.Assignment.Assignment.dateInit">
<polygon fill="white" stroke="black" points="216.5,-76.5 216.5,-95.5 425.5,-95.5 425.5,-76.5 216.5,-76.5"/>
<text text-anchor="middle" x="321" y="-83.5" font-family="Helvetica,sans-Serif" font-size="10.00">src.system.Assignment.Assignment.dateInit</text>
</a>
</g>
</g>
<!-- Node1&#45;&gt;Node2 -->
<g id="edge1" class="edge"><title>Node1&#45;&gt;Node2</title>
<path fill="none" stroke="midnightblue" d="M178.266,-62.5831C202.764,-66.6306 228.976,-70.9613 252.112,-74.7837"/>
<polygon fill="midnightblue" stroke="midnightblue" points="251.729,-78.2678 262.165,-76.4447 252.87,-71.3614 251.729,-78.2678"/>
</g>
<!-- Node3 -->
<g id="node3" class="node"><title>Node3</title>
<g id="a_node3"><a xlink:href="classsrc_1_1system_1_1_assignment_1_1_assignment.html#a162aa78d883a6229a27a8cf2e1a8b438" target="_top" xlink:title="src.system.Assignment.Assignment.dateEnd">
<polygon fill="white" stroke="black" points="214,-38.5 214,-57.5 428,-57.5 428,-38.5 214,-38.5"/>
<text text-anchor="middle" x="321" y="-45.5" font-family="Helvetica,sans-Serif" font-size="10.00">src.system.Assignment.Assignment.dateEnd</text>
</a>
</g>
</g>
<!-- Node1&#45;&gt;Node3 -->
<g id="edge2" class="edge"><title>Node1&#45;&gt;Node3</title>
<path fill="none" stroke="midnightblue" d="M178.266,-48C186.643,-48 195.22,-48 203.806,-48"/>
<polygon fill="midnightblue" stroke="midnightblue" points="203.878,-51.5001 213.878,-48 203.878,-44.5001 203.878,-51.5001"/>
</g>
<!-- Node4 -->
<g id="node4" class="node"><title>Node4</title>
<g id="a_node4"><a xlink:href="classsrc_1_1system_1_1_assignment_1_1_assignment.html#a5cfab01fe73bd4717e870a653c79ade7" target="_top" xlink:title="src.system.Assignment.Assignment.num">
<polygon fill="white" stroke="black" points="222.5,-0.5 222.5,-19.5 419.5,-19.5 419.5,-0.5 222.5,-0.5"/>
<text text-anchor="middle" x="321" y="-7.5" font-family="Helvetica,sans-Serif" font-size="10.00">src.system.Assignment.Assignment.num</text>
</a>
</g>
</g>
<!-- Node1&#45;&gt;Node4 -->
<g id="edge3" class="edge"><title>Node1&#45;&gt;Node4</title>
<path fill="none" stroke="midnightblue" d="M178.266,-33.4169C202.764,-29.3694 228.976,-25.0387 252.112,-21.2163"/>
<polygon fill="midnightblue" stroke="midnightblue" points="252.87,-24.6386 262.165,-19.5553 251.729,-17.7322 252.87,-24.6386"/>
</g>
</g>
</svg>
