<?xml version="1.0" encoding="UTF-8" standalone="no"?>
<!DOCTYPE svg PUBLIC "-//W3C//DTD SVG 1.1//EN"
 "http://www.w3.org/Graphics/SVG/1.1/DTD/svg11.dtd">
<!-- Generated by graphviz version 2.34.0 (20130907.0111)
 -->
<!-- Title: src.system.Assignment.Assignment.num Pages: 1 -->
<svg width="404pt" height="165pt"
 viewBox="0.00 0.00 404.00 165.00" xmlns="http://www.w3.org/2000/svg" xmlns:xlink="http://www.w3.org/1999/xlink">
<g id="graph0" class="graph" transform="scale(1 1) rotate(0) translate(4 161)">
<title>src.system.Assignment.Assignment.num</title>
<polygon fill="white" stroke="white" points="-4,4 -4,-161 400,-161 400,4 -4,4"/>
<!-- Node1 -->
<g id="node1" class="node"><title>Node1</title>
<polygon fill="#bfbfbf" stroke="black" points="0.5,-66.5 0.5,-85.5 197.5,-85.5 197.5,-66.5 0.5,-66.5"/>
<text text-anchor="middle" x="99" y="-73.5" font-family="Helvetica,sans-Serif" font-size="10.00">src.system.Assignment.Assignment.num</text>
</g>
<!-- Node2 -->
<g id="node2" class="node"><title>Node2</title>
<g id="a_node2"><a xlink:href="classsrc_1_1system_1_1_build_site_1_1_build_site.html#a43e3713197f2a589f4674d19b8df67c0" target="_top" xlink:title="serialise un chantier pour pouvoir le transmettre facilement ">
<polygon fill="white" stroke="black" points="249,-127 249,-157 381,-157 381,-127 249,-127"/>
<text text-anchor="start" x="257" y="-145" font-family="Helvetica,sans-Serif" font-size="10.00">src.system.BuildSite.Build</text>
<text text-anchor="middle" x="315" y="-134" font-family="Helvetica,sans-Serif" font-size="10.00">Site.serial</text>
</a>
</g>
</g>
<!-- Node1&#45;&gt;Node2 -->
<g id="edge1" class="edge"><title>Node1&#45;&gt;Node2</title>
<path fill="none" stroke="midnightblue" d="M141.101,-88.6759C176.46,-99.581 227.542,-115.335 265.016,-126.893"/>
<polygon fill="midnightblue" stroke="midnightblue" points="141.705,-85.1996 131.117,-85.597 139.642,-91.8887 141.705,-85.1996"/>
</g>
<!-- Node3 -->
<g id="node3" class="node"><title>Node3</title>
<g id="a_node3"><a xlink:href="classsrc_1_1system_1_1_site_1_1_site.html#a57bc8ec56d0adc43b55064e1989a1502" target="_top" xlink:title="serialise un chantier pour pouvoir le transmettre facilement ">
<polygon fill="white" stroke="black" points="249,-88.5 249,-107.5 381,-107.5 381,-88.5 249,-88.5"/>
<text text-anchor="middle" x="315" y="-95.5" font-family="Helvetica,sans-Serif" font-size="10.00">src.system.Site.Site.serial</text>
</a>
</g>
</g>
<!-- Node1&#45;&gt;Node3 -->
<g id="edge2" class="edge"><title>Node1&#45;&gt;Node3</title>
<path fill="none" stroke="midnightblue" d="M202.894,-86.5779C218.578,-88.1903 234.38,-89.8147 248.949,-91.3125"/>
<polygon fill="midnightblue" stroke="midnightblue" points="202.924,-83.0627 192.619,-85.5216 202.208,-90.026 202.924,-83.0627"/>
</g>
<!-- Node4 -->
<g id="node4" class="node"><title>Node4</title>
<g id="a_node4"><a xlink:href="classsrc_1_1system_1_1_worker_1_1_worker.html#a771360c3aaa0dd2be470ad6c885beb37" target="_top" xlink:title="Renvois un worker sous une forme lisible pour l&#39;humain. ">
<polygon fill="white" stroke="black" points="246.5,-39 246.5,-69 383.5,-69 383.5,-39 246.5,-39"/>
<text text-anchor="start" x="254.5" y="-57" font-family="Helvetica,sans-Serif" font-size="10.00">src.system.Worker.Worker.</text>
<text text-anchor="middle" x="315" y="-46" font-family="Helvetica,sans-Serif" font-size="10.00">__str__</text>
</a>
</g>
</g>
<!-- Node1&#45;&gt;Node4 -->
<g id="edge3" class="edge"><title>Node1&#45;&gt;Node4</title>
<path fill="none" stroke="midnightblue" d="M202.83,-65.4287C217.625,-63.9077 232.526,-62.3759 246.399,-60.9496"/>
<polygon fill="midnightblue" stroke="midnightblue" points="202.208,-61.974 192.619,-66.4784 202.924,-68.9373 202.208,-61.974"/>
</g>
<!-- Node5 -->
<g id="node5" class="node"><title>Node5</title>
<g id="a_node5"><a xlink:href="classsrc_1_1system_1_1_worker_1_1_worker.html#a346ba2efb749b79fff836f4696256a11" target="_top" xlink:title="serialise une affectation pour pouvoir la transmettre facilement ">
<polygon fill="white" stroke="black" points="234.5,-0.5 234.5,-19.5 395.5,-19.5 395.5,-0.5 234.5,-0.5"/>
<text text-anchor="middle" x="315" y="-7.5" font-family="Helvetica,sans-Serif" font-size="10.00">src.system.Worker.Worker.serial</text>
</a>
</g>
</g>
<!-- Node1&#45;&gt;Node5 -->
<g id="edge4" class="edge"><title>Node1&#45;&gt;Node5</title>
<path fill="none" stroke="midnightblue" d="M135.697,-62.8122C162.541,-53.1238 200.33,-39.9679 234,-30 246.629,-26.2611 260.513,-22.6266 273.119,-19.5042"/>
<polygon fill="midnightblue" stroke="midnightblue" points="134.182,-59.6388 125.977,-66.3416 136.571,-66.2185 134.182,-59.6388"/>
</g>
</g>
</svg>
