<?xml version="1.0" encoding="UTF-8" standalone="no"?>
<!DOCTYPE svg PUBLIC "-//W3C//DTD SVG 1.1//EN"
 "http://www.w3.org/Graphics/SVG/1.1/DTD/svg11.dtd">
<!-- Generated by graphviz version 2.34.0 (20130907.0111)
 -->
<!-- Title: src.system.Position.Position.latitude Pages: 1 -->
<svg width="588pt" height="126pt"
 viewBox="0.00 0.00 588.00 126.00" xmlns="http://www.w3.org/2000/svg" xmlns:xlink="http://www.w3.org/1999/xlink">
<g id="graph0" class="graph" transform="scale(1 1) rotate(0) translate(4 122)">
<title>src.system.Position.Position.latitude</title>
<polygon fill="white" stroke="white" points="-4,4 -4,-122 584,-122 584,4 -4,4"/>
<!-- Node1 -->
<g id="node1" class="node"><title>Node1</title>
<polygon fill="#bfbfbf" stroke="black" points="0,-44.5 0,-63.5 176,-63.5 176,-44.5 0,-44.5"/>
<text text-anchor="middle" x="88" y="-51.5" font-family="Helvetica,sans-Serif" font-size="10.00">src.system.Position.Position.latitude</text>
</g>
<!-- Node1&#45;&gt;Node1 -->
<g id="edge1" class="edge"><title>Node1&#45;&gt;Node1</title>
<path fill="none" stroke="midnightblue" d="M49.0297,-71.0146C48.2926,-77.0723 61.2827,-82 88,-82 125.172,-82 135.772,-72.4613 119.799,-63.6119"/>
<polygon fill="midnightblue" stroke="midnightblue" points="51.7568,-73.2298 56.2006,-63.6119 46.7289,-68.3593 51.7568,-73.2298"/>
</g>
<!-- Node2 -->
<g id="node2" class="node"><title>Node2</title>
<g id="a_node2"><a xlink:href="classsrc_1_1system_1_1_position_1_1_position.html#a2829ca636f233035920dd1771fd8738b" target="_top" xlink:title="calcule la distance à vol d&#39;oiseau entre la position courante et celle passée en paramètre ...">
<polygon fill="white" stroke="black" points="214.5,-88 214.5,-118 377.5,-118 377.5,-88 214.5,-88"/>
<text text-anchor="start" x="222.5" y="-106" font-family="Helvetica,sans-Serif" font-size="10.00">src.system.Position.Position.calc</text>
<text text-anchor="middle" x="296" y="-95" font-family="Helvetica,sans-Serif" font-size="10.00">AngularDistance</text>
</a>
</g>
</g>
<!-- Node1&#45;&gt;Node2 -->
<g id="edge2" class="edge"><title>Node1&#45;&gt;Node2</title>
<path fill="none" stroke="midnightblue" d="M139.141,-65.9268C167.036,-72.562 202.027,-80.8851 231.783,-87.963"/>
<polygon fill="midnightblue" stroke="midnightblue" points="139.746,-62.4732 129.208,-63.564 138.127,-69.2832 139.746,-62.4732"/>
</g>
<!-- Node4 -->
<g id="node4" class="node"><title>Node4</title>
<g id="a_node4"><a xlink:href="classsrc_1_1system_1_1_position_1_1_position.html#a59808c44ead8f5c1c6df130743d1cede" target="_top" xlink:title="retourne la position sous une forme lisible pour l&#39;humain. ">
<polygon fill="white" stroke="black" points="223.5,-39 223.5,-69 368.5,-69 368.5,-39 223.5,-39"/>
<text text-anchor="start" x="231.5" y="-57" font-family="Helvetica,sans-Serif" font-size="10.00">src.system.Position.Position.</text>
<text text-anchor="middle" x="296" y="-46" font-family="Helvetica,sans-Serif" font-size="10.00">__str__</text>
</a>
</g>
</g>
<!-- Node1&#45;&gt;Node4 -->
<g id="edge4" class="edge"><title>Node1&#45;&gt;Node4</title>
<path fill="none" stroke="midnightblue" d="M186.426,-54C198.81,-54 211.302,-54 223.183,-54"/>
<polygon fill="midnightblue" stroke="midnightblue" points="186.064,-50.5001 176.064,-54 186.064,-57.5001 186.064,-50.5001"/>
</g>
<!-- Node5 -->
<g id="node5" class="node"><title>Node5</title>
<g id="a_node5"><a xlink:href="classsrc_1_1system_1_1_position_1_1_position.html#aac5fa0ff4cbeea8961b2ef764b22ce76" target="_top" xlink:title="serialise une position pour pouvoir la transmettre facilement ">
<polygon fill="white" stroke="black" points="212,-0.5 212,-19.5 380,-19.5 380,-0.5 212,-0.5"/>
<text text-anchor="middle" x="296" y="-7.5" font-family="Helvetica,sans-Serif" font-size="10.00">src.system.Position.Position.serial</text>
</a>
</g>
</g>
<!-- Node1&#45;&gt;Node5 -->
<g id="edge5" class="edge"><title>Node1&#45;&gt;Node5</title>
<path fill="none" stroke="midnightblue" d="M143.74,-42.308C177.063,-35.1904 219.094,-26.2128 250.388,-19.5287"/>
<polygon fill="midnightblue" stroke="midnightblue" points="142.747,-38.941 133.699,-44.4527 144.209,-45.7866 142.747,-38.941"/>
</g>
<!-- Node3 -->
<g id="node3" class="node"><title>Node3</title>
<g id="a_node3"><a xlink:href="classsrc_1_1system_1_1_position_1_1_position.html#ae69edb2f29b8534b410e4b60af3d311e" target="_top" xlink:title="retourne la distance en mètres entre 2 positions ">
<polygon fill="white" stroke="black" points="416.5,-88 416.5,-118 579.5,-118 579.5,-88 416.5,-88"/>
<text text-anchor="start" x="424.5" y="-106" font-family="Helvetica,sans-Serif" font-size="10.00">src.system.Position.Position.calc</text>
<text text-anchor="middle" x="498" y="-95" font-family="Helvetica,sans-Serif" font-size="10.00">Distance</text>
</a>
</g>
</g>
<!-- Node2&#45;&gt;Node3 -->
<g id="edge3" class="edge"><title>Node2&#45;&gt;Node3</title>
<path fill="none" stroke="midnightblue" d="M387.954,-103C397.392,-103 406.938,-103 416.252,-103"/>
<polygon fill="midnightblue" stroke="midnightblue" points="387.771,-99.5001 377.771,-103 387.771,-106.5 387.771,-99.5001"/>
</g>
</g>
</svg>
