<?xml version="1.0" encoding="UTF-8" standalone="no"?>
<!DOCTYPE svg PUBLIC "-//W3C//DTD SVG 1.1//EN"
 "http://www.w3.org/Graphics/SVG/1.1/DTD/svg11.dtd">
<!-- Generated by graphviz version 2.34.0 (20130907.0111)
 -->
<!-- Title: src.optimisation.SolTemp.SolTemps._insertSol Pages: 1 -->
<svg width="340pt" height="87pt"
 viewBox="0.00 0.00 340.00 87.00" xmlns="http://www.w3.org/2000/svg" xmlns:xlink="http://www.w3.org/1999/xlink">
<g id="graph0" class="graph" transform="scale(1 1) rotate(0) translate(4 83)">
<title>src.optimisation.SolTemp.SolTemps._insertSol</title>
<polygon fill="white" stroke="white" points="-4,4 -4,-83 336,-83 336,4 -4,4"/>
<!-- Node1 -->
<g id="node1" class="node"><title>Node1</title>
<polygon fill="#bfbfbf" stroke="black" points="0,-24 0,-54 130,-54 130,-24 0,-24"/>
<text text-anchor="start" x="8" y="-42" font-family="Helvetica,sans-Serif" font-size="10.00">src.optimisation.SolTemp.</text>
<text text-anchor="middle" x="65" y="-31" font-family="Helvetica,sans-Serif" font-size="10.00">SolTemps._insertSol</text>
</g>
<!-- Node2 -->
<g id="node2" class="node"><title>Node2</title>
<g id="a_node2"><a xlink:href="classsrc_1_1optimisation_1_1_sol_temp_1_1_sol_temps.html#ac2eec288bc21d213da80a80816bea287" target="_top" xlink:title="Génère une première vague de SolTemp complètement au hasard. ">
<polygon fill="white" stroke="black" points="183.5,-49 183.5,-79 314.5,-79 314.5,-49 183.5,-49"/>
<text text-anchor="start" x="191.5" y="-67" font-family="Helvetica,sans-Serif" font-size="10.00">src.optimisation.SolTemp.</text>
<text text-anchor="middle" x="249" y="-56" font-family="Helvetica,sans-Serif" font-size="10.00">SolTemps._genInitialWave</text>
</a>
</g>
</g>
<!-- Node1&#45;&gt;Node2 -->
<g id="edge1" class="edge"><title>Node1&#45;&gt;Node2</title>
<path fill="none" stroke="midnightblue" d="M140.442,-49.2256C154.72,-51.1868 169.56,-53.2252 183.492,-55.1391"/>
<polygon fill="midnightblue" stroke="midnightblue" points="140.55,-45.7076 130.166,-47.8141 139.597,-52.6424 140.55,-45.7076"/>
</g>
<!-- Node3 -->
<g id="node3" class="node"><title>Node3</title>
<g id="a_node3"><a xlink:href="classsrc_1_1optimisation_1_1_sol_temp_1_1_sol_temps.html#af154981395e3edf2a1f52aaaa047bda9" target="_top" xlink:title="Effectue plusieurs vagues de dénérations de SolTemp, en se basant sur la StatTable interne...">
<polygon fill="white" stroke="black" points="166.5,-0 166.5,-30 331.5,-30 331.5,-0 166.5,-0"/>
<text text-anchor="start" x="174.5" y="-18" font-family="Helvetica,sans-Serif" font-size="10.00">src.optimisation.SolTemp.</text>
<text text-anchor="middle" x="249" y="-7" font-family="Helvetica,sans-Serif" font-size="10.00">SolTemps._genSubsequentWaves</text>
</a>
</g>
</g>
<!-- Node1&#45;&gt;Node3 -->
<g id="edge2" class="edge"><title>Node1&#45;&gt;Node3</title>
<path fill="none" stroke="midnightblue" d="M140.144,-29.2227C148.742,-28.089 157.548,-26.9278 166.24,-25.7816"/>
<polygon fill="midnightblue" stroke="midnightblue" points="139.623,-25.7611 130.166,-30.5385 140.538,-32.701 139.623,-25.7611"/>
</g>
</g>
</svg>
