<?xml version="1.0" encoding="UTF-8" standalone="no"?>
<!DOCTYPE svg PUBLIC "-//W3C//DTD SVG 1.1//EN"
 "http://www.w3.org/Graphics/SVG/1.1/DTD/svg11.dtd">
<!-- Generated by graphviz version 2.34.0 (20130907.0111)
 -->
<!-- Title: src.interfacebdd.AssignmentDAO.AssignmentDAO.dicoAttr Pages: 1 -->
<svg width="546pt" height="246pt"
 viewBox="0.00 0.00 546.00 246.00" xmlns="http://www.w3.org/2000/svg" xmlns:xlink="http://www.w3.org/1999/xlink">
<g id="graph0" class="graph" transform="scale(1 1) rotate(0) translate(4 242)">
<title>src.interfacebdd.AssignmentDAO.AssignmentDAO.dicoAttr</title>
<polygon fill="white" stroke="white" points="-4,4 -4,-242 542,-242 542,4 -4,4"/>
<!-- Node1 -->
<g id="node1" class="node"><title>Node1</title>
<polygon fill="#bfbfbf" stroke="black" points="0,-110 0,-140 150,-140 150,-110 0,-110"/>
<text text-anchor="start" x="8" y="-128" font-family="Helvetica,sans-Serif" font-size="10.00">src.interfacebdd.Assignment</text>
<text text-anchor="middle" x="75" y="-117" font-family="Helvetica,sans-Serif" font-size="10.00">DAO.AssignmentDAO.dicoAttr</text>
</g>
<!-- Node2 -->
<g id="node2" class="node"><title>Node2</title>
<g id="a_node2"><a xlink:href="classsrc_1_1interfacebdd_1_1_abstract_d_a_o_1_1_abstract_d_a_o.html#a5c55fd18712ca4c0c172683fa4bb60dc" target="_top" xlink:title="Construit un Objet du Systeme à partir d&#39;un dico(attribut, valeur) passé en paramètre. ">
<polygon fill="white" stroke="black" points="186.5,-110 186.5,-140 341.5,-140 341.5,-110 186.5,-110"/>
<text text-anchor="start" x="194.5" y="-128" font-family="Helvetica,sans-Serif" font-size="10.00">src.interfacebdd.Abstract</text>
<text text-anchor="middle" x="264" y="-117" font-family="Helvetica,sans-Serif" font-size="10.00">DAO.AbstractDAO._buildObject</text>
</a>
</g>
</g>
<!-- Node1&#45;&gt;Node2 -->
<g id="edge1" class="edge"><title>Node1&#45;&gt;Node2</title>
<path fill="none" stroke="midnightblue" d="M160.328,-125C169.034,-125 177.847,-125 186.461,-125"/>
<polygon fill="midnightblue" stroke="midnightblue" points="160.176,-121.5 150.176,-125 160.176,-128.5 160.176,-121.5"/>
</g>
<!-- Node3 -->
<g id="node3" class="node"><title>Node3</title>
<g id="a_node3"><a xlink:href="classsrc_1_1interfacebdd_1_1_abstract_d_a_o_1_1_abstract_d_a_o.html#a6b1483380fbd5c4a61f89e890f4fbe2b" target="_top" xlink:title="src.interfacebdd.Abstract\lDAO.AbstractDAO.getById">
<polygon fill="white" stroke="black" points="391,-208 391,-238 525,-238 525,-208 391,-208"/>
<text text-anchor="start" x="399" y="-226" font-family="Helvetica,sans-Serif" font-size="10.00">src.interfacebdd.Abstract</text>
<text text-anchor="middle" x="458" y="-215" font-family="Helvetica,sans-Serif" font-size="10.00">DAO.AbstractDAO.getById</text>
</a>
</g>
</g>
<!-- Node2&#45;&gt;Node3 -->
<g id="edge2" class="edge"><title>Node2&#45;&gt;Node3</title>
<path fill="none" stroke="midnightblue" d="M293.13,-146.207C315.275,-162.136 347.407,-183.596 378,-198 385.809,-201.677 394.297,-205.003 402.717,-207.942"/>
<polygon fill="midnightblue" stroke="midnightblue" points="295.009,-143.246 284.866,-140.186 290.887,-148.904 295.009,-143.246"/>
</g>
<!-- Node4 -->
<g id="node4" class="node"><title>Node4</title>
<g id="a_node4"><a xlink:href="classsrc_1_1interfacebdd_1_1_abstract_d_a_o_1_1_abstract_d_a_o.html#a20ec3bc6a325d24f8e11d5ad10a7b78b" target="_top" xlink:title="src.interfacebdd.Abstract\lDAO.AbstractDAO.getByFilter">
<polygon fill="white" stroke="black" points="383.5,-159 383.5,-189 532.5,-189 532.5,-159 383.5,-159"/>
<text text-anchor="start" x="391.5" y="-177" font-family="Helvetica,sans-Serif" font-size="10.00">src.interfacebdd.Abstract</text>
<text text-anchor="middle" x="458" y="-166" font-family="Helvetica,sans-Serif" font-size="10.00">DAO.AbstractDAO.getByFilter</text>
</a>
</g>
</g>
<!-- Node2&#45;&gt;Node4 -->
<g id="edge3" class="edge"><title>Node2&#45;&gt;Node4</title>
<path fill="none" stroke="midnightblue" d="M333.767,-142.55C354.851,-147.931 377.845,-153.799 398.2,-158.994"/>
<polygon fill="midnightblue" stroke="midnightblue" points="334.466,-139.116 323.911,-140.035 332.735,-145.899 334.466,-139.116"/>
</g>
<!-- Node5 -->
<g id="node5" class="node"><title>Node5</title>
<g id="a_node5"><a xlink:href="classsrc_1_1interfacebdd_1_1_abstract_d_a_o_1_1_abstract_d_a_o.html#a32ceaeade6f552cd5ab17123fda60c46" target="_top" xlink:title="src.interfacebdd.Abstract\lDAO.AbstractDAO.getAll">
<polygon fill="white" stroke="black" points="395,-110 395,-140 521,-140 521,-110 395,-110"/>
<text text-anchor="start" x="403" y="-128" font-family="Helvetica,sans-Serif" font-size="10.00">src.interfacebdd.Abstract</text>
<text text-anchor="middle" x="458" y="-117" font-family="Helvetica,sans-Serif" font-size="10.00">DAO.AbstractDAO.getAll</text>
</a>
</g>
</g>
<!-- Node2&#45;&gt;Node5 -->
<g id="edge4" class="edge"><title>Node2&#45;&gt;Node5</title>
<path fill="none" stroke="midnightblue" d="M351.72,-125C366.267,-125 381.101,-125 394.869,-125"/>
<polygon fill="midnightblue" stroke="midnightblue" points="351.711,-121.5 341.711,-125 351.711,-128.5 351.711,-121.5"/>
</g>
<!-- Node6 -->
<g id="node6" class="node"><title>Node6</title>
<g id="a_node6"><a xlink:href="classsrc_1_1interfacebdd_1_1_abstract_d_a_o_1_1_abstract_d_a_o.html#a2b67ab104d5359bbc4c16bcc18916a76" target="_top" xlink:title="src.interfacebdd.Abstract\lDAO.AbstractDAO.getAllByFilter">
<polygon fill="white" stroke="black" points="378,-61 378,-91 538,-91 538,-61 378,-61"/>
<text text-anchor="start" x="386" y="-79" font-family="Helvetica,sans-Serif" font-size="10.00">src.interfacebdd.Abstract</text>
<text text-anchor="middle" x="458" y="-68" font-family="Helvetica,sans-Serif" font-size="10.00">DAO.AbstractDAO.getAllByFilter</text>
</a>
</g>
</g>
<!-- Node2&#45;&gt;Node6 -->
<g id="edge5" class="edge"><title>Node2&#45;&gt;Node6</title>
<path fill="none" stroke="midnightblue" d="M333.767,-107.45C354.851,-102.069 377.845,-96.201 398.2,-91.0062"/>
<polygon fill="midnightblue" stroke="midnightblue" points="332.735,-104.101 323.911,-109.965 334.466,-110.884 332.735,-104.101"/>
</g>
<!-- Node7 -->
<g id="node7" class="node"><title>Node7</title>
<g id="a_node7"><a xlink:href="classsrc_1_1interfacebdd_1_1_abstract_d_a_o_1_1_abstract_d_a_o.html#a43dda59bb16694f032b1c201c8291720" target="_top" xlink:title="src.interfacebdd.Abstract\lDAO.AbstractDAO.getAllByFilter\lExtended">
<polygon fill="white" stroke="black" points="378,-0.5 378,-41.5 538,-41.5 538,-0.5 378,-0.5"/>
<text text-anchor="start" x="386" y="-29.5" font-family="Helvetica,sans-Serif" font-size="10.00">src.interfacebdd.Abstract</text>
<text text-anchor="start" x="386" y="-18.5" font-family="Helvetica,sans-Serif" font-size="10.00">DAO.AbstractDAO.getAllByFilter</text>
<text text-anchor="middle" x="458" y="-7.5" font-family="Helvetica,sans-Serif" font-size="10.00">Extended</text>
</a>
</g>
</g>
<!-- Node2&#45;&gt;Node7 -->
<g id="edge6" class="edge"><title>Node2&#45;&gt;Node7</title>
<path fill="none" stroke="midnightblue" d="M293.823,-104.086C316.104,-88.4939 348.093,-67.3333 378,-52 385.08,-48.3702 392.688,-44.8924 400.286,-41.6639"/>
<polygon fill="midnightblue" stroke="midnightblue" points="291.638,-101.345 285.491,-109.974 295.678,-107.061 291.638,-101.345"/>
</g>
</g>
</svg>
