<?xml version="1.0" encoding="UTF-8" standalone="no"?>
<!DOCTYPE svg PUBLIC "-//W3C//DTD SVG 1.1//EN"
 "http://www.w3.org/Graphics/SVG/1.1/DTD/svg11.dtd">
<!-- Generated by graphviz version 2.34.0 (20130907.0111)
 -->
<!-- Title: src.system.Position.Position.longitude Pages: 1 -->
<svg width="596pt" height="126pt"
 viewBox="0.00 0.00 596.00 126.00" xmlns="http://www.w3.org/2000/svg" xmlns:xlink="http://www.w3.org/1999/xlink">
<g id="graph0" class="graph" transform="scale(1 1) rotate(0) translate(4 122)">
<title>src.system.Position.Position.longitude</title>
<polygon fill="white" stroke="white" points="-4,4 -4,-122 592,-122 592,4 -4,4"/>
<!-- Node1 -->
<g id="node1" class="node"><title>Node1</title>
<polygon fill="#bfbfbf" stroke="black" points="0,-44.5 0,-63.5 184,-63.5 184,-44.5 0,-44.5"/>
<text text-anchor="middle" x="92" y="-51.5" font-family="Helvetica,sans-Serif" font-size="10.00">src.system.Position.Position.longitude</text>
</g>
<!-- Node1&#45;&gt;Node1 -->
<g id="edge1" class="edge"><title>Node1&#45;&gt;Node1</title>
<path fill="none" stroke="midnightblue" d="M52.3491,-70.618C50.96,-76.8557 64.1769,-82 92,-82 129.887,-82 140.69,-72.4613 124.411,-63.6119"/>
<polygon fill="midnightblue" stroke="midnightblue" points="54.8368,-73.0812 59.5891,-63.6119 49.9689,-68.0508 54.8368,-73.0812"/>
</g>
<!-- Node2 -->
<g id="node2" class="node"><title>Node2</title>
<g id="a_node2"><a xlink:href="classsrc_1_1system_1_1_position_1_1_position.html#a2829ca636f233035920dd1771fd8738b" target="_top" xlink:title="calcule la distance à vol d&#39;oiseau entre la position courante et celle passée en paramètre ...">
<polygon fill="white" stroke="black" points="222.5,-88 222.5,-118 385.5,-118 385.5,-88 222.5,-88"/>
<text text-anchor="start" x="230.5" y="-106" font-family="Helvetica,sans-Serif" font-size="10.00">src.system.Position.Position.calc</text>
<text text-anchor="middle" x="304" y="-95" font-family="Helvetica,sans-Serif" font-size="10.00">AngularDistance</text>
</a>
</g>
</g>
<!-- Node1&#45;&gt;Node2 -->
<g id="edge2" class="edge"><title>Node1&#45;&gt;Node2</title>
<path fill="none" stroke="midnightblue" d="M143.487,-65.7804C171.98,-72.4286 207.883,-80.806 238.409,-87.9287"/>
<polygon fill="midnightblue" stroke="midnightblue" points="144.273,-62.3697 133.739,-63.5058 142.682,-69.1866 144.273,-62.3697"/>
</g>
<!-- Node4 -->
<g id="node4" class="node"><title>Node4</title>
<g id="a_node4"><a xlink:href="classsrc_1_1system_1_1_position_1_1_position.html#a59808c44ead8f5c1c6df130743d1cede" target="_top" xlink:title="retourne la position sous une forme lisible pour l&#39;humain. ">
<polygon fill="white" stroke="black" points="231.5,-39 231.5,-69 376.5,-69 376.5,-39 231.5,-39"/>
<text text-anchor="start" x="239.5" y="-57" font-family="Helvetica,sans-Serif" font-size="10.00">src.system.Position.Position.</text>
<text text-anchor="middle" x="304" y="-46" font-family="Helvetica,sans-Serif" font-size="10.00">__str__</text>
</a>
</g>
</g>
<!-- Node1&#45;&gt;Node4 -->
<g id="edge4" class="edge"><title>Node1&#45;&gt;Node4</title>
<path fill="none" stroke="midnightblue" d="M194.252,-54C206.832,-54 219.484,-54 231.484,-54"/>
<polygon fill="midnightblue" stroke="midnightblue" points="194.193,-50.5001 184.193,-54 194.193,-57.5001 194.193,-50.5001"/>
</g>
<!-- Node5 -->
<g id="node5" class="node"><title>Node5</title>
<g id="a_node5"><a xlink:href="classsrc_1_1system_1_1_position_1_1_position.html#aac5fa0ff4cbeea8961b2ef764b22ce76" target="_top" xlink:title="serialise une position pour pouvoir la transmettre facilement ">
<polygon fill="white" stroke="black" points="220,-0.5 220,-19.5 388,-19.5 388,-0.5 220,-0.5"/>
<text text-anchor="middle" x="304" y="-7.5" font-family="Helvetica,sans-Serif" font-size="10.00">src.system.Position.Position.serial</text>
</a>
</g>
</g>
<!-- Node1&#45;&gt;Node5 -->
<g id="edge5" class="edge"><title>Node1&#45;&gt;Node5</title>
<path fill="none" stroke="midnightblue" d="M148.364,-42.4C182.403,-35.2678 225.483,-26.2416 257.522,-19.5287"/>
<polygon fill="midnightblue" stroke="midnightblue" points="147.637,-38.9763 138.567,-44.4527 149.072,-45.8275 147.637,-38.9763"/>
</g>
<!-- Node3 -->
<g id="node3" class="node"><title>Node3</title>
<g id="a_node3"><a xlink:href="classsrc_1_1system_1_1_position_1_1_position.html#ae69edb2f29b8534b410e4b60af3d311e" target="_top" xlink:title="retourne la distance en mètres entre 2 positions ">
<polygon fill="white" stroke="black" points="424.5,-88 424.5,-118 587.5,-118 587.5,-88 424.5,-88"/>
<text text-anchor="start" x="432.5" y="-106" font-family="Helvetica,sans-Serif" font-size="10.00">src.system.Position.Position.calc</text>
<text text-anchor="middle" x="506" y="-95" font-family="Helvetica,sans-Serif" font-size="10.00">Distance</text>
</a>
</g>
</g>
<!-- Node2&#45;&gt;Node3 -->
<g id="edge3" class="edge"><title>Node2&#45;&gt;Node3</title>
<path fill="none" stroke="midnightblue" d="M395.954,-103C405.392,-103 414.938,-103 424.252,-103"/>
<polygon fill="midnightblue" stroke="midnightblue" points="395.771,-99.5001 385.771,-103 395.771,-106.5 395.771,-99.5001"/>
</g>
</g>
</svg>
