<?xml version="1.0" encoding="UTF-8" standalone="no"?>
<!DOCTYPE svg PUBLIC "-//W3C//DTD SVG 1.1//EN"
 "http://www.w3.org/Graphics/SVG/1.1/DTD/svg11.dtd">
<!-- Generated by graphviz version 2.34.0 (20130907.0111)
 -->
<!-- Title: src.system.BuildSite.BuildSite.serial Pages: 1 -->
<svg width="374pt" height="175pt"
 viewBox="0.00 0.00 374.00 175.00" xmlns="http://www.w3.org/2000/svg" xmlns:xlink="http://www.w3.org/1999/xlink">
<g id="graph0" class="graph" transform="scale(1 1) rotate(0) translate(4 171)">
<title>src.system.BuildSite.BuildSite.serial</title>
<polygon fill="white" stroke="white" points="-4,4 -4,-171 370,-171 370,4 -4,4"/>
<!-- Node1 -->
<g id="node1" class="node"><title>Node1</title>
<polygon fill="#bfbfbf" stroke="black" points="0,-73 0,-103 132,-103 132,-73 0,-73"/>
<text text-anchor="start" x="8" y="-91" font-family="Helvetica,sans-Serif" font-size="10.00">src.system.BuildSite.Build</text>
<text text-anchor="middle" x="66" y="-80" font-family="Helvetica,sans-Serif" font-size="10.00">Site.serial</text>
</g>
<!-- Node2 -->
<g id="node2" class="node"><title>Node2</title>
<g id="a_node2"><a xlink:href="classsrc_1_1system_1_1_assignment_1_1_assignment.html#a5cfab01fe73bd4717e870a653c79ade7" target="_top" xlink:title="src.system.Assignment.Assignment.num">
<polygon fill="white" stroke="black" points="168.5,-147.5 168.5,-166.5 365.5,-166.5 365.5,-147.5 168.5,-147.5"/>
<text text-anchor="middle" x="267" y="-154.5" font-family="Helvetica,sans-Serif" font-size="10.00">src.system.Assignment.Assignment.num</text>
</a>
</g>
</g>
<!-- Node1&#45;&gt;Node2 -->
<g id="edge1" class="edge"><title>Node1&#45;&gt;Node2</title>
<path fill="none" stroke="midnightblue" d="M93.6537,-103.216C113.579,-114.018 141.787,-128.124 168,-137 177.313,-140.154 187.301,-142.891 197.21,-145.241"/>
<polygon fill="midnightblue" stroke="midnightblue" points="196.539,-148.678 207.064,-147.464 198.079,-141.849 196.539,-148.678"/>
</g>
<!-- Node3 -->
<g id="node3" class="node"><title>Node3</title>
<g id="a_node3"><a xlink:href="classsrc_1_1system_1_1_build_site_1_1_build_site.html#af8c3a37156cc485fa4feb6b3d7dec0a5" target="_top" xlink:title="src.system.BuildSite.Build\lSite.num">
<polygon fill="white" stroke="black" points="201,-98 201,-128 333,-128 333,-98 201,-98"/>
<text text-anchor="start" x="209" y="-116" font-family="Helvetica,sans-Serif" font-size="10.00">src.system.BuildSite.Build</text>
<text text-anchor="middle" x="267" y="-105" font-family="Helvetica,sans-Serif" font-size="10.00">Site.num</text>
</a>
</g>
</g>
<!-- Node1&#45;&gt;Node3 -->
<g id="edge2" class="edge"><title>Node1&#45;&gt;Node3</title>
<path fill="none" stroke="midnightblue" d="M132.16,-96.1859C150.886,-98.5385 171.462,-101.123 190.745,-103.546"/>
<polygon fill="midnightblue" stroke="midnightblue" points="190.335,-107.022 200.694,-104.796 191.208,-100.076 190.335,-107.022"/>
</g>
<!-- Node4 -->
<g id="node4" class="node"><title>Node4</title>
<g id="a_node4"><a xlink:href="classsrc_1_1system_1_1_build_site_1_1_build_site.html#a89f5763416278311a0f904f46b905e77" target="_top" xlink:title="src.system.BuildSite.Build\lSite.nom">
<polygon fill="white" stroke="black" points="201,-49 201,-79 333,-79 333,-49 201,-49"/>
<text text-anchor="start" x="209" y="-67" font-family="Helvetica,sans-Serif" font-size="10.00">src.system.BuildSite.Build</text>
<text text-anchor="middle" x="267" y="-56" font-family="Helvetica,sans-Serif" font-size="10.00">Site.nom</text>
</a>
</g>
</g>
<!-- Node1&#45;&gt;Node4 -->
<g id="edge3" class="edge"><title>Node1&#45;&gt;Node4</title>
<path fill="none" stroke="midnightblue" d="M132.16,-80.1415C150.886,-77.8831 171.462,-75.4015 190.745,-73.076"/>
<polygon fill="midnightblue" stroke="midnightblue" points="191.185,-76.5484 200.694,-71.8762 190.346,-69.5988 191.185,-76.5484"/>
</g>
<!-- Node5 -->
<g id="node5" class="node"><title>Node5</title>
<g id="a_node5"><a xlink:href="classsrc_1_1system_1_1_build_site_1_1_build_site.html#a30d4645335138233efbace8d4631ae13" target="_top" xlink:title="src.system.BuildSite.Build\lSite.besoin">
<polygon fill="white" stroke="black" points="201,-0 201,-30 333,-30 333,-0 201,-0"/>
<text text-anchor="start" x="209" y="-18" font-family="Helvetica,sans-Serif" font-size="10.00">src.system.BuildSite.Build</text>
<text text-anchor="middle" x="267" y="-7" font-family="Helvetica,sans-Serif" font-size="10.00">Site.besoin</text>
</a>
</g>
</g>
<!-- Node1&#45;&gt;Node5 -->
<g id="edge4" class="edge"><title>Node1&#45;&gt;Node5</title>
<path fill="none" stroke="midnightblue" d="M95.1024,-72.8323C115.025,-62.533 142.62,-49.17 168,-40 175.455,-37.3064 183.329,-34.7854 191.241,-32.4598"/>
<polygon fill="midnightblue" stroke="midnightblue" points="192.222,-35.8197 200.886,-29.7216 190.31,-29.0858 192.222,-35.8197"/>
</g>
</g>
</svg>
