<?xml version="1.0" encoding="UTF-8" standalone="no"?>
<!DOCTYPE svg PUBLIC "-//W3C//DTD SVG 1.1//EN"
 "http://www.w3.org/Graphics/SVG/1.1/DTD/svg11.dtd">
<!-- Generated by graphviz version 2.34.0 (20130907.0111)
 -->
<!-- Title: src.optimisation.Stats.StatTable Pages: 1 -->
<svg width="140pt" height="238pt"
 viewBox="0.00 0.00 140.00 238.00" xmlns="http://www.w3.org/2000/svg" xmlns:xlink="http://www.w3.org/1999/xlink">
<g id="graph0" class="graph" transform="scale(1 1) rotate(0) translate(4 234)">
<title>src.optimisation.Stats.StatTable</title>
<polygon fill="white" stroke="white" points="-4,4 -4,-234 136,-234 136,4 -4,4"/>
<!-- Node1 -->
<g id="node1" class="node"><title>Node1</title>
<polygon fill="#bfbfbf" stroke="black" points="-0.5,-1 -0.5,-135 132.5,-135 132.5,-1 -0.5,-1"/>
<text text-anchor="start" x="7.5" y="-123" font-family="Helvetica,sans-Serif" font-size="10.00">src.optimisation.Stats.Stat</text>
<text text-anchor="middle" x="66" y="-112" font-family="Helvetica,sans-Serif" font-size="10.00">Table</text>
<polyline fill="none" stroke="black" points="-0.5,-105 132.5,-105 "/>
<text text-anchor="start" x="7.5" y="-93" font-family="Helvetica,sans-Serif" font-size="10.00">&#45; _table</text>
<text text-anchor="start" x="7.5" y="-82" font-family="Helvetica,sans-Serif" font-size="10.00">&#45; _sigma</text>
<polyline fill="none" stroke="black" points="-0.5,-75 132.5,-75 "/>
<text text-anchor="start" x="7.5" y="-63" font-family="Helvetica,sans-Serif" font-size="10.00">+ __init__()</text>
<text text-anchor="start" x="7.5" y="-52" font-family="Helvetica,sans-Serif" font-size="10.00">+ __str__()</text>
<text text-anchor="start" x="7.5" y="-41" font-family="Helvetica,sans-Serif" font-size="10.00">+ genStatTable()</text>
<text text-anchor="start" x="7.5" y="-30" font-family="Helvetica,sans-Serif" font-size="10.00">+ updateRow()</text>
<text text-anchor="start" x="7.5" y="-19" font-family="Helvetica,sans-Serif" font-size="10.00">+ pickRandomId()</text>
<text text-anchor="start" x="7.5" y="-8" font-family="Helvetica,sans-Serif" font-size="10.00">&#45; _getRandomId()</text>
</g>
<!-- Node2 -->
<g id="node2" class="node"><title>Node2</title>
<polygon fill="white" stroke="#bfbfbf" points="44.5,-172.5 44.5,-229.5 87.5,-229.5 87.5,-172.5 44.5,-172.5"/>
<text text-anchor="middle" x="66" y="-217.5" font-family="Helvetica,sans-Serif" font-size="10.00">object</text>
<polyline fill="none" stroke="#bfbfbf" points="44.5,-210.5 87.5,-210.5 "/>
<text text-anchor="middle" x="66" y="-198.5" font-family="Helvetica,sans-Serif" font-size="10.00"> </text>
<polyline fill="none" stroke="#bfbfbf" points="44.5,-191.5 87.5,-191.5 "/>
<text text-anchor="middle" x="66" y="-179.5" font-family="Helvetica,sans-Serif" font-size="10.00"> </text>
</g>
<!-- Node2&#45;&gt;Node1 -->
<g id="edge1" class="edge"><title>Node2&#45;&gt;Node1</title>
<path fill="none" stroke="midnightblue" d="M66,-161.942C66,-153.47 66,-144.249 66,-135.016"/>
<polygon fill="none" stroke="midnightblue" points="62.5001,-162.218 66,-172.218 69.5001,-162.218 62.5001,-162.218"/>
</g>
</g>
</svg>
