<?xml version="1.0" encoding="UTF-8" standalone="no"?>
<!DOCTYPE svg PUBLIC "-//W3C//DTD SVG 1.1//EN"
 "http://www.w3.org/Graphics/SVG/1.1/DTD/svg11.dtd">
<!-- Generated by graphviz version 2.26.3 (20100126.1600)
 -->
<!-- Title: src.interfacebdd.PickupLinkDAO.PickupLinkDAO Pages: 1 -->
<svg width="154pt" height="354pt"
 viewBox="0.00 0.00 154.00 354.00" xmlns="http://www.w3.org/2000/svg" xmlns:xlink="http://www.w3.org/1999/xlink">
<g id="graph1" class="graph" transform="scale(1 1) rotate(0) translate(4 350)">
<title>src.interfacebdd.PickupLinkDAO.PickupLinkDAO</title>
<polygon fill="white" stroke="white" points="-4,5 -4,-350 151,-350 151,5 -4,5"/>
<!-- Node1 -->
<g id="node1" class="node"><title>Node1</title>
<polygon fill="#bfbfbf" stroke="black" points="0,-0.5 0,-245.5 146,-245.5 146,-0.5 0,-0.5"/>
<text text-anchor="start" x="8" y="-232.5" font-family="Helvetica,sans-Serif" font-size="10.00">src.interfacebdd.PickupLink</text>
<text text-anchor="middle" x="73" y="-219.5" font-family="Helvetica,sans-Serif" font-size="10.00">DAO.PickupLinkDAO</text>
<polyline fill="none" stroke="black" points="0,-211.5 146,-211.5 "/>
<text text-anchor="start" x="8" y="-198.5" font-family="Helvetica,sans-Serif" font-size="10.00">+ MAPPING_COLS</text>
<text text-anchor="start" x="8" y="-185.5" font-family="Helvetica,sans-Serif" font-size="10.00">+ MAPPING_FIL</text>
<text text-anchor="start" x="8" y="-172.5" font-family="Helvetica,sans-Serif" font-size="10.00">+ JOIN_PICKUP</text>
<text text-anchor="start" x="8" y="-159.5" font-family="Helvetica,sans-Serif" font-size="10.00">+ JOIN_PICKUP_POSITION</text>
<text text-anchor="start" x="8" y="-146.5" font-family="Helvetica,sans-Serif" font-size="10.00">&#45; _positionDAO</text>
<text text-anchor="start" x="8" y="-133.5" font-family="Helvetica,sans-Serif" font-size="10.00">&#45; _pickupDAO</text>
<text text-anchor="start" x="8" y="-120.5" font-family="Helvetica,sans-Serif" font-size="10.00">&#45; _dicoAttr</text>
<polyline fill="none" stroke="black" points="0,-112.5 146,-112.5 "/>
<text text-anchor="start" x="8" y="-99.5" font-family="Helvetica,sans-Serif" font-size="10.00">+ __init__()</text>
<text text-anchor="start" x="8" y="-86.5" font-family="Helvetica,sans-Serif" font-size="10.00">+ pickupDAO()</text>
<text text-anchor="start" x="8" y="-73.5" font-family="Helvetica,sans-Serif" font-size="10.00">+ pickupDAO()</text>
<text text-anchor="start" x="8" y="-60.5" font-family="Helvetica,sans-Serif" font-size="10.00">+ positionDAO()</text>
<text text-anchor="start" x="8" y="-47.5" font-family="Helvetica,sans-Serif" font-size="10.00">+ positionDAO()</text>
<text text-anchor="start" x="8" y="-34.5" font-family="Helvetica,sans-Serif" font-size="10.00">+ dicoAttr()</text>
<text text-anchor="start" x="8" y="-21.5" font-family="Helvetica,sans-Serif" font-size="10.00">+ dicoAttr()</text>
<text text-anchor="start" x="8" y="-8.5" font-family="Helvetica,sans-Serif" font-size="10.00">&#45; _createElement()</text>
</g>
<!-- Node2 -->
<g id="node2" class="node"><title>Node2</title>
<polygon fill="white" stroke="#bfbfbf" points="35.5,-282.5 35.5,-345.5 110.5,-345.5 110.5,-282.5 35.5,-282.5"/>
<text text-anchor="middle" x="73" y="-332.5" font-family="Helvetica,sans-Serif" font-size="10.00">AbstractDAO</text>
<polyline fill="none" stroke="#bfbfbf" points="35.5,-324.5 110.5,-324.5 "/>
<text text-anchor="middle" x="73" y="-311.5" font-family="Helvetica,sans-Serif" font-size="10.00"> </text>
<polyline fill="none" stroke="#bfbfbf" points="35.5,-303.5 110.5,-303.5 "/>
<text text-anchor="middle" x="73" y="-290.5" font-family="Helvetica,sans-Serif" font-size="10.00"> </text>
</g>
<!-- Node2&#45;&gt;Node1 -->
<g id="edge2" class="edge"><title>Node2&#45;&gt;Node1</title>
<path fill="none" stroke="midnightblue" d="M73,-272.436C73,-264.158 73,-255.075 73,-245.605"/>
<polygon fill="none" stroke="midnightblue" points="69.5001,-272.46 73,-282.46 76.5001,-272.46 69.5001,-272.46"/>
</g>
</g>
</svg>
