<?xml version="1.0" encoding="UTF-8" standalone="no"?>
<!DOCTYPE svg PUBLIC "-//W3C//DTD SVG 1.1//EN"
 "http://www.w3.org/Graphics/SVG/1.1/DTD/svg11.dtd">
<!-- Generated by graphviz version 2.34.0 (20130907.0111)
 -->
<!-- Title: src.system.Site.Site.serial Pages: 1 -->
<svg width="374pt" height="230pt"
 viewBox="0.00 0.00 374.00 230.00" xmlns="http://www.w3.org/2000/svg" xmlns:xlink="http://www.w3.org/1999/xlink">
<g id="graph0" class="graph" transform="scale(1 1) rotate(0) translate(4 226)">
<title>src.system.Site.Site.serial</title>
<polygon fill="white" stroke="white" points="-4,4 -4,-226 370,-226 370,4 -4,4"/>
<!-- Node1 -->
<g id="node1" class="node"><title>Node1</title>
<polygon fill="#bfbfbf" stroke="black" points="0,-95.5 0,-114.5 132,-114.5 132,-95.5 0,-95.5"/>
<text text-anchor="middle" x="66" y="-102.5" font-family="Helvetica,sans-Serif" font-size="10.00">src.system.Site.Site.serial</text>
</g>
<!-- Node2 -->
<g id="node2" class="node"><title>Node2</title>
<g id="a_node2"><a xlink:href="classsrc_1_1system_1_1_assignment_1_1_assignment.html#a5cfab01fe73bd4717e870a653c79ade7" target="_top" xlink:title="src.system.Assignment.Assignment.num">
<polygon fill="white" stroke="black" points="168.5,-202.5 168.5,-221.5 365.5,-221.5 365.5,-202.5 168.5,-202.5"/>
<text text-anchor="middle" x="267" y="-209.5" font-family="Helvetica,sans-Serif" font-size="10.00">src.system.Assignment.Assignment.num</text>
</a>
</g>
</g>
<!-- Node1&#45;&gt;Node2 -->
<g id="edge1" class="edge"><title>Node1&#45;&gt;Node2</title>
<path fill="none" stroke="midnightblue" d="M75.0544,-114.638C90.8582,-132.867 127.902,-172.323 168,-192 173.97,-194.93 180.347,-197.43 186.876,-199.565"/>
<polygon fill="midnightblue" stroke="midnightblue" points="185.936,-202.937 196.52,-202.437 187.935,-196.228 185.936,-202.937"/>
</g>
<!-- Node3 -->
<g id="node3" class="node"><title>Node3</title>
<g id="a_node3"><a xlink:href="classsrc_1_1system_1_1_build_site_1_1_build_site.html#af8c3a37156cc485fa4feb6b3d7dec0a5" target="_top" xlink:title="src.system.BuildSite.Build\lSite.num">
<polygon fill="white" stroke="black" points="201,-153 201,-183 333,-183 333,-153 201,-153"/>
<text text-anchor="start" x="209" y="-171" font-family="Helvetica,sans-Serif" font-size="10.00">src.system.BuildSite.Build</text>
<text text-anchor="middle" x="267" y="-160" font-family="Helvetica,sans-Serif" font-size="10.00">Site.num</text>
</a>
</g>
</g>
<!-- Node1&#45;&gt;Node3 -->
<g id="edge2" class="edge"><title>Node1&#45;&gt;Node3</title>
<path fill="none" stroke="midnightblue" d="M90.4161,-114.649C110.724,-122.815 141.015,-134.51 168,-143 176.006,-145.519 184.438,-147.968 192.859,-150.287"/>
<polygon fill="midnightblue" stroke="midnightblue" points="192.146,-153.72 202.713,-152.945 193.969,-146.961 192.146,-153.72"/>
</g>
<!-- Node4 -->
<g id="node4" class="node"><title>Node4</title>
<g id="a_node4"><a xlink:href="classsrc_1_1system_1_1_position_1_1_position.html#a64cc721238bf0d5eff6b236ee6b78dc8" target="_top" xlink:title="src.system.Position.Position.num">
<polygon fill="white" stroke="black" points="185,-114.5 185,-133.5 349,-133.5 349,-114.5 185,-114.5"/>
<text text-anchor="middle" x="267" y="-121.5" font-family="Helvetica,sans-Serif" font-size="10.00">src.system.Position.Position.num</text>
</a>
</g>
</g>
<!-- Node1&#45;&gt;Node4 -->
<g id="edge3" class="edge"><title>Node1&#45;&gt;Node4</title>
<path fill="none" stroke="midnightblue" d="M132.16,-111.221C145.66,-112.51 160.121,-113.891 174.365,-115.251"/>
<polygon fill="midnightblue" stroke="midnightblue" points="174.395,-118.77 184.682,-116.236 175.06,-111.801 174.395,-118.77"/>
</g>
<!-- Node5 -->
<g id="node5" class="node"><title>Node5</title>
<g id="a_node5"><a xlink:href="classsrc_1_1system_1_1_site_1_1_site.html#a61fe5e08b46533b09f9cda9790c13b8e" target="_top" xlink:title="src.system.Site.Site.num">
<polygon fill="white" stroke="black" points="203,-76.5 203,-95.5 331,-95.5 331,-76.5 203,-76.5"/>
<text text-anchor="middle" x="267" y="-83.5" font-family="Helvetica,sans-Serif" font-size="10.00">src.system.Site.Site.num</text>
</a>
</g>
</g>
<!-- Node1&#45;&gt;Node5 -->
<g id="edge4" class="edge"><title>Node1&#45;&gt;Node5</title>
<path fill="none" stroke="midnightblue" d="M132.16,-98.7787C151.465,-96.9355 172.737,-94.9045 192.53,-93.0147"/>
<polygon fill="midnightblue" stroke="midnightblue" points="193.105,-96.4758 202.728,-92.0411 192.44,-89.5075 193.105,-96.4758"/>
</g>
<!-- Node6 -->
<g id="node6" class="node"><title>Node6</title>
<g id="a_node6"><a xlink:href="classsrc_1_1system_1_1_site_1_1_site.html#a913cf77ecc395b4753eef6687514e54c" target="_top" xlink:title="src.system.Site.Site.name">
<polygon fill="white" stroke="black" points="200.5,-38.5 200.5,-57.5 333.5,-57.5 333.5,-38.5 200.5,-38.5"/>
<text text-anchor="middle" x="267" y="-45.5" font-family="Helvetica,sans-Serif" font-size="10.00">src.system.Site.Site.name</text>
</a>
</g>
</g>
<!-- Node1&#45;&gt;Node6 -->
<g id="edge5" class="edge"><title>Node1&#45;&gt;Node6</title>
<path fill="none" stroke="midnightblue" d="M89.103,-95.4497C109.327,-87.0095 140.238,-74.8534 168,-67 177.631,-64.2757 187.903,-61.8136 198.038,-59.6341"/>
<polygon fill="midnightblue" stroke="midnightblue" points="199.017,-63.0058 208.098,-57.5496 197.596,-56.1514 199.017,-63.0058"/>
</g>
<!-- Node7 -->
<g id="node7" class="node"><title>Node7</title>
<g id="a_node7"><a xlink:href="classsrc_1_1system_1_1_site_1_1_site.html#ae093f7cdff0c273de9610a8559235e8a" target="_top" xlink:title="src.system.Site.Site.need">
<polygon fill="white" stroke="black" points="202,-0.5 202,-19.5 332,-19.5 332,-0.5 202,-0.5"/>
<text text-anchor="middle" x="267" y="-7.5" font-family="Helvetica,sans-Serif" font-size="10.00">src.system.Site.Site.need</text>
</a>
</g>
</g>
<!-- Node1&#45;&gt;Node7 -->
<g id="edge6" class="edge"><title>Node1&#45;&gt;Node7</title>
<path fill="none" stroke="midnightblue" d="M76.6132,-95.309C93.5026,-78.89 130.301,-45.7581 168,-29 175.626,-25.6099 183.851,-22.8229 192.18,-20.5321"/>
<polygon fill="midnightblue" stroke="midnightblue" points="193.132,-23.9015 201.974,-18.0644 191.422,-17.1136 193.132,-23.9015"/>
</g>
</g>
</svg>
