<?xml version="1.0" encoding="UTF-8" standalone="no"?>
<!DOCTYPE svg PUBLIC "-//W3C//DTD SVG 1.1//EN"
 "http://www.w3.org/Graphics/SVG/1.1/DTD/svg11.dtd">
<!-- Generated by graphviz version 2.34.0 (20130907.0111)
 -->
<!-- Title: src.interfacebdd.AbstractDAO.AbstractDAO.insert Pages: 1 -->
<svg width="496pt" height="136pt"
 viewBox="0.00 0.00 496.00 136.00" xmlns="http://www.w3.org/2000/svg" xmlns:xlink="http://www.w3.org/1999/xlink">
<g id="graph0" class="graph" transform="scale(1 1) rotate(0) translate(4 132)">
<title>src.interfacebdd.AbstractDAO.AbstractDAO.insert</title>
<polygon fill="white" stroke="white" points="-4,4 -4,-132 492,-132 492,4 -4,4"/>
<!-- Node1 -->
<g id="node1" class="node"><title>Node1</title>
<polygon fill="#bfbfbf" stroke="black" points="0.5,-49 0.5,-79 125.5,-79 125.5,-49 0.5,-49"/>
<text text-anchor="start" x="8.5" y="-67" font-family="Helvetica,sans-Serif" font-size="10.00">src.interfacebdd.Abstract</text>
<text text-anchor="middle" x="63" y="-56" font-family="Helvetica,sans-Serif" font-size="10.00">DAO.AbstractDAO.insert</text>
</g>
<!-- Node2 -->
<g id="node2" class="node"><title>Node2</title>
<g id="a_node2"><a xlink:href="classsrc_1_1interfacebdd_1_1_abstract_d_a_o_1_1_abstract_d_a_o.html#ad78a6997ddf6be035df24ef4a0395736" target="_top" xlink:title="src.interfacebdd.Abstract\lDAO.AbstractDAO.joins">
<polygon fill="white" stroke="black" points="174.5,-98 174.5,-128 299.5,-128 299.5,-98 174.5,-98"/>
<text text-anchor="start" x="182.5" y="-116" font-family="Helvetica,sans-Serif" font-size="10.00">src.interfacebdd.Abstract</text>
<text text-anchor="middle" x="237" y="-105" font-family="Helvetica,sans-Serif" font-size="10.00">DAO.AbstractDAO.joins</text>
</a>
</g>
</g>
<!-- Node1&#45;&gt;Node2 -->
<g id="edge1" class="edge"><title>Node1&#45;&gt;Node2</title>
<path fill="none" stroke="midnightblue" d="M117.009,-79.1014C134.831,-84.1785 154.88,-89.8902 173.37,-95.1577"/>
<polygon fill="midnightblue" stroke="midnightblue" points="172.59,-98.5746 183.166,-97.9484 174.508,-91.8425 172.59,-98.5746"/>
</g>
<!-- Node3 -->
<g id="node3" class="node"><title>Node3</title>
<g id="a_node3"><a xlink:href="classsrc_1_1interfacebdd_1_1_abstract_d_a_o_1_1_abstract_d_a_o.html#a234029a022fd7726dea266ba5dfe5cbd" target="_top" xlink:title="src.interfacebdd.Abstract\lDAO.AbstractDAO.tableName">
<polygon fill="white" stroke="black" points="163,-49 163,-79 311,-79 311,-49 163,-49"/>
<text text-anchor="start" x="171" y="-67" font-family="Helvetica,sans-Serif" font-size="10.00">src.interfacebdd.Abstract</text>
<text text-anchor="middle" x="237" y="-56" font-family="Helvetica,sans-Serif" font-size="10.00">DAO.AbstractDAO.tableName</text>
</a>
</g>
</g>
<!-- Node1&#45;&gt;Node3 -->
<g id="edge2" class="edge"><title>Node1&#45;&gt;Node3</title>
<path fill="none" stroke="midnightblue" d="M125.61,-64C134.365,-64 143.487,-64 152.571,-64"/>
<polygon fill="midnightblue" stroke="midnightblue" points="152.789,-67.5001 162.789,-64 152.789,-60.5001 152.789,-67.5001"/>
</g>
<!-- Node4 -->
<g id="node4" class="node"><title>Node4</title>
<g id="a_node4"><a xlink:href="classsrc_1_1interfacebdd_1_1_abstract_d_a_o_1_1_abstract_d_a_o.html#a52ac76b329acbea36076a7872c0a9af9" target="_top" xlink:title="Construit et initialise un objet pour accéder à la bdd. ">
<polygon fill="white" stroke="black" points="162.5,-0 162.5,-30 311.5,-30 311.5,-0 162.5,-0"/>
<text text-anchor="start" x="170.5" y="-18" font-family="Helvetica,sans-Serif" font-size="10.00">src.interfacebdd.Abstract</text>
<text text-anchor="middle" x="237" y="-7" font-family="Helvetica,sans-Serif" font-size="10.00">DAO.AbstractDAO.connection</text>
</a>
</g>
</g>
<!-- Node1&#45;&gt;Node4 -->
<g id="edge3" class="edge"><title>Node1&#45;&gt;Node4</title>
<path fill="none" stroke="midnightblue" d="M117.009,-48.8986C134.831,-43.8215 154.88,-38.1098 173.37,-32.8423"/>
<polygon fill="midnightblue" stroke="midnightblue" points="174.508,-36.1575 183.166,-30.0516 172.59,-29.4254 174.508,-36.1575"/>
</g>
<!-- Node5 -->
<g id="node5" class="node"><title>Node5</title>
<g id="a_node5"><a xlink:href="classsrc_1_1interfacebdd_1_1_abstract_d_a_o_1_1_abstract_d_a_o.html#ab7baabe45cdca232b62c0ca1d5fd7ba7" target="_top" xlink:title="construit un chemin absolu ">
<polygon fill="white" stroke="black" points="348,-0 348,-30 488,-30 488,-0 348,-0"/>
<text text-anchor="start" x="356" y="-18" font-family="Helvetica,sans-Serif" font-size="10.00">src.interfacebdd.Abstract</text>
<text text-anchor="middle" x="418" y="-7" font-family="Helvetica,sans-Serif" font-size="10.00">DAO.AbstractDAO.buildpath</text>
</a>
</g>
</g>
<!-- Node4&#45;&gt;Node5 -->
<g id="edge4" class="edge"><title>Node4&#45;&gt;Node5</title>
<path fill="none" stroke="midnightblue" d="M311.581,-15C320.175,-15 328.972,-15 337.639,-15"/>
<polygon fill="midnightblue" stroke="midnightblue" points="337.736,-18.5001 347.736,-15 337.736,-11.5001 337.736,-18.5001"/>
</g>
<!-- Node5&#45;&gt;Node5 -->
<g id="edge5" class="edge"><title>Node5&#45;&gt;Node5</title>
<path fill="none" stroke="midnightblue" d="M386.359,-30.2754C379.328,-39.4063 389.875,-48 418,-48 434.699,-48 445.201,-44.9704 449.507,-40.5975"/>
<polygon fill="midnightblue" stroke="midnightblue" points="453.011,-40.32 449.641,-30.2754 446.011,-40.2291 453.011,-40.32"/>
</g>
</g>
</svg>
