<?xml version="1.0" encoding="UTF-8" standalone="no"?>
<!DOCTYPE svg PUBLIC "-//W3C//DTD SVG 1.1//EN"
 "http://www.w3.org/Graphics/SVG/1.1/DTD/svg11.dtd">
<!-- Generated by graphviz version 2.26.3 (20100126.1600)
 -->
<!-- Title: src.interfacebdd.SiteDAO.SiteDAO Pages: 1 -->
<svg width="138pt" height="368pt"
 viewBox="0.00 0.00 138.00 368.00" xmlns="http://www.w3.org/2000/svg" xmlns:xlink="http://www.w3.org/1999/xlink">
<g id="graph1" class="graph" transform="scale(1 1) rotate(0) translate(4 364)">
<title>src.interfacebdd.SiteDAO.SiteDAO</title>
<polygon fill="white" stroke="white" points="-4,5 -4,-364 135,-364 135,5 -4,5"/>
<!-- Node1 -->
<g id="node1" class="node"><title>Node1</title>
<polygon fill="#bfbfbf" stroke="black" points="-0.5,-1 -0.5,-259 130.5,-259 130.5,-1 -0.5,-1"/>
<text text-anchor="start" x="7.5" y="-246" font-family="Helvetica,sans-Serif" font-size="10.00">src.interfacebdd.SiteDAO.</text>
<text text-anchor="middle" x="65" y="-233" font-family="Helvetica,sans-Serif" font-size="10.00">SiteDAO</text>
<polyline fill="none" stroke="black" points="-0.5,-225 130.5,-225 "/>
<text text-anchor="start" x="7.5" y="-212" font-family="Helvetica,sans-Serif" font-size="10.00">+ MAPPING_COLS</text>
<text text-anchor="start" x="7.5" y="-199" font-family="Helvetica,sans-Serif" font-size="10.00">+ MAPPING_FIL</text>
<text text-anchor="start" x="7.5" y="-186" font-family="Helvetica,sans-Serif" font-size="10.00">+ JOIN_POSITION</text>
<text text-anchor="start" x="7.5" y="-173" font-family="Helvetica,sans-Serif" font-size="10.00">&#45; _positionDAO</text>
<text text-anchor="start" x="7.5" y="-160" font-family="Helvetica,sans-Serif" font-size="10.00">&#45; _dicoAttr</text>
<polyline fill="none" stroke="black" points="-0.5,-152 130.5,-152 "/>
<text text-anchor="start" x="7.5" y="-139" font-family="Helvetica,sans-Serif" font-size="10.00">+ __init__()</text>
<text text-anchor="start" x="7.5" y="-126" font-family="Helvetica,sans-Serif" font-size="10.00">+ insert()</text>
<text text-anchor="start" x="7.5" y="-113" font-family="Helvetica,sans-Serif" font-size="10.00">+ update()</text>
<text text-anchor="start" x="7.5" y="-100" font-family="Helvetica,sans-Serif" font-size="10.00">+ deleteById()</text>
<text text-anchor="start" x="7.5" y="-87" font-family="Helvetica,sans-Serif" font-size="10.00">+ positionDAO()</text>
<text text-anchor="start" x="7.5" y="-74" font-family="Helvetica,sans-Serif" font-size="10.00">+ positionDAO()</text>
<text text-anchor="start" x="7.5" y="-61" font-family="Helvetica,sans-Serif" font-size="10.00">+ dicoAttr()</text>
<text text-anchor="start" x="7.5" y="-48" font-family="Helvetica,sans-Serif" font-size="10.00">+ dicoAttr()</text>
<text text-anchor="start" x="7.5" y="-35" font-family="Helvetica,sans-Serif" font-size="10.00">&#45; _createElement()</text>
<text text-anchor="start" x="7.5" y="-22" font-family="Helvetica,sans-Serif" font-size="10.00">&#45; _buildObjectOld()</text>
<text text-anchor="start" x="7.5" y="-9" font-family="Helvetica,sans-Serif" font-size="10.00">&#45; _buildObject()</text>
</g>
<!-- Node2 -->
<g id="node2" class="node"><title>Node2</title>
<polygon fill="white" stroke="#bfbfbf" points="27.5,-296.5 27.5,-359.5 102.5,-359.5 102.5,-296.5 27.5,-296.5"/>
<text text-anchor="middle" x="65" y="-346.5" font-family="Helvetica,sans-Serif" font-size="10.00">AbstractDAO</text>
<polyline fill="none" stroke="#bfbfbf" points="27.5,-338.5 102.5,-338.5 "/>
<text text-anchor="middle" x="65" y="-325.5" font-family="Helvetica,sans-Serif" font-size="10.00"> </text>
<polyline fill="none" stroke="#bfbfbf" points="27.5,-317.5 102.5,-317.5 "/>
<text text-anchor="middle" x="65" y="-304.5" font-family="Helvetica,sans-Serif" font-size="10.00"> </text>
</g>
<!-- Node2&#45;&gt;Node1 -->
<g id="edge2" class="edge"><title>Node2&#45;&gt;Node1</title>
<path fill="none" stroke="midnightblue" d="M65,-286.151C65,-277.86 65,-268.756 65,-259.24"/>
<polygon fill="none" stroke="midnightblue" points="61.5001,-286.188 65,-296.188 68.5001,-286.188 61.5001,-286.188"/>
</g>
</g>
</svg>
