<?xml version="1.0" encoding="UTF-8" standalone="no"?>
<!DOCTYPE svg PUBLIC "-//W3C//DTD SVG 1.1//EN"
 "http://www.w3.org/Graphics/SVG/1.1/DTD/svg11.dtd">
<!-- Generated by graphviz version 2.34.0 (20130907.0111)
 -->
<!-- Title: src.system.Site.Site.need Pages: 1 -->
<svg width="306pt" height="77pt"
 viewBox="0.00 0.00 306.00 77.00" xmlns="http://www.w3.org/2000/svg" xmlns:xlink="http://www.w3.org/1999/xlink">
<g id="graph0" class="graph" transform="scale(1 1) rotate(0) translate(4 73)">
<title>src.system.Site.Site.need</title>
<polygon fill="white" stroke="white" points="-4,4 -4,-73 302,-73 302,4 -4,4"/>
<!-- Node1 -->
<g id="node1" class="node"><title>Node1</title>
<polygon fill="#bfbfbf" stroke="black" points="0,-22.5 0,-41.5 130,-41.5 130,-22.5 0,-22.5"/>
<text text-anchor="middle" x="65" y="-29.5" font-family="Helvetica,sans-Serif" font-size="10.00">src.system.Site.Site.need</text>
</g>
<!-- Node1&#45;&gt;Node1 -->
<g id="edge1" class="edge"><title>Node1&#45;&gt;Node1</title>
<path fill="none" stroke="midnightblue" d="M33.9371,-50.2746C34.8228,-55.741 45.1771,-60 65,-60 94.5039,-60 103.032,-50.5653 90.5854,-41.7571"/>
<polygon fill="midnightblue" stroke="midnightblue" points="36.9495,-52.0611 39.4146,-41.7571 31.0618,-48.2749 36.9495,-52.0611"/>
</g>
<!-- Node2 -->
<g id="node2" class="node"><title>Node2</title>
<g id="a_node2"><a xlink:href="classsrc_1_1system_1_1_site_1_1_site.html#a0128613c7f484d73fca2df00365427be" target="_top" xlink:title="src.system.Site.Site.\l__str__">
<polygon fill="white" stroke="black" points="177.5,-39 177.5,-69 286.5,-69 286.5,-39 177.5,-39"/>
<text text-anchor="start" x="185.5" y="-57" font-family="Helvetica,sans-Serif" font-size="10.00">src.system.Site.Site.</text>
<text text-anchor="middle" x="232" y="-46" font-family="Helvetica,sans-Serif" font-size="10.00">__str__</text>
</a>
</g>
</g>
<!-- Node1&#45;&gt;Node2 -->
<g id="edge2" class="edge"><title>Node1&#45;&gt;Node2</title>
<path fill="none" stroke="midnightblue" d="M140.214,-41.8952C152.715,-43.562 165.472,-45.263 177.322,-46.843"/>
<polygon fill="midnightblue" stroke="midnightblue" points="140.641,-38.4212 130.266,-40.5688 139.715,-45.3598 140.641,-38.4212"/>
</g>
<!-- Node3 -->
<g id="node3" class="node"><title>Node3</title>
<g id="a_node3"><a xlink:href="classsrc_1_1system_1_1_site_1_1_site.html#a57bc8ec56d0adc43b55064e1989a1502" target="_top" xlink:title="serialise un chantier pour pouvoir le transmettre facilement ">
<polygon fill="white" stroke="black" points="166,-0.5 166,-19.5 298,-19.5 298,-0.5 166,-0.5"/>
<text text-anchor="middle" x="232" y="-7.5" font-family="Helvetica,sans-Serif" font-size="10.00">src.system.Site.Site.serial</text>
</a>
</g>
</g>
<!-- Node1&#45;&gt;Node3 -->
<g id="edge3" class="edge"><title>Node1&#45;&gt;Node3</title>
<path fill="none" stroke="midnightblue" d="M140.214,-22.1048C148.754,-20.9661 157.414,-19.8114 165.823,-18.6903"/>
<polygon fill="midnightblue" stroke="midnightblue" points="139.715,-18.6402 130.266,-23.4312 140.641,-25.5788 139.715,-18.6402"/>
</g>
</g>
</svg>
