<?xml version="1.0" encoding="UTF-8" standalone="no"?>
<!DOCTYPE svg PUBLIC "-//W3C//DTD SVG 1.1//EN"
 "http://www.w3.org/Graphics/SVG/1.1/DTD/svg11.dtd">
<!-- Generated by graphviz version 2.34.0 (20130907.0111)
 -->
<!-- Title: src.system.Position.Position.calcDistance Pages: 1 -->
<svg width="592pt" height="66pt"
 viewBox="0.00 0.00 592.00 66.00" xmlns="http://www.w3.org/2000/svg" xmlns:xlink="http://www.w3.org/1999/xlink">
<g id="graph0" class="graph" transform="scale(1 1) rotate(0) translate(4 62)">
<title>src.system.Position.Position.calcDistance</title>
<polygon fill="white" stroke="white" points="-4,4 -4,-62 588,-62 588,4 -4,4"/>
<!-- Node1 -->
<g id="node1" class="node"><title>Node1</title>
<polygon fill="#bfbfbf" stroke="black" points="0.5,-14 0.5,-44 163.5,-44 163.5,-14 0.5,-14"/>
<text text-anchor="start" x="8.5" y="-32" font-family="Helvetica,sans-Serif" font-size="10.00">src.system.Position.Position.calc</text>
<text text-anchor="middle" x="82" y="-21" font-family="Helvetica,sans-Serif" font-size="10.00">Distance</text>
</g>
<!-- Node2 -->
<g id="node2" class="node"><title>Node2</title>
<g id="a_node2"><a xlink:href="classsrc_1_1system_1_1_position_1_1_position.html#a2829ca636f233035920dd1771fd8738b" target="_top" xlink:title="calcule la distance à vol d&#39;oiseau entre la position courante et celle passée en paramètre ...">
<polygon fill="white" stroke="black" points="200.5,-14 200.5,-44 363.5,-44 363.5,-14 200.5,-14"/>
<text text-anchor="start" x="208.5" y="-32" font-family="Helvetica,sans-Serif" font-size="10.00">src.system.Position.Position.calc</text>
<text text-anchor="middle" x="282" y="-21" font-family="Helvetica,sans-Serif" font-size="10.00">AngularDistance</text>
</a>
</g>
</g>
<!-- Node1&#45;&gt;Node2 -->
<g id="edge1" class="edge"><title>Node1&#45;&gt;Node2</title>
<path fill="none" stroke="midnightblue" d="M163.534,-29C172.23,-29 181.123,-29 189.931,-29"/>
<polygon fill="midnightblue" stroke="midnightblue" points="190.216,-32.5001 200.216,-29 190.216,-25.5001 190.216,-32.5001"/>
</g>
<!-- Node3 -->
<g id="node3" class="node"><title>Node3</title>
<g id="a_node3"><a xlink:href="classsrc_1_1system_1_1_position_1_1_position.html#a458bcb8338c7d7b157491ea9506fb8ef" target="_top" xlink:title="src.system.Position.Position.latitude">
<polygon fill="white" stroke="black" points="404,-38.5 404,-57.5 580,-57.5 580,-38.5 404,-38.5"/>
<text text-anchor="middle" x="492" y="-45.5" font-family="Helvetica,sans-Serif" font-size="10.00">src.system.Position.Position.latitude</text>
</a>
</g>
</g>
<!-- Node2&#45;&gt;Node3 -->
<g id="edge2" class="edge"><title>Node2&#45;&gt;Node3</title>
<path fill="none" stroke="midnightblue" d="M363.716,-36.3731C373.565,-37.2728 383.708,-38.1993 393.766,-39.1181"/>
<polygon fill="midnightblue" stroke="midnightblue" points="393.505,-42.6087 403.782,-40.033 394.142,-35.6377 393.505,-42.6087"/>
</g>
<!-- Node4 -->
<g id="node4" class="node"><title>Node4</title>
<g id="a_node4"><a xlink:href="classsrc_1_1system_1_1_position_1_1_position.html#ae4ac6ef41f56bf55952eb5648a874745" target="_top" xlink:title="src.system.Position.Position.longitude">
<polygon fill="white" stroke="black" points="400,-0.5 400,-19.5 584,-19.5 584,-0.5 400,-0.5"/>
<text text-anchor="middle" x="492" y="-7.5" font-family="Helvetica,sans-Serif" font-size="10.00">src.system.Position.Position.longitude</text>
</a>
</g>
</g>
<!-- Node2&#45;&gt;Node4 -->
<g id="edge3" class="edge"><title>Node2&#45;&gt;Node4</title>
<path fill="none" stroke="midnightblue" d="M363.716,-21.6269C372.252,-20.8472 381.009,-20.0473 389.739,-19.2498"/>
<polygon fill="midnightblue" stroke="midnightblue" points="390.322,-22.7112 399.962,-18.316 389.685,-15.7402 390.322,-22.7112"/>
</g>
</g>
</svg>
