<?xml version="1.0" encoding="UTF-8" standalone="no"?>
<!DOCTYPE svg PUBLIC "-//W3C//DTD SVG 1.1//EN"
 "http://www.w3.org/Graphics/SVG/1.1/DTD/svg11.dtd">
<!-- Generated by graphviz version 2.26.3 (20100126.1600)
 -->
<!-- Title: src.interfacebdd.Connexion.Connexion Pages: 1 -->
<svg width="146pt" height="238pt"
 viewBox="0.00 0.00 146.00 238.00" xmlns="http://www.w3.org/2000/svg" xmlns:xlink="http://www.w3.org/1999/xlink">
<g id="graph1" class="graph" transform="scale(1 1) rotate(0) translate(4 234)">
<title>src.interfacebdd.Connexion.Connexion</title>
<polygon fill="white" stroke="white" points="-4,5 -4,-234 143,-234 143,5 -4,5"/>
<!-- Node1 -->
<g id="node1" class="node"><title>Node1</title>
<polygon fill="#bfbfbf" stroke="black" points="-0.5,-1 -0.5,-129 138.5,-129 138.5,-1 -0.5,-1"/>
<text text-anchor="start" x="7.5" y="-116" font-family="Helvetica,sans-Serif" font-size="10.00">src.interfacebdd.Connexion.</text>
<text text-anchor="middle" x="69" y="-103" font-family="Helvetica,sans-Serif" font-size="10.00">Connexion</text>
<polyline fill="none" stroke="black" points="-0.5,-95 138.5,-95 "/>
<text text-anchor="start" x="7.5" y="-82" font-family="Helvetica,sans-Serif" font-size="10.00">&#45; _instance</text>
<polyline fill="none" stroke="black" points="-0.5,-74 138.5,-74 "/>
<text text-anchor="start" x="7.5" y="-61" font-family="Helvetica,sans-Serif" font-size="10.00">+ __new__()</text>
<text text-anchor="start" x="7.5" y="-48" font-family="Helvetica,sans-Serif" font-size="10.00">+ buildpath()</text>
<text text-anchor="start" x="7.5" y="-35" font-family="Helvetica,sans-Serif" font-size="10.00">+ connect()</text>
<text text-anchor="start" x="7.5" y="-22" font-family="Helvetica,sans-Serif" font-size="10.00">+ disconnect()</text>
<text text-anchor="start" x="7.5" y="-9" font-family="Helvetica,sans-Serif" font-size="10.00">+ exception()</text>
</g>
<!-- Node2 -->
<g id="node2" class="node"><title>Node2</title>
<polygon fill="white" stroke="#bfbfbf" points="47.5,-166.5 47.5,-229.5 90.5,-229.5 90.5,-166.5 47.5,-166.5"/>
<text text-anchor="middle" x="69" y="-216.5" font-family="Helvetica,sans-Serif" font-size="10.00">object</text>
<polyline fill="none" stroke="#bfbfbf" points="47.5,-208.5 90.5,-208.5 "/>
<text text-anchor="middle" x="69" y="-195.5" font-family="Helvetica,sans-Serif" font-size="10.00"> </text>
<polyline fill="none" stroke="#bfbfbf" points="47.5,-187.5 90.5,-187.5 "/>
<text text-anchor="middle" x="69" y="-174.5" font-family="Helvetica,sans-Serif" font-size="10.00"> </text>
</g>
<!-- Node2&#45;&gt;Node1 -->
<g id="edge2" class="edge"><title>Node2&#45;&gt;Node1</title>
<path fill="none" stroke="midnightblue" d="M69,-156.338C69,-147.719 69,-138.45 69,-129.239"/>
<polygon fill="none" stroke="midnightblue" points="65.5001,-156.481 69,-166.481 72.5001,-156.481 65.5001,-156.481"/>
</g>
</g>
</svg>
