<?xml version="1.0" encoding="UTF-8" standalone="no"?>
<!DOCTYPE svg PUBLIC "-//W3C//DTD SVG 1.1//EN"
 "http://www.w3.org/Graphics/SVG/1.1/DTD/svg11.dtd">
<!-- Generated by graphviz version 2.34.0 (20130907.0111)
 -->
<!-- Title: src.system.Worker.Worker.num Pages: 1 -->
<svg width="362pt" height="77pt"
 viewBox="0.00 0.00 362.00 77.00" xmlns="http://www.w3.org/2000/svg" xmlns:xlink="http://www.w3.org/1999/xlink">
<g id="graph0" class="graph" transform="scale(1 1) rotate(0) translate(4 73)">
<title>src.system.Worker.Worker.num</title>
<polygon fill="white" stroke="white" points="-4,4 -4,-73 358,-73 358,4 -4,4"/>
<!-- Node1 -->
<g id="node1" class="node"><title>Node1</title>
<polygon fill="#bfbfbf" stroke="black" points="0,-22.5 0,-41.5 156,-41.5 156,-22.5 0,-22.5"/>
<text text-anchor="middle" x="78" y="-29.5" font-family="Helvetica,sans-Serif" font-size="10.00">src.system.Worker.Worker.num</text>
</g>
<!-- Node1&#45;&gt;Node1 -->
<g id="edge1" class="edge"><title>Node1&#45;&gt;Node1</title>
<path fill="none" stroke="midnightblue" d="M41.625,-49.5043C41.6309,-55.3356 53.7559,-60 78,-60 112.48,-60 122.447,-50.5653 107.901,-41.7571"/>
<polygon fill="midnightblue" stroke="midnightblue" points="44.3723,-51.6749 48.099,-41.7571 39.0009,-47.1862 44.3723,-51.6749"/>
</g>
<!-- Node2 -->
<g id="node2" class="node"><title>Node2</title>
<g id="a_node2"><a xlink:href="classsrc_1_1system_1_1_worker_1_1_worker.html#a771360c3aaa0dd2be470ad6c885beb37" target="_top" xlink:title="Renvois un worker sous une forme lisible pour l&#39;humain. ">
<polygon fill="white" stroke="black" points="204.5,-39 204.5,-69 341.5,-69 341.5,-39 204.5,-39"/>
<text text-anchor="start" x="212.5" y="-57" font-family="Helvetica,sans-Serif" font-size="10.00">src.system.Worker.Worker.</text>
<text text-anchor="middle" x="273" y="-46" font-family="Helvetica,sans-Serif" font-size="10.00">__str__</text>
</a>
</g>
</g>
<!-- Node1&#45;&gt;Node2 -->
<g id="edge2" class="edge"><title>Node1&#45;&gt;Node2</title>
<path fill="none" stroke="midnightblue" d="M166.291,-41.9503C179.065,-43.4064 192.056,-44.8872 204.358,-46.2895"/>
<polygon fill="midnightblue" stroke="midnightblue" points="166.443,-38.445 156.111,-40.7898 165.65,-45.4 166.443,-38.445"/>
</g>
<!-- Node3 -->
<g id="node3" class="node"><title>Node3</title>
<g id="a_node3"><a xlink:href="classsrc_1_1system_1_1_worker_1_1_worker.html#a346ba2efb749b79fff836f4696256a11" target="_top" xlink:title="serialise une affectation pour pouvoir la transmettre facilement ">
<polygon fill="white" stroke="black" points="192.5,-0.5 192.5,-19.5 353.5,-19.5 353.5,-0.5 192.5,-0.5"/>
<text text-anchor="middle" x="273" y="-7.5" font-family="Helvetica,sans-Serif" font-size="10.00">src.system.Worker.Worker.serial</text>
</a>
</g>
</g>
<!-- Node1&#45;&gt;Node3 -->
<g id="edge3" class="edge"><title>Node1&#45;&gt;Node3</title>
<path fill="none" stroke="midnightblue" d="M166.291,-22.0497C175.018,-21.0549 183.846,-20.0486 192.487,-19.0637"/>
<polygon fill="midnightblue" stroke="midnightblue" points="165.65,-18.6 156.111,-23.2102 166.443,-25.555 165.65,-18.6"/>
</g>
</g>
</svg>
