<?xml version="1.0" encoding="UTF-8" standalone="no"?>
<!DOCTYPE svg PUBLIC "-//W3C//DTD SVG 1.1//EN"
 "http://www.w3.org/Graphics/SVG/1.1/DTD/svg11.dtd">
<!-- Generated by graphviz version 2.26.3 (20100126.1600)
 -->
<!-- Title: src.system.Passenger.Passenger Pages: 1 -->
<svg width="172pt" height="302pt"
 viewBox="0.00 0.00 172.00 302.00" xmlns="http://www.w3.org/2000/svg" xmlns:xlink="http://www.w3.org/1999/xlink">
<g id="graph1" class="graph" transform="scale(1 1) rotate(0) translate(4 298)">
<title>src.system.Passenger.Passenger</title>
<polygon fill="white" stroke="white" points="-4,5 -4,-298 169,-298 169,5 -4,5"/>
<!-- Node1 -->
<g id="node1" class="node"><title>Node1</title>
<polygon fill="#bfbfbf" stroke="black" points="0,-0.5 0,-193.5 164,-193.5 164,-0.5 0,-0.5"/>
<text text-anchor="middle" x="82" y="-180.5" font-family="Helvetica,sans-Serif" font-size="10.00">src.system.Passenger.Passenger</text>
<polyline fill="none" stroke="black" points="0,-172.5 164,-172.5 "/>
<text text-anchor="start" x="8" y="-159.5" font-family="Helvetica,sans-Serif" font-size="10.00">&#45; _num</text>
<text text-anchor="start" x="8" y="-146.5" font-family="Helvetica,sans-Serif" font-size="10.00">&#45; _shuttle</text>
<text text-anchor="start" x="8" y="-133.5" font-family="Helvetica,sans-Serif" font-size="10.00">&#45; _worker</text>
<polyline fill="none" stroke="black" points="0,-125.5 164,-125.5 "/>
<text text-anchor="start" x="8" y="-112.5" font-family="Helvetica,sans-Serif" font-size="10.00">+ __init__()</text>
<text text-anchor="start" x="8" y="-99.5" font-family="Helvetica,sans-Serif" font-size="10.00">+ num()</text>
<text text-anchor="start" x="8" y="-86.5" font-family="Helvetica,sans-Serif" font-size="10.00">+ num()</text>
<text text-anchor="start" x="8" y="-73.5" font-family="Helvetica,sans-Serif" font-size="10.00">+ shuttle()</text>
<text text-anchor="start" x="8" y="-60.5" font-family="Helvetica,sans-Serif" font-size="10.00">+ shuttle()</text>
<text text-anchor="start" x="8" y="-47.5" font-family="Helvetica,sans-Serif" font-size="10.00">+ worker()</text>
<text text-anchor="start" x="8" y="-34.5" font-family="Helvetica,sans-Serif" font-size="10.00">+ worker()</text>
<text text-anchor="start" x="8" y="-21.5" font-family="Helvetica,sans-Serif" font-size="10.00">+ __str__()</text>
<text text-anchor="start" x="8" y="-8.5" font-family="Helvetica,sans-Serif" font-size="10.00">+ serial()</text>
</g>
<!-- Node2 -->
<g id="node2" class="node"><title>Node2</title>
<polygon fill="white" stroke="#bfbfbf" points="60.5,-230.5 60.5,-293.5 103.5,-293.5 103.5,-230.5 60.5,-230.5"/>
<text text-anchor="middle" x="82" y="-280.5" font-family="Helvetica,sans-Serif" font-size="10.00">object</text>
<polyline fill="none" stroke="#bfbfbf" points="60.5,-272.5 103.5,-272.5 "/>
<text text-anchor="middle" x="82" y="-259.5" font-family="Helvetica,sans-Serif" font-size="10.00"> </text>
<polyline fill="none" stroke="#bfbfbf" points="60.5,-251.5 103.5,-251.5 "/>
<text text-anchor="middle" x="82" y="-238.5" font-family="Helvetica,sans-Serif" font-size="10.00"> </text>
</g>
<!-- Node2&#45;&gt;Node1 -->
<g id="edge2" class="edge"><title>Node2&#45;&gt;Node1</title>
<path fill="none" stroke="midnightblue" d="M82,-220.134C82,-211.862 82,-202.864 82,-193.623"/>
<polygon fill="none" stroke="midnightblue" points="78.5001,-220.186 82,-230.186 85.5001,-220.186 78.5001,-220.186"/>
</g>
</g>
</svg>
