<?xml version="1.0" encoding="UTF-8" standalone="no"?>
<!DOCTYPE svg PUBLIC "-//W3C//DTD SVG 1.1//EN"
 "http://www.w3.org/Graphics/SVG/1.1/DTD/svg11.dtd">
<!-- Generated by graphviz version 2.26.3 (20100126.1600)
 -->
<!-- Title: /home/sacapuces/optraj.istic.univ&#45;rennes1.fr/vagrant/optraj.istic.univ&#45;rennes1.fr/src/tests Pages: 1 -->
<svg width="428pt" height="113pt"
 viewBox="0.00 0.00 428.00 113.00" xmlns="http://www.w3.org/2000/svg" xmlns:xlink="http://www.w3.org/1999/xlink">
<g id="graph1" class="graph" transform="scale(1 1) rotate(0) translate(4 109)">
<title>/home/sacapuces/optraj.istic.univ&#45;rennes1.fr/vagrant/optraj.istic.univ&#45;rennes1.fr/src/tests</title>
<polygon fill="white" stroke="white" points="-4,5 -4,-109 425,-109 425,5 -4,5"/>
<g id="graph2" class="cluster"><title>clusterdir_b0d412aaf319149067708fe926cfaa32</title>
<a xlink:href="dir_b0d412aaf319149067708fe926cfaa32.html" target="_top" xlink:title="src">
<polygon fill="#ddddee" stroke="black" points="8,-8 8,-97 412,-97 412,-8 8,-8"/>
<text text-anchor="middle" x="210" y="-84" font-family="Helvetica,sans-Serif" font-size="10.00">src</text>
</a>
</g>
<g id="graph3" class="cluster"><title>clusterdir_0c45b72c6eb64c12614d6177db2c9783</title>
<a xlink:href="dir_0c45b72c6eb64c12614d6177db2c9783.html" target="_top">
<polygon fill="#eeeeff" stroke="black" points="16,-16 16,-68 404,-68 404,-16 16,-16"/>
</a>
</g>
<!-- dir_0c45b72c6eb64c12614d6177db2c9783 -->
<g id="node3" class="node"><title>dir_0c45b72c6eb64c12614d6177db2c9783</title>
<text text-anchor="middle" x="369" y="-39.5" font-family="Helvetica,sans-Serif" font-size="10.00">tests</text>
</g>
<!-- dir_c6458138a15d8d76cbdea21eae5bcb2d -->
<g id="node4" class="node"><title>dir_c6458138a15d8d76cbdea21eae5bcb2d</title>
<a xlink:href="dir_c6458138a15d8d76cbdea21eae5bcb2d.html" target="_top" xlink:title="interfacebdd">
<polygon fill="white" stroke="black" points="324,-60 254,-60 254,-24 324,-24 324,-60"/>
<text text-anchor="middle" x="289" y="-39.5" font-family="Helvetica,sans-Serif" font-size="10.00">interfacebdd</text>
</a>
</g>
<!-- dir_c56eb6f142980f82c338e0fd85acf149 -->
<g id="node5" class="node"><title>dir_c56eb6f142980f82c338e0fd85acf149</title>
<a xlink:href="dir_c56eb6f142980f82c338e0fd85acf149.html" target="_top" xlink:title="optimisation">
<polygon fill="white" stroke="black" points="236,-60 168,-60 168,-24 236,-24 236,-60"/>
<text text-anchor="middle" x="202" y="-39.5" font-family="Helvetica,sans-Serif" font-size="10.00">optimisation</text>
</a>
</g>
<!-- dir_04b5be2da24ea53c4e55545f5b2e53c7 -->
<g id="node6" class="node"><title>dir_04b5be2da24ea53c4e55545f5b2e53c7</title>
<a xlink:href="dir_04b5be2da24ea53c4e55545f5b2e53c7.html" target="_top" xlink:title="system">
<polygon fill="white" stroke="black" points="150,-60 96,-60 96,-24 150,-24 150,-60"/>
<text text-anchor="middle" x="123" y="-39.5" font-family="Helvetica,sans-Serif" font-size="10.00">system</text>
</a>
</g>
<!-- dir_0affa439785faf75300fd32cbde8e5bf -->
<g id="node7" class="node"><title>dir_0affa439785faf75300fd32cbde8e5bf</title>
<a xlink:href="dir_0affa439785faf75300fd32cbde8e5bf.html" target="_top" xlink:title="utils">
<polygon fill="white" stroke="black" points="78,-60 24,-60 24,-24 78,-24 78,-60"/>
<text text-anchor="middle" x="51" y="-39.5" font-family="Helvetica,sans-Serif" font-size="10.00">utils</text>
</a>
</g>
</g>
</svg>
