<?xml version="1.0" encoding="UTF-8" standalone="no"?>
<!DOCTYPE svg PUBLIC "-//W3C//DTD SVG 1.1//EN"
 "http://www.w3.org/Graphics/SVG/1.1/DTD/svg11.dtd">
<!-- Generated by graphviz version 2.26.3 (20100126.1600)
 -->
<!-- Title: /home/sacapuces/optraj.istic.univ&#45;rennes1.fr/vagrant/optraj.istic.univ&#45;rennes1.fr/src Pages: 1 -->
<svg width="582pt" height="113pt"
 viewBox="0.00 0.00 582.00 113.00" xmlns="http://www.w3.org/2000/svg" xmlns:xlink="http://www.w3.org/1999/xlink">
<g id="graph1" class="graph" transform="scale(1 1) rotate(0) translate(4 109)">
<title>/home/sacapuces/optraj.istic.univ&#45;rennes1.fr/vagrant/optraj.istic.univ&#45;rennes1.fr/src</title>
<polygon fill="white" stroke="white" points="-4,5 -4,-109 579,-109 579,5 -4,5"/>
<g id="graph2" class="cluster"><title>clusterdir_3a9317d0ef4d3950f0bcfad631dbf004</title>
<a xlink:href="dir_3a9317d0ef4d3950f0bcfad631dbf004.html" target="_top" xlink:title="optraj.istic.univ&#45;rennes1.fr">
<polygon fill="#ddddee" stroke="black" points="8,-8 8,-97 566,-97 566,-8 8,-8"/>
<text text-anchor="middle" x="287" y="-84" font-family="Helvetica,sans-Serif" font-size="10.00">optraj.istic.univ&#45;rennes1.fr</text>
</a>
</g>
<g id="graph3" class="cluster"><title>clusterdir_b0d412aaf319149067708fe926cfaa32</title>
<a xlink:href="dir_b0d412aaf319149067708fe926cfaa32.html" target="_top">
<polygon fill="#eeeeff" stroke="black" points="16,-16 16,-68 558,-68 558,-16 16,-16"/>
</a>
</g>
<!-- dir_b0d412aaf319149067708fe926cfaa32 -->
<g id="node3" class="node"><title>dir_b0d412aaf319149067708fe926cfaa32</title>
<text text-anchor="middle" x="523" y="-39.5" font-family="Helvetica,sans-Serif" font-size="10.00">src</text>
</g>
<!-- dir_ad54625540eff4fca81424872a1055aa -->
<g id="node4" class="node"><title>dir_ad54625540eff4fca81424872a1055aa</title>
<a xlink:href="dir_ad54625540eff4fca81424872a1055aa.html" target="_top" xlink:title="importData">
<polygon fill="white" stroke="black" points="478,-60 414,-60 414,-24 478,-24 478,-60"/>
<text text-anchor="middle" x="446" y="-39.5" font-family="Helvetica,sans-Serif" font-size="10.00">importData</text>
</a>
</g>
<!-- dir_3adc27af11577ec35557d241cd725743 -->
<g id="node5" class="node"><title>dir_3adc27af11577ec35557d241cd725743</title>
<a xlink:href="dir_3adc27af11577ec35557d241cd725743.html" target="_top" xlink:title="interfacebdd">
<polygon fill="white" stroke="black" points="396,-60 326,-60 326,-24 396,-24 396,-60"/>
<text text-anchor="middle" x="361" y="-39.5" font-family="Helvetica,sans-Serif" font-size="10.00">interfacebdd</text>
</a>
</g>
<!-- dir_8f2f391e67bd5c34f8efea9a637eff9e -->
<g id="node6" class="node"><title>dir_8f2f391e67bd5c34f8efea9a637eff9e</title>
<a xlink:href="dir_8f2f391e67bd5c34f8efea9a637eff9e.html" target="_top" xlink:title="optimisation">
<polygon fill="white" stroke="black" points="308,-60 240,-60 240,-24 308,-24 308,-60"/>
<text text-anchor="middle" x="274" y="-39.5" font-family="Helvetica,sans-Serif" font-size="10.00">optimisation</text>
</a>
</g>
<!-- dir_72fc9fd3b16ad97b34aded033e4f7270 -->
<g id="node7" class="node"><title>dir_72fc9fd3b16ad97b34aded033e4f7270</title>
<a xlink:href="dir_72fc9fd3b16ad97b34aded033e4f7270.html" target="_top" xlink:title="system">
<polygon fill="white" stroke="black" points="222,-60 168,-60 168,-24 222,-24 222,-60"/>
<text text-anchor="middle" x="195" y="-39.5" font-family="Helvetica,sans-Serif" font-size="10.00">system</text>
</a>
</g>
<!-- dir_0c45b72c6eb64c12614d6177db2c9783 -->
<g id="node8" class="node"><title>dir_0c45b72c6eb64c12614d6177db2c9783</title>
<a xlink:href="dir_0c45b72c6eb64c12614d6177db2c9783.html" target="_top" xlink:title="tests">
<polygon fill="white" stroke="red" points="150,-60 96,-60 96,-24 150,-24 150,-60"/>
<text text-anchor="middle" x="123" y="-39.5" font-family="Helvetica,sans-Serif" font-size="10.00">tests</text>
</a>
</g>
<!-- dir_284c64dda35f10c4ea541f12469ee833 -->
<g id="node9" class="node"><title>dir_284c64dda35f10c4ea541f12469ee833</title>
<a xlink:href="dir_284c64dda35f10c4ea541f12469ee833.html" target="_top" xlink:title="util">
<polygon fill="white" stroke="black" points="78,-60 24,-60 24,-24 78,-24 78,-60"/>
<text text-anchor="middle" x="51" y="-39.5" font-family="Helvetica,sans-Serif" font-size="10.00">util</text>
</a>
</g>
</g>
</svg>
