<?xml version="1.0" encoding="UTF-8" standalone="no"?>
<!DOCTYPE svg PUBLIC "-//W3C//DTD SVG 1.1//EN"
 "http://www.w3.org/Graphics/SVG/1.1/DTD/svg11.dtd">
<!-- Generated by graphviz version 2.26.3 (20100126.1600)
 -->
<!-- Title: Graphe hiérarchique des classes Pages: 1 -->
<svg width="440pt" height="938pt"
 viewBox="0.00 0.00 440.00 938.00" xmlns="http://www.w3.org/2000/svg" xmlns:xlink="http://www.w3.org/1999/xlink">
<g id="graph1" class="graph" transform="scale(1 1) rotate(0) translate(4 934)">
<title>Graphe hiérarchique des classes</title>
<polygon fill="white" stroke="white" points="-4,5 -4,-934 437,-934 437,5 -4,5"/>
<!-- Node1 -->
<g id="node1" class="node"><title>Node1</title>
<polygon fill="white" stroke="#bfbfbf" points="0.5,-448.5 0.5,-469.5 43.5,-469.5 43.5,-448.5 0.5,-448.5"/>
<text text-anchor="middle" x="22" y="-456.5" font-family="Helvetica,sans-Serif" font-size="10.00">object</text>
</g>
<!-- Node2 -->
<g id="node3" class="node"><title>Node2</title>
<a xlink:href="classsrc_1_1import_data_1_1_check_file_1_1_check_file.html" target="_top" xlink:title="src.importData.CheckFile.\lCheckFile">
<polygon fill="white" stroke="black" points="102.5,-896 102.5,-930 233.5,-930 233.5,-896 102.5,-896"/>
<text text-anchor="start" x="110.5" y="-917" font-family="Helvetica,sans-Serif" font-size="10.00">src.importData.CheckFile.</text>
<text text-anchor="middle" x="168" y="-904" font-family="Helvetica,sans-Serif" font-size="10.00">CheckFile</text>
</a>
</g>
<!-- Node1&#45;&gt;Node2 -->
<g id="edge2" class="edge"><title>Node1&#45;&gt;Node2</title>
<path fill="none" stroke="midnightblue" d="M23.5109,-479.963C29.5759,-561.649 53.1244,-855.675 80,-887 86.0165,-894.012 93.8239,-899.182 102.302,-902.984"/>
<polygon fill="midnightblue" stroke="midnightblue" points="26.9663,-479.225 22.7446,-469.508 19.9851,-479.737 26.9663,-479.225"/>
</g>
<!-- Node3 -->
<g id="node5" class="node"><title>Node3</title>
<a xlink:href="classsrc_1_1import_data_1_1_generate_sites_1_1_generate_site.html" target="_top" xlink:title="Classe créant des chantiers depuis d&#39;un fichier csv.Elle vérifie au préalable si le chantier existe o...">
<polygon fill="white" stroke="black" points="93.5,-844 93.5,-878 242.5,-878 242.5,-844 93.5,-844"/>
<text text-anchor="start" x="101.5" y="-865" font-family="Helvetica,sans-Serif" font-size="10.00">src.importData.GenerateSites.</text>
<text text-anchor="middle" x="168" y="-852" font-family="Helvetica,sans-Serif" font-size="10.00">GenerateSite</text>
</a>
</g>
<!-- Node1&#45;&gt;Node3 -->
<g id="edge4" class="edge"><title>Node1&#45;&gt;Node3</title>
<path fill="none" stroke="midnightblue" d="M22.3789,-480.228C24.0806,-551.597 33.1638,-781.414 80,-835 83.879,-839.438 88.475,-843.136 93.4997,-846.216"/>
<polygon fill="midnightblue" stroke="midnightblue" points="25.8699,-479.763 22.1581,-469.839 18.8715,-479.912 25.8699,-479.763"/>
</g>
<!-- Node4 -->
<g id="node7" class="node"><title>Node4</title>
<a xlink:href="classsrc_1_1import_data_1_1_generate_workers_1_1_generate_workers.html" target="_top" xlink:title="Classe créant des ouvriers depuis d&#39;un fichier csv.Elle vérifie au préalable si l&#39;ouvrier existe ou n...">
<polygon fill="white" stroke="black" points="86,-792 86,-826 250,-826 250,-792 86,-792"/>
<text text-anchor="start" x="94" y="-813" font-family="Helvetica,sans-Serif" font-size="10.00">src.importData.GenerateWorkers.</text>
<text text-anchor="middle" x="168" y="-800" font-family="Helvetica,sans-Serif" font-size="10.00">GenerateWorkers</text>
</a>
</g>
<!-- Node1&#45;&gt;Node4 -->
<g id="edge6" class="edge"><title>Node1&#45;&gt;Node4</title>
<path fill="none" stroke="midnightblue" d="M22.9357,-479.761C26.2429,-543.969 39.4525,-737.721 80,-783 82.9757,-786.323 86.3532,-789.23 90.009,-791.772"/>
<polygon fill="midnightblue" stroke="midnightblue" points="26.426,-479.475 22.4433,-469.657 19.4343,-479.816 26.426,-479.475"/>
</g>
<!-- Node5 -->
<g id="node9" class="node"><title>Node5</title>
<a xlink:href="classsrc_1_1interfacebdd_1_1_abstract_d_a_o_1_1_abstract_d_a_o.html" target="_top" xlink:title="Classe abstraite AbstractDAO représentant une table en base de donnée. ">
<polygon fill="white" stroke="black" points="105,-740 105,-774 231,-774 231,-740 105,-740"/>
<text text-anchor="start" x="113" y="-761" font-family="Helvetica,sans-Serif" font-size="10.00">src.interfacebdd.Abstract</text>
<text text-anchor="middle" x="168" y="-748" font-family="Helvetica,sans-Serif" font-size="10.00">DAO.AbstractDAO</text>
</a>
</g>
<!-- Node1&#45;&gt;Node5 -->
<g id="edge8" class="edge"><title>Node1&#45;&gt;Node5</title>
<path fill="none" stroke="midnightblue" d="M23.711,-479.726C28.8226,-536.724 45.7917,-694.044 80,-731 86.8176,-738.365 95.6092,-743.68 104.99,-747.508"/>
<polygon fill="midnightblue" stroke="midnightblue" points="27.1951,-479.39 22.8451,-469.729 20.2212,-479.994 27.1951,-479.39"/>
</g>
<!-- Node6 -->
<g id="node11" class="node"><title>Node6</title>
<a xlink:href="classsrc_1_1interfacebdd_1_1_connexion_1_1_connexion.html" target="_top" xlink:title="src.interfacebdd.Connexion.\lConnexion">
<polygon fill="white" stroke="black" points="98.5,-688 98.5,-722 237.5,-722 237.5,-688 98.5,-688"/>
<text text-anchor="start" x="106.5" y="-709" font-family="Helvetica,sans-Serif" font-size="10.00">src.interfacebdd.Connexion.</text>
<text text-anchor="middle" x="168" y="-696" font-family="Helvetica,sans-Serif" font-size="10.00">Connexion</text>
</a>
</g>
<!-- Node1&#45;&gt;Node6 -->
<g id="edge10" class="edge"><title>Node1&#45;&gt;Node6</title>
<path fill="none" stroke="midnightblue" d="M24.8192,-479.56C31.9313,-528.546 52.0481,-650.211 80,-679 85.2157,-684.372 91.4825,-688.648 98.2385,-692.049"/>
<polygon fill="midnightblue" stroke="midnightblue" points="28.2642,-478.924 23.3964,-469.514 21.3334,-479.906 28.2642,-478.924"/>
</g>
<!-- Node7 -->
<g id="node13" class="node"><title>Node7</title>
<a xlink:href="classsrc_1_1optimisation_1_1pythondeap_1_1algo.html" target="_top" xlink:title="Classe algo qui définie toutes les fonctions utiles au déroulement de l&#39;algorithme. ">
<polygon fill="white" stroke="black" points="88,-648.5 88,-669.5 248,-669.5 248,-648.5 88,-648.5"/>
<text text-anchor="middle" x="168" y="-656.5" font-family="Helvetica,sans-Serif" font-size="10.00">src.optimisation.pythondeap.algo</text>
</a>
</g>
<!-- Node1&#45;&gt;Node7 -->
<g id="edge12" class="edge"><title>Node1&#45;&gt;Node7</title>
<path fill="none" stroke="midnightblue" d="M25.9734,-479.561C34.5792,-521.993 56.102,-617.123 80,-639 84.0447,-642.703 88.6284,-645.767 93.528,-648.298"/>
<polygon fill="midnightblue" stroke="midnightblue" points="29.3639,-478.665 23.9833,-469.538 22.4979,-480.028 29.3639,-478.665"/>
</g>
<!-- Node8 -->
<g id="node15" class="node"><title>Node8</title>
<a xlink:href="classsrc_1_1system_1_1_assignment_1_1_assignment.html" target="_top" xlink:title="Classe Assignment définissant une affectation. ">
<polygon fill="white" stroke="black" points="80.5,-608.5 80.5,-629.5 255.5,-629.5 255.5,-608.5 80.5,-608.5"/>
<text text-anchor="middle" x="168" y="-616.5" font-family="Helvetica,sans-Serif" font-size="10.00">src.system.Assignment.Assignment</text>
</a>
</g>
<!-- Node1&#45;&gt;Node8 -->
<g id="edge14" class="edge"><title>Node1&#45;&gt;Node8</title>
<path fill="none" stroke="midnightblue" d="M24.5885,-479.751C29.5739,-510.589 43.464,-568.179 80,-599 84.4309,-602.738 89.4193,-605.813 94.7114,-608.339"/>
<polygon fill="midnightblue" stroke="midnightblue" points="28.0297,-479.092 23.1292,-469.699 21.1023,-480.098 28.0297,-479.092"/>
</g>
<!-- Node9 -->
<g id="node17" class="node"><title>Node9</title>
<a xlink:href="classsrc_1_1system_1_1_car_1_1_car.html" target="_top" xlink:title="Classe représentant les véhicules. ">
<polygon fill="white" stroke="black" points="116.5,-568.5 116.5,-589.5 219.5,-589.5 219.5,-568.5 116.5,-568.5"/>
<text text-anchor="middle" x="168" y="-576.5" font-family="Helvetica,sans-Serif" font-size="10.00">src.system.Car.Car</text>
</a>
</g>
<!-- Node1&#45;&gt;Node9 -->
<g id="edge16" class="edge"><title>Node1&#45;&gt;Node9</title>
<path fill="none" stroke="midnightblue" d="M28.2977,-479.457C36.4532,-502.425 52.9265,-539.08 80,-559 90.4741,-566.707 103.407,-571.519 116.103,-574.502"/>
<polygon fill="midnightblue" stroke="midnightblue" points="31.5255,-478.073 25.0397,-469.695 24.8856,-480.289 31.5255,-478.073"/>
</g>
<!-- Node10 -->
<g id="node19" class="node"><title>Node10</title>
<a xlink:href="classsrc_1_1system_1_1_consumer_1_1_consumer.html" target="_top" xlink:title="Classe Consumer définissant un utilisateur. ">
<polygon fill="white" stroke="black" points="87.5,-528.5 87.5,-549.5 248.5,-549.5 248.5,-528.5 87.5,-528.5"/>
<text text-anchor="middle" x="168" y="-536.5" font-family="Helvetica,sans-Serif" font-size="10.00">src.system.Consumer.Consumer</text>
</a>
</g>
<!-- Node1&#45;&gt;Node10 -->
<g id="edge18" class="edge"><title>Node1&#45;&gt;Node10</title>
<path fill="none" stroke="midnightblue" d="M35.4332,-477.883C46.0255,-491.368 61.9817,-508.852 80,-519 86.8256,-522.844 94.342,-525.95 102.019,-528.458"/>
<polygon fill="midnightblue" stroke="midnightblue" points="38.0926,-475.597 29.2793,-469.717 32.5021,-479.809 38.0926,-475.597"/>
</g>
<!-- Node11 -->
<g id="node21" class="node"><title>Node11</title>
<a xlink:href="classsrc_1_1system_1_1_craft_1_1_craft.html" target="_top" xlink:title="Classe représentant le métier d&#39;un ouvrier. ">
<polygon fill="white" stroke="black" points="110.5,-488.5 110.5,-509.5 225.5,-509.5 225.5,-488.5 110.5,-488.5"/>
<text text-anchor="middle" x="168" y="-496.5" font-family="Helvetica,sans-Serif" font-size="10.00">src.system.Craft.Craft</text>
</a>
</g>
<!-- Node1&#45;&gt;Node11 -->
<g id="edge20" class="edge"><title>Node1&#45;&gt;Node11</title>
<path fill="none" stroke="midnightblue" d="M53.2489,-470.471C61.8579,-473.441 71.239,-476.502 80,-479 91.9028,-482.394 104.84,-485.598 117.039,-488.406"/>
<polygon fill="midnightblue" stroke="midnightblue" points="54.1757,-467.087 43.5809,-467.067 51.8507,-473.689 54.1757,-467.087"/>
</g>
<!-- Node12 -->
<g id="node23" class="node"><title>Node12</title>
<a xlink:href="classsrc_1_1system_1_1_need_1_1_need.html" target="_top" xlink:title="Classe Need définissant un besoin. ">
<polygon fill="white" stroke="black" points="109,-448.5 109,-469.5 227,-469.5 227,-448.5 109,-448.5"/>
<text text-anchor="middle" x="168" y="-456.5" font-family="Helvetica,sans-Serif" font-size="10.00">src.system.Need.Need</text>
</a>
</g>
<!-- Node1&#45;&gt;Node12 -->
<g id="edge22" class="edge"><title>Node1&#45;&gt;Node12</title>
<path fill="none" stroke="midnightblue" d="M53.9802,-459C70.0553,-459 90.0595,-459 108.804,-459"/>
<polygon fill="midnightblue" stroke="midnightblue" points="53.5428,-455.5 43.5428,-459 53.5428,-462.5 53.5428,-455.5"/>
</g>
<!-- Node13 -->
<g id="node25" class="node"><title>Node13</title>
<a xlink:href="classsrc_1_1system_1_1_passenger_1_1_passenger.html" target="_top" xlink:title="Classe représentant les liens passagers/navettes. ">
<polygon fill="white" stroke="black" points="86,-408.5 86,-429.5 250,-429.5 250,-408.5 86,-408.5"/>
<text text-anchor="middle" x="168" y="-416.5" font-family="Helvetica,sans-Serif" font-size="10.00">src.system.Passenger.Passenger</text>
</a>
</g>
<!-- Node1&#45;&gt;Node13 -->
<g id="edge24" class="edge"><title>Node1&#45;&gt;Node13</title>
<path fill="none" stroke="midnightblue" d="M53.2489,-447.529C61.8579,-444.559 71.239,-441.498 80,-439 91.9028,-435.606 104.84,-432.402 117.039,-429.594"/>
<polygon fill="midnightblue" stroke="midnightblue" points="51.8507,-444.311 43.5809,-450.933 54.1757,-450.913 51.8507,-444.311"/>
</g>
<!-- Node14 -->
<g id="node27" class="node"><title>Node14</title>
<a xlink:href="classsrc_1_1system_1_1_phase_1_1_phase.html" target="_top" xlink:title="Classe Phase définissant une période d&#39;une semaine pour un chantier. ">
<polygon fill="white" stroke="black" points="104.5,-368.5 104.5,-389.5 231.5,-389.5 231.5,-368.5 104.5,-368.5"/>
<text text-anchor="middle" x="168" y="-376.5" font-family="Helvetica,sans-Serif" font-size="10.00">src.system.Phase.Phase</text>
</a>
</g>
<!-- Node1&#45;&gt;Node14 -->
<g id="edge26" class="edge"><title>Node1&#45;&gt;Node14</title>
<path fill="none" stroke="midnightblue" d="M35.4332,-440.117C46.0255,-426.632 61.9817,-409.148 80,-399 87.5082,-394.771 95.8521,-391.437 104.326,-388.807"/>
<polygon fill="midnightblue" stroke="midnightblue" points="32.5021,-438.191 29.2793,-448.283 38.0926,-442.403 32.5021,-438.191"/>
</g>
<!-- Node15 -->
<g id="node29" class="node"><title>Node15</title>
<a xlink:href="classsrc_1_1system_1_1_qualification_1_1_qualification.html" target="_top" xlink:title="Classe symbolisant la qualification d&#39;un ouvrier. ">
<polygon fill="white" stroke="black" points="105.5,-316 105.5,-350 230.5,-350 230.5,-316 105.5,-316"/>
<text text-anchor="start" x="113.5" y="-337" font-family="Helvetica,sans-Serif" font-size="10.00">src.system.Qualification.</text>
<text text-anchor="middle" x="168" y="-324" font-family="Helvetica,sans-Serif" font-size="10.00">Qualification</text>
</a>
</g>
<!-- Node1&#45;&gt;Node15 -->
<g id="edge28" class="edge"><title>Node1&#45;&gt;Node15</title>
<path fill="none" stroke="midnightblue" d="M28.5305,-438.849C36.9021,-416.165 53.5757,-379.774 80,-359 87.5143,-353.093 96.3403,-348.526 105.45,-344.996"/>
<polygon fill="midnightblue" stroke="midnightblue" points="25.1605,-437.884 25.172,-448.479 31.77,-440.189 25.1605,-437.884"/>
</g>
<!-- Node16 -->
<g id="node31" class="node"><title>Node16</title>
<a xlink:href="classsrc_1_1system_1_1_shuttle_1_1_shuttle.html" target="_top" xlink:title="Classe représentant les navettes (un lien entre un véhicule, un conducteur et une phase) ...">
<polygon fill="white" stroke="black" points="101.5,-276.5 101.5,-297.5 234.5,-297.5 234.5,-276.5 101.5,-276.5"/>
<text text-anchor="middle" x="168" y="-284.5" font-family="Helvetica,sans-Serif" font-size="10.00">src.system.Shuttle.Shuttle</text>
</a>
</g>
<!-- Node1&#45;&gt;Node16 -->
<g id="edge30" class="edge"><title>Node1&#45;&gt;Node16</title>
<path fill="none" stroke="midnightblue" d="M23.8514,-437.925C27.9228,-404.876 40.6949,-341.118 80,-307 86.1524,-301.659 93.4363,-297.663 101.138,-294.686"/>
<polygon fill="midnightblue" stroke="midnightblue" points="20.332,-437.918 22.7448,-448.235 27.292,-438.665 20.332,-437.918"/>
</g>
<!-- Node17 -->
<g id="node33" class="node"><title>Node17</title>
<a xlink:href="classsrc_1_1system_1_1_site_1_1_site.html" target="_top" xlink:title="Classe Site définissant un chantier. ">
<polygon fill="white" stroke="black" points="115,-236.5 115,-257.5 221,-257.5 221,-236.5 115,-236.5"/>
<text text-anchor="middle" x="168" y="-244.5" font-family="Helvetica,sans-Serif" font-size="10.00">src.system.Site.Site</text>
</a>
</g>
<!-- Node1&#45;&gt;Node17 -->
<g id="edge32" class="edge"><title>Node1&#45;&gt;Node17</title>
<path fill="none" stroke="midnightblue" d="M25.5617,-438.281C33.6421,-393.67 54.644,-290.643 80,-267 89.5108,-258.132 102.105,-252.912 114.783,-249.906"/>
<polygon fill="midnightblue" stroke="midnightblue" points="22.0884,-437.824 23.791,-448.281 28.9812,-439.044 22.0884,-437.824"/>
</g>
<!-- Node18 -->
<g id="node35" class="node"><title>Node18</title>
<a xlink:href="classsrc_1_1system_1_1_system_1_1_system.html" target="_top" xlink:title="src.system.System.System">
<polygon fill="white" stroke="black" points="98.5,-196.5 98.5,-217.5 237.5,-217.5 237.5,-196.5 98.5,-196.5"/>
<text text-anchor="middle" x="168" y="-204.5" font-family="Helvetica,sans-Serif" font-size="10.00">src.system.System.System</text>
</a>
</g>
<!-- Node1&#45;&gt;Node18 -->
<g id="edge34" class="edge"><title>Node1&#45;&gt;Node18</title>
<path fill="none" stroke="midnightblue" d="M24.411,-438.239C30.7763,-387.032 49.6566,-256.698 80,-227 85.2626,-221.849 91.559,-217.916 98.3322,-214.926"/>
<polygon fill="midnightblue" stroke="midnightblue" points="20.9056,-438.074 23.182,-448.422 27.8551,-438.913 20.9056,-438.074"/>
</g>
<!-- Node19 -->
<g id="node37" class="node"><title>Node19</title>
<a xlink:href="classsrc_1_1system_1_1_worker_1_1_worker.html" target="_top" xlink:title="Classe worker définissant un ouvrier. ">
<polygon fill="white" stroke="black" points="101,-156.5 101,-177.5 235,-177.5 235,-156.5 101,-156.5"/>
<text text-anchor="middle" x="168" y="-164.5" font-family="Helvetica,sans-Serif" font-size="10.00">src.system.Worker.Worker</text>
</a>
</g>
<!-- Node1&#45;&gt;Node19 -->
<g id="edge36" class="edge"><title>Node1&#45;&gt;Node19</title>
<path fill="none" stroke="midnightblue" d="M23.5915,-438.16C28.3924,-380.865 44.6303,-222.846 80,-187 85.8322,-181.089 93.0213,-176.769 100.756,-173.633"/>
<polygon fill="midnightblue" stroke="midnightblue" points="20.0963,-437.961 22.7815,-448.21 27.0736,-438.524 20.0963,-437.961"/>
</g>
<!-- Node20 -->
<g id="node39" class="node"><title>Node20</title>
<a xlink:href="classsrc_1_1util_1_1profilehooks_1_1_func_profile.html" target="_top" xlink:title="Profiler for a function (uses profile). ">
<polygon fill="white" stroke="black" points="105,-104 105,-138 231,-138 231,-104 105,-104"/>
<text text-anchor="start" x="113" y="-125" font-family="Helvetica,sans-Serif" font-size="10.00">src.util.profilehooks.Func</text>
<text text-anchor="middle" x="168" y="-112" font-family="Helvetica,sans-Serif" font-size="10.00">Profile</text>
</a>
</g>
<!-- Node1&#45;&gt;Node20 -->
<g id="edge38" class="edge"><title>Node1&#45;&gt;Node20</title>
<path fill="none" stroke="midnightblue" d="M23.0952,-438.199C26.8065,-375.556 40.9296,-190.338 80,-147 86.7202,-139.546 95.4623,-134.186 104.824,-130.341"/>
<polygon fill="midnightblue" stroke="midnightblue" points="19.5882,-438.227 22.5198,-448.408 26.5771,-438.621 19.5882,-438.227"/>
</g>
<!-- Node22 -->
<g id="node43" class="node"><title>Node22</title>
<a xlink:href="classsrc_1_1util_1_1profilehooks_1_1_func_timer.html" target="_top" xlink:title="src.util.profilehooks.Func\lTimer">
<polygon fill="white" stroke="black" points="105,-52 105,-86 231,-86 231,-52 105,-52"/>
<text text-anchor="start" x="113" y="-73" font-family="Helvetica,sans-Serif" font-size="10.00">src.util.profilehooks.Func</text>
<text text-anchor="middle" x="168" y="-60" font-family="Helvetica,sans-Serif" font-size="10.00">Timer</text>
</a>
</g>
<!-- Node1&#45;&gt;Node22 -->
<g id="edge42" class="edge"><title>Node1&#45;&gt;Node22</title>
<path fill="none" stroke="midnightblue" d="M22.4923,-437.986C24.5457,-368.358 34.5946,-146.69 80,-95 86.6235,-87.4597 95.3165,-82.056 104.659,-78.194"/>
<polygon fill="midnightblue" stroke="midnightblue" points="18.9892,-438.055 22.2189,-448.146 25.9867,-438.244 18.9892,-438.055"/>
</g>
<!-- Node23 -->
<g id="node45" class="node"><title>Node23</title>
<a xlink:href="classsrc_1_1util_1_1profilehooks_1_1_hot_shot_func_profile.html" target="_top" xlink:title="Profiler for a function (uses hotshot). ">
<polygon fill="white" stroke="black" points="108,-0 108,-34 228,-34 228,-0 108,-0"/>
<text text-anchor="start" x="116" y="-21" font-family="Helvetica,sans-Serif" font-size="10.00">src.util.profilehooks.Hot</text>
<text text-anchor="middle" x="168" y="-8" font-family="Helvetica,sans-Serif" font-size="10.00">ShotFuncProfile</text>
</a>
</g>
<!-- Node1&#45;&gt;Node23 -->
<g id="edge44" class="edge"><title>Node1&#45;&gt;Node23</title>
<path fill="none" stroke="midnightblue" d="M23.5916,-438.105C29.8707,-357.983 53.8624,-73.3464 80,-43 87.2775,-34.5506 97.1548,-28.778 107.666,-24.8501"/>
<polygon fill="midnightblue" stroke="midnightblue" points="20.0779,-438.147 22.7955,-448.387 27.057,-438.687 20.0779,-438.147"/>
</g>
<!-- Node21 -->
<g id="node41" class="node"><title>Node21</title>
<a xlink:href="classsrc_1_1util_1_1profilehooks_1_1_c_profile_func_profile.html" target="_top" xlink:title="Profiler for a function (uses cProfile). ">
<polygon fill="white" stroke="black" points="292,-104 292,-138 432,-138 432,-104 292,-104"/>
<text text-anchor="start" x="300" y="-125" font-family="Helvetica,sans-Serif" font-size="10.00">src.util.profilehooks.CProfile</text>
<text text-anchor="middle" x="362" y="-112" font-family="Helvetica,sans-Serif" font-size="10.00">FuncProfile</text>
</a>
</g>
<!-- Node20&#45;&gt;Node21 -->
<g id="edge40" class="edge"><title>Node20&#45;&gt;Node21</title>
<path fill="none" stroke="midnightblue" d="M241.395,-121C257.912,-121 275.402,-121 291.785,-121"/>
<polygon fill="midnightblue" stroke="midnightblue" points="241.254,-117.5 231.254,-121 241.254,-124.5 241.254,-117.5"/>
</g>
</g>
</svg>
