<?xml version="1.0" encoding="UTF-8" standalone="no"?>
<!DOCTYPE svg PUBLIC "-//W3C//DTD SVG 1.1//EN"
 "http://www.w3.org/Graphics/SVG/1.1/DTD/svg11.dtd">
<!-- Generated by graphviz version 2.26.3 (20100126.1600)
 -->
<!-- Title: Graphe hiérarchique des classes Pages: 1 -->
<svg width="298pt" height="562pt"
 viewBox="0.00 0.00 298.00 562.00" xmlns="http://www.w3.org/2000/svg" xmlns:xlink="http://www.w3.org/1999/xlink">
<g id="graph1" class="graph" transform="scale(1 1) rotate(0) translate(4 558)">
<title>Graphe hiérarchique des classes</title>
<polygon fill="white" stroke="white" points="-4,5 -4,-558 295,-558 295,5 -4,5"/>
<!-- Node1 -->
<g id="node1" class="node"><title>Node1</title>
<polygon fill="white" stroke="#bfbfbf" points="0.5,-266.5 0.5,-287.5 59.5,-287.5 59.5,-266.5 0.5,-266.5"/>
<text text-anchor="middle" x="30" y="-274.5" font-family="Helvetica,sans-Serif" font-size="10.00">TestCase</text>
</g>
<!-- Node2 -->
<g id="node3" class="node"><title>Node2</title>
<a xlink:href="classsrc_1_1tests_1_1interfacebdd_1_1test__car_d_a_o_1_1test__car_d_a_o.html" target="_top" xlink:title="Test the stand&#45;alone module functions. ">
<polygon fill="white" stroke="black" points="127.5,-520 127.5,-554 258.5,-554 258.5,-520 127.5,-520"/>
<text text-anchor="start" x="135.5" y="-541" font-family="Helvetica,sans-Serif" font-size="10.00">src.tests.interfacebdd.test</text>
<text text-anchor="middle" x="193" y="-528" font-family="Helvetica,sans-Serif" font-size="10.00">_carDAO.test_carDAO</text>
</a>
</g>
<!-- Node1&#45;&gt;Node2 -->
<g id="edge2" class="edge"><title>Node1&#45;&gt;Node2</title>
<path fill="none" stroke="midnightblue" d="M33.1531,-297.571C41.4179,-348.888 65.2141,-480.613 96,-511 104.562,-519.451 115.555,-525.235 127.047,-529.176"/>
<polygon fill="midnightblue" stroke="midnightblue" points="36.603,-296.979 31.588,-287.646 29.6884,-298.069 36.603,-296.979"/>
</g>
<!-- Node3 -->
<g id="node5" class="node"><title>Node3</title>
<a xlink:href="classsrc_1_1tests_1_1interfacebdd_1_1test__craft_d_a_o_1_1test__craft_d_a_o.html" target="_top" xlink:title="Test the stand&#45;alone module functions. ">
<polygon fill="white" stroke="black" points="127.5,-468 127.5,-502 258.5,-502 258.5,-468 127.5,-468"/>
<text text-anchor="start" x="135.5" y="-489" font-family="Helvetica,sans-Serif" font-size="10.00">src.tests.interfacebdd.test</text>
<text text-anchor="middle" x="193" y="-476" font-family="Helvetica,sans-Serif" font-size="10.00">_craftDAO.test_craftDAO</text>
</a>
</g>
<!-- Node1&#45;&gt;Node3 -->
<g id="edge4" class="edge"><title>Node1&#45;&gt;Node3</title>
<path fill="none" stroke="midnightblue" d="M31.4966,-298.257C35.3369,-336.224 48.8671,-415.756 96,-459 104.8,-467.074 115.836,-472.689 127.281,-476.582"/>
<polygon fill="midnightblue" stroke="midnightblue" points="34.9483,-297.552 30.5894,-287.895 27.975,-298.162 34.9483,-297.552"/>
</g>
<!-- Node4 -->
<g id="node7" class="node"><title>Node4</title>
<a xlink:href="classsrc_1_1tests_1_1interfacebdd_1_1test__need_d_a_o_1_1test__need_d_a_o.html" target="_top" xlink:title="Test the stand&#45;alone module functions. ">
<polygon fill="white" stroke="black" points="127,-416 127,-450 259,-450 259,-416 127,-416"/>
<text text-anchor="start" x="135" y="-437" font-family="Helvetica,sans-Serif" font-size="10.00">src.tests.interfacebdd.test</text>
<text text-anchor="middle" x="193" y="-424" font-family="Helvetica,sans-Serif" font-size="10.00">_needDAO.test_needDAO</text>
</a>
</g>
<!-- Node1&#45;&gt;Node4 -->
<g id="edge6" class="edge"><title>Node1&#45;&gt;Node4</title>
<path fill="none" stroke="midnightblue" d="M34.7552,-297.405C42.5401,-326.205 60.7883,-378.441 96,-407 104.937,-414.248 115.713,-419.488 126.786,-423.272"/>
<polygon fill="midnightblue" stroke="midnightblue" points="38.1226,-296.445 32.2704,-287.613 31.3377,-298.167 38.1226,-296.445"/>
</g>
<!-- Node5 -->
<g id="node9" class="node"><title>Node5</title>
<a xlink:href="classsrc_1_1tests_1_1interfacebdd_1_1test__passenger_d_a_o_1_1test__passenger_d_a_o.html" target="_top" xlink:title="Test the stand&#45;alone module functions. ">
<polygon fill="white" stroke="black" points="103,-364 103,-398 283,-398 283,-364 103,-364"/>
<text text-anchor="start" x="111" y="-385" font-family="Helvetica,sans-Serif" font-size="10.00">src.tests.interfacebdd.test</text>
<text text-anchor="middle" x="193" y="-372" font-family="Helvetica,sans-Serif" font-size="10.00">_passengerDAO.test_passengerDAO</text>
</a>
</g>
<!-- Node1&#45;&gt;Node5 -->
<g id="edge8" class="edge"><title>Node1&#45;&gt;Node5</title>
<path fill="none" stroke="midnightblue" d="M41.6263,-296.59C53.2114,-314.426 72.617,-340.17 96,-355 101.3,-358.362 107.028,-361.292 112.958,-363.846"/>
<polygon fill="midnightblue" stroke="midnightblue" points="44.2859,-294.242 36.019,-287.615 38.3492,-297.951 44.2859,-294.242"/>
</g>
<!-- Node6 -->
<g id="node11" class="node"><title>Node6</title>
<a xlink:href="classsrc_1_1tests_1_1interfacebdd_1_1test__pickup_d_a_o_1_1test__pickup_d_a_o.html" target="_top" xlink:title="Test the stand&#45;alone module functions. ">
<polygon fill="white" stroke="black" points="119.5,-312 119.5,-346 266.5,-346 266.5,-312 119.5,-312"/>
<text text-anchor="start" x="127.5" y="-333" font-family="Helvetica,sans-Serif" font-size="10.00">src.tests.interfacebdd.test</text>
<text text-anchor="middle" x="193" y="-320" font-family="Helvetica,sans-Serif" font-size="10.00">_pickupDAO.test_pickupDAO</text>
</a>
</g>
<!-- Node1&#45;&gt;Node6 -->
<g id="edge10" class="edge"><title>Node1&#45;&gt;Node6</title>
<path fill="none" stroke="midnightblue" d="M64.1826,-291.318C74.3365,-295.339 85.5415,-299.551 96,-303 105.438,-306.113 115.482,-309.128 125.394,-311.936"/>
<polygon fill="midnightblue" stroke="midnightblue" points="65.4118,-288.04 54.8282,-287.552 62.7978,-294.533 65.4118,-288.04"/>
</g>
<!-- Node7 -->
<g id="node13" class="node"><title>Node7</title>
<a xlink:href="classsrc_1_1tests_1_1interfacebdd_1_1test__pickup_link_d_a_o_1_1test__pickup_link_d_a_o.html" target="_top" xlink:title="Test the stand&#45;alone module functions. ">
<polygon fill="white" stroke="black" points="101.5,-260 101.5,-294 284.5,-294 284.5,-260 101.5,-260"/>
<text text-anchor="start" x="109.5" y="-281" font-family="Helvetica,sans-Serif" font-size="10.00">src.tests.interfacebdd.test</text>
<text text-anchor="middle" x="193" y="-268" font-family="Helvetica,sans-Serif" font-size="10.00">_pickupLinkDAO.test_pickupLinkDAO</text>
</a>
</g>
<!-- Node1&#45;&gt;Node7 -->
<g id="edge12" class="edge"><title>Node1&#45;&gt;Node7</title>
<path fill="none" stroke="midnightblue" d="M69.6034,-277C79.3297,-277 90.1495,-277 101.226,-277"/>
<polygon fill="midnightblue" stroke="midnightblue" points="69.5181,-273.5 59.5181,-277 69.518,-280.5 69.5181,-273.5"/>
</g>
<!-- Node8 -->
<g id="node15" class="node"><title>Node8</title>
<a xlink:href="classsrc_1_1tests_1_1interfacebdd_1_1test__position_d_a_o_1_1test__position_d_a_o.html" target="_top" xlink:title="Test the stand&#45;alone module functions. ">
<polygon fill="white" stroke="black" points="114,-208 114,-242 272,-242 272,-208 114,-208"/>
<text text-anchor="start" x="122" y="-229" font-family="Helvetica,sans-Serif" font-size="10.00">src.tests.interfacebdd.test</text>
<text text-anchor="middle" x="193" y="-216" font-family="Helvetica,sans-Serif" font-size="10.00">_positionDAO.test_positionDAO</text>
</a>
</g>
<!-- Node1&#45;&gt;Node8 -->
<g id="edge14" class="edge"><title>Node1&#45;&gt;Node8</title>
<path fill="none" stroke="midnightblue" d="M64.1826,-262.682C74.3365,-258.661 85.5415,-254.449 96,-251 105.438,-247.887 115.482,-244.872 125.394,-242.064"/>
<polygon fill="midnightblue" stroke="midnightblue" points="62.7978,-259.467 54.8282,-266.448 65.4118,-265.96 62.7978,-259.467"/>
</g>
<!-- Node9 -->
<g id="node17" class="node"><title>Node9</title>
<a xlink:href="classsrc_1_1tests_1_1interfacebdd_1_1test__qualification_d_a_o_1_1test__qualification_d_a_o.html" target="_top" xlink:title="Test the stand&#45;alone module functions. ">
<polygon fill="white" stroke="black" points="96,-156 96,-190 290,-190 290,-156 96,-156"/>
<text text-anchor="start" x="104" y="-177" font-family="Helvetica,sans-Serif" font-size="10.00">src.tests.interfacebdd.test</text>
<text text-anchor="middle" x="193" y="-164" font-family="Helvetica,sans-Serif" font-size="10.00">_qualificationDAO.test_qualificationDAO</text>
</a>
</g>
<!-- Node1&#45;&gt;Node9 -->
<g id="edge16" class="edge"><title>Node1&#45;&gt;Node9</title>
<path fill="none" stroke="midnightblue" d="M41.6263,-257.41C53.2114,-239.574 72.617,-213.83 96,-199 101.3,-195.638 107.028,-192.708 112.958,-190.154"/>
<polygon fill="midnightblue" stroke="midnightblue" points="38.3492,-256.049 36.019,-266.385 44.2859,-259.758 38.3492,-256.049"/>
</g>
<!-- Node10 -->
<g id="node19" class="node"><title>Node10</title>
<a xlink:href="classsrc_1_1tests_1_1interfacebdd_1_1test__shuttle_d_a_o_1_1test__shuttle_d_a_o.html" target="_top" xlink:title="Test the stand&#45;alone module functions. ">
<polygon fill="white" stroke="black" points="118.5,-104 118.5,-138 267.5,-138 267.5,-104 118.5,-104"/>
<text text-anchor="start" x="126.5" y="-125" font-family="Helvetica,sans-Serif" font-size="10.00">src.tests.interfacebdd.test</text>
<text text-anchor="middle" x="193" y="-112" font-family="Helvetica,sans-Serif" font-size="10.00">_shuttleDAO.test_shuttleDAO</text>
</a>
</g>
<!-- Node1&#45;&gt;Node10 -->
<g id="edge18" class="edge"><title>Node1&#45;&gt;Node10</title>
<path fill="none" stroke="midnightblue" d="M34.7552,-256.595C42.5401,-227.795 60.7883,-175.559 96,-147 102.635,-141.619 110.284,-137.345 118.315,-133.952"/>
<polygon fill="midnightblue" stroke="midnightblue" points="31.3377,-255.833 32.2704,-266.387 38.1226,-257.555 31.3377,-255.833"/>
</g>
<!-- Node11 -->
<g id="node21" class="node"><title>Node11</title>
<a xlink:href="classsrc_1_1tests_1_1interfacebdd_1_1test__site_d_a_o_1_1test__site_d_a_o.html" target="_top" xlink:title="Test the stand&#45;alone module functions. ">
<polygon fill="white" stroke="black" points="127.5,-52 127.5,-86 258.5,-86 258.5,-52 127.5,-52"/>
<text text-anchor="start" x="135.5" y="-73" font-family="Helvetica,sans-Serif" font-size="10.00">src.tests.interfacebdd.test</text>
<text text-anchor="middle" x="193" y="-60" font-family="Helvetica,sans-Serif" font-size="10.00">_siteDAO.test_siteDAO</text>
</a>
</g>
<!-- Node1&#45;&gt;Node11 -->
<g id="edge20" class="edge"><title>Node1&#45;&gt;Node11</title>
<path fill="none" stroke="midnightblue" d="M31.4966,-255.743C35.3369,-217.776 48.8671,-138.244 96,-95 104.8,-86.926 115.836,-81.3113 127.281,-77.4179"/>
<polygon fill="midnightblue" stroke="midnightblue" points="27.975,-255.838 30.5894,-266.105 34.9483,-256.448 27.975,-255.838"/>
</g>
<!-- Node12 -->
<g id="node23" class="node"><title>Node12</title>
<a xlink:href="classsrc_1_1tests_1_1interfacebdd_1_1test__worker_d_a_o_1_1test__worker_d_a_o.html" target="_top" xlink:title="Test the stand&#45;alone module functions. ">
<polygon fill="white" stroke="black" points="118.5,-0 118.5,-34 267.5,-34 267.5,-0 118.5,-0"/>
<text text-anchor="start" x="126.5" y="-21" font-family="Helvetica,sans-Serif" font-size="10.00">src.tests.interfacebdd.test</text>
<text text-anchor="middle" x="193" y="-8" font-family="Helvetica,sans-Serif" font-size="10.00">_workerDAO.test_workerDAO</text>
</a>
</g>
<!-- Node1&#45;&gt;Node12 -->
<g id="edge22" class="edge"><title>Node1&#45;&gt;Node12</title>
<path fill="none" stroke="midnightblue" d="M33.1531,-256.429C41.4179,-205.112 65.2141,-73.3875 96,-43 102.328,-36.7537 109.985,-31.9642 118.189,-28.2991"/>
<polygon fill="midnightblue" stroke="midnightblue" points="29.6884,-255.931 31.588,-266.354 36.603,-257.021 29.6884,-255.931"/>
</g>
</g>
</svg>
