<?xml version="1.0" encoding="UTF-8" standalone="no"?>
<!DOCTYPE svg PUBLIC "-//W3C//DTD SVG 1.1//EN"
 "http://www.w3.org/Graphics/SVG/1.1/DTD/svg11.dtd">
<!-- Generated by graphviz version 2.26.3 (20100126.1600)
 -->
<!-- Title: Graphe hiérarchique des classes Pages: 1 -->
<svg width="266pt" height="666pt"
 viewBox="0.00 0.00 266.00 666.00" xmlns="http://www.w3.org/2000/svg" xmlns:xlink="http://www.w3.org/1999/xlink">
<g id="graph1" class="graph" transform="scale(1 1) rotate(0) translate(4 662)">
<title>Graphe hiérarchique des classes</title>
<polygon fill="white" stroke="white" points="-4,5 -4,-662 263,-662 263,5 -4,5"/>
<!-- Node1 -->
<g id="node1" class="node"><title>Node1</title>
<polygon fill="white" stroke="#bfbfbf" points="0.5,-318.5 0.5,-339.5 75.5,-339.5 75.5,-318.5 0.5,-318.5"/>
<text text-anchor="middle" x="38" y="-326.5" font-family="Helvetica,sans-Serif" font-size="10.00">AbstractDAO</text>
</g>
<!-- Node2 -->
<g id="node3" class="node"><title>Node2</title>
<a xlink:href="classsrc_1_1interfacebdd_1_1_assignment_d_a_o_1_1_assignment_d_a_o.html" target="_top" xlink:title="src.interfacebdd.Assignment\lDAO.AssignmentDAO">
<polygon fill="white" stroke="black" points="114.5,-624 114.5,-658 255.5,-658 255.5,-624 114.5,-624"/>
<text text-anchor="start" x="122.5" y="-645" font-family="Helvetica,sans-Serif" font-size="10.00">src.interfacebdd.Assignment</text>
<text text-anchor="middle" x="185" y="-632" font-family="Helvetica,sans-Serif" font-size="10.00">DAO.AssignmentDAO</text>
</a>
</g>
<!-- Node1&#45;&gt;Node2 -->
<g id="edge2" class="edge"><title>Node1&#45;&gt;Node2</title>
<path fill="none" stroke="midnightblue" d="M40.7922,-349.562C49.1499,-408.318 75.6573,-575.271 112,-615 115.087,-618.375 118.642,-621.312 122.486,-623.868"/>
<polygon fill="midnightblue" stroke="midnightblue" points="44.2525,-349.034 39.4047,-339.613 37.3196,-350.001 44.2525,-349.034"/>
</g>
<!-- Node3 -->
<g id="node5" class="node"><title>Node3</title>
<a xlink:href="classsrc_1_1interfacebdd_1_1_car_d_a_o_1_1_car_d_a_o.html" target="_top" xlink:title="src.interfacebdd.CarDAO.\lCarDAO">
<polygon fill="white" stroke="black" points="120,-572 120,-606 250,-606 250,-572 120,-572"/>
<text text-anchor="start" x="128" y="-593" font-family="Helvetica,sans-Serif" font-size="10.00">src.interfacebdd.CarDAO.</text>
<text text-anchor="middle" x="185" y="-580" font-family="Helvetica,sans-Serif" font-size="10.00">CarDAO</text>
</a>
</g>
<!-- Node1&#45;&gt;Node3 -->
<g id="edge4" class="edge"><title>Node1&#45;&gt;Node3</title>
<path fill="none" stroke="midnightblue" d="M42.0362,-349.448C52.4768,-400.474 81.6829,-531.576 112,-563 115.269,-566.389 119.009,-569.337 123.03,-571.901"/>
<polygon fill="midnightblue" stroke="midnightblue" points="45.4542,-348.691 40.048,-339.58 38.5921,-350.074 45.4542,-348.691"/>
</g>
<!-- Node4 -->
<g id="node7" class="node"><title>Node4</title>
<a xlink:href="classsrc_1_1interfacebdd_1_1_craft_d_a_o_1_1_craft_d_a_o.html" target="_top" xlink:title="src.interfacebdd.CraftDAO.\lCraftDAO">
<polygon fill="white" stroke="black" points="117,-520 117,-554 253,-554 253,-520 117,-520"/>
<text text-anchor="start" x="125" y="-541" font-family="Helvetica,sans-Serif" font-size="10.00">src.interfacebdd.CraftDAO.</text>
<text text-anchor="middle" x="185" y="-528" font-family="Helvetica,sans-Serif" font-size="10.00">CraftDAO</text>
</a>
</g>
<!-- Node1&#45;&gt;Node4 -->
<g id="edge6" class="edge"><title>Node1&#45;&gt;Node4</title>
<path fill="none" stroke="midnightblue" d="M40.8524,-349.934C47.035,-387.385 65.0997,-466.12 112,-511 115.499,-514.348 119.458,-517.269 123.678,-519.817"/>
<polygon fill="midnightblue" stroke="midnightblue" points="44.2626,-349.079 39.2964,-339.72 37.3424,-350.133 44.2626,-349.079"/>
</g>
<!-- Node5 -->
<g id="node9" class="node"><title>Node5</title>
<a xlink:href="classsrc_1_1interfacebdd_1_1_need_d_a_o_1_1_need_d_a_o.html" target="_top" xlink:title="src.interfacebdd.NeedDAO.\lNeedDAO">
<polygon fill="white" stroke="black" points="116.5,-468 116.5,-502 253.5,-502 253.5,-468 116.5,-468"/>
<text text-anchor="start" x="124.5" y="-489" font-family="Helvetica,sans-Serif" font-size="10.00">src.interfacebdd.NeedDAO.</text>
<text text-anchor="middle" x="185" y="-476" font-family="Helvetica,sans-Serif" font-size="10.00">NeedDAO</text>
</a>
</g>
<!-- Node1&#45;&gt;Node5 -->
<g id="edge8" class="edge"><title>Node1&#45;&gt;Node5</title>
<path fill="none" stroke="midnightblue" d="M44.5184,-349.469C54.5812,-377.919 76.5309,-429.262 112,-459 116.021,-462.371 120.511,-465.318 125.233,-467.893"/>
<polygon fill="midnightblue" stroke="midnightblue" points="47.7604,-348.13 41.2404,-339.779 41.1295,-350.373 47.7604,-348.13"/>
</g>
<!-- Node6 -->
<g id="node11" class="node"><title>Node6</title>
<a xlink:href="classsrc_1_1interfacebdd_1_1_passenger_d_a_o_1_1_passenger_d_a_o.html" target="_top" xlink:title="src.interfacebdd.Passenger\lDAO.PassengerDAO">
<polygon fill="white" stroke="black" points="117,-416 117,-450 253,-450 253,-416 117,-416"/>
<text text-anchor="start" x="125" y="-437" font-family="Helvetica,sans-Serif" font-size="10.00">src.interfacebdd.Passenger</text>
<text text-anchor="middle" x="185" y="-424" font-family="Helvetica,sans-Serif" font-size="10.00">DAO.PassengerDAO</text>
</a>
</g>
<!-- Node1&#45;&gt;Node6 -->
<g id="edge10" class="edge"><title>Node1&#45;&gt;Node6</title>
<path fill="none" stroke="midnightblue" d="M51.7019,-347.906C65.2587,-365.402 87.4864,-391.047 112,-407 117.074,-410.302 122.62,-413.247 128.315,-415.858"/>
<polygon fill="midnightblue" stroke="midnightblue" points="54.2508,-345.473 45.4367,-339.593 48.6608,-349.686 54.2508,-345.473"/>
</g>
<!-- Node7 -->
<g id="node13" class="node"><title>Node7</title>
<a xlink:href="classsrc_1_1interfacebdd_1_1_phase_d_a_o_1_1_phase_d_a_o.html" target="_top" xlink:title="src.interfacebdd.PhaseDAO.\lPhaseDAO">
<polygon fill="white" stroke="black" points="114,-364 114,-398 256,-398 256,-364 114,-364"/>
<text text-anchor="start" x="122" y="-385" font-family="Helvetica,sans-Serif" font-size="10.00">src.interfacebdd.PhaseDAO.</text>
<text text-anchor="middle" x="185" y="-372" font-family="Helvetica,sans-Serif" font-size="10.00">PhaseDAO</text>
</a>
</g>
<!-- Node1&#45;&gt;Node7 -->
<g id="edge12" class="edge"><title>Node1&#45;&gt;Node7</title>
<path fill="none" stroke="midnightblue" d="M77.2235,-342.875C95.5227,-349.348 117.475,-357.113 136.778,-363.942"/>
<polygon fill="midnightblue" stroke="midnightblue" points="78.3424,-339.558 67.7476,-339.523 76.0079,-346.158 78.3424,-339.558"/>
</g>
<!-- Node8 -->
<g id="node15" class="node"><title>Node8</title>
<a xlink:href="classsrc_1_1interfacebdd_1_1_pickup_d_a_o_1_1_pickup_d_a_o.html" target="_top" xlink:title="src.interfacebdd.PickupDAO.\lPickupDAO">
<polygon fill="white" stroke="black" points="113,-312 113,-346 257,-346 257,-312 113,-312"/>
<text text-anchor="start" x="121" y="-333" font-family="Helvetica,sans-Serif" font-size="10.00">src.interfacebdd.PickupDAO.</text>
<text text-anchor="middle" x="185" y="-320" font-family="Helvetica,sans-Serif" font-size="10.00">PickupDAO</text>
</a>
</g>
<!-- Node1&#45;&gt;Node8 -->
<g id="edge14" class="edge"><title>Node1&#45;&gt;Node8</title>
<path fill="none" stroke="midnightblue" d="M86.0032,-329C94.5667,-329 103.657,-329 112.723,-329"/>
<polygon fill="midnightblue" stroke="midnightblue" points="85.8562,-325.5 75.8562,-329 85.8561,-332.5 85.8562,-325.5"/>
</g>
<!-- Node9 -->
<g id="node17" class="node"><title>Node9</title>
<a xlink:href="classsrc_1_1interfacebdd_1_1_pickup_link_d_a_o_1_1_pickup_link_d_a_o.html" target="_top" xlink:title="src.interfacebdd.PickupLink\lDAO.PickupLinkDAO">
<polygon fill="white" stroke="black" points="116.5,-260 116.5,-294 253.5,-294 253.5,-260 116.5,-260"/>
<text text-anchor="start" x="124.5" y="-281" font-family="Helvetica,sans-Serif" font-size="10.00">src.interfacebdd.PickupLink</text>
<text text-anchor="middle" x="185" y="-268" font-family="Helvetica,sans-Serif" font-size="10.00">DAO.PickupLinkDAO</text>
</a>
</g>
<!-- Node1&#45;&gt;Node9 -->
<g id="edge16" class="edge"><title>Node1&#45;&gt;Node9</title>
<path fill="none" stroke="midnightblue" d="M77.2235,-315.125C95.5227,-308.652 117.475,-300.887 136.778,-294.058"/>
<polygon fill="midnightblue" stroke="midnightblue" points="76.0079,-311.842 67.7476,-318.477 78.3424,-318.442 76.0079,-311.842"/>
</g>
<!-- Node10 -->
<g id="node19" class="node"><title>Node10</title>
<a xlink:href="classsrc_1_1interfacebdd_1_1_position_d_a_o_1_1_position_d_a_o.html" target="_top" xlink:title="src.interfacebdd.Position\lDAO.PositionDAO">
<polygon fill="white" stroke="black" points="122.5,-208 122.5,-242 247.5,-242 247.5,-208 122.5,-208"/>
<text text-anchor="start" x="130.5" y="-229" font-family="Helvetica,sans-Serif" font-size="10.00">src.interfacebdd.Position</text>
<text text-anchor="middle" x="185" y="-216" font-family="Helvetica,sans-Serif" font-size="10.00">DAO.PositionDAO</text>
</a>
</g>
<!-- Node1&#45;&gt;Node10 -->
<g id="edge18" class="edge"><title>Node1&#45;&gt;Node10</title>
<path fill="none" stroke="midnightblue" d="M51.7019,-310.094C65.2587,-292.598 87.4864,-266.953 112,-251 117.074,-247.698 122.62,-244.753 128.315,-242.142"/>
<polygon fill="midnightblue" stroke="midnightblue" points="48.6608,-308.314 45.4367,-318.407 54.2508,-312.527 48.6608,-308.314"/>
</g>
<!-- Node11 -->
<g id="node21" class="node"><title>Node11</title>
<a xlink:href="classsrc_1_1interfacebdd_1_1_qualification_d_a_o_1_1_qualification_d_a_o.html" target="_top" xlink:title="src.interfacebdd.Qualification\lDAO.QualificationDAO">
<polygon fill="white" stroke="black" points="113.5,-156 113.5,-190 256.5,-190 256.5,-156 113.5,-156"/>
<text text-anchor="start" x="121.5" y="-177" font-family="Helvetica,sans-Serif" font-size="10.00">src.interfacebdd.Qualification</text>
<text text-anchor="middle" x="185" y="-164" font-family="Helvetica,sans-Serif" font-size="10.00">DAO.QualificationDAO</text>
</a>
</g>
<!-- Node1&#45;&gt;Node11 -->
<g id="edge20" class="edge"><title>Node1&#45;&gt;Node11</title>
<path fill="none" stroke="midnightblue" d="M44.5184,-308.531C54.5812,-280.081 76.5309,-228.738 112,-199 116.021,-195.629 120.511,-192.682 125.233,-190.107"/>
<polygon fill="midnightblue" stroke="midnightblue" points="41.1295,-307.627 41.2404,-318.221 47.7604,-309.87 41.1295,-307.627"/>
</g>
<!-- Node12 -->
<g id="node23" class="node"><title>Node12</title>
<a xlink:href="classsrc_1_1interfacebdd_1_1_shuttle_d_a_o_1_1_shuttle_d_a_o.html" target="_top" xlink:title="src.interfacebdd.Shuttle\lDAO.ShuttleDAO">
<polygon fill="white" stroke="black" points="125,-104 125,-138 245,-138 245,-104 125,-104"/>
<text text-anchor="start" x="133" y="-125" font-family="Helvetica,sans-Serif" font-size="10.00">src.interfacebdd.Shuttle</text>
<text text-anchor="middle" x="185" y="-112" font-family="Helvetica,sans-Serif" font-size="10.00">DAO.ShuttleDAO</text>
</a>
</g>
<!-- Node1&#45;&gt;Node12 -->
<g id="edge22" class="edge"><title>Node1&#45;&gt;Node12</title>
<path fill="none" stroke="midnightblue" d="M40.8524,-308.066C47.035,-270.615 65.0997,-191.88 112,-147 115.791,-143.372 120.121,-140.247 124.738,-137.554"/>
<polygon fill="midnightblue" stroke="midnightblue" points="37.3424,-307.867 39.2964,-318.28 44.2626,-308.921 37.3424,-307.867"/>
</g>
<!-- Node13 -->
<g id="node25" class="node"><title>Node13</title>
<a xlink:href="classsrc_1_1interfacebdd_1_1_site_d_a_o_1_1_site_d_a_o.html" target="_top" xlink:title="src.interfacebdd.SiteDAO.\lSiteDAO">
<polygon fill="white" stroke="black" points="119.5,-52 119.5,-86 250.5,-86 250.5,-52 119.5,-52"/>
<text text-anchor="start" x="127.5" y="-73" font-family="Helvetica,sans-Serif" font-size="10.00">src.interfacebdd.SiteDAO.</text>
<text text-anchor="middle" x="185" y="-60" font-family="Helvetica,sans-Serif" font-size="10.00">SiteDAO</text>
</a>
</g>
<!-- Node1&#45;&gt;Node13 -->
<g id="edge24" class="edge"><title>Node1&#45;&gt;Node13</title>
<path fill="none" stroke="midnightblue" d="M42.0362,-308.552C52.4768,-257.526 81.6829,-126.424 112,-95 115.269,-91.6113 119.009,-88.6631 123.03,-86.0985"/>
<polygon fill="midnightblue" stroke="midnightblue" points="38.5921,-307.926 40.048,-318.42 45.4542,-309.309 38.5921,-307.926"/>
</g>
<!-- Node14 -->
<g id="node27" class="node"><title>Node14</title>
<a xlink:href="classsrc_1_1interfacebdd_1_1_worker_d_a_o_1_1_worker_d_a_o.html" target="_top" xlink:title="src.interfacebdd.WorkerDAO.\lWorkerDAO">
<polygon fill="white" stroke="black" points="112,-0 112,-34 258,-34 258,-0 112,-0"/>
<text text-anchor="start" x="120" y="-21" font-family="Helvetica,sans-Serif" font-size="10.00">src.interfacebdd.WorkerDAO.</text>
<text text-anchor="middle" x="185" y="-8" font-family="Helvetica,sans-Serif" font-size="10.00">WorkerDAO</text>
</a>
</g>
<!-- Node1&#45;&gt;Node14 -->
<g id="edge26" class="edge"><title>Node1&#45;&gt;Node14</title>
<path fill="none" stroke="midnightblue" d="M40.7922,-308.438C49.1499,-249.682 75.6573,-82.7289 112,-43 115.087,-39.6249 118.642,-36.6878 122.486,-34.1317"/>
<polygon fill="midnightblue" stroke="midnightblue" points="37.3196,-307.999 39.4047,-318.387 44.2525,-308.966 37.3196,-307.999"/>
</g>
</g>
</svg>
